<svg width="35" height="26" viewBox="0 0 35 26" fill="none" xmlns="http://www.w3.org/2000/svg">
<path d="M8.07975 26C5.72928 26 3.79503 25.2121 2.27702 23.6364C0.759007 22.0364 0 19.9152 0 17.2727C0 15.2121 0.47744 13.1758 1.43232 11.1636C2.41168 9.15152 3.86848 7.21212 5.80273 5.34546C7.76145 3.45455 10.2099 1.67273 13.148 0L16.7104 4.94546C14.5803 5.81818 12.6705 6.95758 10.9811 8.36364C9.31619 9.74546 8.10423 11.1273 7.34523 12.5091C8.81427 12.4364 10.1487 12.6545 11.3484 13.1636C12.5481 13.6727 13.503 14.4242 14.213 15.4182C14.9475 16.4121 15.3148 17.6 15.3148 18.9818C15.3148 21.0909 14.6415 22.7879 13.2949 24.0727C11.9482 25.3576 10.2099 26 8.07975 26ZM26.3694 26C24.0189 26 22.0846 25.2121 20.5666 23.6364C19.0486 22.0364 18.2896 19.9152 18.2896 17.2727C18.2896 15.2121 18.767 13.1758 19.7219 11.1636C20.7013 9.15152 22.1581 7.21212 24.0923 5.34546C26.0511 3.45455 28.4995 1.67273 31.4376 0L35 4.94546C32.8699 5.81818 30.9601 6.95758 29.2707 8.36364C27.6058 9.74546 26.3938 11.1273 25.6348 12.5091C27.1039 12.4364 28.4383 12.6545 29.638 13.1636C30.8377 13.6727 31.7926 14.4242 32.5026 15.4182C33.2371 16.4121 33.6044 17.6 33.6044 18.9818C33.6044 21.0909 32.9311 22.7879 31.5845 24.0727C30.2378 25.3576 28.4995 26 26.3694 26Z" fill="#212844"/>
</svg>
