<svg width="40" height="40" viewBox="0 0 40 40" fill="none" xmlns="http://www.w3.org/2000/svg">
<g clip-path="url(#clip0_1_4078)">
<path d="M36.6666 0H3.33336C1.46664 0 0 1.46664 0 3.33336V36.6667C0 38.5334 1.46664 40 3.33336 40H18.6667H26.6667H36.6667C38.5334 40 40 38.5334 40 36.6666V3.33336C40 1.46664 38.5334 0 36.6666 0ZM20 38.6666V25.3334H14.6666V20H20V15.3334C20 11.5334 22.9334 8.33336 26.6666 8H32.6666V13.3334H27.3333C26.1999 13.3334 25.3333 14.2 25.3333 15.3334V20H32V25.3334H25.3334V38.6667L20 38.6666ZM38.6666 36.6666C38.6666 37.8 37.8 38.6666 36.6666 38.6666H26.6666V26.6666H33.3333V18.6666H26.6666V15.3333C26.6666 14.9333 26.9333 14.6666 27.3333 14.6666H34V6.66664H26.6C22.1334 7.06664 18.6666 10.8666 18.6666 15.3333V18.6666H13.3333V26.6666H18.6666V38.6666H3.33336C2.2 38.6666 1.33336 37.8 1.33336 36.6666V3.33336C1.33336 2.2 2.2 1.33336 3.33336 1.33336H36.6667C37.8001 1.33336 38.6667 2.2 38.6667 3.33336L38.6666 36.6666Z" fill="black"/>
</g>
<defs>
<clipPath id="clip0_1_4078">
<rect width="40" height="40" fill="white"/>
</clipPath>
</defs>
</svg>
