<svg width="24" height="24" viewBox="0 0 24 24" fill="none" xmlns="http://www.w3.org/2000/svg">
<g clip-path="url(#clip0_1_3279)">
<path d="M12.1855 24H12.1786C8.5978 23.9757 5.84502 22.7952 3.99543 20.49C2.34895 18.439 1.50018 15.5851 1.47168 12.0087V11.9913C1.50023 8.41402 2.34895 5.56092 3.99543 3.50995C5.84413 1.20483 8.5978 0.0241875 12.1777 0H12.1916C14.9366 0.0181406 17.233 0.724266 19.0178 2.09681C20.6954 3.38723 21.8761 5.22647 22.5277 7.56441L20.488 8.13314C19.3843 4.17375 16.5909 2.14955 12.1847 2.11758C9.27543 2.1383 7.07577 3.05273 5.64538 4.83497C4.3057 6.50395 3.6134 8.9145 3.58832 11.9992C3.61424 15.0847 4.30654 17.4953 5.64538 19.1634C7.07582 20.9455 9.27543 21.8599 12.1847 21.8807C14.8069 21.8617 16.5425 21.2507 17.9859 19.8367C19.6333 18.2229 19.603 16.2437 19.0758 15.0398C18.7655 14.3302 18.2019 13.739 17.4422 13.2913C17.2513 14.6414 16.8216 15.7373 16.1579 16.5627C15.2728 17.6647 14.0179 18.2671 12.4292 18.3526C11.227 18.4174 10.0688 18.1332 9.16996 17.5515C8.10684 16.8635 7.48457 15.8107 7.41801 14.5869C7.35318 13.3968 7.82512 12.3025 8.74645 11.5056C9.62718 10.7442 10.8657 10.2974 12.329 10.2152C13.4076 10.1547 14.4162 10.2023 15.3488 10.3578C15.2252 9.61537 14.9746 9.02681 14.6012 8.60156C14.0878 8.01642 13.2935 7.71741 12.2417 7.71047H12.2123C11.3679 7.71047 10.2209 7.94208 9.48974 9.02939L7.73263 7.84791C8.71101 6.39328 10.3005 5.59294 12.2114 5.59294H12.2547C15.45 5.61281 17.3524 7.56698 17.5416 10.9801C17.6504 11.026 17.7569 11.0734 17.8623 11.1227C19.3532 11.8237 20.4431 12.8851 21.0152 14.1919C21.8121 16.0138 21.8856 18.9828 19.4664 21.3509C17.6185 23.1607 15.3748 23.9775 12.1916 23.9992H12.1847L12.1855 24ZM13.1881 12.3085C12.9461 12.3085 12.7006 12.3154 12.4499 12.3301C10.6133 12.4339 9.46898 13.2749 9.5338 14.4728C9.6021 15.7277 10.9867 16.3111 12.3169 16.2394C13.5416 16.1737 15.1354 15.6975 15.4024 12.5289C14.7265 12.3846 13.9833 12.3085 13.1881 12.3085H13.1881Z" fill="white"/>
</g>
<defs>
<clipPath id="clip0_1_3279">
<rect width="24" height="24" fill="white"/>
</clipPath>
</defs>
</svg>
