<svg width="40" height="40" viewBox="0 0 40 40" fill="none" xmlns="http://www.w3.org/2000/svg">
<g clip-path="url(#clip0_1_4061)">
<path d="M0 40L2.30565 28.6609C0.954335 25.9264 0.257722 22.9144 0.271925 19.864C0.271925 8.91533 9.18725 0 20.136 0C31.085 0 40 8.91533 40 19.864C40 30.8127 31.085 39.7281 20.136 39.7281C17.0887 39.7367 14.0809 39.0363 11.3509 37.6826L0 40ZM11.6228 35.6963L11.9183 35.8497C14.4581 37.163 17.2771 37.8443 20.136 37.8364C30.0444 37.8364 38.1083 29.7725 38.1083 19.864C38.1083 9.95557 30.0444 1.8917 20.136 1.8917C10.2275 1.8917 2.16362 9.95557 2.16362 19.864C2.15565 22.7232 2.83703 25.5419 4.15023 28.0817L4.30403 28.3772L2.42377 37.5762L11.6228 35.6963Z" fill="black"/>
<path d="M25.7405 31.2148H24.8654C15.9976 31.2148 8.78516 24.0024 8.78516 15.1345V14.2595C8.78377 12.7544 9.38409 11.3113 10.4524 10.2513L11.2328 9.47083C12.4504 8.25289 14.5787 8.25289 15.7967 9.47083L18.2443 11.9064C18.8519 12.5102 19.1924 13.3318 19.19 14.1885C19.1872 15.0441 18.8474 15.864 18.2443 16.4706L18.0195 16.695C17.5564 17.1596 17.2969 17.789 17.2983 18.445C17.3007 19.1001 17.5598 19.7285 18.0195 20.1951L19.7931 21.9686C20.7156 22.8908 22.3707 22.8908 23.3049 21.9686L23.5294 21.7438C24.7473 20.5259 26.8756 20.5259 28.0936 21.7438L30.5409 24.2033C31.8011 25.4638 31.8011 27.5069 30.5409 28.7671L29.7608 29.5475C28.6977 30.619 27.2497 31.2193 25.7405 31.2148ZM13.5146 10.4047C13.1602 10.4044 12.8197 10.5447 12.5689 10.7951L11.7885 11.5756C11.0763 12.2822 10.6762 13.2442 10.6769 14.2477V15.1345C10.6834 22.9677 17.0323 29.3165 24.8654 29.3231H25.7405C26.744 29.3238 27.7059 28.9237 28.4126 28.2115L29.193 27.431C29.4445 27.1806 29.5855 26.8401 29.5855 26.4854C29.5855 26.1303 29.4445 25.7901 29.193 25.5393L26.7575 23.0917C26.2278 22.5873 25.3954 22.5873 24.8654 23.0917L24.641 23.3165C22.9329 25.0229 20.1651 25.0229 18.457 23.3165L16.6835 21.5429C15.8659 20.7192 15.4066 19.6058 15.4066 18.445C15.4049 17.2874 15.8642 16.1768 16.6835 15.359L16.9083 15.1345C17.1573 14.8827 17.2976 14.5428 17.2983 14.1885C17.299 13.8338 17.1587 13.4936 16.9083 13.2424L14.4606 10.7951C14.2095 10.5447 13.8693 10.4044 13.5146 10.4047Z" fill="black"/>
</g>
<defs>
<clipPath id="clip0_1_4061">
<rect width="40" height="40" fill="white"/>
</clipPath>
</defs>
</svg>
