<svg width="24" height="24" viewBox="0 0 24 24" fill="none" xmlns="http://www.w3.org/2000/svg">
<g clip-path="url(#clip0_1_3283)">
<path d="M21.75 23.625H2.25C1.2 23.625 0.375 22.8 0.375 21.75V2.25C0.375 1.2 1.2 0.375 2.25 0.375H21.75C22.8 0.375 23.625 1.2 23.625 2.25V21.75C23.625 22.8 22.8 23.625 21.75 23.625ZM2.25 1.125C1.6125 1.125 1.125 1.6125 1.125 2.25V21.75C1.125 22.3875 1.6125 22.875 2.25 22.875H21.75C22.3875 22.875 22.875 22.3875 22.875 21.75V2.25C22.875 1.6125 22.3875 1.125 21.75 1.125H2.25ZM19.5 19.875H16.8375C16.6125 19.875 16.4625 19.725 16.4625 19.5V14.325C16.4625 12.9375 16.3875 12.4875 16.3125 12.3375C16.2375 12.075 16.0875 11.8875 15.9 11.775C15.7125 11.625 15.4875 11.5875 15.225 11.5875C14.85 11.5875 14.5125 11.7 14.25 11.8875C13.95 12.1125 13.7625 12.375 13.65 12.7125C13.575 12.975 13.4625 13.575 13.4625 14.925V19.5C13.4625 19.725 13.3125 19.875 13.0875 19.875H9.8625C9.6375 19.875 9.4875 19.725 9.4875 19.5V9.15C9.4875 8.925 9.6375 8.775 9.8625 8.775H12.525C12.75 8.775 12.9 8.925 12.9 9.15V9.7125C13.7625 8.925 14.775 8.55 15.975 8.55C16.65 8.55 17.25 8.6625 17.8125 8.925C18.375 9.15 18.825 9.4875 19.125 9.8625C19.425 10.2375 19.6125 10.6875 19.725 11.1375C19.8375 11.5875 19.875 12.225 19.875 13.05V19.5C19.875 19.725 19.725 19.875 19.5 19.875ZM17.2125 19.125H19.125V13.0875C19.125 12.3375 19.0875 11.7375 18.975 11.325C18.9 10.95 18.7125 10.6125 18.4875 10.3125C18.2625 10.0125 17.925 9.7875 17.475 9.6C17.025 9.4125 16.5 9.3 15.9375 9.3C14.6625 9.3 13.6125 9.825 12.7875 10.9125C12.675 11.025 12.525 11.1 12.375 11.025C12.225 10.9875 12.1125 10.8375 12.1125 10.6875V9.525H10.2V19.125H12.675V14.925C12.675 13.725 12.75 12.9375 12.9 12.4875C13.05 12 13.35 11.5875 13.7625 11.2875C14.175 10.9875 14.6625 10.8375 15.1875 10.8375C15.6 10.8375 15.975 10.95 16.3125 11.175C16.6125 11.4 16.8375 11.7 16.9875 12.1125C17.0625 12.3375 17.175 12.825 17.175 14.3625V19.125H17.2125ZM7.1625 19.875H4.5C4.275 19.875 4.125 19.725 4.125 19.5V9.15C4.125 8.925 4.275 8.775 4.5 8.775H7.1625C7.3875 8.775 7.5375 8.925 7.5375 9.15V19.5C7.5375 19.725 7.3875 19.875 7.1625 19.875ZM4.875 19.125H6.7875V9.525H4.875V19.125ZM5.85 7.4625C4.9125 7.4625 4.125 6.7125 4.125 5.8125C4.125 4.9125 4.9125 4.1625 5.85 4.1625C6.7875 4.1625 7.575 4.9125 7.575 5.8125C7.575 6.7125 6.7875 7.4625 5.85 7.4625ZM5.85 4.875C5.325 4.875 4.875 5.2875 4.875 5.775C4.875 6.2625 5.325 6.675 5.85 6.675C6.375 6.675 6.825 6.2625 6.825 5.775C6.825 5.2875 6.375 4.875 5.85 4.875Z" fill="white"/>
</g>
<defs>
<clipPath id="clip0_1_3283">
<rect width="24" height="24" fill="white"/>
</clipPath>
</defs>
</svg>
