<svg xmlns="http://www.w3.org/2000/svg">
    <symbol id="logo" viewBox="0 0 174 46">
        <path d="M121.582 16.7092H124.878L123.594 13.381C123.521 13.2021 123.485 13.0589 123.448 12.9754C123.388 12.7607 123.351 12.6533 123.351 12.6414C123.327 12.546 123.303 12.4744 123.279 12.4028L123.254 12.3193H123.23L123.206 12.4028C123.194 12.4267 123.182 12.4625 123.157 12.5221C123.133 12.5818 123.121 12.6175 123.109 12.6414C123.073 12.7368 123.036 12.8561 123 12.9754C122.951 13.1424 122.903 13.2736 122.867 13.3691L121.594 16.7092H121.582ZM126.102 19.9301L125.217 17.6397H121.207L120.322 19.9301H119.231L122.709 11.1503H123.703L127.168 19.9301H126.09H126.102Z"
              fill="currentColor"/>
        <path d="M130.209 18.9735H134.523V19.9278H129.191V11.1241H130.209V18.9735Z" fill="currentColor"/>
        <path d="M143.09 11.1361H144.047L143.974 19.9517H142.981V16.1224C142.981 15.5737 142.981 15.18 142.993 14.9176C143.005 14.512 143.017 14.1541 143.029 13.8798C143.029 13.7963 143.029 13.665 143.041 13.498C143.041 13.331 143.054 13.2117 143.066 13.1402L143.078 12.8658H143.054L142.993 12.997C142.957 13.0447 142.908 13.164 142.823 13.331C142.799 13.3787 142.763 13.4622 142.714 13.5577C142.666 13.6531 142.629 13.7366 142.605 13.7843C142.557 13.8917 142.472 14.0468 142.375 14.2496L140.509 17.7567H139.976L138.11 14.2496C138.061 14.1541 137.977 13.9871 137.88 13.7724C137.855 13.7247 137.819 13.6412 137.771 13.5457C137.722 13.4503 137.686 13.3668 137.661 13.3191C137.589 13.1402 137.528 13.0328 137.492 12.9851L137.431 12.8539H137.419L137.431 13.1282C137.443 13.1998 137.443 13.3072 137.455 13.4742C137.455 13.6412 137.468 13.7724 137.468 13.8559C137.48 14.178 137.492 14.5239 137.504 14.8818C137.516 15.1442 137.516 15.5379 137.516 16.0866V19.9159H136.522V11.1361H137.48L139.503 14.9295C139.564 15.0369 139.637 15.18 139.721 15.3351C139.806 15.5021 139.867 15.5975 139.891 15.6453C140 15.8481 140.073 16.0031 140.121 16.1105C140.17 16.2417 140.206 16.3252 140.23 16.3729L140.267 16.4445H140.279L140.315 16.3729C140.339 16.3252 140.376 16.2298 140.424 16.1105C140.485 15.9673 140.557 15.8123 140.654 15.6333C140.679 15.5856 140.739 15.4902 140.824 15.3232C140.909 15.1562 140.994 15.0249 141.042 14.9176L143.066 11.1241L143.09 11.1361Z"
              fill="currentColor"/>
        <path d="M148.36 16.7092H151.656L150.372 13.381C150.299 13.2021 150.263 13.0589 150.226 12.9754C150.166 12.7607 150.13 12.6533 150.13 12.6414C150.105 12.546 150.081 12.4744 150.057 12.4028L150.033 12.3193H150.008L149.984 12.4028C149.972 12.4267 149.96 12.4625 149.936 12.5221C149.911 12.5818 149.899 12.6175 149.887 12.6414C149.851 12.7368 149.815 12.8561 149.778 12.9754C149.73 13.1424 149.681 13.2736 149.645 13.3691L148.373 16.7092H148.36ZM152.88 19.9301L151.996 17.6397H147.985L147.1 19.9301H146.01L149.487 11.1503H150.481L153.946 19.9301H152.856H152.88Z"
              fill="currentColor"/>
        <path d="M155.122 11.1241H161.593V12.0785H158.866V19.9278H157.836V12.0785H155.122V11.1241Z"
              fill="currentColor"/>
        <path d="M168.887 11.1361H170.026L166.875 15.7407V19.9397H165.857V15.7407L162.707 11.1361H163.846L165.857 14.0229C165.954 14.1899 166.063 14.3808 166.185 14.5716C166.282 14.7387 166.342 14.8222 166.366 14.8222H166.378C166.391 14.8222 166.451 14.7387 166.56 14.5716C166.584 14.5359 166.633 14.4524 166.706 14.3211C166.778 14.1899 166.839 14.0826 166.887 14.011L168.887 11.1241V11.1361Z"
              fill="currentColor"/>
        <path d="M119.279 24.0827H125.75V25.037H123.023V32.8744H122.006V25.037H119.279V24.0827Z" fill="currentColor"/>
        <path d="M128.247 28.4917V28.5037C128.247 29.0643 128.32 29.5653 128.477 30.0067C128.635 30.4362 128.841 30.806 129.12 31.14C129.386 31.4501 129.713 31.6887 130.077 31.8557C130.428 32.0108 130.84 32.0943 131.301 32.0943C131.737 32.0943 132.149 32.0108 132.524 31.8438C132.888 31.6887 133.215 31.4501 133.482 31.128C133.748 30.806 133.966 30.4242 134.124 29.9948C134.281 29.5653 134.354 29.0643 134.354 28.5037C134.354 27.943 134.281 27.43 134.124 26.9887C133.966 26.5234 133.76 26.1536 133.494 25.8554C133.215 25.5452 132.888 25.3067 132.524 25.1516C132.137 24.9846 131.725 24.9011 131.289 24.9011C130.828 24.9011 130.416 24.9846 130.065 25.1397C129.689 25.2947 129.374 25.5333 129.107 25.8554C128.841 26.1536 128.635 26.5354 128.477 26.9887C128.32 27.43 128.247 27.9311 128.247 28.4917ZM127.205 28.5037V28.5275C127.205 27.8356 127.302 27.2034 127.508 26.6427C127.714 26.0821 127.993 25.6049 128.356 25.1993C128.708 24.8056 129.132 24.4955 129.641 24.2808C130.15 24.066 130.695 23.9587 131.276 23.9587C131.858 23.9587 132.403 24.066 132.924 24.2808C133.433 24.4955 133.869 24.7937 134.245 25.1993C134.633 25.6049 134.911 26.094 135.117 26.6427C135.323 27.2034 135.42 27.8356 135.42 28.5275C135.42 29.2194 135.323 29.8516 135.117 30.4123C134.924 30.961 134.633 31.4501 134.245 31.8557C133.882 32.2494 133.445 32.5595 132.949 32.7743C132.452 32.9771 131.906 33.0725 131.313 33.0725C130.743 33.0725 130.198 32.9651 129.677 32.7623C129.18 32.5476 128.744 32.2375 128.38 31.8319C128.017 31.4382 127.726 30.961 127.52 30.3884C127.314 29.8278 127.217 29.1955 127.217 28.5037H127.205Z"
              fill="currentColor"/>
        <path d="M143.113 24.0827H144.143L144.131 29.5104C144.131 30.6675 143.84 31.5503 143.247 32.1468C142.665 32.7432 141.841 33.0414 140.787 33.0414C139.721 33.0414 138.909 32.7432 138.339 32.1468C137.758 31.5384 137.467 30.6556 137.467 29.5104V24.0827H138.497V29.5343C138.497 31.2521 139.26 32.111 140.799 32.111C142.338 32.111 143.113 31.2521 143.113 29.5343V24.0827Z"
              fill="currentColor"/>
        <path d="M147.803 28.7026H149.293H149.281C149.948 28.7026 150.456 28.5356 150.796 28.1897C151.147 27.8438 151.317 27.4024 151.317 26.8656C151.317 26.3049 151.135 25.8635 150.784 25.5295C150.42 25.2074 149.923 25.0404 149.293 25.0404H147.803V28.6907V28.7026ZM152.662 32.8898H151.498L149.657 29.6212C149.608 29.6331 149.548 29.6331 149.439 29.6331H149.196H147.779V32.9017H146.761V24.1219H149.196C149.681 24.1219 150.117 24.1815 150.505 24.3128C150.893 24.432 151.22 24.611 151.511 24.8615C151.801 25.1001 152.007 25.3983 152.153 25.7323C152.298 26.0902 152.371 26.46 152.371 26.8775C152.371 27.4978 152.213 28.0227 151.91 28.4521C151.595 28.8935 151.171 29.2037 150.638 29.3826L152.65 32.9017L152.662 32.8898Z"
              fill="currentColor"/>
        <path d="M155.97 32.8744H154.94V24.0827H155.97V32.8744Z" fill="currentColor"/>
        <path d="M164.173 26.1752L163.204 26.4377L163.131 26.4615C163.034 25.9366 162.792 25.543 162.428 25.2567C162.065 24.9704 161.616 24.8272 161.083 24.8272C160.55 24.8272 160.126 24.9585 159.799 25.209C159.472 25.4595 159.302 25.8054 159.302 26.2229C159.302 26.4496 159.363 26.6524 159.496 26.8313C159.629 27.0103 159.799 27.1653 160.005 27.2846C160.186 27.392 160.429 27.5113 160.732 27.6425C160.914 27.7141 161.18 27.8214 161.531 27.9527C161.871 28.0839 162.174 28.2151 162.452 28.3463C162.755 28.4895 163.046 28.6684 163.313 28.8712C163.579 29.0859 163.785 29.3245 163.955 29.5869C164.125 29.8732 164.209 30.2072 164.209 30.589C164.209 30.9349 164.137 31.2689 163.991 31.5791C163.858 31.8773 163.652 32.1398 163.385 32.3664C163.119 32.605 162.804 32.772 162.44 32.8794C162.077 33.0106 161.665 33.0702 161.216 33.0702C160.768 33.0702 160.356 33.0106 160.005 32.8794C159.665 32.772 159.35 32.5931 159.072 32.3664C158.805 32.1398 158.587 31.8773 158.417 31.5791C158.26 31.2809 158.139 30.9468 158.078 30.577L159.06 30.3146C159.096 30.577 159.169 30.8156 159.29 31.0423C159.411 31.2689 159.556 31.4598 159.738 31.6387C159.908 31.7938 160.126 31.925 160.392 32.0324C160.647 32.1278 160.938 32.1875 161.265 32.1875C161.556 32.1875 161.822 32.1517 162.065 32.0801C162.307 32.0085 162.501 31.9012 162.683 31.758C162.84 31.6268 162.973 31.4598 163.07 31.2689C163.167 31.0661 163.216 30.8633 163.216 30.6367C163.216 30.3385 163.143 30.0999 162.986 29.8971C162.828 29.6824 162.634 29.5154 162.404 29.3722C162.186 29.2291 161.919 29.0978 161.604 28.9786C161.41 28.907 161.119 28.7877 160.72 28.6087C160.647 28.573 160.526 28.5133 160.344 28.4417C160.162 28.3582 160.017 28.2986 159.92 28.2628C159.629 28.1316 159.375 27.9765 159.157 27.7976C158.914 27.6067 158.732 27.392 158.587 27.1415C158.43 26.891 158.357 26.5927 158.357 26.2349C158.357 25.9128 158.43 25.6146 158.575 25.3283C158.708 25.0658 158.914 24.8272 159.181 24.6125C159.435 24.4097 159.738 24.2427 160.09 24.1234C160.441 23.9922 160.817 23.9326 161.241 23.9326C161.628 23.9326 161.992 23.9922 162.307 24.0996C162.646 24.2189 162.937 24.3739 163.191 24.5648C163.446 24.7676 163.664 25.0062 163.846 25.2805C164.028 25.5549 164.149 25.8651 164.234 26.1991L164.173 26.1752Z"
              fill="currentColor"/>
        <path d="M173.043 24.0827H174L173.928 32.8983H172.934V29.0691C172.934 28.5203 172.934 28.1267 172.946 27.8642C172.958 27.4586 172.97 27.1008 172.982 26.8264C172.982 26.7429 172.982 26.6117 172.995 26.4447C172.995 26.2777 173.007 26.1584 173.019 26.0987L173.031 25.8243H173.007L172.946 25.9556C172.91 26.0033 172.861 26.1226 172.776 26.2896C172.752 26.3373 172.716 26.4208 172.667 26.5162C172.619 26.6117 172.583 26.6952 172.558 26.7429C172.51 26.8502 172.425 27.0053 172.328 27.2081L170.462 30.7153H169.929L168.063 27.2081C168.014 27.1127 167.93 26.9457 167.833 26.731C167.808 26.6832 167.772 26.5997 167.724 26.5043C167.675 26.4089 167.639 26.3254 167.615 26.2777C167.542 26.0987 167.481 25.9914 167.445 25.9436L167.384 25.8124H167.372L167.384 26.0868C167.396 26.1584 167.396 26.2657 167.409 26.4327C167.409 26.5997 167.421 26.731 167.421 26.8145C167.433 27.1365 167.445 27.4825 167.457 27.8404C167.469 28.1028 167.469 28.4965 167.469 29.0452V32.8744H166.476V24.0946H167.433L169.456 27.8881C169.517 27.9954 169.59 28.1386 169.674 28.2937C169.759 28.4607 169.82 28.5561 169.844 28.6038C169.953 28.8066 170.026 28.9617 170.074 29.0691C170.123 29.2003 170.159 29.2838 170.183 29.3315L170.22 29.4031H170.232L170.268 29.3315C170.292 29.2838 170.329 29.1883 170.377 29.0691C170.438 28.9259 170.511 28.7708 170.607 28.5919C170.632 28.5442 170.692 28.4487 170.777 28.2817C170.862 28.1147 170.947 27.9835 170.995 27.8761L173.019 24.0827H173.043Z"
              fill="currentColor"/>
        <path d="M121.145 44.9656H123.169L123.157 44.9775C123.702 44.9775 124.15 44.8224 124.514 44.5242C124.865 44.226 125.047 43.7965 125.047 43.2597C125.047 43.0092 124.998 42.7706 124.889 42.5559C124.792 42.3412 124.647 42.1503 124.465 42.0071C124.296 41.864 124.09 41.7447 123.847 41.6493C123.629 41.5658 123.375 41.5181 123.108 41.5181H121.133V44.9656H121.145ZM121.133 40.7069H122.902V40.7188C123.144 40.7188 123.363 40.683 123.569 40.6114C123.787 40.5399 123.956 40.4325 124.09 40.3132C124.235 40.182 124.344 40.0389 124.417 39.8718C124.489 39.7048 124.526 39.5259 124.526 39.347C124.526 38.9175 124.38 38.5835 124.077 38.333C123.787 38.0825 123.387 37.9513 122.866 37.9513H121.121V40.7188L121.133 40.7069ZM120.115 37.0804H123.023L123.035 37.1282C123.423 37.1282 123.762 37.1759 124.065 37.2832C124.368 37.3787 124.635 37.5337 124.853 37.7246C125.071 37.9155 125.241 38.1421 125.35 38.4046C125.471 38.6789 125.532 38.9652 125.532 39.2754C125.532 39.5259 125.483 39.7526 125.398 39.9553C125.313 40.1701 125.192 40.349 125.059 40.4922C124.926 40.6472 124.768 40.7665 124.599 40.8739C124.429 40.9693 124.259 41.0409 124.102 41.0648V41.0767C124.32 41.1005 124.526 41.1721 124.744 41.2795C124.974 41.3868 125.192 41.5419 125.398 41.7328C125.604 41.9236 125.774 42.1503 125.895 42.4127C126.028 42.6752 126.089 42.9734 126.089 43.3193C126.089 44.1186 125.834 44.7389 125.326 45.2041C124.829 45.6574 124.126 45.8841 123.205 45.8841H120.115V37.1043V37.0804Z"
              fill="currentColor"/>
        <path d="M133.76 37.0413H134.79L134.778 42.469C134.778 43.6261 134.487 44.5089 133.893 45.1053C133.311 45.7018 132.488 46 131.433 46C130.367 46 129.555 45.7018 128.986 45.1053C128.404 44.4969 128.113 43.6142 128.113 42.469V37.0413H129.143V42.4928C129.143 44.2106 129.907 45.0695 131.445 45.0695C132.984 45.0695 133.76 44.2106 133.76 42.4928V37.0413Z"
              fill="currentColor"/>
        <path d="M138.448 41.6612H139.939H139.927C140.593 41.6612 141.102 41.4942 141.441 41.1483C141.793 40.8023 141.962 40.3609 141.962 39.8241C141.962 39.2635 141.78 38.8221 141.429 38.4881C141.078 38.166 140.569 37.999 139.939 37.999H138.448V41.6612ZM143.307 45.8483H142.144L140.302 42.5797C140.254 42.5917 140.193 42.5917 140.084 42.5917H139.842H138.424V45.8602H137.406V37.0804H139.842C140.326 37.0804 140.763 37.1401 141.15 37.2713C141.538 37.3906 141.865 37.5695 142.156 37.82C142.447 38.0586 142.653 38.3569 142.798 38.6909C142.944 39.0368 143.016 39.4185 143.016 39.8361C143.016 40.4564 142.859 40.9812 142.556 41.4107C142.241 41.8521 141.817 42.1622 141.284 42.3412L143.295 45.8602L143.307 45.8483Z"
              fill="currentColor"/>
        <path d="M146.603 44.8787H151.05V45.833H145.585V37.0413H150.977V37.9956H146.603V40.7273H150.068V41.6459H146.603V44.8787Z"
              fill="currentColor"/>
        <path d="M154.952 42.6263H158.248L156.964 39.2981C156.891 39.1192 156.855 38.976 156.818 38.8925C156.758 38.6778 156.721 38.5704 156.721 38.5585C156.697 38.4631 156.673 38.3915 156.649 38.3199L156.624 38.2364H156.6L156.576 38.3199C156.564 38.3438 156.552 38.3796 156.527 38.4392C156.503 38.4989 156.491 38.5347 156.479 38.5585C156.443 38.6539 156.406 38.7732 156.37 38.8925C156.321 39.0595 156.273 39.1908 156.237 39.2862L154.964 42.6263H154.952ZM159.472 45.8472L158.587 43.5568H154.577L153.692 45.8472H152.602L156.079 37.0674H157.073L160.538 45.8472H159.46H159.472Z"
              fill="currentColor"/>
        <path d="M167.99 37.0413H169.02L169.008 42.469C169.008 43.6261 168.717 44.5089 168.124 45.1053C167.542 45.7018 166.718 46 165.664 46C164.598 46 163.786 45.7018 163.216 45.1053C162.635 44.4969 162.344 43.6142 162.344 42.469V37.0413H163.374V42.4928C163.374 44.2106 164.137 45.0695 165.676 45.0695C167.215 45.0695 167.99 44.2106 167.99 42.4928V37.0413Z"
              fill="currentColor"/>
        <path d="M46.6989 0C54.0418 7.22901 59.2885 15.7225 62.4389 24.7528L40.8828 45.9746H0L46.6989 0Z"
              fill="currentColor"/>
        <path d="M46.6989 0C54.0418 7.22901 59.2885 15.7225 62.4389 24.7528L40.8828 45.9746H0L46.6989 0Z"
              fill="currentColor"/>
        <path d="M87.5818 0C100.474 12.6925 106.933 29.3336 106.933 45.9746H66.0499C66.0499 38.8052 64.8503 31.624 62.4512 24.7528L87.5939 0H87.5818Z"
              fill="currentColor"/>
        <path d="M87.5818 0C100.474 12.6925 106.933 29.3336 106.933 45.9746H66.0499C66.0499 38.8052 64.8503 31.624 62.4512 24.7528L87.5939 0H87.5818Z"
              fill="currentColor"/>
    </symbol>
</svg>
