<svg width="35" height="26" viewBox="0 0 35 26" fill="none" xmlns="http://www.w3.org/2000/svg">
<path d="M3.56243 26L0 21.0909C2.13012 20.1697 4.02763 19.0182 5.69255 17.6364C7.38195 16.2545 8.60616 14.8727 9.36516 13.4909C7.9206 13.5636 6.58622 13.3455 5.36201 12.8364C4.16229 12.3273 3.19517 11.5758 2.46065 10.5818C1.75061 9.58788 1.39559 8.41212 1.39559 7.05455C1.39559 4.94546 2.06891 3.24849 3.41553 1.96364C4.78664 0.654546 6.52501 0 8.63064 0C11.0056 0 12.9398 0.800001 14.4334 2.4C15.9514 3.97576 16.7104 6.08485 16.7104 8.72727C16.7104 10.7879 16.2207 12.8242 15.2413 14.8364C14.2865 16.8485 12.8419 18.8 10.9077 20.6909C8.97342 22.5576 6.52501 24.3273 3.56243 26ZM21.852 26L18.2896 21.0909C20.4197 20.1697 22.3172 19.0182 23.9822 17.6364C25.6716 16.2545 26.8958 14.8727 27.6548 13.4909C26.2102 13.5636 24.8758 13.3455 23.6516 12.8364C22.4519 12.3273 21.4848 11.5758 20.7503 10.5818C20.0402 9.58788 19.6852 8.41212 19.6852 7.05455C19.6852 4.94546 20.3585 3.24849 21.7051 1.96364C23.0763 0.654546 24.8146 0 26.9202 0C29.2952 0 31.2295 0.800001 32.723 2.4C34.241 3.97576 35 6.08485 35 8.72727C35 10.7879 34.5103 12.8242 33.531 14.8364C32.5761 16.8485 31.1315 18.8 29.1973 20.6909C27.263 22.5576 24.8146 24.3273 21.852 26Z" fill="#212844"/>
</svg>
