<?xml version="1.0" standalone="no"?>
<!DOCTYPE svg PUBLIC "-//W3C//DTD SVG 1.1//EN" "http://www.w3.org/Graphics/SVG/1.1/DTD/svg11.dtd" >
<svg xmlns="http://www.w3.org/2000/svg" xmlns:xlink="http://www.w3.org/1999/xlink" version="1.1">
<metadata>
Created by FontForge 20230101 at Wed Jun  1 23:44:39 2016
 By Unknown
Copyright (c) Autodesk, Inc. 2015. All rights reserved.
</metadata>
<defs>
<font id="ArtifaktElement-Bold" horiz-adv-x="600" >
  <font-face 
    font-family="Artifakt Element"
    font-weight="700"
    font-stretch="normal"
    units-per-em="1000"
    panose-1="2 11 8 3 5 0 0 2 0 4"
    ascent="780"
    descent="-220"
    x-height="532"
    cap-height="700"
    bbox="-586 -350 1268 1050"
    underline-thickness="50"
    underline-position="-200"
    unicode-range="U+000D-1F5D8"
  />
<missing-glyph horiz-adv-x="666" 
d="M123 740h420v-940h-420v940zM332.5 155.5q7.5 6.5 7.5 17.5v45q50 7 72.5 36t22.5 82q0 51 -25.5 83t-85.5 32q-34 0 -63.5 -10t-29.5 -29q0 -10 6.5 -16.5t17.5 -6.5q5 0 13 3q23 11 52 11q35 0 48 -18t13 -51q0 -41 -19 -57.5t-72 -19.5v-84q0 -11 7.5 -17.5t17.5 -6.5
t17.5 6.5zM340 58.5q10 10.5 10 26.5q0 15 -10 25t-25 10t-25 -10t-10 -25q0 -16 10 -26.5t25 -10.5t25 10.5z" />
    <glyph glyph-name="fi" unicode="fi" horiz-adv-x="651" 
d="M566 0h-124v440h-209v-440h-124v440h-71v92h71v26q0 195 248 195q85 0 178 -35l-31 -86q-80 29 -147 29q-72 0 -98 -25.5t-26 -69.5v-34h333v-532z" />
    <glyph glyph-name="fl" unicode="fl" horiz-adv-x="688" 
d="M650 0q-37 -13 -71 -13q-57 0 -90 30.5t-33 88.5v546q-91 9 -124 9q-51 0 -75 -20.5t-24 -74.5v-34h127v-92h-127v-441h-124v441h-71v92h71v24q0 102 52.5 149.5t153.5 47.5q59 0 147 -13h118v-616q0 -22 8 -31.5t28 -9.5q5 0 21 2z" />
    <glyph glyph-name=".notdef" horiz-adv-x="666" 
d="M123 740h420v-940h-420v940zM332.5 155.5q7.5 6.5 7.5 17.5v45q50 7 72.5 36t22.5 82q0 51 -25.5 83t-85.5 32q-34 0 -63.5 -10t-29.5 -29q0 -10 6.5 -16.5t17.5 -6.5q5 0 13 3q23 11 52 11q35 0 48 -18t13 -51q0 -41 -19 -57.5t-72 -19.5v-84q0 -11 7.5 -17.5t17.5 -6.5
t17.5 6.5zM340 58.5q10 10.5 10 26.5q0 15 -10 25t-25 10t-25 -10t-10 -25q0 -16 10 -26.5t25 -10.5t25 10.5z" />
    <glyph glyph-name=".null" horiz-adv-x="0" 
 />
    <glyph glyph-name="nonmarkingreturn" unicode="&#xd;" horiz-adv-x="258" 
 />
    <glyph glyph-name="space" unicode=" " horiz-adv-x="258" 
 />
    <glyph glyph-name="exclam" unicode="!" horiz-adv-x="313" 
d="M223 700l-16 -461h-100l-16 461h132zM101 10q-23 23 -23 56q0 32 23 55.5t56 23.5t55.5 -23t22.5 -56t-22.5 -56t-55.5 -23t-56 23z" />
    <glyph glyph-name="quotedbl" unicode="&#x22;" horiz-adv-x="426" 
d="M57 700h114l-16 -266h-82zM255 700h114l-16 -266h-82z" />
    <glyph glyph-name="numbersign" unicode="#" 
d="M495 439l-19 -178h75l-10 -93h-74l-19 -175l-114 7l18 168h-141l-19 -175l-115 7l18 168h-76l10 93h76l18 178h-75l10 93h75l18 168l115 -7l-17 -161h141l18 168l114 -7l-17 -161h75l-10 -93h-75zM380 439h-141l-19 -178h142z" />
    <glyph glyph-name="dollar" unicode="$" horiz-adv-x="584" 
d="M498 307q42 -40 42 -107v-24q0 -69 -54 -116t-145 -59v-111h-100v110q-125 11 -203 80l59 68q37 -23 59 -34.5t52 -18.5t73 -7q68 0 104 26.5t36 61.5v12q0 34 -21.5 54t-79.5 38l-98 31q-157 48 -157 159v21q0 57 47 100.5t129 55.5v106h100v-103q112 -8 195 -80
l-59 -62q-45 32 -82.5 44.5t-87.5 12.5q-60 0 -91 -22t-31 -52v-15q0 -24 25 -43.5t81 -36.5l89 -27q76 -22 118 -62z" />
    <glyph glyph-name="percent" unicode="%" horiz-adv-x="944" 
d="M607 776l85 -36l-356 -776l-84 36zM102.5 369.5q-44.5 41.5 -44.5 112.5v115q0 73 44.5 114.5t124.5 41.5q78 0 121 -41.5t43 -114.5v-115q0 -71 -43.5 -112.5t-120.5 -41.5q-80 0 -124.5 41.5zM277.5 424.5q18.5 19.5 18.5 55.5v120q0 38 -19 58t-50 20q-35 0 -54.5 -20
t-19.5 -58v-120q0 -36 20 -55.5t54 -19.5q32 0 50.5 19.5zM597.5 28.5q-44.5 41.5 -44.5 112.5v116q0 73 44.5 114.5t124.5 41.5q77 0 120 -41.5t43 -114.5v-116q0 -71 -43 -112.5t-120 -41.5q-80 0 -124.5 41.5zM771.5 83.5q18.5 19.5 18.5 55.5v120q0 38 -18.5 58.5
t-49.5 20.5q-35 0 -54.5 -20.5t-19.5 -58.5v-120q0 -36 19.5 -55.5t54.5 -19.5q31 0 49.5 19.5z" />
    <glyph glyph-name="ampersand" unicode="&#x26;" horiz-adv-x="713" 
d="M567 0l-67 68q-48 -45 -96 -63t-121 -18q-71 0 -126 24t-85.5 67.5t-30.5 102.5v47q0 112 134 170q-42 42 -60 70.5t-18 67.5v33q0 65 55 104.5t149 39.5q61 0 105 -19t67.5 -51.5t23.5 -72.5v-31q0 -53 -35 -91t-119 -75l148 -151l86 168l94 -43l-107 -199l145 -148
h-142zM213 545q0 -26 13.5 -46.5t52.5 -60.5q58 24 80.5 47.5t22.5 59.5v17q0 31 -22.5 48.5t-60.5 17.5q-41 0 -63.5 -17t-22.5 -48v-18zM198 111q33 -28 89 -28q46 0 79 13t64 43l-189 193q-38 -19 -57 -44t-19 -67v-30q0 -52 33 -80z" />
    <glyph glyph-name="quotesingle" unicode="'" horiz-adv-x="228" 
d="M57 700h114l-16 -266h-82z" />
    <glyph glyph-name="parenleft" unicode="(" horiz-adv-x="400" 
d="M194 170q0 -77 10 -125t38.5 -91.5t87.5 -103.5l-72 -63q-72 61 -112.5 113.5t-58.5 116t-18 153.5v200q0 90 18 153.5t58.5 116t112.5 113.5l72 -63q-59 -60 -87.5 -103.5t-38.5 -91.5t-10 -125v-200z" />
    <glyph glyph-name="parenright" unicode=")" horiz-adv-x="400" 
d="M254.5 639.5q40.5 -52.5 58.5 -116t18 -153.5v-200q0 -90 -18 -153.5t-58.5 -116t-112.5 -113.5l-72 63q59 60 87.5 103.5t38.5 91.5t10 125v200q0 77 -10 125t-38.5 91.5t-87.5 103.5l72 63q72 -61 112.5 -113.5z" />
    <glyph glyph-name="asterisk" unicode="*" horiz-adv-x="441" 
d="M284 522l94 -110l-82 -60l-76 122l-75 -122l-81 59l93 111l-140 33l31 93l133 -56l-11 148h101l-11 -147l133 56l31 -94z" />
    <glyph glyph-name="plus" unicode="+" horiz-adv-x="599" 
d="M492 293h-140v-144h-105v144h-140v98h140v144h105v-144h140v-98z" />
    <glyph glyph-name="comma" unicode="," horiz-adv-x="288" 
d="M53 -149q29 40 40.5 71.5t17.5 73.5q-43 22 -43 70q0 33 23 56t55 23q34 0 56.5 -22t22.5 -57q0 -126 -125 -252z" />
    <glyph glyph-name="hyphen" unicode="-" horiz-adv-x="432" 
d="M370 293h-307v98h307v-98z" />
    <glyph glyph-name="period" unicode="." horiz-adv-x="283" 
d="M86 10q-23 23 -23 56q0 32 23 55.5t56 23.5t55.5 -23t22.5 -56t-22.5 -56t-55.5 -23t-56 23z" />
    <glyph glyph-name="slash" unicode="/" horiz-adv-x="400" 
d="M-18 -140l333 912l103 -32l-334 -912z" />
    <glyph glyph-name="zero" unicode="0" horiz-adv-x="637" 
d="M131 52q-68 65 -68 178v236q0 116 68 181.5t191 65.5q119 0 185 -65.5t66 -181.5v-236q0 -113 -66.5 -178t-184.5 -65q-123 0 -191 65zM414 122q34 37 34 107v239q0 74 -34 112t-92 38q-63 0 -98 -38t-35 -112v-239q0 -71 35 -107.5t98 -36.5q58 0 92 37z" />
    <glyph glyph-name="one" unicode="1" horiz-adv-x="477" 
d="M448 95v-95h-388v95h143v469l-121 -60l-46 82l196 114h93v-605h123z" />
    <glyph glyph-name="two" unicode="2" horiz-adv-x="529" 
d="M485 102v-102h-451v71q0 86 36.5 143.5t104.5 104.5l96 66q49 34 68 58t19 57v24q0 36 -29.5 63.5t-86.5 27.5q-44 0 -82.5 -14t-84.5 -46l-56 76q51 40 107.5 61t123.5 21q72 0 125.5 -26t81 -68.5t27.5 -90.5v-31q0 -53 -35 -100.5t-115 -99.5l-77 -50
q-55 -37 -76 -69.5t-23 -75.5h327z" />
    <glyph glyph-name="three" unicode="3" horiz-adv-x="586" 
d="M122 15q-59 28 -104 79l72 69q75 -80 174 -80q63 0 102.5 26.5t39.5 83.5v25q0 58 -45 82.5t-98 24.5h-65v90h65q49 0 85.5 21t36.5 69v23q0 47 -33.5 69t-86.5 22q-48 0 -89 -19t-81 -56l-67 67q49 48 109 75t138 27q64 0 117 -21.5t84 -60.5t31 -89v-39q0 -45 -36 -80
t-84 -46q32 -5 65.5 -25t56 -52t22.5 -72v-45q0 -55 -33.5 -100t-93 -70.5t-133.5 -25.5q-90 0 -149 28z" />
    <glyph glyph-name="four" unicode="4" horiz-adv-x="595" 
d="M355 135h-328v82l239 483h123l-230 -467h199l23 188l99 1v-189h93v-98h-93v-135h-125v135z" />
    <glyph glyph-name="five" unicode="5" horiz-adv-x="574" 
d="M418.5 418.5q50.5 -25.5 78 -69t27.5 -96.5v-65q0 -56 -32.5 -102t-91 -72.5t-132.5 -26.5q-86 0 -145 29t-106 85l74 68q42 -43 80.5 -63t91.5 -20q60 0 98 28t38 82v45q0 54 -38.5 80.5t-104.5 26.5q-24 0 -43.5 -3t-49.5 -11h-83v366h404v-103h-282v-166q42 13 99 13
q67 0 117.5 -25.5z" />
    <glyph glyph-name="six" unicode="6" horiz-adv-x="586" 
d="M456.5 437q45.5 -27 69 -73.5t23.5 -104.5v-43q0 -62 -28 -114.5t-84 -83.5t-134 -31q-77 0 -135 34.5t-89.5 96.5t-31.5 144v49q0 194 108.5 295t312.5 107v-99q-275 -11 -295 -226q63 76 175 76q63 0 108.5 -27zM425 256q0 113 -103 113q-48 0 -83.5 -19.5t-67.5 -60.5
v-32q0 -86 35.5 -129t96.5 -43t91.5 35.5t30.5 99.5v36z" />
    <glyph glyph-name="seven" unicode="7" horiz-adv-x="515" 
d="M486 597l-257 -597h-129l265 600h-352v100h473v-103z" />
    <glyph glyph-name="eight" unicode="8" horiz-adv-x="625" 
d="M541 319.5q36 -38.5 36 -103.5v-43q0 -55 -35 -97t-96 -65.5t-134 -23.5q-76 0 -136 23t-94 65.5t-34 97.5v43q0 48 33.5 82.5t104.5 60.5q-56 24 -81.5 57.5t-25.5 87.5v45q0 47 29.5 84.5t82 58.5t119.5 21q68 0 121.5 -21t84 -58t30.5 -84v-44q0 -43 -26 -71.5
t-86 -49.5q71 -27 107 -65.5zM201 510q0 -31 23 -48.5t77 -33.5l34 -11q49 21 69.5 39t20.5 46v38q0 42 -34.5 62.5t-80.5 20.5t-77.5 -17.5t-31.5 -58.5v-37zM452 215q0 35 -31 55.5t-97 41.5l-40 13q-57 -22 -84 -44.5t-27 -61.5v-38q0 -49 38.5 -74t101.5 -25
q60 0 99.5 24.5t39.5 70.5v38z" />
    <glyph glyph-name="nine" unicode="9" horiz-adv-x="586" 
d="M472.5 638.5q65.5 -74.5 65.5 -200.5v-49q0 -390 -437 -402v101q145 5 223 59t89 164q-62 -75 -173 -75q-63 0 -109 27t-70 73.5t-24 104.5v43q0 62 28.5 114.5t85 83.5t137.5 31q119 0 184.5 -74.5zM349 349q34 20 66 62v32q0 88 -32 130t-97 42q-63 0 -94.5 -35.5
t-31.5 -99.5v-36q0 -52 26.5 -83.5t79.5 -31.5q49 0 83 20z" />
    <glyph glyph-name="colon" unicode=":" horiz-adv-x="283" 
d="M86 10q-23 23 -23 56q0 32 23 55.5t56 23.5t55.5 -23t22.5 -56t-22.5 -56t-55.5 -23t-56 23zM86 379q-23 23 -23 56q0 32 23 55.5t56 23.5t55.5 -23t22.5 -56t-22.5 -56t-55.5 -23t-56 23z" />
    <glyph glyph-name="semicolon" unicode=";" horiz-adv-x="288" 
d="M53 -149q29 40 40.5 71.5t17.5 73.5q-43 22 -43 70q0 33 23 56t55 23q34 0 56.5 -22t22.5 -57q0 -126 -125 -252zM86 379q-23 23 -23 56q0 32 23 55.5t56 23.5t55.5 -23t22.5 -56t-22.5 -56t-55.5 -23t-56 23z" />
    <glyph glyph-name="less" unicode="&#x3c;" 
d="M107 289v108l341 170l45 -90l-275 -134l275 -136l-45 -88z" />
    <glyph glyph-name="equal" unicode="=" 
d="M493 398h-386v96h386v-96zM493 189h-386v96h386v-96z" />
    <glyph glyph-name="greater" unicode="&#x3e;" 
d="M107 207l275 136l-275 134l45 90l341 -170v-108l-341 -170z" />
    <glyph glyph-name="question" unicode="?" horiz-adv-x="486" 
d="M164 265q0 37 14 65t33.5 47.5t50.5 43.5q35 27 51.5 46.5t16.5 44.5v24q0 37 -25.5 59t-70.5 22t-78.5 -13.5t-79.5 -45.5l-56 74q49 39 102 60t123 21q65 0 113.5 -22t74 -60t25.5 -84v-30q0 -47 -24 -77t-71 -64q-41 -30 -61.5 -54.5t-20.5 -60.5v-25h-117v29zM167 10
q-23 23 -23 56q0 32 23 55.5t56 23.5t55.5 -23t22.5 -56t-22.5 -56t-55.5 -23t-56 23z" />
    <glyph glyph-name="at" unicode="@" horiz-adv-x="1022" 
d="M739.5 666q91.5 -47 140.5 -126t49 -174v-100q0 -53 -20.5 -97.5t-59 -71.5t-90.5 -27q-49 0 -81.5 20t-49.5 50q-58 -65 -145 -65q-78 0 -120.5 49t-42.5 133v58q0 95 50.5 149.5t153.5 54.5q96 0 167 -48l-1 -214q0 -51 13 -76t54 -25q32 0 49 31.5t17 88.5v75
q0 127 -77 202.5t-221 75.5q-98 0 -169 -38t-107.5 -101t-36.5 -137v-125q0 -133 80.5 -202.5t214.5 -69.5q88 0 170 30l28 -81q-51 -18 -97.5 -26.5t-103.5 -8.5q-117 0 -207.5 41t-141.5 120t-51 189v136q0 95 53 177t149 131t219 49t214.5 -47zM444 183.5
q15 -23.5 53 -23.5q52 0 88 33v233q-27 12 -59 12q-53 0 -75 -30.5t-22 -97.5v-48q0 -55 15 -78.5z" />
    <glyph glyph-name="A" unicode="A" horiz-adv-x="640" 
d="M437 184h-242l-53 -184h-127l214 700h171l225 -700h-130zM223 285h184l-93 327z" />
    <glyph glyph-name="B" unicode="B" horiz-adv-x="651" 
d="M553 319q38 -34 38 -98v-40q0 -53 -33.5 -94t-94.5 -64t-143 -23h-215v700h216q114 0 181 -46t67 -128v-44q0 -50 -30 -79t-73 -40q49 -10 87 -44zM231 608v-211h110q47 0 74 21.5t27 63.5v37q0 45 -31.5 67t-88.5 22h-91zM465 223q0 40 -30.5 62.5t-87.5 22.5h-116v-216
h91q68 0 105.5 24t37.5 71v36z" />
    <glyph glyph-name="C" unicode="C" horiz-adv-x="583" 
d="M193 19.5q-62 32.5 -94.5 92t-32.5 138.5v184q0 85 34 148t97 97t150 34q69 0 119 -19.5t96 -56.5l-64 -72q-34 25 -68.5 38t-78.5 13q-76 0 -117.5 -45.5t-41.5 -129.5v-189q0 -83 38.5 -125.5t114.5 -42.5q47 0 85 13.5t73 37.5l53 -75q-40 -31 -95 -52t-119 -21
q-87 0 -149 32.5z" />
    <glyph glyph-name="D" unicode="D" horiz-adv-x="685" 
d="M546 625q73 -75 73 -205v-124q0 -139 -80.5 -217.5t-229.5 -78.5h-204v700h229q139 0 212 -75zM493 423q0 87 -41.5 133.5t-123.5 46.5h-97v-506h79q92 0 137.5 49t45.5 148v129z" />
    <glyph glyph-name="E" unicode="E" horiz-adv-x="582" 
d="M231 603v-199h261v-97h-261v-209h283v-98h-409v700h409v-97h-283z" />
    <glyph glyph-name="F" unicode="F" horiz-adv-x="546" 
d="M231 603v-208h252v-97h-252v-298h-126v700h420v-97h-294z" />
    <glyph glyph-name="G" unicode="G" horiz-adv-x="671" 
d="M601 387v-387h-99l-10 61q-76 -74 -185 -74q-68 0 -123 29.5t-86.5 85.5t-31.5 132v195q0 86 34 150t98.5 99t153.5 35q84 0 142.5 -28t99.5 -82l-82 -58q-30 37 -66.5 54t-90.5 17q-81 0 -122 -46.5t-41 -134.5v-198q0 -72 36.5 -112.5t105.5 -40.5q48 0 84.5 19.5
t60.5 53.5l1 136h-149v94h270z" />
    <glyph glyph-name="H" unicode="H" horiz-adv-x="743" 
d="M638 0h-126v309h-281v-309h-126v700h126v-289h281v289h126v-700z" />
    <glyph glyph-name="I" unicode="I" horiz-adv-x="444" 
d="M285 603v-506h90v-97h-306v97h90v506h-90v97h306v-97h-90z" />
    <glyph glyph-name="J" unicode="J" horiz-adv-x="546" 
d="M462 211q0 -67 -28 -117.5t-80 -78.5t-123 -28q-64 0 -115.5 19.5t-85.5 51.5l61 71q29 -22 58.5 -33.5t71.5 -11.5q51 0 82.5 29.5t31.5 91.5v398h-264v97h391v-489z" />
    <glyph glyph-name="K" unicode="K" horiz-adv-x="655" 
d="M290 300l-65 -81v-219h-120v700h120v-323l255 323h133l-245 -314l282 -386h-143z" />
    <glyph glyph-name="L" unicode="L" horiz-adv-x="525" 
d="M515 102v-102h-410v700h126v-598h284z" />
    <glyph glyph-name="M" unicode="M" horiz-adv-x="874" 
d="M769 700v-700h-121v509l-147 -408l1 -1h-133l-150 425v-525h-114v700h163l171 -494l176 493l-1 1h155z" />
    <glyph glyph-name="N" unicode="N" horiz-adv-x="741" 
d="M637 700v-700h-146l-275 543v-543h-111v700h151l269 -525v525h112z" />
    <glyph glyph-name="O" unicode="O" horiz-adv-x="706" 
d="M511.5 677q64.5 -36 97 -100.5t32.5 -148.5v-157q0 -83 -32.5 -147t-97 -100.5t-158.5 -36.5q-93 0 -157.5 36.5t-97 100.5t-32.5 147v157q0 84 32.5 148.5t97 100.5t157.5 36q94 0 158.5 -36zM232.5 566q-40.5 -50 -40.5 -137v-160q0 -86 40.5 -135.5t120.5 -49.5
t120.5 49.5t40.5 135.5v160q0 87 -40.5 137t-120.5 50t-120.5 -50z" />
    <glyph glyph-name="P" unicode="P" horiz-adv-x="621" 
d="M518 647.5q67 -52.5 67 -147.5v-58q0 -95 -72 -148.5t-194 -53.5h-88v-240h-126v700h231q115 0 182 -52.5zM459 494q0 55 -34 82.5t-95 27.5h-99v-268h84q144 0 144 113v45z" />
    <glyph glyph-name="Q" unicode="Q" horiz-adv-x="711" 
d="M576 -123l-100 130q-51 -20 -121 -20q-140 0 -214.5 75.5t-74.5 206.5v160q0 132 74 208t215 76q142 0 215.5 -76t73.5 -208v-168q0 -63 -21.5 -115.5t-63.5 -87.5l96 -121zM415 86l-60 78l76 57l66 -83q22 35 22 100v194q0 89 -41 136.5t-123 47.5q-81 0 -122.5 -47.5
t-41.5 -136.5v-171q0 -87 40.5 -133.5t123.5 -46.5q30 0 60 5z" />
    <glyph glyph-name="R" unicode="R" horiz-adv-x="659" 
d="M337 277h-106v-277h-126v700h236q111 0 178 -49.5t67 -135.5v-52q0 -57 -33.5 -99t-93.5 -65l161 -299h-138zM231 371h106q57 0 89.5 25t32.5 70v43q0 46 -33 71t-90 25h-105v-234z" />
    <glyph glyph-name="S" unicode="S" horiz-adv-x="613" 
d="M28 78l63 75q38 -25 61 -37.5t55 -20.5t77 -8q72 0 110 29.5t38 68.5v13q0 38 -22.5 60t-84.5 42l-103 34q-165 53 -165 177v23q0 48 29.5 89t86.5 65.5t134 24.5t137 -23t109 -68l-62 -69q-48 36 -87 50t-92 14q-63 0 -96 -24.5t-33 -57.5v-17q0 -27 26.5 -49t85.5 -40
l93 -30q80 -25 124.5 -69t44.5 -119v-27q0 -58 -34 -103t-94.5 -69.5t-138.5 -24.5q-164 0 -262 91z" />
    <glyph glyph-name="T" unicode="T" horiz-adv-x="548" 
d="M533 603h-196v-603h-126v603h-197v97h519v-97z" />
    <glyph glyph-name="U" unicode="U" horiz-adv-x="708" 
d="M624 226q0 -107 -69 -173t-201 -66q-88 0 -149 31t-91 85t-30 123v474h127v-474q0 -67 34.5 -104.5t108.5 -37.5t109 37.5t35 104.5v474h126v-474z" />
    <glyph glyph-name="V" unicode="V" horiz-adv-x="631" 
d="M15 700h131l176 -596l164 596h129l-208 -700h-172z" />
    <glyph glyph-name="W" unicode="W" horiz-adv-x="899" 
d="M860 700l-118 -700h-177l-118 589l-118 -589h-178l-121 700h129l88 -593l121 593h162l123 -593l85 593h122z" />
    <glyph glyph-name="X" unicode="X" horiz-adv-x="635" 
d="M630 0h-143l-170 290l-172 -290h-140l233 373l-208 327h140l148 -243h1l151 243h136l-210 -318z" />
    <glyph glyph-name="Y" unicode="Y" horiz-adv-x="582" 
d="M578 700l-223 -415v-285h-127v285l-224 415h132l159 -317l156 317h127z" />
    <glyph glyph-name="Z" unicode="Z" horiz-adv-x="573" 
d="M525 608l-344 -507h353v-101h-489v96l344 507h-330v97h466v-92z" />
    <glyph glyph-name="bracketleft" unicode="[" horiz-adv-x="400" 
d="M76 740h247v-97h-124v-746h124v-97h-247v940z" />
    <glyph glyph-name="backslash" unicode="\" horiz-adv-x="400" 
d="M-18 740l103 32l333 -912l-102 -32z" />
    <glyph glyph-name="bracketright" unicode="]" horiz-adv-x="400" 
d="M77 -200v97h124v746h-124v97h247v-940h-247z" />
    <glyph glyph-name="asciicircum" unicode="^" 
d="M538 388h-121l-118 217l-117 -217h-120l179 312h118z" />
    <glyph glyph-name="underscore" unicode="_" 
d="M568 -155h-507v98h507v-98z" />
    <glyph glyph-name="grave" unicode="`" horiz-adv-x="400" 
d="M74 696l43 82l208 -111l-33 -66z" />
    <glyph glyph-name="a" unicode="a" horiz-adv-x="558" 
d="M430 496.5q52 -49.5 52 -137.5v-359h-97l-10 51q-65 -64 -158 -64q-48 0 -88.5 18.5t-64.5 53t-24 79.5v35q0 70 59 112t162 42h98v36q0 47 -23.5 68.5t-71.5 21.5q-42 0 -78.5 -10t-76.5 -30l-38 77q92 56 204 56q103 0 155 -49.5zM305.5 92q30.5 13 53.5 39v118h-86
q-110 0 -110 -81v-20q0 -32 19.5 -50.5t58.5 -18.5q34 0 64.5 13z" />
    <glyph glyph-name="b" unicode="b" horiz-adv-x="602" 
d="M454.5 515q45.5 -31 70.5 -88t25 -133v-54q0 -72 -28.5 -130t-78.5 -90.5t-110 -32.5q-83 0 -139 58l-11 -45h-97v740h124v-249q53 55 138 55q61 0 106.5 -31zM426 298q0 154 -103 154q-35 0 -64 -15t-49 -42v-271q42 -44 102 -44q53 0 83.5 40.5t30.5 115.5v62z" />
    <glyph glyph-name="c" unicode="c" horiz-adv-x="491" 
d="M111.5 57q-64.5 70 -64.5 187v45q0 118 64 187.5t180 69.5q53 0 96 -17t80 -53l-59 -66q-25 22 -51 32t-61 10q-60 0 -92.5 -40.5t-32.5 -120.5v-49q0 -80 31.5 -121t92.5 -41q33 0 60 11t57 32l51 -73q-34 -28 -80.5 -45.5t-93.5 -17.5q-113 0 -177.5 70z" />
    <glyph glyph-name="d" unicode="d" horiz-adv-x="604" 
d="M518 740v-740h-97l-14 58q-56 -71 -145 -71q-62 0 -109.5 31t-74.5 88t-27 132v56q0 72 27.5 129.5t76.5 90t113 32.5q74 0 126 -47v241h124zM345.5 96q26.5 16 48.5 46v266q-19 20 -46 32t-59 12q-54 0 -84 -40t-30 -115v-61q0 -78 28.5 -117t80.5 -39q35 0 61.5 16z
" />
    <glyph glyph-name="e" unicode="e" horiz-adv-x="560" 
d="M511 227h-343q1 -76 36 -111.5t105 -35.5q39 0 71.5 11.5t70.5 32.5l44 -74q-36 -27 -87.5 -45t-106.5 -18q-79 0 -136.5 32.5t-87.5 89t-30 129.5v55q0 72 29 129.5t83 90.5t126 33q110 0 170 -66.5t60 -192.5q0 -28 -4 -60zM404 313q0 69 -30 105.5t-88 36.5
q-57 0 -86.5 -37t-31.5 -110h236v5z" />
    <glyph glyph-name="f" unicode="f" horiz-adv-x="382" 
d="M250 644.5q-17 -15.5 -17 -51.5v-61h127v-92h-127v-440h-124v440h-71v92h71v51q0 85 45.5 127.5t133.5 42.5q57 0 98 -13l-13 -88q-35 8 -68 8q-38 0 -55 -15.5z" />
    <glyph glyph-name="g" unicode="g" horiz-adv-x="603" 
d="M518 532v-534q0 -67 -31 -114.5t-84.5 -72t-120.5 -24.5q-115 0 -199 50l39 75q35 -16 70.5 -24t80.5 -8q124 0 124 119v67q-59 -66 -142 -66q-90 0 -147 62t-57 187v45q0 81 29 137.5t77.5 85.5t104.5 29q46 0 81 -15t64 -46l9 47h102zM340 109.5q30 15.5 53 44.5v245
q-44 53 -109 53q-109 0 -109 -155v-48q0 -86 26 -120.5t75 -34.5q34 0 64 15.5z" />
    <glyph glyph-name="h" unicode="h" horiz-adv-x="608" 
d="M484 499q49 -47 49 -131v-368h-124v358q0 94 -84 94q-69 0 -115 -68v-384h-124v740h124v-253q54 59 148 59q77 0 126 -47z" />
    <glyph glyph-name="i" unicode="i" horiz-adv-x="317" 
d="M231 0h-124v440h-80v92h204v-532zM111 636.5q-22 21.5 -22 52.5t22 53t53 22t53 -21.5t22 -53.5q0 -31 -22 -52.5t-53 -21.5t-53 21.5z" />
    <glyph glyph-name="j" unicode="j" horiz-adv-x="318" 
d="M232 -76q0 -66 -38 -101.5t-102 -35.5q-45 0 -69 13l9 80q14 -3 31 -3q27 0 36 10.5t9 39.5v513h-69v92h193v-608zM115 636.5q-22 21.5 -22 52.5t22 53t53 22t53 -21.5t22 -53.5q0 -31 -22 -52.5t-53 -21.5t-53 21.5z" />
    <glyph glyph-name="k" unicode="k" horiz-adv-x="555" 
d="M255 242l-45 -51v-191h-124v740h124v-413l182 205h136l-190 -215l223 -317h-138z" />
    <glyph glyph-name="l" unicode="l" horiz-adv-x="307" 
d="M200 124q0 -22 8 -31.5t28 -9.5q5 0 21 2l13 -85q-37 -13 -71 -13q-57 0 -90 30.5t-33 88.5v634h124v-616z" />
    <glyph glyph-name="m" unicode="m" horiz-adv-x="880" 
d="M722.5 525q37.5 -21 59.5 -61t22 -96v-368h-123v359q0 47 -20.5 70t-52.5 23q-55 0 -101 -67v-385h-124v359q0 48 -20 70.5t-52 22.5q-29 0 -54 -17t-48 -51v-384h-123v532h106l7 -54q57 68 144 68q44 0 82 -21t59 -60q61 81 156 81q45 0 82.5 -21z" />
    <glyph glyph-name="n" unicode="n" horiz-adv-x="608" 
d="M483.5 499q48.5 -47 48.5 -131v-368h-124v358q0 94 -83 94q-68 0 -115 -66v-386h-124v532h106l8 -54q57 68 158 68q77 0 125.5 -47z" />
    <glyph glyph-name="o" unicode="o" horiz-adv-x="595" 
d="M433 514q57 -32 86 -89t29 -131v-54q0 -115 -66 -184t-186 -69q-119 0 -184 69t-65 184v54q0 74 28.5 131t84.5 89t136 32t137 -32zM203 412.5q-32 -39.5 -32 -116.5v-56q0 -79 31.5 -119.5t93.5 -40.5t95 40.5t33 119.5v56q0 76 -33 116t-95 40q-61 0 -93 -39.5z" />
    <glyph glyph-name="p" unicode="p" horiz-adv-x="602" 
d="M453.5 515q45.5 -31 71 -88.5t25.5 -132.5v-53q0 -73 -28.5 -131t-78 -90.5t-110.5 -32.5q-69 0 -123 43v-230h-124v732h106l7 -51q57 65 150 65q59 0 104.5 -31zM426 298q0 76 -27.5 115t-77.5 39q-33 0 -62 -15t-49 -41v-279q44 -37 101 -37q54 0 84.5 40t30.5 117v61z
" />
    <glyph glyph-name="q" unicode="q" horiz-adv-x="603" 
d="M518 532v-732h-124v244q-55 -57 -134 -57q-60 0 -107.5 31t-74.5 88t-27 132v56q0 72 27.5 129.5t76.5 90t113 32.5q42 0 75.5 -14t61.5 -44l7 44h106zM344 94.5q26 14.5 50 42.5v271q-19 20 -46 32t-59 12q-54 0 -84 -40t-30 -115v-61q0 -78 29 -117t81 -39
q33 0 59 14.5z" />
    <glyph glyph-name="r" unicode="r" horiz-adv-x="416" 
d="M404 534l-22 -115q-15 3 -32 3q-48 0 -83.5 -24t-56.5 -80v-318h-124v532h90l20 -84q22 49 60.5 72.5t83.5 23.5q34 0 64 -10z" />
    <glyph glyph-name="s" unicode="s" horiz-adv-x="507" 
d="M125 6q-56 19 -97 54l59 71q35 -26 71 -39t79 -13q101 0 101 58v8q0 26 -18 41.5t-71 33.5l-67 23q-65 23 -96.5 55.5t-31.5 81.5v22q0 42 26 74.5t72 51t104 18.5q57 0 109.5 -17.5t90.5 -49.5l-57 -68q-38 25 -69.5 34t-69.5 9q-40 0 -61 -14.5t-21 -36.5v-8
q0 -22 18 -37t68 -33l67 -23q64 -23 97 -55t33 -88v-22q0 -71 -61 -110.5t-152 -39.5q-67 0 -123 19z" />
    <glyph glyph-name="t" unicode="t" horiz-adv-x="401" 
d="M367 0q-45 -13 -93 -13q-78 0 -119.5 35.5t-41.5 109.5v308h-81v92h84l10 131h111v-131h115v-92h-115v-301q0 -29 16 -43t49 -14q25 0 52 5z" />
    <glyph glyph-name="u" unicode="u" horiz-adv-x="605" 
d="M519 532v-532h-105l-9 59q-66 -72 -160 -72q-47 0 -85.5 20t-61 56.5t-22.5 85.5v383h124v-377q0 -36 19 -55.5t56 -19.5q33 0 65 18t55 50v384h124z" />
    <glyph glyph-name="v" unicode="v" horiz-adv-x="549" 
d="M351 0h-153l-173 532h129l123 -433l123 433h124z" />
    <glyph glyph-name="w" unicode="w" horiz-adv-x="799" 
d="M764 532l-118 -532h-153l-93 424l-95 -424h-150l-120 532h124l79 -428l95 428h138l96 -428l75 428h122z" />
    <glyph glyph-name="x" unicode="x" horiz-adv-x="538" 
d="M518 0h-137l-112 197l-119 -197h-130l172 266l-166 267h135l108 -201l111 201h130l-166 -266z" />
    <glyph glyph-name="y" unicode="y" horiz-adv-x="542" 
d="M107.5 -209.5q-21.5 3.5 -35.5 9.5l17 81q30 -6 56 -6q36 0 57.5 15.5t30.5 51.5l17 58h-54l-171 532h128l126 -440l115 440h123l-181 -597q-24 -81 -69 -114.5t-116 -33.5q-22 0 -43.5 3.5z" />
    <glyph glyph-name="z" unicode="z" horiz-adv-x="467" 
d="M427 445l-259 -350h266v-95h-399v90l259 348h-246v94h379v-87z" />
    <glyph glyph-name="braceleft" unicode="{" horiz-adv-x="400" 
d="M187 -164.5q-53 38.5 -53 119.5v186q0 40 -22 60.5t-74 20.5v96q52 1 74 21.5t22 60.5v185q0 81 53 119.5t150 48.5l17 -86q-46 -9 -70.5 -31.5t-24.5 -60.5v-179q0 -55 -35.5 -88t-94.5 -38q59 -5 94.5 -38t35.5 -88v-179q0 -38 24.5 -60.5t70.5 -31.5l-17 -86
q-97 10 -150 48.5z" />
    <glyph glyph-name="bar" unicode="|" horiz-adv-x="400" 
d="M138 740h124v-820h-124v820z" />
    <glyph glyph-name="braceright" unicode="}" horiz-adv-x="400" 
d="M69 -127q46 9 70.5 31.5t24.5 60.5v179q0 55 35.5 88t94.5 38q-59 5 -94.5 38t-35.5 88v179q0 38 -24.5 60.5t-70.5 31.5l17 86q97 -10 150 -48.5t53 -119.5v-185q0 -40 22 -60.5t74 -21.5v-96q-52 0 -74 -20.5t-22 -60.5v-186q0 -81 -53 -119.5t-150 -48.5z" />
    <glyph glyph-name="asciitilde" unicode="~" 
d="M329 273.5q-22 9.5 -47 26.5q-20 13 -33 19t-28 6q-43 0 -74 -53l-70 33q22 43 57 73.5t88 30.5q28 0 48 -8.5t48 -25.5q18 -13 32.5 -19.5t30.5 -6.5q43 0 73 47l69 -33q-21 -42 -56 -70.5t-86 -28.5q-30 0 -52 9.5z" />
    <glyph glyph-name="uni00A0" unicode="&#xa0;" horiz-adv-x="258" 
 />
    <glyph glyph-name="exclamdown" unicode="&#xa1;" horiz-adv-x="313" 
d="M212 490q23 -23 23 -56q0 -32 -23 -55.5t-56 -23.5t-55.5 23t-22.5 56t22.5 56t55.5 23t56 -23zM90 -200l16 461h100l16 -461h-132z" />
    <glyph glyph-name="cent" unicode="&#xa2;" horiz-adv-x="573" 
d="M497 50q-27 -22 -62.5 -38t-72.5 -22v-100h-99v103q-87 18 -134.5 84.5t-47.5 166.5v45q0 100 47.5 166.5t134.5 84.5v99h99v-95q80 -10 139 -68l-59 -66q-25 22 -51 32t-61 10q-60 0 -92.5 -40.5t-32.5 -120.5v-49q0 -80 32 -121t92 -41q33 0 60 11t57 32z" />
    <glyph glyph-name="sterling" unicode="&#xa3;" horiz-adv-x="593" 
d="M197 101h339v-101h-460v101q36 43 50.5 84.5t14.5 85.5q0 15 -4 43h-61v58h46q-3 10 -8 23q-11 34 -15.5 52.5t-4.5 36.5v29q0 48 28.5 94.5t82 76t126.5 29.5q117 0 217 -80l-56 -75q-44 32 -79 45t-73 13q-40 0 -67 -17t-39.5 -42t-12.5 -49v-23q0 -21 4.5 -40
t12.5 -44l9 -29h239v-58h-226q2 -22 2 -36q0 -88 -65 -177z" />
    <glyph glyph-name="currency" unicode="&#xa4;" 
d="M481 216l73 -72l-59 -58l-76 74q-53 -31 -121 -31q-65 0 -117 33l-76 -76l-59 58l74 74q-38 55 -38 123q0 67 38 121l-74 77l59 59l76 -78q52 33 117 33q66 0 121 -31l76 76l59 -59l-73 -74q39 -55 39 -124q0 -70 -39 -125zM383 252q31 33 31 90q0 56 -31 89t-82 33
t-83 -33t-32 -89t31.5 -89.5t83.5 -33.5q51 0 82 33z" />
    <glyph glyph-name="yen" unicode="&#xa5;" horiz-adv-x="582" 
d="M372 331h125v-56h-146v-74h146v-56h-146v-145h-119v145h-145v56h145v74h-145v56h124l-193 369h127l150 -312l147 312h122z" />
    <glyph glyph-name="brokenbar" unicode="&#xa6;" horiz-adv-x="400" 
d="M138 740h124v-320h-124v320zM138 240h124v-320h-124v320z" />
    <glyph glyph-name="section" unicode="&#xa7;" 
d="M491 269.5q-24 -31.5 -64 -49.5q63 -39 63 -107v-22q0 -42 -25.5 -75t-71 -51t-103.5 -18q-57 0 -109.5 17.5t-90.5 49.5l57 67q38 -25 69.5 -34.5t69.5 -9.5q41 0 62 14.5t21 37.5v8q0 22 -18.5 37t-68.5 33l-68 24q-63 22 -96 54t-33 88v23q0 43 24 74.5t64 49.5
q-63 39 -63 107v22q0 42 25.5 75t71 51t103.5 18q57 0 109.5 -17.5t90.5 -49.5l-57 -67q-38 25 -69.5 34.5t-69.5 9.5q-41 0 -62 -14.5t-21 -37.5v-8q0 -22 18.5 -37t68.5 -33l68 -24q63 -22 96 -54t33 -88v-23q0 -43 -24 -74.5zM219.5 305.5q18.5 -15.5 73.5 -33.5l37 -13
q31 11 50 33t19 43v17q0 27 -18.5 42.5t-73.5 33.5l-37 13q-31 -11 -50 -33t-19 -43v-17q0 -27 18.5 -42.5z" />
    <glyph glyph-name="dieresis" unicode="&#xa8;" horiz-adv-x="400" 
d="M34.5 641q-19.5 19 -19.5 46t19.5 46t47.5 19t47 -19t19 -46t-19 -46t-47 -19t-47.5 19zM270 641q-19 19 -19 46t19 46t46 19q28 0 47.5 -19t19.5 -46t-19.5 -46t-47.5 -19q-27 0 -46 19z" />
    <glyph glyph-name="copyright" unicode="&#xa9;" horiz-adv-x="905" 
d="M266 28q-84 41 -132.5 113.5t-48.5 165.5v94q0 85 49 156.5t133.5 113.5t185.5 42q106 0 190 -41.5t130.5 -113t46.5 -157.5v-94q0 -94 -46.5 -166.5t-130 -113t-192.5 -40.5q-101 0 -185 41zM605 86.5q65 30.5 100.5 87t35.5 132.5v96q0 68 -35.5 123t-101 87t-151.5 32
q-81 0 -147 -32t-104 -87.5t-38 -122.5v-96q0 -75 37.5 -131.5t103.5 -87.5t148 -31q87 0 152 30.5zM332 175q-44 43 -44 115v110q0 78 45.5 123t123.5 45q42 0 72.5 -12t56.5 -34l-45 -58q-20 15 -38 22t-42 7q-38 0 -60.5 -23.5t-22.5 -65.5v-113q0 -39 21 -61t60 -22
q24 0 46.5 8t38.5 21l38 -61q-56 -44 -128 -44q-78 0 -122 43z" />
    <glyph glyph-name="ordfeminine" unicode="&#xaa;" horiz-adv-x="466" 
d="M370 675.5q42 -37.5 42 -104.5v-271h-82l-9 43q-56 -53 -126 -53q-60 0 -100.5 31.5t-40.5 83.5v28q0 53 47.5 85t129.5 32h77v25q0 32 -18 47t-55 15q-34 0 -63 -8t-62 -23l-33 65q76 42 167 42q84 0 126 -37.5zM308 403v83h-65q-42 0 -64 -14.5t-22 -41.5v-15
q0 -23 16 -36t44 -13q55 0 91 37z" />
    <glyph glyph-name="guillemotleft" unicode="&#xab;" horiz-adv-x="619" 
d="M77 256v60l177 219l67 -45l-133 -204l135 -208l-68 -44zM306 256v60l177 219l67 -45l-133 -204l135 -208l-68 -44z" />
    <glyph glyph-name="logicalnot" unicode="&#xac;" 
d="M493 391v-242h-98v144h-288v98h386z" />
    <glyph glyph-name="uni00AD" unicode="&#xad;" horiz-adv-x="432" 
d="M370 293h-307v98h307v-98z" />
    <glyph glyph-name="registered" unicode="&#xae;" horiz-adv-x="905" 
d="M643 671.5q84 -41.5 130.5 -113t46.5 -157.5v-94q0 -94 -46.5 -166.5t-130 -113t-192.5 -40.5q-101 0 -185 41t-132.5 113.5t-48.5 165.5v94q0 85 49 156.5t133.5 113.5t185.5 42q106 0 190 -41.5zM741 402q0 68 -35.5 123t-101 87t-151.5 32q-81 0 -147 -32t-104 -87.5
t-38 -122.5v-96q0 -75 37.5 -131.5t103.5 -87.5t148 -31q87 0 152 30.5t100.5 87t35.5 132.5v96zM537 318l90 -178h-97l-77 162h-2h-43v-162h-88v420h138q68 0 108.5 -31t40.5 -83v-26q0 -72 -70 -102zM408 370h37q33 0 53.5 13t20.5 40v19q0 49 -65 49h-46v-121z" />
    <glyph glyph-name="macron" unicode="&#xaf;" horiz-adv-x="400" 
d="M59 715h281v-79h-281v79z" />
    <glyph glyph-name="degree" unicode="&#xb0;" horiz-adv-x="521" 
d="M138.5 399.5q-37.5 19.5 -60.5 57t-23 90.5q0 51 23 89t60.5 57.5t80.5 19.5q71 0 117.5 -44t46.5 -123q0 -51 -22 -88.5t-59.5 -57.5t-82.5 -20q-43 0 -80.5 19.5zM273.5 483.5q17.5 23.5 17.5 62.5q0 41 -17.5 64.5t-54.5 23.5q-34 0 -52.5 -24t-18.5 -63t18.5 -63
t52.5 -24q37 0 54.5 23.5z" />
    <glyph glyph-name="plusminus" unicode="&#xb1;" horiz-adv-x="599" 
d="M492 391v-98h-140v-134h-105v134h-140v98h140v144h105v-144h140zM107 98h385v-98h-385v98z" />
    <glyph glyph-name="uni00B2" unicode="&#xb2;" horiz-adv-x="500" 
d="M73 473q0 65 28 108t82 77l79 50q40 26 54 43t14 40v16q0 26 -23 44t-67 18q-36 0 -67 -10.5t-67 -34.5l-46 65q85 61 188 61q59 0 102 -18.5t65 -50t22 -69.5v-25q0 -40 -26.5 -73t-87.5 -72l-67 -42q-44 -28 -60.5 -50t-18.5 -51h261v-84h-365v58z" />
    <glyph glyph-name="uni00B3" unicode="&#xb3;" horiz-adv-x="500" 
d="M127.5 425.5q-47.5 21.5 -84.5 60.5l60 56q58 -58 137 -58q47 0 78 20t31 58v18q0 41 -34.5 58t-78.5 17h-47v75h47q40 0 67.5 14.5t27.5 48.5v16q0 32 -25.5 48t-64.5 16q-38 0 -70.5 -13.5t-63.5 -40.5l-54 55q39 36 86.5 56.5t111.5 20.5q51 0 93.5 -16.5t67.5 -45.5
t25 -66v-29q0 -34 -30 -61t-70 -35q45 -7 82 -37t37 -76v-34q0 -41 -27 -75t-75 -53t-107 -19q-72 0 -119.5 21.5z" />
    <glyph glyph-name="acute" unicode="&#xb4;" horiz-adv-x="400" 
d="M74 667l208 111l43 -82l-218 -95z" />
    <glyph glyph-name="uni00B5" unicode="&#xb5;" horiz-adv-x="615" 
d="M529 532v-532h-105l-8 55q-54 -68 -131 -68q-41 0 -75 20v-207h-124v732h124v-379q0 -36 19 -55t56 -19q34 0 65.5 18t54.5 50v385h124z" />
    <glyph glyph-name="paragraph" unicode="&#xb6;" horiz-adv-x="747" 
d="M613 700v-900h-96v817h-109v-817h-96v487q-113 5 -170.5 61t-57.5 145q0 98 67 152.5t185 53.5z" />
    <glyph glyph-name="periodcentered" unicode="&#xb7;" horiz-adv-x="283" 
d="M86 275q-23 23 -23 56q0 32 23 55.5t56 23.5t55.5 -23t22.5 -56t-22.5 -56t-55.5 -23t-56 23z" />
    <glyph glyph-name="cedilla" unicode="&#xb8;" horiz-adv-x="400" 
d="M98 -230l16 59q35 -7 63 -7q25 0 37 6t12 25v8q0 19 -20 26t-70 7l6 122h75v-69q50 -4 73 -25.5t23 -59.5v-14q0 -47 -36.5 -70t-93.5 -23q-43 0 -85 15z" />
    <glyph glyph-name="uni00B9" unicode="&#xb9;" horiz-adv-x="500" 
d="M91 494h125v334l-107 -49l-38 68l173 93h78v-446h107v-79h-338v79z" />
    <glyph glyph-name="ordmasculine" unicode="&#xba;" horiz-adv-x="466" 
d="M88.5 340.5q-47.5 51.5 -47.5 139.5v41q0 88 48 139.5t143 51.5q96 0 144.5 -51.5t48.5 -139.5v-41q0 -88 -48.5 -139.5t-144.5 -51.5t-143.5 51.5zM299 395q20 27 20 85v43q0 58 -20.5 85t-66.5 27t-66 -27t-20 -85v-43q0 -58 20 -85t66 -27q47 0 67 27z" />
    <glyph glyph-name="guillemotright" unicode="&#xbb;" horiz-adv-x="619" 
d="M77 78l135 208l-133 204l67 45l177 -219v-60l-178 -222zM306 78l135 208l-133 204l67 45l177 -219v-60l-178 -222z" />
    <glyph glyph-name="onequarter" unicode="&#xbc;" horiz-adv-x="1225" 
d="M91 294h125v334l-107 -49l-38 68l173 93h78v-446h107v-79h-338v79zM417 16l304 740l88 -32l-305 -739zM1010 98h-245v64l178 363h103l-167 -345h133l21 135l84 1v-136h68v-82h-68v-98h-107v98z" />
    <glyph glyph-name="onehalf" unicode="&#xbd;" horiz-adv-x="1225" 
d="M91 294h125v334l-107 -49l-38 68l173 93h78v-446h107v-79h-338v79zM417 16l304 740l88 -32l-305 -739zM798 58q0 65 28 108t82 77l79 50q40 26 54 43t14 40v16q0 26 -23 44t-67 18q-36 0 -67 -10.5t-67 -34.5l-46 65q85 61 188 61q59 0 102 -18.5t65 -50t22 -69.5v-25
q0 -40 -26.5 -73t-87.5 -72l-67 -42q-44 -28 -60.5 -50t-18.5 -51h261v-84h-365v58z" />
    <glyph glyph-name="threequarters" unicode="&#xbe;" horiz-adv-x="1225" 
d="M127.5 225.5q-47.5 21.5 -84.5 60.5l60 56q58 -58 137 -58q47 0 78 20t31 58v18q0 41 -34.5 58t-78.5 17h-47v75h47q40 0 67.5 14.5t27.5 48.5v16q0 32 -25.5 48t-64.5 16q-38 0 -70.5 -13.5t-63.5 -40.5l-54 55q39 36 86.5 56.5t111.5 20.5q51 0 93.5 -16.5t67.5 -45.5
t25 -66v-29q0 -34 -30 -61t-70 -35q45 -7 82 -37t37 -76v-34q0 -41 -27 -75t-75 -53t-107 -19q-72 0 -119.5 21.5zM417 16l304 740l88 -32l-305 -739zM1010 98h-245v64l178 363h103l-167 -345h133l21 135l84 1v-136h68v-82h-68v-98h-107v98z" />
    <glyph glyph-name="questiondown" unicode="&#xbf;" horiz-adv-x="486" 
d="M319 490q23 -23 23 -56q0 -32 -23 -55.5t-56 -23.5t-55.5 23t-22.5 56t22.5 56t55.5 23t56 -23zM322 235q0 -37 -14 -65t-33.5 -47.5t-50.5 -43.5q-35 -27 -51.5 -46.5t-16.5 -44.5v-24q0 -37 25.5 -59t70.5 -22t78.5 13.5t79.5 45.5l56 -74q-49 -39 -102 -60t-123 -21
q-65 0 -113.5 22t-74 60t-25.5 84v30q0 47 24 77t71 64q41 30 61.5 54.5t20.5 60.5v25h117v-29z" />
    <glyph glyph-name="Agrave" unicode="&#xc0;" horiz-adv-x="640" 
d="M437 184h-242l-53 -184h-127l214 700h171l225 -700h-130zM223 285h184l-93 327zM193 831l38 83l211 -104l-31 -67z" />
    <glyph glyph-name="Aacute" unicode="&#xc1;" horiz-adv-x="640" 
d="M437 184h-242l-53 -184h-127l214 700h171l225 -700h-130zM223 285h184l-93 327zM192 810l210 104l39 -83l-218 -88z" />
    <glyph glyph-name="Acircumflex" unicode="&#xc2;" horiz-adv-x="640" 
d="M437 184h-242l-53 -184h-127l214 700h171l225 -700h-130zM223 285h184l-93 327zM146 798l137 116h70l137 -116l-44 -57l-128 90l-127 -90z" />
    <glyph glyph-name="Atilde" unicode="&#xc3;" horiz-adv-x="640" 
d="M437 184h-242l-53 -184h-127l214 700h171l225 -700h-130zM223 285h184l-93 327zM339 757.5q-16 7.5 -36 21.5q-15 10 -24 14.5t-18 4.5q-17 0 -28.5 -11t-24.5 -35l-70 34q19 41 51.5 67t70.5 26q21 0 37 -7.5t36 -21.5q15 -10 24 -14.5t18 -4.5q17 0 28.5 11t24.5 35
l70 -34q-19 -41 -51.5 -67t-70.5 -26q-21 0 -37 7.5z" />
    <glyph glyph-name="Adieresis" unicode="&#xc4;" horiz-adv-x="640" 
d="M437 184h-242l-53 -184h-127l214 700h171l225 -700h-130zM223 285h184l-93 327zM153.5 795q-19.5 19 -19.5 46t19.5 46t47.5 19t47 -19t19 -46t-19 -46t-47 -19t-47.5 19zM389 795q-19 19 -19 46t19 46t46 19q28 0 47.5 -19t19.5 -46t-19.5 -46t-47.5 -19q-27 0 -46 19z
" />
    <glyph glyph-name="Aring" unicode="&#xc5;" horiz-adv-x="640" 
d="M437 184h-242l-53 -184h-127l214 700h171l225 -700h-130zM223 285h184l-93 327zM228 756q-36 32 -36 78v18q0 46 36 79t90 33t90.5 -33t36.5 -79v-18q0 -46 -36.5 -78t-90.5 -32t-90 32zM355 800q14 12 14 35v16q0 23 -14 36t-37 13t-37 -13t-14 -36v-16q0 -23 14 -35
t37 -12t37 12z" />
    <glyph glyph-name="AE" unicode="&#xc6;" horiz-adv-x="970" 
d="M916 98v-98h-421l-43 184h-247l-63 -184h-127l262 700h606v-95h-411l51 -202h327v-95h-303l53 -210h316zM240 284h189l-73 325z" />
    <glyph glyph-name="Ccedilla" unicode="&#xc7;" horiz-adv-x="583" 
d="M471 11q-49 -20 -106 -23v-41q50 -4 73 -25.5t23 -59.5v-14q0 -47 -36.5 -70t-93.5 -23q-43 0 -85 15l16 59q35 -7 63 -7q25 0 37 6t12 25v8q0 19 -20 26t-70 7l5 96q-106 15 -164.5 84t-58.5 176v184q0 85 34 148t97 97t150 34q69 0 119 -19.5t96 -56.5l-64 -72
q-34 25 -68.5 38t-78.5 13q-76 0 -117.5 -45.5t-41.5 -129.5v-189q0 -83 38.5 -125.5t114.5 -42.5q47 0 85 13.5t73 37.5l53 -75q-36 -29 -85 -49z" />
    <glyph glyph-name="Egrave" unicode="&#xc8;" horiz-adv-x="582" 
d="M231 603v-199h261v-97h-261v-209h283v-98h-409v700h409v-97h-283zM186 831l38 83l211 -104l-31 -67z" />
    <glyph glyph-name="Eacute" unicode="&#xc9;" horiz-adv-x="582" 
d="M231 603v-199h261v-97h-261v-209h283v-98h-409v700h409v-97h-283zM185 810l210 104l39 -83l-218 -88z" />
    <glyph glyph-name="Ecircumflex" unicode="&#xca;" horiz-adv-x="582" 
d="M231 603v-199h261v-97h-261v-209h283v-98h-409v700h409v-97h-283zM139 798l137 116h70l137 -116l-44 -57l-128 90l-127 -90z" />
    <glyph glyph-name="Edieresis" unicode="&#xcb;" horiz-adv-x="582" 
d="M231 603v-199h261v-97h-261v-209h283v-98h-409v700h409v-97h-283zM146.5 795q-19.5 19 -19.5 46t19.5 46t47.5 19t47 -19t19 -46t-19 -46t-47 -19t-47.5 19zM382 795q-19 19 -19 46t19 46t46 19q28 0 47.5 -19t19.5 -46t-19.5 -46t-47.5 -19q-27 0 -46 19z" />
    <glyph glyph-name="Igrave" unicode="&#xcc;" horiz-adv-x="444" 
d="M285 603v-506h90v-97h-306v97h90v506h-90v97h306v-97h-90zM97 831l38 83l211 -104l-31 -67z" />
    <glyph glyph-name="Iacute" unicode="&#xcd;" horiz-adv-x="444" 
d="M285 603v-506h90v-97h-306v97h90v506h-90v97h306v-97h-90zM96 810l210 104l39 -83l-218 -88z" />
    <glyph glyph-name="Icircumflex" unicode="&#xce;" horiz-adv-x="444" 
d="M285 603v-506h90v-97h-306v97h90v506h-90v97h306v-97h-90zM50 798l137 116h70l137 -116l-44 -57l-128 90l-127 -90z" />
    <glyph glyph-name="Idieresis" unicode="&#xcf;" horiz-adv-x="444" 
d="M285 603v-506h90v-97h-306v97h90v506h-90v97h306v-97h-90zM57.5 795q-19.5 19 -19.5 46t19.5 46t47.5 19t47 -19t19 -46t-19 -46t-47 -19t-47.5 19zM293 795q-19 19 -19 46t19 46t46 19q28 0 47.5 -19t19.5 -46t-19.5 -46t-47.5 -19q-27 0 -46 19z" />
    <glyph glyph-name="Eth" unicode="&#xd0;" horiz-adv-x="685" 
d="M546 625q73 -75 73 -205v-124q0 -139 -80.5 -217.5t-229.5 -78.5h-204v311h-43v76h43v313h229q139 0 212 -75zM493 423q0 87 -41.5 133.5t-123.5 46.5h-97v-216h141v-76h-141v-214h79q92 0 137.5 49t45.5 148v129z" />
    <glyph glyph-name="Ntilde" unicode="&#xd1;" horiz-adv-x="741" 
d="M637 700v-700h-146l-275 543v-543h-111v700h151l269 -525v525h112zM402 757.5q-16 7.5 -36 21.5q-15 10 -24 14.5t-18 4.5q-17 0 -28.5 -11t-24.5 -35l-70 34q19 41 51.5 67t70.5 26q21 0 37 -7.5t36 -21.5q15 -10 24 -14.5t18 -4.5q17 0 28.5 11t24.5 35l70 -34
q-19 -41 -51.5 -67t-70.5 -26q-21 0 -37 7.5z" />
    <glyph glyph-name="Ograve" unicode="&#xd2;" horiz-adv-x="706" 
d="M511.5 677q64.5 -36 97 -100.5t32.5 -148.5v-157q0 -83 -32.5 -147t-97 -100.5t-158.5 -36.5q-93 0 -157.5 36.5t-97 100.5t-32.5 147v157q0 84 32.5 148.5t97 100.5t157.5 36q94 0 158.5 -36zM232.5 566q-40.5 -50 -40.5 -137v-160q0 -86 40.5 -135.5t120.5 -49.5
t120.5 49.5t40.5 135.5v160q0 87 -40.5 137t-120.5 50t-120.5 -50zM228 831l38 83l211 -104l-31 -67z" />
    <glyph glyph-name="Oacute" unicode="&#xd3;" horiz-adv-x="706" 
d="M511.5 677q64.5 -36 97 -100.5t32.5 -148.5v-157q0 -83 -32.5 -147t-97 -100.5t-158.5 -36.5q-93 0 -157.5 36.5t-97 100.5t-32.5 147v157q0 84 32.5 148.5t97 100.5t157.5 36q94 0 158.5 -36zM232.5 566q-40.5 -50 -40.5 -137v-160q0 -86 40.5 -135.5t120.5 -49.5
t120.5 49.5t40.5 135.5v160q0 87 -40.5 137t-120.5 50t-120.5 -50zM227 810l210 104l39 -83l-218 -88z" />
    <glyph glyph-name="Ocircumflex" unicode="&#xd4;" horiz-adv-x="706" 
d="M511.5 677q64.5 -36 97 -100.5t32.5 -148.5v-157q0 -83 -32.5 -147t-97 -100.5t-158.5 -36.5q-93 0 -157.5 36.5t-97 100.5t-32.5 147v157q0 84 32.5 148.5t97 100.5t157.5 36q94 0 158.5 -36zM232.5 566q-40.5 -50 -40.5 -137v-160q0 -86 40.5 -135.5t120.5 -49.5
t120.5 49.5t40.5 135.5v160q0 87 -40.5 137t-120.5 50t-120.5 -50zM181 798l137 116h70l137 -116l-44 -57l-128 90l-127 -90z" />
    <glyph glyph-name="Otilde" unicode="&#xd5;" horiz-adv-x="706" 
d="M511.5 677q64.5 -36 97 -100.5t32.5 -148.5v-157q0 -83 -32.5 -147t-97 -100.5t-158.5 -36.5q-93 0 -157.5 36.5t-97 100.5t-32.5 147v157q0 84 32.5 148.5t97 100.5t157.5 36q94 0 158.5 -36zM232.5 566q-40.5 -50 -40.5 -137v-160q0 -86 40.5 -135.5t120.5 -49.5
t120.5 49.5t40.5 135.5v160q0 87 -40.5 137t-120.5 50t-120.5 -50zM374 757.5q-16 7.5 -36 21.5q-15 10 -24 14.5t-18 4.5q-17 0 -28.5 -11t-24.5 -35l-70 34q19 41 51.5 67t70.5 26q21 0 37 -7.5t36 -21.5q15 -10 24 -14.5t18 -4.5q17 0 28.5 11t24.5 35l70 -34
q-19 -41 -51.5 -67t-70.5 -26q-21 0 -37 7.5z" />
    <glyph glyph-name="Odieresis" unicode="&#xd6;" horiz-adv-x="706" 
d="M511.5 677q64.5 -36 97 -100.5t32.5 -148.5v-157q0 -83 -32.5 -147t-97 -100.5t-158.5 -36.5q-93 0 -157.5 36.5t-97 100.5t-32.5 147v157q0 84 32.5 148.5t97 100.5t157.5 36q94 0 158.5 -36zM232.5 566q-40.5 -50 -40.5 -137v-160q0 -86 40.5 -135.5t120.5 -49.5
t120.5 49.5t40.5 135.5v160q0 87 -40.5 137t-120.5 50t-120.5 -50zM188.5 795q-19.5 19 -19.5 46t19.5 46t47.5 19t47 -19t19 -46t-19 -46t-47 -19t-47.5 19zM424 795q-19 19 -19 46t19 46t46 19q28 0 47.5 -19t19.5 -46t-19.5 -46t-47.5 -19q-27 0 -46 19z" />
    <glyph glyph-name="multiply" unicode="&#xd7;" 
d="M368 342l113 -112l-69 -69l-112 113l-113 -113l-68 69l112 112l-112 113l68 68l113 -112l112 112l69 -68z" />
    <glyph glyph-name="Oslash" unicode="&#xd8;" horiz-adv-x="706" 
d="M622.5 544q18.5 -53 18.5 -116v-157q0 -83 -32.5 -147t-97 -100.5t-158.5 -36.5q-73 0 -132 24l-46 -83l-82 43l51 91q-39 38 -58.5 91.5t-19.5 117.5v157q0 84 32.5 148.5t97 100.5t157.5 36q79 0 137 -26l50 86l81 -43l-54 -95q37 -38 55.5 -91zM192 269q0 -62 21 -106
l236 425q-37 28 -96 28q-80 0 -120.5 -50t-40.5 -137v-160zM514 429q0 60 -19 101l-233 -422q36 -24 91 -24q80 0 120.5 49.5t40.5 135.5v160z" />
    <glyph glyph-name="Ugrave" unicode="&#xd9;" horiz-adv-x="708" 
d="M624 226q0 -107 -69 -173t-201 -66q-88 0 -149 31t-91 85t-30 123v474h127v-474q0 -67 34.5 -104.5t108.5 -37.5t109 37.5t35 104.5v474h126v-474zM229 831l38 83l211 -104l-31 -67z" />
    <glyph glyph-name="Uacute" unicode="&#xda;" horiz-adv-x="708" 
d="M624 226q0 -107 -69 -173t-201 -66q-88 0 -149 31t-91 85t-30 123v474h127v-474q0 -67 34.5 -104.5t108.5 -37.5t109 37.5t35 104.5v474h126v-474zM228 810l210 104l39 -83l-218 -88z" />
    <glyph glyph-name="Ucircumflex" unicode="&#xdb;" horiz-adv-x="708" 
d="M624 226q0 -107 -69 -173t-201 -66q-88 0 -149 31t-91 85t-30 123v474h127v-474q0 -67 34.5 -104.5t108.5 -37.5t109 37.5t35 104.5v474h126v-474zM182 798l137 116h70l137 -116l-44 -57l-128 90l-127 -90z" />
    <glyph glyph-name="Udieresis" unicode="&#xdc;" horiz-adv-x="708" 
d="M624 226q0 -107 -69 -173t-201 -66q-88 0 -149 31t-91 85t-30 123v474h127v-474q0 -67 34.5 -104.5t108.5 -37.5t109 37.5t35 104.5v474h126v-474zM189.5 795q-19.5 19 -19.5 46t19.5 46t47.5 19t47 -19t19 -46t-19 -46t-47 -19t-47.5 19zM425 795q-19 19 -19 46t19 46
t46 19q28 0 47.5 -19t19.5 -46t-19.5 -46t-47.5 -19q-27 0 -46 19z" />
    <glyph glyph-name="Yacute" unicode="&#xdd;" horiz-adv-x="582" 
d="M578 700l-223 -415v-285h-127v285l-224 415h132l159 -317l156 317h127zM166 810l210 104l39 -83l-218 -88z" />
    <glyph glyph-name="Thorn" unicode="&#xde;" horiz-adv-x="631" 
d="M517.5 527.5q66.5 -52.5 66.5 -147.5v-58q0 -95 -72 -148.5t-193 -53.5h-88v-120h-126v700h126v-120h105q115 0 181.5 -52.5zM458 374q0 55 -34 82.5t-94 27.5h-99v-268h84q143 0 143 113v45z" />
    <glyph glyph-name="germandbls" unicode="&#xdf;" horiz-adv-x="635" 
d="M251 16l35 81q46 -18 94 -18q46 0 71.5 20.5t25.5 59.5v20q0 37 -18 56.5t-67 40.5q-54 22 -80.5 38.5t-38 39.5t-11.5 61v22q0 29 11.5 49.5t44.5 40.5t99 45q-4 41 -32.5 65.5t-74.5 24.5q-51 0 -81 -28t-30 -86v-548h-123v538q0 65 28.5 113.5t81 75t121.5 26.5
q105 0 165.5 -59t61.5 -167q-71 -27 -105 -41.5t-46 -25t-12 -21.5v-15q0 -16 19 -29.5t80 -40.5q66 -30 97.5 -64t31.5 -97v-36q0 -80 -59.5 -125t-152.5 -45q-73 0 -136 29z" />
    <glyph glyph-name="agrave" unicode="&#xe0;" horiz-adv-x="558" 
d="M430 496.5q52 -49.5 52 -137.5v-359h-97l-10 51q-65 -64 -158 -64q-48 0 -88.5 18.5t-64.5 53t-24 79.5v35q0 70 59 112t162 42h98v36q0 47 -23.5 68.5t-71.5 21.5q-42 0 -78.5 -10t-76.5 -30l-38 77q92 56 204 56q103 0 155 -49.5zM305.5 92q30.5 13 53.5 39v118h-86
q-110 0 -110 -81v-20q0 -32 19.5 -50.5t58.5 -18.5q34 0 64.5 13zM153 696l43 82l208 -111l-33 -66z" />
    <glyph glyph-name="aacute" unicode="&#xe1;" horiz-adv-x="558" 
d="M430 496.5q52 -49.5 52 -137.5v-359h-97l-10 51q-65 -64 -158 -64q-48 0 -88.5 18.5t-64.5 53t-24 79.5v35q0 70 59 112t162 42h98v36q0 47 -23.5 68.5t-71.5 21.5q-42 0 -78.5 -10t-76.5 -30l-38 77q92 56 204 56q103 0 155 -49.5zM305.5 92q30.5 13 53.5 39v118h-86
q-110 0 -110 -81v-20q0 -32 19.5 -50.5t58.5 -18.5q34 0 64.5 13zM153 667l208 111l43 -82l-218 -95z" />
    <glyph glyph-name="acircumflex" unicode="&#xe2;" horiz-adv-x="558" 
d="M430 496.5q52 -49.5 52 -137.5v-359h-97l-10 51q-65 -64 -158 -64q-48 0 -88.5 18.5t-64.5 53t-24 79.5v35q0 70 59 112t162 42h98v36q0 47 -23.5 68.5t-71.5 21.5q-42 0 -78.5 -10t-76.5 -30l-38 77q92 56 204 56q103 0 155 -49.5zM305.5 92q30.5 13 53.5 39v118h-86
q-110 0 -110 -81v-20q0 -32 19.5 -50.5t58.5 -18.5q34 0 64.5 13zM107 655l137 116h70l137 -116l-44 -58l-128 91l-127 -91z" />
    <glyph glyph-name="atilde" unicode="&#xe3;" horiz-adv-x="558" 
d="M430 496.5q52 -49.5 52 -137.5v-359h-97l-10 51q-65 -64 -158 -64q-48 0 -88.5 18.5t-64.5 53t-24 79.5v35q0 70 59 112t162 42h98v36q0 47 -23.5 68.5t-71.5 21.5q-42 0 -78.5 -10t-76.5 -30l-38 77q92 56 204 56q103 0 155 -49.5zM305.5 92q30.5 13 53.5 39v118h-86
q-110 0 -110 -81v-20q0 -32 19.5 -50.5t58.5 -18.5q34 0 64.5 13zM300 631.5q-16 7.5 -36 21.5q-15 10 -24 14.5t-18 4.5q-17 0 -28.5 -11t-24.5 -35l-70 34q19 41 51.5 67t70.5 26q21 0 37 -7.5t36 -21.5q15 -10 24 -14.5t18 -4.5q17 0 28.5 11t24.5 35l70 -34
q-19 -41 -51.5 -67t-70.5 -26q-21 0 -37 7.5z" />
    <glyph glyph-name="adieresis" unicode="&#xe4;" horiz-adv-x="558" 
d="M430 496.5q52 -49.5 52 -137.5v-359h-97l-10 51q-65 -64 -158 -64q-48 0 -88.5 18.5t-64.5 53t-24 79.5v35q0 70 59 112t162 42h98v36q0 47 -23.5 68.5t-71.5 21.5q-42 0 -78.5 -10t-76.5 -30l-38 77q92 56 204 56q103 0 155 -49.5zM305.5 92q30.5 13 53.5 39v118h-86
q-110 0 -110 -81v-20q0 -32 19.5 -50.5t58.5 -18.5q34 0 64.5 13zM113.5 641q-19.5 19 -19.5 46t19.5 46t47.5 19t47 -19t19 -46t-19 -46t-47 -19t-47.5 19zM349 641q-19 19 -19 46t19 46t46 19q28 0 47.5 -19t19.5 -46t-19.5 -46t-47.5 -19q-27 0 -46 19z" />
    <glyph glyph-name="aring" unicode="&#xe5;" horiz-adv-x="558" 
d="M430 496.5q52 -49.5 52 -137.5v-359h-97l-10 51q-65 -64 -158 -64q-48 0 -88.5 18.5t-64.5 53t-24 79.5v35q0 70 59 112t162 42h98v36q0 47 -23.5 68.5t-71.5 21.5q-42 0 -78.5 -10t-76.5 -30l-38 77q92 56 204 56q103 0 155 -49.5zM305.5 92q30.5 13 53.5 39v118h-86
q-110 0 -110 -81v-20q0 -32 19.5 -50.5t58.5 -18.5q34 0 64.5 13zM189 630q-36 32 -36 78v18q0 46 36 79t90 33t90.5 -33t36.5 -79v-18q0 -46 -36.5 -78t-90.5 -32t-90 32zM316 674q14 12 14 35v16q0 23 -14 36t-37 13t-37 -13t-14 -36v-16q0 -23 14 -35t37 -12t37 12z" />
    <glyph glyph-name="ae" unicode="&#xe6;" horiz-adv-x="871" 
d="M472 239v-6q0 -77 39 -115t110 -38q41 0 72 11t70 33l43 -74q-35 -27 -86.5 -45t-107.5 -18q-68 0 -120 24t-84 68q-71 -92 -191 -92q-48 0 -88.5 18.5t-64.5 53t-24 79.5v35q0 42 26.5 75t76.5 52t118 19h98v44q0 47 -23.5 68.5t-71.5 21.5q-42 0 -78.5 -10t-76.5 -30
l-38 77q92 56 204 56q61 0 100.5 -25t54.5 -75q23 47 67.5 73.5t101.5 26.5q106 0 166.5 -65t60.5 -182q0 -28 -4 -60h-350zM509.5 422.5q-32.5 -35.5 -36.5 -103.5h242v5q0 63 -30.5 98.5t-86.5 35.5t-88.5 -35.5zM312.5 98.5q33.5 19.5 58.5 55.5q-12 39 -12 84v1h-86
q-54 0 -82 -18.5t-28 -52.5v-20q0 -32 19.5 -50.5t58.5 -18.5q38 0 71.5 19.5z" />
    <glyph glyph-name="ccedilla" unicode="&#xe7;" horiz-adv-x="491" 
d="M393 8.5q-40 -16.5 -81 -20.5v-41q50 -4 73 -25.5t23 -59.5v-14q0 -47 -36.5 -70t-93.5 -23q-43 0 -85 15l16 59q35 -7 63 -7q25 0 37 6t12 25v8q0 19 -20 26t-70 7l5 98q-89 16 -139 83t-50 169v45q0 118 64 187.5t180 69.5q53 0 96 -17t80 -53l-59 -66q-25 22 -51 32
t-61 10q-60 0 -92.5 -40.5t-32.5 -120.5v-49q0 -80 31.5 -121t92.5 -41q33 0 60 11t57 32l51 -73q-30 -25 -70 -41.5z" />
    <glyph glyph-name="egrave" unicode="&#xe8;" horiz-adv-x="560" 
d="M511 227h-343q1 -76 36 -111.5t105 -35.5q39 0 71.5 11.5t70.5 32.5l44 -74q-36 -27 -87.5 -45t-106.5 -18q-79 0 -136.5 32.5t-87.5 89t-30 129.5v55q0 72 29 129.5t83 90.5t126 33q110 0 170 -66.5t60 -192.5q0 -28 -4 -60zM404 313q0 69 -30 105.5t-88 36.5
q-57 0 -86.5 -37t-31.5 -110h236v5zM159 696l43 82l208 -111l-33 -66z" />
    <glyph glyph-name="eacute" unicode="&#xe9;" horiz-adv-x="560" 
d="M511 227h-343q1 -76 36 -111.5t105 -35.5q39 0 71.5 11.5t70.5 32.5l44 -74q-36 -27 -87.5 -45t-106.5 -18q-79 0 -136.5 32.5t-87.5 89t-30 129.5v55q0 72 29 129.5t83 90.5t126 33q110 0 170 -66.5t60 -192.5q0 -28 -4 -60zM404 313q0 69 -30 105.5t-88 36.5
q-57 0 -86.5 -37t-31.5 -110h236v5zM159 667l208 111l43 -82l-218 -95z" />
    <glyph glyph-name="ecircumflex" unicode="&#xea;" horiz-adv-x="560" 
d="M511 227h-343q1 -76 36 -111.5t105 -35.5q39 0 71.5 11.5t70.5 32.5l44 -74q-36 -27 -87.5 -45t-106.5 -18q-79 0 -136.5 32.5t-87.5 89t-30 129.5v55q0 72 29 129.5t83 90.5t126 33q110 0 170 -66.5t60 -192.5q0 -28 -4 -60zM404 313q0 69 -30 105.5t-88 36.5
q-57 0 -86.5 -37t-31.5 -110h236v5zM113 655l137 116h70l137 -116l-44 -58l-128 91l-127 -91z" />
    <glyph glyph-name="edieresis" unicode="&#xeb;" horiz-adv-x="560" 
d="M511 227h-343q1 -76 36 -111.5t105 -35.5q39 0 71.5 11.5t70.5 32.5l44 -74q-36 -27 -87.5 -45t-106.5 -18q-79 0 -136.5 32.5t-87.5 89t-30 129.5v55q0 72 29 129.5t83 90.5t126 33q110 0 170 -66.5t60 -192.5q0 -28 -4 -60zM404 313q0 69 -30 105.5t-88 36.5
q-57 0 -86.5 -37t-31.5 -110h236v5zM119.5 641q-19.5 19 -19.5 46t19.5 46t47.5 19t47 -19t19 -46t-19 -46t-47 -19t-47.5 19zM355 641q-19 19 -19 46t19 46t46 19q28 0 47.5 -19t19.5 -46t-19.5 -46t-47.5 -19q-27 0 -46 19z" />
    <glyph glyph-name="igrave" unicode="&#xec;" horiz-adv-x="317" 
d="M231 0h-124v440h-80v92h204v-532zM38 696l43 82l208 -111l-33 -66z" />
    <glyph glyph-name="iacute" unicode="&#xed;" horiz-adv-x="317" 
d="M231 0h-124v440h-80v92h204v-532zM38 667l208 111l43 -82l-218 -95z" />
    <glyph glyph-name="icircumflex" unicode="&#xee;" horiz-adv-x="317" 
d="M231 0h-124v440h-80v92h204v-532zM-8 655l137 116h70l137 -116l-44 -58l-128 91l-127 -91z" />
    <glyph glyph-name="idieresis" unicode="&#xef;" horiz-adv-x="317" 
d="M231 0h-124v440h-80v92h204v-532zM-1.5 641q-19.5 19 -19.5 46t19.5 46t47.5 19t47 -19t19 -46t-19 -46t-47 -19t-47.5 19zM234 641q-19 19 -19 46t19 46t46 19q28 0 47.5 -19t19.5 -46t-19.5 -46t-47.5 -19q-27 0 -46 19z" />
    <glyph glyph-name="eth" unicode="&#xf0;" 
d="M503 532.5q45 -95.5 45 -221.5v-49q0 -82 -31.5 -144t-89 -96.5t-134.5 -34.5q-78 0 -134 31t-84 83.5t-28 114.5v43q0 57 23.5 103.5t69 73t108.5 26.5t105.5 -21t72.5 -61v1q0 150 -103 220l-46 -79l-80 42l44 75q-51 15 -114 18v96q89 -3 164 -29l48 82l80 -42
l-47 -80q86 -56 131 -151.5zM391 123.5q35 43.5 35 133.5v27q-34 44 -69 65.5t-83 21.5q-103 0 -103 -115v-36q0 -68 30 -104t91 -36q64 0 99 43.5z" />
    <glyph glyph-name="ntilde" unicode="&#xf1;" horiz-adv-x="608" 
d="M483.5 499q48.5 -47 48.5 -131v-368h-124v358q0 94 -83 94q-68 0 -115 -66v-386h-124v532h106l8 -54q57 68 158 68q77 0 125.5 -47zM325 631.5q-16 7.5 -36 21.5q-15 10 -24 14.5t-18 4.5q-17 0 -28.5 -11t-24.5 -35l-70 34q19 41 51.5 67t70.5 26q21 0 37 -7.5t36 -21.5
q15 -10 24 -14.5t18 -4.5q17 0 28.5 11t24.5 35l70 -34q-19 -41 -51.5 -67t-70.5 -26q-21 0 -37 7.5z" />
    <glyph glyph-name="ograve" unicode="&#xf2;" horiz-adv-x="595" 
d="M433 514q57 -32 86 -89t29 -131v-54q0 -115 -66 -184t-186 -69q-119 0 -184 69t-65 184v54q0 74 28.5 131t84.5 89t136 32t137 -32zM203 412.5q-32 -39.5 -32 -116.5v-56q0 -79 31.5 -119.5t93.5 -40.5t95 40.5t33 119.5v56q0 76 -33 116t-95 40q-61 0 -93 -39.5z
M171 696l43 82l208 -111l-33 -66z" />
    <glyph glyph-name="oacute" unicode="&#xf3;" horiz-adv-x="595" 
d="M433 514q57 -32 86 -89t29 -131v-54q0 -115 -66 -184t-186 -69q-119 0 -184 69t-65 184v54q0 74 28.5 131t84.5 89t136 32t137 -32zM203 412.5q-32 -39.5 -32 -116.5v-56q0 -79 31.5 -119.5t93.5 -40.5t95 40.5t33 119.5v56q0 76 -33 116t-95 40q-61 0 -93 -39.5z
M171 667l208 111l43 -82l-218 -95z" />
    <glyph glyph-name="ocircumflex" unicode="&#xf4;" horiz-adv-x="595" 
d="M433 514q57 -32 86 -89t29 -131v-54q0 -115 -66 -184t-186 -69q-119 0 -184 69t-65 184v54q0 74 28.5 131t84.5 89t136 32t137 -32zM203 412.5q-32 -39.5 -32 -116.5v-56q0 -79 31.5 -119.5t93.5 -40.5t95 40.5t33 119.5v56q0 76 -33 116t-95 40q-61 0 -93 -39.5z
M125 655l137 116h70l137 -116l-44 -58l-128 91l-127 -91z" />
    <glyph glyph-name="otilde" unicode="&#xf5;" horiz-adv-x="595" 
d="M433 514q57 -32 86 -89t29 -131v-54q0 -115 -66 -184t-186 -69q-119 0 -184 69t-65 184v54q0 74 28.5 131t84.5 89t136 32t137 -32zM203 412.5q-32 -39.5 -32 -116.5v-56q0 -79 31.5 -119.5t93.5 -40.5t95 40.5t33 119.5v56q0 76 -33 116t-95 40q-61 0 -93 -39.5z
M318 631.5q-16 7.5 -36 21.5q-15 10 -24 14.5t-18 4.5q-17 0 -28.5 -11t-24.5 -35l-70 34q19 41 51.5 67t70.5 26q21 0 37 -7.5t36 -21.5q15 -10 24 -14.5t18 -4.5q17 0 28.5 11t24.5 35l70 -34q-19 -41 -51.5 -67t-70.5 -26q-21 0 -37 7.5z" />
    <glyph glyph-name="odieresis" unicode="&#xf6;" horiz-adv-x="595" 
d="M433 514q57 -32 86 -89t29 -131v-54q0 -115 -66 -184t-186 -69q-119 0 -184 69t-65 184v54q0 74 28.5 131t84.5 89t136 32t137 -32zM203 412.5q-32 -39.5 -32 -116.5v-56q0 -79 31.5 -119.5t93.5 -40.5t95 40.5t33 119.5v56q0 76 -33 116t-95 40q-61 0 -93 -39.5z
M131.5 641q-19.5 19 -19.5 46t19.5 46t47.5 19t47 -19t19 -46t-19 -46t-47 -19t-47.5 19zM367 641q-19 19 -19 46t19 46t46 19q28 0 47.5 -19t19.5 -46t-19.5 -46t-47.5 -19q-27 0 -46 19z" />
    <glyph glyph-name="divide" unicode="&#xf7;" 
d="M369.5 604q22.5 -23 22.5 -56t-22.5 -56t-55.5 -23t-56 23.5t-23 55.5q0 33 23 56t56 23t55.5 -23zM107 295v98h386v-98h-386zM258 82q-23 23 -23 56q0 32 23 55.5t56 23.5t55.5 -23t22.5 -56t-22.5 -56t-55.5 -23t-56 23z" />
    <glyph glyph-name="oslash" unicode="&#xf8;" horiz-adv-x="595" 
d="M528.5 403q19.5 -49 19.5 -109v-54q0 -115 -66 -184t-186 -69q-50 0 -94 14l-39 -69l-83 41l41 74q-37 34 -55.5 83t-18.5 110v54q0 74 28.5 131t84.5 89t136 32q51 0 95 -14l40 70l83 -40l-42 -76q37 -34 56.5 -83zM169 240q0 -60 20 -100l167 301q-25 13 -60 13
q-61 0 -94 -40.5t-33 -117.5v-56zM425 296q0 58 -20 96l-166 -301q24 -12 57 -12q62 0 95.5 41.5t33.5 119.5v56z" />
    <glyph glyph-name="ugrave" unicode="&#xf9;" horiz-adv-x="605" 
d="M519 532v-532h-105l-9 59q-66 -72 -160 -72q-47 0 -85.5 20t-61 56.5t-22.5 85.5v383h124v-377q0 -36 19 -55.5t56 -19.5q33 0 65 18t55 50v384h124zM177 696l43 82l208 -111l-33 -66z" />
    <glyph glyph-name="uacute" unicode="&#xfa;" horiz-adv-x="605" 
d="M519 532v-532h-105l-9 59q-66 -72 -160 -72q-47 0 -85.5 20t-61 56.5t-22.5 85.5v383h124v-377q0 -36 19 -55.5t56 -19.5q33 0 65 18t55 50v384h124zM177 667l208 111l43 -82l-218 -95z" />
    <glyph glyph-name="ucircumflex" unicode="&#xfb;" horiz-adv-x="605" 
d="M519 532v-532h-105l-9 59q-66 -72 -160 -72q-47 0 -85.5 20t-61 56.5t-22.5 85.5v383h124v-377q0 -36 19 -55.5t56 -19.5q33 0 65 18t55 50v384h124zM131 655l137 116h70l137 -116l-44 -58l-128 91l-127 -91z" />
    <glyph glyph-name="udieresis" unicode="&#xfc;" horiz-adv-x="605" 
d="M519 532v-532h-105l-9 59q-66 -72 -160 -72q-47 0 -85.5 20t-61 56.5t-22.5 85.5v383h124v-377q0 -36 19 -55.5t56 -19.5q33 0 65 18t55 50v384h124zM137.5 641q-19.5 19 -19.5 46t19.5 46t47.5 19t47 -19t19 -46t-19 -46t-47 -19t-47.5 19zM373 641q-19 19 -19 46t19 46
t46 19q28 0 47.5 -19t19.5 -46t-19.5 -46t-47.5 -19q-27 0 -46 19z" />
    <glyph glyph-name="yacute" unicode="&#xfd;" horiz-adv-x="542" 
d="M107.5 -209.5q-21.5 3.5 -35.5 9.5l17 81q30 -6 56 -6q36 0 57.5 15.5t30.5 51.5l17 58h-54l-171 532h128l126 -440l115 440h123l-181 -597q-24 -81 -69 -114.5t-116 -33.5q-22 0 -43.5 3.5zM146 667l208 111l43 -82l-218 -95z" />
    <glyph glyph-name="thorn" unicode="&#xfe;" horiz-adv-x="602" 
d="M455.5 515q45.5 -31 70.5 -88t25 -133v-54q0 -72 -29 -130t-79 -90.5t-110 -32.5q-70 0 -123 48v-235h-124v940h124v-249q55 55 139 55q61 0 106.5 -31zM426 298q0 154 -103 154q-68 0 -113 -57v-270q42 -44 102 -44q53 0 83.5 40t30.5 115v62z" />
    <glyph glyph-name="ydieresis" unicode="&#xff;" horiz-adv-x="542" 
d="M107.5 -209.5q-21.5 3.5 -35.5 9.5l17 81q30 -6 56 -6q36 0 57.5 15.5t30.5 51.5l17 58h-54l-171 532h128l126 -440l115 440h123l-181 -597q-24 -81 -69 -114.5t-116 -33.5q-22 0 -43.5 3.5zM106.5 641q-19.5 19 -19.5 46t19.5 46t47.5 19t47 -19t19 -46t-19 -46t-47 -19
t-47.5 19zM342 641q-19 19 -19 46t19 46t46 19q28 0 47.5 -19t19.5 -46t-19.5 -46t-47.5 -19q-27 0 -46 19z" />
    <glyph glyph-name="Amacron" unicode="&#x100;" horiz-adv-x="640" 
d="M437 184h-242l-53 -184h-127l214 700h171l225 -700h-130zM223 285h184l-93 327zM177 858h281v-79h-281v79z" />
    <glyph glyph-name="amacron" unicode="&#x101;" horiz-adv-x="558" 
d="M430 496.5q52 -49.5 52 -137.5v-359h-97l-10 51q-65 -64 -158 -64q-48 0 -88.5 18.5t-64.5 53t-24 79.5v35q0 70 59 112t162 42h98v36q0 47 -23.5 68.5t-71.5 21.5q-42 0 -78.5 -10t-76.5 -30l-38 77q92 56 204 56q103 0 155 -49.5zM305.5 92q30.5 13 53.5 39v118h-86
q-110 0 -110 -81v-20q0 -32 19.5 -50.5t58.5 -18.5q34 0 64.5 13zM138 715h281v-79h-281v79z" />
    <glyph glyph-name="Abreve" unicode="&#x102;" horiz-adv-x="640" 
d="M437 184h-242l-53 -184h-127l214 700h171l225 -700h-130zM223 285h184l-93 327zM208 791.5q-44 37.5 -59 102.5l80 14q11 -37 32 -55.5t55 -18.5q69 0 90 74l80 -14q-14 -65 -59.5 -102.5t-110.5 -37.5q-64 0 -108 37.5z" />
    <glyph glyph-name="abreve" unicode="&#x103;" horiz-adv-x="558" 
d="M430 496.5q52 -49.5 52 -137.5v-359h-97l-10 51q-65 -64 -158 -64q-48 0 -88.5 18.5t-64.5 53t-24 79.5v35q0 70 59 112t162 42h98v36q0 47 -23.5 68.5t-71.5 21.5q-42 0 -78.5 -10t-76.5 -30l-38 77q92 56 204 56q103 0 155 -49.5zM305.5 92q30.5 13 53.5 39v118h-86
q-110 0 -110 -81v-20q0 -32 19.5 -50.5t58.5 -18.5q34 0 64.5 13zM169.5 651.5q-43.5 37.5 -56.5 103.5l77 14q11 -38 32 -56.5t55 -18.5q69 0 90 75l77 -14q-12 -65 -57 -103t-110 -38q-64 0 -107.5 37.5z" />
    <glyph glyph-name="Aogonek" unicode="&#x104;" horiz-adv-x="640" 
d="M471 -116q0 -21 13 -31.5t43 -10.5q27 0 61 7l-10 -77q-35 -7 -66 -7q-59 0 -94 29t-35 78q0 41 29 76t81 59l-56 177h-242l-53 -184h-127l214 700h171l225 -700h-13q-141 -43 -141 -116zM223 285h184l-93 327z" />
    <glyph glyph-name="aogonek" unicode="&#x105;" horiz-adv-x="558" 
d="M341 -116q0 -21 13 -31.5t43 -10.5q27 0 61 7l-10 -77q-35 -7 -66 -7q-59 0 -94 29t-35 78q0 45 34 82.5t95 60.5l-7 36q-65 -64 -158 -64q-48 0 -88.5 18.5t-64.5 53t-24 79.5v35q0 70 59 112t162 42h98v36q0 47 -23.5 68.5t-71.5 21.5q-42 0 -78.5 -10t-76.5 -30
l-38 77q92 56 204 56q103 0 155 -49.5t52 -137.5v-359q-141 -43 -141 -116zM305.5 92q30.5 13 53.5 39v118h-86q-110 0 -110 -81v-20q0 -32 19.5 -50.5t58.5 -18.5q34 0 64.5 13z" />
    <glyph glyph-name="Cacute" unicode="&#x106;" horiz-adv-x="583" 
d="M193 19.5q-62 32.5 -94.5 92t-32.5 138.5v184q0 85 34 148t97 97t150 34q69 0 119 -19.5t96 -56.5l-64 -72q-34 25 -68.5 38t-78.5 13q-76 0 -117.5 -45.5t-41.5 -129.5v-189q0 -83 38.5 -125.5t114.5 -42.5q47 0 85 13.5t73 37.5l53 -75q-40 -31 -95 -52t-119 -21
q-87 0 -149 32.5zM216 810l210 104l39 -83l-218 -88z" />
    <glyph glyph-name="cacute" unicode="&#x107;" horiz-adv-x="491" 
d="M111.5 57q-64.5 70 -64.5 187v45q0 118 64 187.5t180 69.5q53 0 96 -17t80 -53l-59 -66q-25 22 -51 32t-61 10q-60 0 -92.5 -40.5t-32.5 -120.5v-49q0 -80 31.5 -121t92.5 -41q33 0 60 11t57 32l51 -73q-34 -28 -80.5 -45.5t-93.5 -17.5q-113 0 -177.5 70zM160 667
l208 111l43 -82l-218 -95z" />
    <glyph glyph-name="Ccircumflex" unicode="&#x108;" horiz-adv-x="583" 
d="M193 19.5q-62 32.5 -94.5 92t-32.5 138.5v184q0 85 34 148t97 97t150 34q69 0 119 -19.5t96 -56.5l-64 -72q-34 25 -68.5 38t-78.5 13q-76 0 -117.5 -45.5t-41.5 -129.5v-189q0 -83 38.5 -125.5t114.5 -42.5q47 0 85 13.5t73 37.5l53 -75q-40 -31 -95 -52t-119 -21
q-87 0 -149 32.5zM170 798l137 116h70l137 -116l-44 -57l-128 90l-127 -90z" />
    <glyph glyph-name="ccircumflex" unicode="&#x109;" horiz-adv-x="491" 
d="M111.5 57q-64.5 70 -64.5 187v45q0 118 64 187.5t180 69.5q53 0 96 -17t80 -53l-59 -66q-25 22 -51 32t-61 10q-60 0 -92.5 -40.5t-32.5 -120.5v-49q0 -80 31.5 -121t92.5 -41q33 0 60 11t57 32l51 -73q-34 -28 -80.5 -45.5t-93.5 -17.5q-113 0 -177.5 70zM114 655
l137 116h70l137 -116l-44 -58l-128 91l-127 -91z" />
    <glyph glyph-name="Cdotaccent" unicode="&#x10a;" horiz-adv-x="583" 
d="M193 19.5q-62 32.5 -94.5 92t-32.5 138.5v184q0 85 34 148t97 97t150 34q69 0 119 -19.5t96 -56.5l-64 -72q-34 25 -68.5 38t-78.5 13q-76 0 -117.5 -45.5t-41.5 -129.5v-189q0 -83 38.5 -125.5t114.5 -42.5q47 0 85 13.5t73 37.5l53 -75q-40 -31 -95 -52t-119 -21
q-87 0 -149 32.5zM289 774.5q-22 21.5 -22 52.5t22 53t53 22t53 -21.5t22 -53.5q0 -31 -22 -52.5t-53 -21.5t-53 21.5z" />
    <glyph glyph-name="cdotaccent" unicode="&#x10b;" horiz-adv-x="491" 
d="M111.5 57q-64.5 70 -64.5 187v45q0 118 64 187.5t180 69.5q53 0 96 -17t80 -53l-59 -66q-25 22 -51 32t-61 10q-60 0 -92.5 -40.5t-32.5 -120.5v-49q0 -80 31.5 -121t92.5 -41q33 0 60 11t57 32l51 -73q-34 -28 -80.5 -45.5t-93.5 -17.5q-113 0 -177.5 70zM233 636.5
q-22 21.5 -22 52.5t22 53t53 22t53 -21.5t22 -53.5q0 -31 -22 -52.5t-53 -21.5t-53 21.5z" />
    <glyph glyph-name="Ccaron" unicode="&#x10c;" horiz-adv-x="583" 
d="M193 19.5q-62 32.5 -94.5 92t-32.5 138.5v184q0 85 34 148t97 97t150 34q69 0 119 -19.5t96 -56.5l-64 -72q-34 25 -68.5 38t-78.5 13q-76 0 -117.5 -45.5t-41.5 -129.5v-189q0 -83 38.5 -125.5t114.5 -42.5q47 0 85 13.5t73 37.5l53 -75q-40 -31 -95 -52t-119 -21
q-87 0 -149 32.5zM170 856l45 58l127 -90l128 90l44 -58l-137 -115h-70z" />
    <glyph glyph-name="ccaron" unicode="&#x10d;" horiz-adv-x="491" 
d="M111.5 57q-64.5 70 -64.5 187v45q0 118 64 187.5t180 69.5q53 0 96 -17t80 -53l-59 -66q-25 22 -51 32t-61 10q-60 0 -92.5 -40.5t-32.5 -120.5v-49q0 -80 31.5 -121t92.5 -41q33 0 60 11t57 32l51 -73q-34 -28 -80.5 -45.5t-93.5 -17.5q-113 0 -177.5 70zM114 713l45 58
l127 -91l128 91l44 -58l-137 -116h-70z" />
    <glyph glyph-name="Dcaron" unicode="&#x10e;" horiz-adv-x="685" 
d="M546 625q73 -75 73 -205v-124q0 -139 -80.5 -217.5t-229.5 -78.5h-204v700h229q139 0 212 -75zM493 423q0 87 -41.5 133.5t-123.5 46.5h-97v-506h79q92 0 137.5 49t45.5 148v129zM150 856l45 58l127 -90l128 90l44 -58l-137 -115h-70z" />
    <glyph glyph-name="dcaron" unicode="&#x10f;" horiz-adv-x="691" 
d="M518 740v-740h-97l-14 58q-56 -71 -145 -71q-62 0 -109.5 31t-74.5 88t-27 132v56q0 72 27.5 129.5t76.5 90t113 32.5q74 0 126 -47v241h124zM345.5 96q26.5 16 48.5 46v266q-19 20 -46 32t-59 12q-54 0 -84 -40t-30 -115v-61q0 -78 28.5 -117t80.5 -39q35 0 61.5 16z
M581 557l25 198l101 -15l-50 -194z" />
    <glyph glyph-name="Dcroat" unicode="&#x110;" horiz-adv-x="685" 
d="M546 625q73 -75 73 -205v-124q0 -139 -80.5 -217.5t-229.5 -78.5h-204v311h-43v76h43v313h229q139 0 212 -75zM493 423q0 87 -41.5 133.5t-123.5 46.5h-97v-216h141v-76h-141v-214h79q92 0 137.5 49t45.5 148v129z" />
    <glyph glyph-name="dcroat" unicode="&#x111;" horiz-adv-x="616" 
d="M567 595h-49v-595h-97l-14 58q-56 -71 -145 -71q-62 0 -109.5 31t-74.5 88t-27 132v56q0 72 27.5 129.5t76.5 90t113 32.5q74 0 126 -47v96h-117v76h117v69h124v-69h49v-76zM345.5 96q26.5 16 48.5 46v266q-19 20 -46 32t-59 12q-54 0 -84 -40t-30 -115v-61
q0 -78 28.5 -117t80.5 -39q35 0 61.5 16z" />
    <glyph glyph-name="Emacron" unicode="&#x112;" horiz-adv-x="582" 
d="M231 603v-199h261v-97h-261v-209h283v-98h-409v700h409v-97h-283zM170 858h281v-79h-281v79z" />
    <glyph glyph-name="emacron" unicode="&#x113;" horiz-adv-x="560" 
d="M511 227h-343q1 -76 36 -111.5t105 -35.5q39 0 71.5 11.5t70.5 32.5l44 -74q-36 -27 -87.5 -45t-106.5 -18q-79 0 -136.5 32.5t-87.5 89t-30 129.5v55q0 72 29 129.5t83 90.5t126 33q110 0 170 -66.5t60 -192.5q0 -28 -4 -60zM404 313q0 69 -30 105.5t-88 36.5
q-57 0 -86.5 -37t-31.5 -110h236v5zM144 715h281v-79h-281v79z" />
    <glyph glyph-name="Edotaccent" unicode="&#x116;" horiz-adv-x="582" 
d="M231 603v-199h261v-97h-261v-209h283v-98h-409v700h409v-97h-283zM258 774.5q-22 21.5 -22 52.5t22 53t53 22t53 -21.5t22 -53.5q0 -31 -22 -52.5t-53 -21.5t-53 21.5z" />
    <glyph glyph-name="edotaccent" unicode="&#x117;" horiz-adv-x="560" 
d="M511 227h-343q1 -76 36 -111.5t105 -35.5q39 0 71.5 11.5t70.5 32.5l44 -74q-36 -27 -87.5 -45t-106.5 -18q-79 0 -136.5 32.5t-87.5 89t-30 129.5v55q0 72 29 129.5t83 90.5t126 33q110 0 170 -66.5t60 -192.5q0 -28 -4 -60zM404 313q0 69 -30 105.5t-88 36.5
q-57 0 -86.5 -37t-31.5 -110h236v5zM232 636.5q-22 21.5 -22 52.5t22 53t53 22t53 -21.5t22 -53.5q0 -31 -22 -52.5t-53 -21.5t-53 21.5z" />
    <glyph glyph-name="Eogonek" unicode="&#x118;" horiz-adv-x="582" 
d="M231 603v-199h261v-97h-261v-209h283v-98q-141 -43 -141 -116q0 -21 13 -31.5t43 -10.5q27 0 61 7l-10 -77q-35 -7 -66 -7q-59 0 -94 29t-35 78q0 38 25 71t70 57h-275v700h409v-97h-283z" />
    <glyph glyph-name="eogonek" unicode="&#x119;" horiz-adv-x="560" 
d="M511 227h-343q1 -76 36 -111.5t105 -35.5q39 0 71.5 11.5t70.5 32.5l44 -74q-34 -25 -75 -41q-73 -33 -103.5 -62.5t-30.5 -62.5q0 -21 13 -31.5t42 -10.5q28 0 62 7l-10 -77q-35 -7 -66 -7q-59 0 -94 29t-35 78q0 68 90 115q-75 3 -129.5 36t-83 89t-28.5 126v55
q0 72 29 129.5t83 90.5t126 33q110 0 170 -66.5t60 -192.5q0 -28 -4 -60zM404 313q0 69 -30 105.5t-88 36.5q-57 0 -86.5 -37t-31.5 -110h236v5z" />
    <glyph glyph-name="Ecaron" unicode="&#x11a;" horiz-adv-x="582" 
d="M231 603v-199h261v-97h-261v-209h283v-98h-409v700h409v-97h-283zM139 856l45 58l127 -90l128 90l44 -58l-137 -115h-70z" />
    <glyph glyph-name="ecaron" unicode="&#x11b;" horiz-adv-x="560" 
d="M511 227h-343q1 -76 36 -111.5t105 -35.5q39 0 71.5 11.5t70.5 32.5l44 -74q-36 -27 -87.5 -45t-106.5 -18q-79 0 -136.5 32.5t-87.5 89t-30 129.5v55q0 72 29 129.5t83 90.5t126 33q110 0 170 -66.5t60 -192.5q0 -28 -4 -60zM404 313q0 69 -30 105.5t-88 36.5
q-57 0 -86.5 -37t-31.5 -110h236v5zM113 713l45 58l127 -91l128 91l44 -58l-137 -116h-70z" />
    <glyph glyph-name="Gcircumflex" unicode="&#x11c;" horiz-adv-x="671" 
d="M601 387v-387h-99l-10 61q-76 -74 -185 -74q-68 0 -123 29.5t-86.5 85.5t-31.5 132v195q0 86 34 150t98.5 99t153.5 35q84 0 142.5 -28t99.5 -82l-82 -58q-30 37 -66.5 54t-90.5 17q-81 0 -122 -46.5t-41 -134.5v-198q0 -72 36.5 -112.5t105.5 -40.5q48 0 84.5 19.5
t60.5 53.5l1 136h-149v94h270zM183 798l137 116h70l137 -116l-44 -57l-128 90l-127 -90z" />
    <glyph glyph-name="gcircumflex" unicode="&#x11d;" horiz-adv-x="603" 
d="M518 532v-534q0 -67 -31 -114.5t-84.5 -72t-120.5 -24.5q-115 0 -199 50l39 75q35 -16 70.5 -24t80.5 -8q124 0 124 119v67q-59 -66 -142 -66q-90 0 -147 62t-57 187v45q0 81 29 137.5t77.5 85.5t104.5 29q46 0 81 -15t64 -46l9 47h102zM340 109.5q30 15.5 53 44.5v245
q-44 53 -109 53q-109 0 -109 -155v-48q0 -86 26 -120.5t75 -34.5q34 0 64 15.5zM116 655l137 116h70l137 -116l-44 -58l-128 91l-127 -91z" />
    <glyph glyph-name="Gbreve" unicode="&#x11e;" horiz-adv-x="671" 
d="M601 387v-387h-99l-10 61q-76 -74 -185 -74q-68 0 -123 29.5t-86.5 85.5t-31.5 132v195q0 86 34 150t98.5 99t153.5 35q84 0 142.5 -28t99.5 -82l-82 -58q-30 37 -66.5 54t-90.5 17q-81 0 -122 -46.5t-41 -134.5v-198q0 -72 36.5 -112.5t105.5 -40.5q48 0 84.5 19.5
t60.5 53.5l1 136h-149v94h270zM245 791.5q-44 37.5 -59 102.5l80 14q11 -37 32 -55.5t55 -18.5q69 0 90 74l80 -14q-14 -65 -59.5 -102.5t-110.5 -37.5q-64 0 -108 37.5z" />
    <glyph glyph-name="gbreve" unicode="&#x11f;" horiz-adv-x="603" 
d="M518 532v-534q0 -67 -31 -114.5t-84.5 -72t-120.5 -24.5q-115 0 -199 50l39 75q35 -16 70.5 -24t80.5 -8q124 0 124 119v67q-59 -66 -142 -66q-90 0 -147 62t-57 187v45q0 81 29 137.5t77.5 85.5t104.5 29q46 0 81 -15t64 -46l9 47h102zM340 109.5q30 15.5 53 44.5v245
q-44 53 -109 53q-109 0 -109 -155v-48q0 -86 26 -120.5t75 -34.5q34 0 64 15.5zM178.5 651.5q-43.5 37.5 -56.5 103.5l77 14q11 -38 32 -56.5t55 -18.5q69 0 90 75l77 -14q-12 -65 -57 -103t-110 -38q-64 0 -107.5 37.5z" />
    <glyph glyph-name="Gdotaccent" unicode="&#x120;" horiz-adv-x="671" 
d="M601 387v-387h-99l-10 61q-76 -74 -185 -74q-68 0 -123 29.5t-86.5 85.5t-31.5 132v195q0 86 34 150t98.5 99t153.5 35q84 0 142.5 -28t99.5 -82l-82 -58q-30 37 -66.5 54t-90.5 17q-81 0 -122 -46.5t-41 -134.5v-198q0 -72 36.5 -112.5t105.5 -40.5q48 0 84.5 19.5
t60.5 53.5l1 136h-149v94h270zM302 774.5q-22 21.5 -22 52.5t22 53t53 22t53 -21.5t22 -53.5q0 -31 -22 -52.5t-53 -21.5t-53 21.5z" />
    <glyph glyph-name="gdotaccent" unicode="&#x121;" horiz-adv-x="603" 
d="M518 532v-534q0 -67 -31 -114.5t-84.5 -72t-120.5 -24.5q-115 0 -199 50l39 75q35 -16 70.5 -24t80.5 -8q124 0 124 119v67q-59 -66 -142 -66q-90 0 -147 62t-57 187v45q0 81 29 137.5t77.5 85.5t104.5 29q46 0 81 -15t64 -46l9 47h102zM340 109.5q30 15.5 53 44.5v245
q-44 53 -109 53q-109 0 -109 -155v-48q0 -86 26 -120.5t75 -34.5q34 0 64 15.5zM235 636.5q-22 21.5 -22 52.5t22 53t53 22t53 -21.5t22 -53.5q0 -31 -22 -52.5t-53 -21.5t-53 21.5z" />
    <glyph glyph-name="Gcommaaccent" unicode="&#x122;" horiz-adv-x="671" 
d="M601 387v-387h-99l-10 61q-76 -74 -185 -74q-68 0 -123 29.5t-86.5 85.5t-31.5 132v195q0 86 34 150t98.5 99t153.5 35q84 0 142.5 -28t99.5 -82l-82 -58q-30 37 -66.5 54t-90.5 17q-81 0 -122 -46.5t-41 -134.5v-198q0 -72 36.5 -112.5t105.5 -40.5q48 0 84.5 19.5
t60.5 53.5l1 136h-149v94h270zM265 -306q33 63 36 119q-34 20 -34 57q0 28 20.5 47.5t49.5 19.5t49 -19.5t20 -47.5q0 -39 -23 -93t-64 -108z" />
    <glyph glyph-name="gcommaaccent" unicode="&#x123;" horiz-adv-x="603" 
d="M518 532v-534q0 -67 -31 -114.5t-84.5 -72t-120.5 -24.5q-115 0 -199 50l39 75q35 -16 70.5 -24t80.5 -8q124 0 124 119v67q-59 -66 -142 -66q-90 0 -147 62t-57 187v45q0 81 29 137.5t77.5 85.5t104.5 29q46 0 81 -15t64 -46l9 47h102zM340 109.5q30 15.5 53 44.5v245
q-44 53 -109 53q-109 0 -109 -155v-48q0 -86 26 -120.5t75 -34.5q34 0 64 15.5zM357 849q-33 -63 -36 -119q34 -20 34 -57q0 -28 -20.5 -47.5t-49.5 -19.5t-49 19.5t-20 47.5q0 39 23 93t64 108z" />
    <glyph glyph-name="Hcircumflex" unicode="&#x124;" horiz-adv-x="743" 
d="M638 0h-126v309h-281v-309h-126v700h126v-289h281v289h126v-700zM200 798l137 116h70l137 -116l-44 -57l-128 90l-127 -90z" />
    <glyph glyph-name="hcircumflex" unicode="&#x125;" horiz-adv-x="608" 
d="M484 499q49 -47 49 -131v-368h-124v358q0 94 -84 94q-69 0 -115 -68v-384h-124v740h124v-253q54 59 148 59q77 0 126 -47zM-24 838l137 116h70l137 -116l-44 -57l-128 90l-127 -90z" />
    <glyph glyph-name="Hbar" unicode="&#x126;" horiz-adv-x="743" 
d="M674 510h-36v-510h-126v309h-281v-309h-126v510h-36v77h36v113h126v-113h281v113h126v-113h36v-77zM512 510h-281v-99h281v99z" />
    <glyph glyph-name="hbar" unicode="&#x127;" horiz-adv-x="606" 
d="M482 499q49 -47 49 -131v-368h-124v358q0 94 -84 94q-69 0 -115 -68v-384h-124v595h-45v76h45v69h124v-69h121v-76h-121v-108q54 59 148 59q77 0 126 -47z" />
    <glyph glyph-name="Itilde" unicode="&#x128;" horiz-adv-x="444" 
d="M285 603v-506h90v-97h-306v97h90v506h-90v97h306v-97h-90zM243 757.5q-16 7.5 -36 21.5q-15 10 -24 14.5t-18 4.5q-17 0 -28.5 -11t-24.5 -35l-70 34q19 41 51.5 67t70.5 26q21 0 37 -7.5t36 -21.5q15 -10 24 -14.5t18 -4.5q17 0 28.5 11t24.5 35l70 -34
q-19 -41 -51.5 -67t-70.5 -26q-21 0 -37 7.5z" />
    <glyph glyph-name="itilde" unicode="&#x129;" horiz-adv-x="317" 
d="M231 0h-124v440h-80v92h204v-532zM185 631.5q-16 7.5 -36 21.5q-15 10 -24 14.5t-18 4.5q-17 0 -28.5 -11t-24.5 -35l-70 34q19 41 51.5 67t70.5 26q21 0 37 -7.5t36 -21.5q15 -10 24 -14.5t18 -4.5q17 0 28.5 11t24.5 35l70 -34q-19 -41 -51.5 -67t-70.5 -26
q-21 0 -37 7.5z" />
    <glyph glyph-name="Imacron" unicode="&#x12a;" horiz-adv-x="444" 
d="M285 603v-506h90v-97h-306v97h90v506h-90v97h306v-97h-90zM81 858h281v-79h-281v79z" />
    <glyph glyph-name="imacron" unicode="&#x12b;" horiz-adv-x="317" 
d="M231 0h-124v440h-80v92h204v-532zM23 715h281v-79h-281v79z" />
    <glyph glyph-name="Iogonek" unicode="&#x12e;" horiz-adv-x="444" 
d="M285 603v-506h90v-97h-85q-141 -43 -141 -116q0 -21 13 -31.5t43 -10.5q27 0 61 7l-10 -77q-35 -7 -66 -7q-59 0 -94 29t-35 78q0 38 25 71t70 57h-87v97h90v506h-90v97h306v-97h-90z" />
    <glyph glyph-name="iogonek" unicode="&#x12f;" horiz-adv-x="317" 
d="M111 636.5q-22 21.5 -22 52.5t22 53t53 22q32 0 53.5 -21.5t21.5 -53.5q0 -31 -22 -52.5t-53 -21.5t-53 21.5zM231 532v-532h-6q-141 -43 -141 -116q0 -21 13 -31.5t43 -10.5q27 0 61 7l-10 -77q-35 -7 -66 -7q-59 0 -94 29t-35 78q0 42 29 77t82 59v432h-80v92h204z" />
    <glyph glyph-name="Idotaccent" unicode="&#x130;" horiz-adv-x="444" 
d="M285 603v-506h90v-97h-306v97h90v506h-90v97h306v-97h-90zM169 774.5q-22 21.5 -22 52.5t22 53t53 22t53 -21.5t22 -53.5q0 -31 -22 -52.5t-53 -21.5t-53 21.5z" />
    <glyph glyph-name="dotlessi" unicode="&#x131;" horiz-adv-x="317" 
d="M231 0h-124v440h-80v92h204v-532z" />
    <glyph glyph-name="IJ" unicode="&#x132;" horiz-adv-x="970" 
d="M285 603v-506h90v-97h-306v97h90v506h-90v97h306v-97h-90zM886 211q0 -67 -28 -117.5t-80 -78.5t-123 -28q-64 0 -115.5 19.5t-85.5 51.5l61 71q29 -22 58.5 -33.5t71.5 -11.5q51 0 82.5 29.5t31.5 91.5v398h-264v97h391v-489z" />
    <glyph glyph-name="ij" unicode="&#x133;" horiz-adv-x="635" 
d="M231 0h-124v440h-80v92h204v-532zM111 636.5q-22 21.5 -22 52.5t22 53t53 22t53 -21.5t22 -53.5q0 -31 -22 -52.5t-53 -21.5t-53 21.5zM549 -76q0 -66 -38 -101.5t-102 -35.5q-45 0 -69 13l9 80q14 -3 31 -3q27 0 36 10.5t9 39.5v513h-69v92h193v-608zM432 636.5
q-22 21.5 -22 52.5t22 53t53 22t53 -21.5t22 -53.5q0 -31 -22 -52.5t-53 -21.5t-53 21.5z" />
    <glyph glyph-name="Jcircumflex" unicode="&#x134;" horiz-adv-x="546" 
d="M462 211q0 -67 -28 -117.5t-80 -78.5t-123 -28q-64 0 -115.5 19.5t-85.5 51.5l61 71q29 -22 58.5 -33.5t71.5 -11.5q51 0 82.5 29.5t31.5 91.5v398h-264v97h391v-489zM102 798l137 116h70l137 -116l-44 -57l-128 90l-127 -90z" />
    <glyph glyph-name="jcircumflex" unicode="&#x135;" horiz-adv-x="318" 
d="M232 -76q0 -66 -38 -101.5t-102 -35.5q-45 0 -69 13l9 80q14 -3 31 -3q27 0 36 10.5t9 39.5v513h-69v92h193v-608zM-4 655l137 116h70l137 -116l-44 -58l-128 91l-127 -91z" />
    <glyph glyph-name="Kcommaaccent" unicode="&#x136;" horiz-adv-x="655" 
d="M290 300l-65 -81v-219h-120v700h120v-323l255 323h133l-245 -314l282 -386h-143zM278 -306q33 63 36 119q-34 20 -34 57q0 28 20.5 47.5t49.5 19.5t49 -19.5t20 -47.5q0 -39 -23 -93t-64 -108z" />
    <glyph glyph-name="kcommaaccent" unicode="&#x137;" horiz-adv-x="555" 
d="M255 242l-45 -51v-191h-124v740h124v-413l182 205h136l-190 -215l223 -317h-138zM239 -306q33 63 36 119q-34 20 -34 57q0 28 20.5 47.5t49.5 19.5t49 -19.5t20 -47.5q0 -39 -23 -93t-64 -108z" />
    <glyph glyph-name="kgreenlandic" unicode="&#x138;" horiz-adv-x="555" 
d="M251 238l-41 -47v-191h-124v532h124v-205l182 205h136l-190 -215l223 -317h-144z" />
    <glyph glyph-name="Lacute" unicode="&#x139;" horiz-adv-x="525" 
d="M515 102v-102h-410v700h126v-598h284zM42 810l210 104l39 -83l-218 -88z" />
    <glyph glyph-name="lacute" unicode="&#x13a;" horiz-adv-x="307" 
d="M200 124q0 -22 8 -31.5t28 -9.5q5 0 21 2l13 -85q-37 -13 -71 -13q-57 0 -90 30.5t-33 88.5v634h124v-616zM12 850l210 104l39 -83l-218 -88z" />
    <glyph glyph-name="Lcommaaccent" unicode="&#x13b;" horiz-adv-x="525" 
d="M515 102v-102h-410v700h126v-598h284zM237 -306q33 63 36 119q-34 20 -34 57q0 28 20.5 47.5t49.5 19.5t49 -19.5t20 -47.5q0 -39 -23 -93t-64 -108z" />
    <glyph glyph-name="lcommaaccent" unicode="&#x13c;" horiz-adv-x="307" 
d="M200 124q0 -22 8 -31.5t28 -9.5q5 0 21 2l13 -85q-37 -13 -71 -13q-57 0 -90 30.5t-33 88.5v634h124v-616zM111 -306q33 63 36 119q-34 20 -34 57q0 28 20.5 47.5t49.5 19.5t49 -19.5t20 -47.5q0 -39 -23 -93t-64 -108z" />
    <glyph glyph-name="Lcaron" unicode="&#x13d;" horiz-adv-x="531" 
d="M515 102v-102h-410v700h126v-598h284zM316 517l25 198l101 -15l-50 -194z" />
    <glyph glyph-name="lcaron" unicode="&#x13e;" horiz-adv-x="373" 
d="M200 124q0 -22 8 -31.5t28 -9.5q5 0 21 2l13 -85q-37 -13 -71 -13q-57 0 -90 30.5t-33 88.5v634h124v-616zM262 557l25 198l101 -15l-50 -194z" />
    <glyph glyph-name="Ldot" unicode="&#x13f;" horiz-adv-x="530" 
d="M515 102v-102h-410v700h126v-598h284zM385.5 351.5q-20.5 20.5 -20.5 50.5q0 29 20.5 50t50.5 21t50 -20.5t20 -50.5t-20 -50.5t-50 -20.5t-50.5 20.5z" />
    <glyph glyph-name="ldot" unicode="&#x140;" horiz-adv-x="361" 
d="M200 124q0 -22 8 -31.5t28 -9.5q5 0 21 2l13 -85q-37 -13 -71 -13q-57 0 -90 30.5t-33 88.5v634h124v-616zM265 351.5q-21 20.5 -21 50.5q0 29 21 50t50 21q30 0 50.5 -21t20.5 -50q0 -30 -20.5 -50.5t-50.5 -20.5q-29 0 -50 20.5z" />
    <glyph glyph-name="Lslash" unicode="&#x141;" horiz-adv-x="535" 
d="M525 102v-102h-410v320l-55 -16l-23 83l78 23v290h126v-254l122 36l23 -83l-145 -42v-255h284z" />
    <glyph glyph-name="lslash" unicode="&#x142;" horiz-adv-x="315" 
d="M267 85l13 -85q-37 -13 -71 -13q-57 0 -90 30.5t-33 88.5v237l-57 -14l-19 84l76 18v309h124v-279l65 16l19 -83l-84 -21v-249q0 -22 8 -31.5t28 -9.5q5 0 21 2z" />
    <glyph glyph-name="Nacute" unicode="&#x143;" horiz-adv-x="741" 
d="M637 700v-700h-146l-275 543v-543h-111v700h151l269 -525v525h112zM255 810l210 104l39 -83l-218 -88z" />
    <glyph glyph-name="nacute" unicode="&#x144;" horiz-adv-x="608" 
d="M483.5 499q48.5 -47 48.5 -131v-368h-124v358q0 94 -83 94q-68 0 -115 -66v-386h-124v532h106l8 -54q57 68 158 68q77 0 125.5 -47zM178 667l208 111l43 -82l-218 -95z" />
    <glyph glyph-name="Ncommaaccent" unicode="&#x145;" horiz-adv-x="741" 
d="M637 700v-700h-146l-275 543v-543h-111v700h151l269 -525v525h112zM300 -306q33 63 36 119q-34 20 -34 57q0 28 20.5 47.5t49.5 19.5t49 -19.5t20 -47.5q0 -39 -23 -93t-64 -108z" />
    <glyph glyph-name="ncommaaccent" unicode="&#x146;" horiz-adv-x="608" 
d="M483.5 499q48.5 -47 48.5 -131v-368h-124v358q0 94 -83 94q-68 0 -115 -66v-386h-124v532h106l8 -54q57 68 158 68q77 0 125.5 -47zM234 -306q33 63 36 119q-34 20 -34 57q0 28 20.5 47.5t49.5 19.5t49 -19.5t20 -47.5q0 -39 -23 -93t-64 -108z" />
    <glyph glyph-name="Ncaron" unicode="&#x147;" horiz-adv-x="741" 
d="M637 700v-700h-146l-275 543v-543h-111v700h151l269 -525v525h112zM209 856l45 58l127 -90l128 90l44 -58l-137 -115h-70z" />
    <glyph glyph-name="ncaron" unicode="&#x148;" horiz-adv-x="608" 
d="M483.5 499q48.5 -47 48.5 -131v-368h-124v358q0 94 -83 94q-68 0 -115 -66v-386h-124v532h106l8 -54q57 68 158 68q77 0 125.5 -47zM132 713l45 58l127 -91l128 91l44 -58l-137 -116h-70z" />
    <glyph glyph-name="Eng" unicode="&#x14a;" horiz-adv-x="741" 
d="M637 700v-774q0 -67 -37.5 -103t-102.5 -36q-45 0 -69 13l8 80q15 -3 33 -3q28 0 41 11t13 39v73h-32l-275 543v-543h-111v700h151l269 -525v525h112z" />
    <glyph glyph-name="eng" unicode="&#x14b;" horiz-adv-x="608" 
d="M483.5 499q48.5 -47 48.5 -131v-444q0 -66 -37.5 -101.5t-102.5 -35.5q-45 0 -69 13l9 80q15 -3 31 -3q27 0 36 10.5t9 39.5v431q0 94 -83 94q-68 0 -115 -66v-386h-124v532h106l8 -54q57 68 158 68q77 0 125.5 -47z" />
    <glyph glyph-name="Omacron" unicode="&#x14c;" horiz-adv-x="706" 
d="M511.5 677q64.5 -36 97 -100.5t32.5 -148.5v-157q0 -83 -32.5 -147t-97 -100.5t-158.5 -36.5q-93 0 -157.5 36.5t-97 100.5t-32.5 147v157q0 84 32.5 148.5t97 100.5t157.5 36q94 0 158.5 -36zM232.5 566q-40.5 -50 -40.5 -137v-160q0 -86 40.5 -135.5t120.5 -49.5
t120.5 49.5t40.5 135.5v160q0 87 -40.5 137t-120.5 50t-120.5 -50zM212 858h281v-79h-281v79z" />
    <glyph glyph-name="omacron" unicode="&#x14d;" horiz-adv-x="595" 
d="M433 514q57 -32 86 -89t29 -131v-54q0 -115 -66 -184t-186 -69q-119 0 -184 69t-65 184v54q0 74 28.5 131t84.5 89t136 32t137 -32zM203 412.5q-32 -39.5 -32 -116.5v-56q0 -79 31.5 -119.5t93.5 -40.5t95 40.5t33 119.5v56q0 76 -33 116t-95 40q-61 0 -93 -39.5z
M156 715h281v-79h-281v79z" />
    <glyph glyph-name="Ohungarumlaut" unicode="&#x150;" horiz-adv-x="706" 
d="M511.5 677q64.5 -36 97 -100.5t32.5 -148.5v-157q0 -83 -32.5 -147t-97 -100.5t-158.5 -36.5q-93 0 -157.5 36.5t-97 100.5t-32.5 147v157q0 84 32.5 148.5t97 100.5t157.5 36q94 0 158.5 -36zM232.5 566q-40.5 -50 -40.5 -137v-160q0 -86 40.5 -135.5t120.5 -49.5
t120.5 49.5t40.5 135.5v160q0 87 -40.5 137t-120.5 50t-120.5 -50zM223 764l79 175l84 -38l-92 -166zM379 762l89 177l82 -41l-99 -168z" />
    <glyph glyph-name="ohungarumlaut" unicode="&#x151;" horiz-adv-x="595" 
d="M433 514q57 -32 86 -89t29 -131v-54q0 -115 -66 -184t-186 -69q-119 0 -184 69t-65 184v54q0 74 28.5 131t84.5 89t136 32t137 -32zM203 412.5q-32 -39.5 -32 -116.5v-56q0 -79 31.5 -119.5t93.5 -40.5t95 40.5t33 119.5v56q0 76 -33 116t-95 40q-61 0 -93 -39.5z
M166 638l79 175l84 -38l-92 -166zM322 636l89 177l82 -41l-99 -168z" />
    <glyph glyph-name="OE" unicode="&#x152;" horiz-adv-x="996" 
d="M927 603h-333q47 -71 47 -175v-24h264v-97h-264v-36q0 -104 -47 -173h333v-98h-471q-49 -13 -101 -13q-93 0 -158 36.5t-98 100.5t-33 147v157q0 84 32.5 148t97.5 100.5t159 36.5q52 0 101 -13h471v-97zM233 133.5q41 -49.5 122 -49.5t122 49.5t41 135.5v160
q0 86 -41 136.5t-122 50.5t-122 -50.5t-41 -136.5v-160q0 -86 41 -135.5z" />
    <glyph glyph-name="oe" unicode="&#x153;" horiz-adv-x="934" 
d="M885 227h-343q3 -147 142 -147q40 0 71 11t70 33l44 -74q-36 -27 -87.5 -45t-105.5 -18q-127 0 -191 104q-62 -104 -190 -104q-119 0 -183.5 69t-64.5 184v54q0 74 28.5 131t84.5 89t135 32q127 0 190 -103q61 103 177 103q107 0 167 -67t60 -192q0 -28 -4 -60zM778 313
q0 70 -30.5 107.5t-87.5 37.5t-86.5 -38t-31.5 -112h236v5zM424 296q0 76 -33 116t-95 40q-61 0 -93 -39.5t-32 -116.5v-56q0 -78 32 -118.5t93 -40.5q62 0 95 40.5t33 118.5v56z" />
    <glyph glyph-name="Racute" unicode="&#x154;" horiz-adv-x="659" 
d="M337 277h-106v-277h-126v700h236q111 0 178 -49.5t67 -135.5v-52q0 -57 -33.5 -99t-93.5 -65l161 -299h-138zM231 371h106q57 0 89.5 25t32.5 70v43q0 46 -33 71t-90 25h-105v-234zM195 810l210 104l39 -83l-218 -88z" />
    <glyph glyph-name="racute" unicode="&#x155;" horiz-adv-x="416" 
d="M404 534l-22 -115q-15 3 -32 3q-48 0 -83.5 -24t-56.5 -80v-318h-124v532h90l20 -84q22 49 60.5 72.5t83.5 23.5q34 0 64 -10zM118 667l208 111l43 -82l-218 -95z" />
    <glyph glyph-name="Rcommaaccent" unicode="&#x156;" horiz-adv-x="659" 
d="M337 277h-106v-277h-126v700h236q111 0 178 -49.5t67 -135.5v-52q0 -57 -33.5 -99t-93.5 -65l161 -299h-138zM231 371h106q57 0 89.5 25t32.5 70v43q0 46 -33 71t-90 25h-105v-234zM280 -306q33 63 36 119q-34 20 -34 57q0 28 20.5 47.5t49.5 19.5t49 -19.5t20 -47.5
q0 -39 -23 -93t-64 -108z" />
    <glyph glyph-name="rcommaaccent" unicode="&#x157;" horiz-adv-x="416" 
d="M404 534l-22 -115q-15 3 -32 3q-48 0 -83.5 -24t-56.5 -80v-318h-124v532h90l20 -84q22 49 60.5 72.5t83.5 23.5q34 0 64 -10zM78 -306q33 63 36 119q-34 20 -34 57q0 28 20.5 47.5t49.5 19.5t49 -19.5t20 -47.5q0 -39 -23 -93t-64 -108z" />
    <glyph glyph-name="Rcaron" unicode="&#x158;" horiz-adv-x="659" 
d="M337 277h-106v-277h-126v700h236q111 0 178 -49.5t67 -135.5v-52q0 -57 -33.5 -99t-93.5 -65l161 -299h-138zM231 371h106q57 0 89.5 25t32.5 70v43q0 46 -33 71t-90 25h-105v-234zM149 856l45 58l127 -90l128 90l44 -58l-137 -115h-70z" />
    <glyph glyph-name="rcaron" unicode="&#x159;" horiz-adv-x="416" 
d="M404 534l-22 -115q-15 3 -32 3q-48 0 -83.5 -24t-56.5 -80v-318h-124v532h90l20 -84q22 49 60.5 72.5t83.5 23.5q34 0 64 -10zM72 713l45 58l127 -91l128 91l44 -58l-137 -116h-70z" />
    <glyph glyph-name="Sacute" unicode="&#x15a;" horiz-adv-x="613" 
d="M28 78l63 75q38 -25 61 -37.5t55 -20.5t77 -8q72 0 110 29.5t38 68.5v13q0 38 -22.5 60t-84.5 42l-103 34q-165 53 -165 177v23q0 48 29.5 89t86.5 65.5t134 24.5t137 -23t109 -68l-62 -69q-48 36 -87 50t-92 14q-63 0 -96 -24.5t-33 -57.5v-17q0 -27 26.5 -49t85.5 -40
l93 -30q80 -25 124.5 -69t44.5 -119v-27q0 -58 -34 -103t-94.5 -69.5t-138.5 -24.5q-164 0 -262 91zM176 810l210 104l39 -83l-218 -88z" />
    <glyph glyph-name="sacute" unicode="&#x15b;" horiz-adv-x="507" 
d="M125 6q-56 19 -97 54l59 71q35 -26 71 -39t79 -13q101 0 101 58v8q0 26 -18 41.5t-71 33.5l-67 23q-65 23 -96.5 55.5t-31.5 81.5v22q0 42 26 74.5t72 51t104 18.5q57 0 109.5 -17.5t90.5 -49.5l-57 -68q-38 25 -69.5 34t-69.5 9q-40 0 -61 -14.5t-21 -36.5v-8
q0 -22 18 -37t68 -33l67 -23q64 -23 97 -55t33 -88v-22q0 -71 -61 -110.5t-152 -39.5q-67 0 -123 19zM129 667l208 111l43 -82l-218 -95z" />
    <glyph glyph-name="Scircumflex" unicode="&#x15c;" horiz-adv-x="613" 
d="M28 78l63 75q38 -25 61 -37.5t55 -20.5t77 -8q72 0 110 29.5t38 68.5v13q0 38 -22.5 60t-84.5 42l-103 34q-165 53 -165 177v23q0 48 29.5 89t86.5 65.5t134 24.5t137 -23t109 -68l-62 -69q-48 36 -87 50t-92 14q-63 0 -96 -24.5t-33 -57.5v-17q0 -27 26.5 -49t85.5 -40
l93 -30q80 -25 124.5 -69t44.5 -119v-27q0 -58 -34 -103t-94.5 -69.5t-138.5 -24.5q-164 0 -262 91zM130 798l137 116h70l137 -116l-44 -57l-128 90l-127 -90z" />
    <glyph glyph-name="scircumflex" unicode="&#x15d;" horiz-adv-x="507" 
d="M125 6q-56 19 -97 54l59 71q35 -26 71 -39t79 -13q101 0 101 58v8q0 26 -18 41.5t-71 33.5l-67 23q-65 23 -96.5 55.5t-31.5 81.5v22q0 42 26 74.5t72 51t104 18.5q57 0 109.5 -17.5t90.5 -49.5l-57 -68q-38 25 -69.5 34t-69.5 9q-40 0 -61 -14.5t-21 -36.5v-8
q0 -22 18 -37t68 -33l67 -23q64 -23 97 -55t33 -88v-22q0 -71 -61 -110.5t-152 -39.5q-67 0 -123 19zM83 655l137 116h70l137 -116l-44 -58l-128 91l-127 -91z" />
    <glyph glyph-name="Scedilla" unicode="&#x15e;" horiz-adv-x="613" 
d="M512.5 330q44.5 -44 44.5 -119v-27q0 -80 -61.5 -132.5t-162.5 -62.5v-42q50 -4 73 -25.5t23 -59.5v-14q0 -47 -36.5 -70t-93.5 -23q-43 0 -85 15l16 59q35 -7 63 -7q25 0 37 6t12 25v8q0 19 -20 26t-70 7l5 94q-140 8 -229 90l63 75q38 -25 61 -37.5t55 -20.5t77 -8
q72 0 110 29.5t38 68.5v13q0 38 -22.5 60t-84.5 42l-103 34q-165 53 -165 177v23q0 48 29.5 89t86.5 65.5t134 24.5t137 -23t109 -68l-62 -69q-48 36 -87 50t-92 14q-63 0 -96 -24.5t-33 -57.5v-17q0 -27 26.5 -49t85.5 -40l93 -30q80 -25 124.5 -69z" />
    <glyph glyph-name="scedilla" unicode="&#x15f;" horiz-adv-x="507" 
d="M428 247q33 -32 33 -88v-22q0 -63 -47.5 -101t-123.5 -47v-42q50 -4 73 -25.5t23 -59.5v-14q0 -47 -36.5 -70t-93.5 -23q-43 0 -85 15l16 59q35 -7 63 -7q25 0 37 6t12 25v8q0 19 -20 26t-70 7l5 94q-112 9 -186 72l59 71q35 -26 71 -39t79 -13q101 0 101 58v8
q0 26 -18 41.5t-71 33.5l-67 23q-65 23 -96.5 55.5t-31.5 81.5v22q0 42 26 74.5t72 51t104 18.5q57 0 109.5 -17.5t90.5 -49.5l-57 -68q-38 25 -69.5 34t-69.5 9q-40 0 -61 -14.5t-21 -36.5v-8q0 -22 18 -37t68 -33l67 -23q64 -23 97 -55z" />
    <glyph glyph-name="Scaron" unicode="&#x160;" horiz-adv-x="613" 
d="M28 78l63 75q38 -25 61 -37.5t55 -20.5t77 -8q72 0 110 29.5t38 68.5v13q0 38 -22.5 60t-84.5 42l-103 34q-165 53 -165 177v23q0 48 29.5 89t86.5 65.5t134 24.5t137 -23t109 -68l-62 -69q-48 36 -87 50t-92 14q-63 0 -96 -24.5t-33 -57.5v-17q0 -27 26.5 -49t85.5 -40
l93 -30q80 -25 124.5 -69t44.5 -119v-27q0 -58 -34 -103t-94.5 -69.5t-138.5 -24.5q-164 0 -262 91zM130 856l45 58l127 -90l128 90l44 -58l-137 -115h-70z" />
    <glyph glyph-name="scaron" unicode="&#x161;" horiz-adv-x="507" 
d="M125 6q-56 19 -97 54l59 71q35 -26 71 -39t79 -13q101 0 101 58v8q0 26 -18 41.5t-71 33.5l-67 23q-65 23 -96.5 55.5t-31.5 81.5v22q0 42 26 74.5t72 51t104 18.5q57 0 109.5 -17.5t90.5 -49.5l-57 -68q-38 25 -69.5 34t-69.5 9q-40 0 -61 -14.5t-21 -36.5v-8
q0 -22 18 -37t68 -33l67 -23q64 -23 97 -55t33 -88v-22q0 -71 -61 -110.5t-152 -39.5q-67 0 -123 19zM83 713l45 58l127 -91l128 91l44 -58l-137 -116h-70z" />
    <glyph glyph-name="uni0162" unicode="&#x162;" horiz-adv-x="548" 
d="M313 0v-53q50 -4 73 -25.5t23 -59.5v-14q0 -47 -36.5 -70t-93.5 -23q-43 0 -85 15l16 59q35 -7 63 -7q25 0 37 6t12 25v8q0 19 -20 26t-70 7l5 106h-26v603h-197v97h519v-97h-196v-603h-24z" />
    <glyph glyph-name="uni0163" unicode="&#x163;" horiz-adv-x="401" 
d="M361 -78.5q23 -21.5 23 -59.5v-14q0 -47 -36.5 -70t-93.5 -23q-43 0 -85 15l16 59q35 -7 63 -7q25 0 37 6t12 25v8q0 19 -20 26t-70 7l5 100q-99 25 -99 138v308h-81v92h84l10 131h111v-131h115v-92h-115v-301q0 -29 16 -43t49 -14q25 0 52 5l13 -87q-35 -10 -79 -13v-40
q50 -4 73 -25.5z" />
    <glyph glyph-name="Tcaron" unicode="&#x164;" horiz-adv-x="548" 
d="M533 603h-196v-603h-126v603h-197v97h519v-97zM102 856l45 58l127 -90l128 90l44 -58l-137 -115h-70z" />
    <glyph glyph-name="tcaron" unicode="&#x165;" horiz-adv-x="390" 
d="M351 580l-70 10l17 162l94 -12zM354 87l13 -87q-45 -13 -93 -13q-78 0 -119.5 35.5t-41.5 109.5v308h-81v92h84l10 131h111v-131h115v-92h-115v-301q0 -29 16 -43t49 -14q25 0 52 5z" />
    <glyph glyph-name="Tbar" unicode="&#x166;" horiz-adv-x="548" 
d="M337 603v-176h92v-76h-92v-351h-126v351h-92v76h92v176h-197v97h519v-97h-196z" />
    <glyph glyph-name="tbar" unicode="&#x167;" horiz-adv-x="415" 
d="M374 0q-45 -13 -93 -13q-78 0 -119.5 35.5t-41.5 109.5v132h-81v76h81v100h-81v92h84l10 131h111v-131h115v-92h-115v-100h104v-76h-104v-125q0 -29 16 -43t49 -14q25 0 52 5z" />
    <glyph glyph-name="Utilde" unicode="&#x168;" horiz-adv-x="708" 
d="M624 226q0 -107 -69 -173t-201 -66q-88 0 -149 31t-91 85t-30 123v474h127v-474q0 -67 34.5 -104.5t108.5 -37.5t109 37.5t35 104.5v474h126v-474zM375 757.5q-16 7.5 -36 21.5q-15 10 -24 14.5t-18 4.5q-17 0 -28.5 -11t-24.5 -35l-70 34q19 41 51.5 67t70.5 26
q21 0 37 -7.5t36 -21.5q15 -10 24 -14.5t18 -4.5q17 0 28.5 11t24.5 35l70 -34q-19 -41 -51.5 -67t-70.5 -26q-21 0 -37 7.5z" />
    <glyph glyph-name="utilde" unicode="&#x169;" horiz-adv-x="605" 
d="M519 532v-532h-105l-9 59q-66 -72 -160 -72q-47 0 -85.5 20t-61 56.5t-22.5 85.5v383h124v-377q0 -36 19 -55.5t56 -19.5q33 0 65 18t55 50v384h124zM324 631.5q-16 7.5 -36 21.5q-15 10 -24 14.5t-18 4.5q-17 0 -28.5 -11t-24.5 -35l-70 34q19 41 51.5 67t70.5 26
q21 0 37 -7.5t36 -21.5q15 -10 24 -14.5t18 -4.5q17 0 28.5 11t24.5 35l70 -34q-19 -41 -51.5 -67t-70.5 -26q-21 0 -37 7.5z" />
    <glyph glyph-name="Umacron" unicode="&#x16a;" horiz-adv-x="708" 
d="M624 226q0 -107 -69 -173t-201 -66q-88 0 -149 31t-91 85t-30 123v474h127v-474q0 -67 34.5 -104.5t108.5 -37.5t109 37.5t35 104.5v474h126v-474zM213 858h281v-79h-281v79z" />
    <glyph glyph-name="umacron" unicode="&#x16b;" horiz-adv-x="605" 
d="M519 532v-532h-105l-9 59q-66 -72 -160 -72q-47 0 -85.5 20t-61 56.5t-22.5 85.5v383h124v-377q0 -36 19 -55.5t56 -19.5q33 0 65 18t55 50v384h124zM162 715h281v-79h-281v79z" />
    <glyph glyph-name="Ubreve" unicode="&#x16c;" horiz-adv-x="708" 
d="M624 226q0 -107 -69 -173t-201 -66q-88 0 -149 31t-91 85t-30 123v474h127v-474q0 -67 34.5 -104.5t108.5 -37.5t109 37.5t35 104.5v474h126v-474zM244 791.5q-44 37.5 -59 102.5l80 14q11 -37 32 -55.5t55 -18.5q69 0 90 74l80 -14q-14 -65 -59.5 -102.5t-110.5 -37.5
q-64 0 -108 37.5z" />
    <glyph glyph-name="ubreve" unicode="&#x16d;" horiz-adv-x="605" 
d="M519 532v-532h-105l-9 59q-66 -72 -160 -72q-47 0 -85.5 20t-61 56.5t-22.5 85.5v383h124v-377q0 -36 19 -55.5t56 -19.5q33 0 65 18t55 50v384h124zM193.5 651.5q-43.5 37.5 -56.5 103.5l77 14q11 -38 32 -56.5t55 -18.5q69 0 90 75l77 -14q-12 -65 -57 -103t-110 -38
q-64 0 -107.5 37.5z" />
    <glyph glyph-name="Uring" unicode="&#x16e;" horiz-adv-x="708" 
d="M624 226q0 -107 -69 -173t-201 -66q-88 0 -149 31t-91 85t-30 123v474h127v-474q0 -67 34.5 -104.5t108.5 -37.5t109 37.5t35 104.5v474h126v-474zM264 756q-36 32 -36 78v18q0 46 36 79t90 33t90.5 -33t36.5 -79v-18q0 -46 -36.5 -78t-90.5 -32t-90 32zM391 800
q14 12 14 35v16q0 23 -14 36t-37 13t-37 -13t-14 -36v-16q0 -23 14 -35t37 -12t37 12z" />
    <glyph glyph-name="uring" unicode="&#x16f;" horiz-adv-x="605" 
d="M519 532v-532h-105l-9 59q-66 -72 -160 -72q-47 0 -85.5 20t-61 56.5t-22.5 85.5v383h124v-377q0 -36 19 -55.5t56 -19.5q33 0 65 18t55 50v384h124zM213 630q-36 32 -36 78v18q0 46 36 79t90 33t90.5 -33t36.5 -79v-18q0 -46 -36.5 -78t-90.5 -32t-90 32zM340 674
q14 12 14 35v16q0 23 -14 36t-37 13t-37 -13t-14 -36v-16q0 -23 14 -35t37 -12t37 12z" />
    <glyph glyph-name="Uhungarumlaut" unicode="&#x170;" horiz-adv-x="708" 
d="M624 226q0 -107 -69 -173t-201 -66q-88 0 -149 31t-91 85t-30 123v474h127v-474q0 -67 34.5 -104.5t108.5 -37.5t109 37.5t35 104.5v474h126v-474zM224 764l79 175l84 -38l-92 -166zM380 762l89 177l82 -41l-99 -168z" />
    <glyph glyph-name="uhungarumlaut" unicode="&#x171;" horiz-adv-x="605" 
d="M519 532v-532h-105l-9 59q-66 -72 -160 -72q-47 0 -85.5 20t-61 56.5t-22.5 85.5v383h124v-377q0 -36 19 -55.5t56 -19.5q33 0 65 18t55 50v384h124zM172 638l79 175l84 -38l-92 -166zM328 636l89 177l82 -41l-99 -168z" />
    <glyph glyph-name="Uogonek" unicode="&#x172;" horiz-adv-x="711" 
d="M624 700v-474q0 -77 -36.5 -134.5t-107.5 -83.5q-72 -31 -102.5 -60.5t-30.5 -63.5q0 -21 13 -31.5t42 -10.5q28 0 62 7l-10 -77q-35 -7 -66 -7q-59 0 -94 29t-35 78q0 69 90 115q-129 1 -197 67t-68 172v474h127v-474q0 -67 34.5 -104.5t108.5 -37.5t109 37.5t35 104.5
v474h126z" />
    <glyph glyph-name="uogonek" unicode="&#x173;" horiz-adv-x="605" 
d="M378 -116q0 -21 13 -31.5t43 -10.5q27 0 61 7l-10 -77q-35 -7 -66 -7q-59 0 -94 29t-35 78q0 44 32 80.5t90 60.5l-7 46q-66 -72 -160 -72q-47 0 -85.5 20t-61 56.5t-22.5 85.5v383h124v-377q0 -36 19 -55.5t56 -19.5q33 0 65 18t55 50v384h124v-532q-141 -43 -141 -116z
" />
    <glyph glyph-name="Wcircumflex" unicode="&#x174;" horiz-adv-x="899" 
d="M860 700l-118 -700h-177l-118 589l-118 -589h-178l-121 700h129l88 -593l121 593h162l123 -593l85 593h122zM278 798l137 116h70l137 -116l-44 -57l-128 90l-127 -90z" />
    <glyph glyph-name="wcircumflex" unicode="&#x175;" horiz-adv-x="799" 
d="M764 532l-118 -532h-153l-93 424l-95 -424h-150l-120 532h124l79 -428l95 428h138l96 -428l75 428h122zM227 655l137 116h70l137 -116l-44 -58l-128 91l-127 -91z" />
    <glyph glyph-name="Ycircumflex" unicode="&#x176;" horiz-adv-x="582" 
d="M578 700l-223 -415v-285h-127v285l-224 415h132l159 -317l156 317h127zM120 798l137 116h70l137 -116l-44 -57l-128 90l-127 -90z" />
    <glyph glyph-name="ycircumflex" unicode="&#x177;" horiz-adv-x="542" 
d="M107.5 -209.5q-21.5 3.5 -35.5 9.5l17 81q30 -6 56 -6q36 0 57.5 15.5t30.5 51.5l17 58h-54l-171 532h128l126 -440l115 440h123l-181 -597q-24 -81 -69 -114.5t-116 -33.5q-22 0 -43.5 3.5zM100 655l137 116h70l137 -116l-44 -58l-128 91l-127 -91z" />
    <glyph glyph-name="Ydieresis" unicode="&#x178;" horiz-adv-x="582" 
d="M578 700l-223 -415v-285h-127v285l-224 415h132l159 -317l156 317h127zM127.5 795q-19.5 19 -19.5 46t19.5 46t47.5 19t47 -19t19 -46t-19 -46t-47 -19t-47.5 19zM363 795q-19 19 -19 46t19 46t46 19q28 0 47.5 -19t19.5 -46t-19.5 -46t-47.5 -19q-27 0 -46 19z" />
    <glyph glyph-name="Zacute" unicode="&#x179;" horiz-adv-x="573" 
d="M525 608l-344 -507h353v-101h-489v96l344 507h-330v97h466v-92zM170 810l210 104l39 -83l-218 -88z" />
    <glyph glyph-name="zacute" unicode="&#x17a;" horiz-adv-x="467" 
d="M427 445l-259 -350h266v-95h-399v90l259 348h-246v94h379v-87zM107 667l208 111l43 -82l-218 -95z" />
    <glyph glyph-name="Zdotaccent" unicode="&#x17b;" horiz-adv-x="573" 
d="M525 608l-344 -507h353v-101h-489v96l344 507h-330v97h466v-92zM243 774.5q-22 21.5 -22 52.5t22 53t53 22t53 -21.5t22 -53.5q0 -31 -22 -52.5t-53 -21.5t-53 21.5z" />
    <glyph glyph-name="zdotaccent" unicode="&#x17c;" horiz-adv-x="467" 
d="M427 445l-259 -350h266v-95h-399v90l259 348h-246v94h379v-87zM180 636.5q-22 21.5 -22 52.5t22 53t53 22t53 -21.5t22 -53.5q0 -31 -22 -52.5t-53 -21.5t-53 21.5z" />
    <glyph glyph-name="Zcaron" unicode="&#x17d;" horiz-adv-x="573" 
d="M525 608l-344 -507h353v-101h-489v96l344 507h-330v97h466v-92zM124 856l45 58l127 -90l128 90l44 -58l-137 -115h-70z" />
    <glyph glyph-name="zcaron" unicode="&#x17e;" horiz-adv-x="467" 
d="M427 445l-259 -350h266v-95h-399v90l259 348h-246v94h379v-87zM61 713l45 58l127 -91l128 91l44 -58l-137 -116h-70z" />
    <glyph glyph-name="florin" unicode="&#x192;" horiz-adv-x="387" 
d="M249.5 645q-17.5 -16 -17.5 -52v-61h127v-92h-127v-517q0 -65 -38 -100.5t-102 -35.5q-45 0 -69 13l9 80q14 -3 31 -3q27 0 36 10t9 38v515h-71v92h71v51q0 85 46 127.5t134 42.5q56 0 97 -13l-13 -88q-38 9 -67 9q-38 0 -55.5 -16z" />
    <glyph glyph-name="Scommaaccent" unicode="&#x218;" horiz-adv-x="613" 
d="M28 78l63 75q38 -25 61 -37.5t55 -20.5t77 -8q72 0 110 29.5t38 68.5v13q0 38 -22.5 60t-84.5 42l-103 34q-165 53 -165 177v23q0 48 29.5 89t86.5 65.5t134 24.5t137 -23t109 -68l-62 -69q-48 36 -87 50t-92 14q-63 0 -96 -24.5t-33 -57.5v-17q0 -27 26.5 -49t85.5 -40
l93 -30q80 -25 124.5 -69t44.5 -119v-27q0 -58 -34 -103t-94.5 -69.5t-138.5 -24.5q-164 0 -262 91zM224 -306q33 63 36 119q-34 20 -34 57q0 28 20.5 47.5t49.5 19.5t49 -19.5t20 -47.5q0 -39 -23 -93t-64 -108z" />
    <glyph glyph-name="scommaaccent" unicode="&#x219;" horiz-adv-x="507" 
d="M125 6q-56 19 -97 54l59 71q35 -26 71 -39t79 -13q101 0 101 58v8q0 26 -18 41.5t-71 33.5l-67 23q-65 23 -96.5 55.5t-31.5 81.5v22q0 42 26 74.5t72 51t104 18.5q57 0 109.5 -17.5t90.5 -49.5l-57 -68q-38 25 -69.5 34t-69.5 9q-40 0 -61 -14.5t-21 -36.5v-8
q0 -22 18 -37t68 -33l67 -23q64 -23 97 -55t33 -88v-22q0 -71 -61 -110.5t-152 -39.5q-67 0 -123 19zM181 -306q33 63 36 119q-34 20 -34 57q0 28 20.5 47.5t49.5 19.5t49 -19.5t20 -47.5q0 -39 -23 -93t-64 -108z" />
    <glyph glyph-name="uni021A" unicode="&#x21a;" horiz-adv-x="548" 
d="M533 603h-196v-603h-126v603h-197v97h519v-97zM204 -306q33 63 36 119q-34 20 -34 57q0 28 20.5 47.5t49.5 19.5t49 -19.5t20 -47.5q0 -39 -23 -93t-64 -108z" />
    <glyph glyph-name="uni021B" unicode="&#x21b;" horiz-adv-x="401" 
d="M367 0q-45 -13 -93 -13q-78 0 -119.5 35.5t-41.5 109.5v308h-81v92h84l10 131h111v-131h115v-92h-115v-301q0 -29 16 -43t49 -14q25 0 52 5zM179 -306q33 63 36 119q-34 20 -34 57q0 28 20.5 47.5t49.5 19.5t49 -19.5t20 -47.5q0 -39 -23 -93t-64 -108z" />
    <glyph glyph-name="uni021E" unicode="&#x21e;" horiz-adv-x="743" 
d="M638 0h-126v309h-281v-309h-126v700h126v-289h281v289h126v-700zM200 856l45 58l127 -90l128 90l44 -58l-137 -115h-70z" />
    <glyph glyph-name="uni021F" unicode="&#x21f;" horiz-adv-x="608" 
d="M484 499q49 -47 49 -131v-368h-124v358q0 94 -84 94q-69 0 -115 -68v-384h-124v740h124v-253q54 59 148 59q77 0 126 -47zM-24 896l45 58l127 -90l128 90l44 -58l-137 -115h-70z" />
    <glyph glyph-name="uni0237" unicode="&#x237;" horiz-adv-x="318" 
d="M232 -76q0 -66 -38 -101.5t-102 -35.5q-45 0 -69 13l9 80q14 -3 31 -3q27 0 36 10.5t9 39.5v513h-69v92h193v-608z" />
    <glyph glyph-name="circumflex" unicode="&#x2c6;" horiz-adv-x="400" 
d="M28 655l137 116h70l137 -116l-44 -58l-128 91l-127 -91z" />
    <glyph glyph-name="caron" unicode="&#x2c7;" horiz-adv-x="400" 
d="M28 713l45 58l127 -91l128 91l44 -58l-137 -116h-70z" />
    <glyph glyph-name="breve" unicode="&#x2d8;" horiz-adv-x="400" 
d="M90.5 651.5q-43.5 37.5 -56.5 103.5l77 14q11 -38 32 -56.5t55 -18.5q69 0 90 75l77 -14q-12 -65 -57 -103t-110 -38q-64 0 -107.5 37.5z" />
    <glyph glyph-name="dotaccent" unicode="&#x2d9;" horiz-adv-x="400" 
d="M147 636.5q-22 21.5 -22 52.5t22 53t53 22t53 -21.5t22 -53.5q0 -31 -22 -52.5t-53 -21.5t-53 21.5z" />
    <glyph glyph-name="ring" unicode="&#x2da;" horiz-adv-x="400" 
d="M110 630q-36 32 -36 78v18q0 46 36 79t90 33t90.5 -33t36.5 -79v-18q0 -46 -36.5 -78t-90.5 -32t-90 32zM237 674q14 12 14 35v16q0 23 -14 36t-37 13t-37 -13t-14 -36v-16q0 -23 14 -35t37 -12t37 12z" />
    <glyph glyph-name="ogonek" unicode="&#x2db;" horiz-adv-x="400" 
d="M156 -206q-35 29 -35 78q0 60 59 105t159 62l11 -39q-141 -43 -141 -116q0 -21 13 -31.5t43 -10.5q27 0 61 7l-10 -77q-35 -7 -66 -7q-59 0 -94 29z" />
    <glyph glyph-name="tilde" unicode="&#x2dc;" horiz-adv-x="400" 
d="M221 631.5q-16 7.5 -36 21.5q-15 10 -24 14.5t-18 4.5q-17 0 -28.5 -11t-24.5 -35l-70 34q19 41 51.5 67t70.5 26q21 0 37 -7.5t36 -21.5q15 -10 24 -14.5t18 -4.5q17 0 28.5 11t24.5 35l70 -34q-19 -41 -51.5 -67t-70.5 -26q-21 0 -37 7.5z" />
    <glyph glyph-name="hungarumlaut" unicode="&#x2dd;" horiz-adv-x="400" 
d="M35 638l79 175l84 -38l-92 -166zM191 636l89 177l82 -41l-99 -168z" />
    <glyph glyph-name="gravecomb" unicode="&#x300;" horiz-adv-x="0" 
d="M-281 696l43 82l208 -111l-33 -66z" />
    <glyph glyph-name="acutecomb" unicode="&#x301;" horiz-adv-x="0" 
d="M-281 667l208 111l43 -82l-218 -95z" />
    <glyph glyph-name="uni0302" unicode="&#x302;" horiz-adv-x="0" 
d="M-374 655l137 116h70l137 -116l-44 -58l-128 91l-127 -91z" />
    <glyph glyph-name="tildecomb" unicode="&#x303;" horiz-adv-x="0" 
d="M-181 631.5q-16 7.5 -36 21.5q-15 10 -24 14.5t-18 4.5q-17 0 -28.5 -11t-24.5 -35l-70 34q19 41 51.5 67t70.5 26q21 0 37 -7.5t36 -21.5q15 -10 24 -14.5t18 -4.5q17 0 28.5 11t24.5 35l70 -34q-19 -41 -51.5 -67t-70.5 -26q-21 0 -37 7.5z" />
    <glyph glyph-name="uni0304" unicode="&#x304;" horiz-adv-x="0" 
d="M-311 715h281v-79h-281v79z" />
    <glyph glyph-name="uni0306" unicode="&#x306;" horiz-adv-x="0" 
d="M-295.5 651.5q-43.5 37.5 -56.5 103.5l77 14q11 -38 32 -56.5t55 -18.5q69 0 90 75l77 -14q-12 -65 -57 -103t-110 -38q-64 0 -107.5 37.5z" />
    <glyph glyph-name="uni0307" unicode="&#x307;" horiz-adv-x="0" 
d="M-158 636.5q-22 21.5 -22 52.5t22 53t53 22t53 -21.5t22 -53.5q0 -31 -22 -52.5t-53 -21.5t-53 21.5z" />
    <glyph glyph-name="uni0308" unicode="&#x308;" horiz-adv-x="0" 
d="M-365.5 641q-19.5 19 -19.5 46t19.5 46t47.5 19t47 -19t19 -46t-19 -46t-47 -19t-47.5 19zM-130 641q-19 19 -19 46t19 46t46 19q28 0 47.5 -19t19.5 -46t-19.5 -46t-47.5 -19q-27 0 -46 19z" />
    <glyph glyph-name="uni030A" unicode="&#x30a;" horiz-adv-x="0" 
d="M-240 630q-36 32 -36 78v18q0 46 36 79t90 33t90.5 -33t36.5 -79v-18q0 -46 -36.5 -78t-90.5 -32t-90 32zM-113 674q14 12 14 35v16q0 23 -14 36t-37 13t-37 -13t-14 -36v-16q0 -23 14 -35t37 -12t37 12z" />
    <glyph glyph-name="uni030B" unicode="&#x30b;" horiz-adv-x="0" 
d="M-356 638l79 175l84 -38l-92 -166zM-200 636l89 177l82 -41l-99 -168z" />
    <glyph glyph-name="uni030C" unicode="&#x30c;" horiz-adv-x="0" 
d="M-374 713l45 58l127 -91l128 91l44 -58l-137 -116h-70z" />
    <glyph glyph-name="uni0312" unicode="&#x312;" horiz-adv-x="0" 
d="M-22 849q-33 -63 -36 -119q34 -20 34 -57q0 -28 -20.5 -47.5t-49.5 -19.5t-49 19.5t-20 47.5q0 39 23 93t64 108z" />
    <glyph glyph-name="dotbelowcomb" unicode="&#x323;" horiz-adv-x="0" 
d="M-50 -84.5q22 -21.5 22 -52.5t-22 -53t-53 -22q-32 0 -53.5 21.5t-21.5 53.5q0 31 22 52.5t53 21.5t53 -21.5z" />
    <glyph glyph-name="uni0326" unicode="&#x326;" horiz-adv-x="0" 
d="M-165 -306q33 63 36 119q-34 20 -34 57q0 28 20.5 47.5t49.5 19.5t49 -19.5t20 -47.5q0 -39 -23 -93t-64 -108z" />
    <glyph glyph-name="uni0327" unicode="&#x327;" horiz-adv-x="0" 
d="M-244 -230l16 59q35 -7 63 -7q25 0 37 6t12 25v8q0 19 -20 26t-70 7l6 122h75v-69q50 -4 73 -25.5t23 -59.5v-14q0 -47 -36.5 -70t-93.5 -23q-43 0 -85 15z" />
    <glyph glyph-name="uni0328" unicode="&#x328;" horiz-adv-x="0" 
d="M-235 -206q-35 29 -35 78q0 60 59 105t159 62l11 -39q-141 -43 -141 -116q0 -21 13 -31.5t43 -10.5q27 0 61 7l-10 -77q-35 -7 -66 -7q-59 0 -94 29z" />
    <glyph glyph-name="uni0335" unicode="&#x335;" horiz-adv-x="0" 
d="M-357 379h310v-76h-310v76z" />
    <glyph glyph-name="uni0336" unicode="&#x336;" horiz-adv-x="0" 
d="M-586 380h567v-77h-567v77z" />
    <glyph glyph-name="uni0394" unicode="&#x394;" horiz-adv-x="640" 
d="M625 0h-610l214 700h171zM465 100l-151 509l-144 -509h295z" />
    <glyph glyph-name="uni03A9" unicode="&#x3a9;" horiz-adv-x="710" 
d="M618.5 177q-25.5 -49 -74.5 -80h100v-97h-245v85q58 17 88.5 61.5t30.5 111.5v171q0 87 -41 137t-122 50t-122 -50.5t-41 -136.5v-171q0 -67 30.5 -111.5t88.5 -61.5v-85h-245v97h100q-49 31 -74.5 80t-25.5 113v138q0 84 32.5 148t97.5 100.5t159 36.5t159 -36.5
t97.5 -100.5t32.5 -148v-138q0 -64 -25.5 -113z" />
    <glyph glyph-name="uni03BC" unicode="&#x3bc;" horiz-adv-x="615" 
d="M529 532v-532h-105l-8 55q-54 -68 -131 -68q-41 0 -75 20v-207h-124v732h124v-379q0 -36 19 -55t56 -19q34 0 65.5 18t54.5 50v385h124z" />
    <glyph glyph-name="pi" unicode="&#x3c0;" horiz-adv-x="675" 
d="M128 434h-51v98h521v-98h-50v-434h-123v434h-173v-434h-124v434z" />
    <glyph glyph-name="uni0401" unicode="&#x401;" horiz-adv-x="582" 
d="M231 603v-199h261v-97h-261v-209h283v-98h-409v700h409v-97h-283zM146.5 795q-19.5 19 -19.5 46t19.5 46t47.5 19t47 -19t19 -46t-19 -46t-47 -19t-47.5 19zM382 795q-19 19 -19 46t19 46t46 19q28 0 47.5 -19t19.5 -46t-19.5 -46t-47.5 -19q-27 0 -46 19z" />
    <glyph glyph-name="uni0402" unicode="&#x402;" horiz-adv-x="764" 
d="M592 443q46 -21 73.5 -61t27.5 -95l-1 -243q-1 -90 -37.5 -132t-94.5 -42q-57 0 -85 14l9 86q22 -5 39 -5t26 6.5t13.5 25t4.5 54.5v223q0 48 -29 71t-70 23q-37 0 -71 -13.5t-58 -38.5v-316h-126v605h-199v95h519v-95h-194v-193q64 52 154 52q53 0 99 -21z" />
    <glyph glyph-name="uni0403" unicode="&#x403;" horiz-adv-x="551" 
d="M530 599h-299v-599h-126v700h425v-101zM193 810l210 104l39 -83l-218 -88z" />
    <glyph glyph-name="uni0404" unicode="&#x404;" horiz-adv-x="591" 
d="M430.5 97.5q36.5 13.5 74.5 37.5l52 -75q-40 -32 -94.5 -52.5t-118.5 -20.5q-87 0 -149.5 32.5t-95.5 92t-33 138.5v184q0 85 34 148t97.5 97t150.5 34q69 0 119.5 -19.5t96.5 -56.5l-64 -73q-35 25 -69 38.5t-79 13.5q-78 0 -119.5 -45.5t-41.5 -129.5v-38h260v-99h-260
v-52q0 -82 39 -125t117 -43q47 0 83.5 13.5z" />
    <glyph glyph-name="uni0405" unicode="&#x405;" horiz-adv-x="613" 
d="M28 78l63 75q38 -25 61 -37.5t55 -20.5t77 -8q72 0 110 29.5t38 68.5v13q0 38 -22.5 60t-84.5 42l-103 34q-165 53 -165 177v23q0 48 29.5 89t86.5 65.5t134 24.5t137 -23t109 -68l-62 -69q-48 36 -87 50t-92 14q-63 0 -96 -24.5t-33 -57.5v-17q0 -27 26.5 -49t85.5 -40
l93 -30q80 -25 124.5 -69t44.5 -119v-27q0 -58 -34 -103t-94.5 -69.5t-138.5 -24.5q-164 0 -262 91z" />
    <glyph glyph-name="uni0406" unicode="&#x406;" horiz-adv-x="444" 
d="M285 603v-506h90v-97h-306v97h90v506h-90v97h306v-97h-90z" />
    <glyph glyph-name="uni0407" unicode="&#x407;" horiz-adv-x="444" 
d="M285 603v-506h90v-97h-306v97h90v506h-90v97h306v-97h-90zM57.5 795q-19.5 19 -19.5 46t19.5 46t47.5 19t47 -19t19 -46t-19 -46t-47 -19t-47.5 19zM293 795q-19 19 -19 46t19 46t46 19q28 0 47.5 -19t19.5 -46t-19.5 -46t-47.5 -19q-27 0 -46 19z" />
    <glyph glyph-name="uni0408" unicode="&#x408;" horiz-adv-x="546" 
d="M462 211q0 -67 -28 -117.5t-80 -78.5t-123 -28q-64 0 -115.5 19.5t-85.5 51.5l61 71q29 -22 58.5 -33.5t71.5 -11.5q51 0 82.5 29.5t31.5 91.5v398h-264v97h391v-489z" />
    <glyph glyph-name="uni0409" unicode="&#x409;" horiz-adv-x="999" 
d="M825.5 407q61.5 -23 95 -63.5t33.5 -93.5v-70q0 -53 -33 -93.5t-94.5 -63.5t-143.5 -23h-221v599h-168l-54 -406q-10 -71 -26.5 -114t-49 -66.5t-88.5 -23.5q-34 0 -58 11v84q9 -3 22 -3q22 0 35 8.5t23 34.5t17 80l68 496h405v-270h95q81 0 142.5 -23zM828 243
q0 44 -38 67.5t-105 23.5h-97v-238h97q67 0 105 23.5t38 67.5v56z" />
    <glyph glyph-name="uni040A" unicode="&#x40a;" horiz-adv-x="1018" 
d="M844.5 407q61.5 -23 95 -63.5t33.5 -93.5v-70q0 -53 -33 -93.5t-94.5 -63.5t-143.5 -23h-199v334h-272v-334h-126v700h126v-270h272v270h126v-270h73q81 0 142.5 -23zM846 243q0 43 -37.5 67t-105.5 24h-74v-238h74q68 0 105.5 23.5t37.5 67.5v56z" />
    <glyph glyph-name="uni040B" unicode="&#x40b;" horiz-adv-x="764" 
d="M592.5 443q45.5 -21 73 -61t27.5 -95v-287h-126v274q0 47 -29 70.5t-70 23.5q-36 0 -70.5 -14t-58.5 -39v-315h-126v605h-199v95h519v-95h-194v-193q64 52 154 52q54 0 99.5 -21z" />
    <glyph glyph-name="uni040C" unicode="&#x40c;" horiz-adv-x="675" 
d="M319 303h-89v-303h-125v700h125v-300h78l186 300h136l-209 -336l238 -364h-145zM236 810l210 104l39 -83l-218 -88z" />
    <glyph glyph-name="uni040E" unicode="&#x40e;" horiz-adv-x="564" 
d="M571 700l-316 -700h-125l98 208l-217 492h131l146 -361l158 361h125zM178.5 788q-44.5 34 -60.5 86l80 14q12 -24 33.5 -39t53.5 -15q33 0 54.5 15t32.5 39l81 -14q-16 -52 -61 -86t-107 -34t-106.5 34z" />
    <glyph glyph-name="uni040F" unicode="&#x40f;" horiz-adv-x="743" 
d="M638 0h-218v-177h-82l-23 177h-210v700h126v-599h281v599h126v-700z" />
    <glyph glyph-name="uni0410" unicode="&#x410;" horiz-adv-x="640" 
d="M437 184h-242l-53 -184h-127l214 700h171l225 -700h-130zM223 285h184l-93 327z" />
    <glyph glyph-name="uni0411" unicode="&#x411;" horiz-adv-x="662" 
d="M474.5 407q61.5 -23 94.5 -63.5t33 -93.5v-70q0 -53 -33 -93.5t-94.5 -63.5t-142.5 -23h-227v700h425v-101h-299v-169h101q81 0 142.5 -23zM476 243q0 44 -38 67.5t-105 23.5h-102v-238h102q67 0 105 23.5t38 67.5v56z" />
    <glyph glyph-name="uni0412" unicode="&#x412;" horiz-adv-x="651" 
d="M553 319q38 -34 38 -98v-40q0 -53 -33.5 -94t-94.5 -64t-143 -23h-215v700h216q114 0 181 -46t67 -128v-44q0 -50 -30 -79t-73 -40q49 -10 87 -44zM231 608v-211h110q47 0 74 21.5t27 63.5v37q0 45 -31.5 67t-88.5 22h-91zM465 223q0 40 -30.5 62.5t-87.5 22.5h-116v-216
h91q68 0 105.5 24t37.5 71v36z" />
    <glyph glyph-name="uni0413" unicode="&#x413;" horiz-adv-x="551" 
d="M530 599h-299v-599h-126v700h425v-101z" />
    <glyph glyph-name="uni0414" unicode="&#x414;" horiz-adv-x="694" 
d="M668 97v-274h-82l-23 177h-464l-23 -177h-82v274h45q35 0 57 36t34 127l64 440h379v-603h95zM450 601h-148l-46 -301q-11 -79 -32 -129t-46 -75h272v505z" />
    <glyph glyph-name="uni0415" unicode="&#x415;" horiz-adv-x="582" 
d="M231 603v-199h261v-97h-261v-209h283v-98h-409v700h409v-97h-283z" />
    <glyph glyph-name="uni0416" unicode="&#x416;" horiz-adv-x="924" 
d="M583 304h-63v-304h-116v304h-64l-182 -304h-142l224 367l-196 333h139l164 -299h57v299h116v-299h56l165 299h138l-196 -333l225 -367h-142z" />
    <glyph glyph-name="uni0417" unicode="&#x417;" horiz-adv-x="586" 
d="M156 98q40 -14 92 -14q59 0 105.5 25t46.5 80v33q0 55 -46 79t-99 24h-79v90h79q47 0 84 21t37 67v27q0 47 -33.5 66.5t-84.5 19.5q-49 0 -87.5 -15t-82.5 -40l-62 74q111 78 242 78q69 0 122.5 -21.5t83 -60t29.5 -89.5v-39q0 -45 -37 -80t-86 -46q32 -5 66 -25t57 -52
t23 -72v-45q0 -56 -36.5 -100.5t-97.5 -70t-133 -25.5q-61 0 -105.5 11.5t-70.5 25t-61 36.5l53 76q41 -24 81 -38z" />
    <glyph glyph-name="uni0418" unicode="&#x418;" horiz-adv-x="744" 
d="M639 700v-700h-119v539l-275 -539h-140v700h119v-527l270 527h145z" />
    <glyph glyph-name="uni0419" unicode="&#x419;" horiz-adv-x="744" 
d="M639 700v-700h-119v539l-275 -539h-140v700h119v-527l270 527h145zM264.5 788q-44.5 34 -60.5 86l80 14q12 -24 33.5 -39t53.5 -15q33 0 54.5 15t32.5 39l81 -14q-16 -52 -61 -86t-107 -34t-106.5 34z" />
    <glyph glyph-name="uni041A" unicode="&#x41a;" horiz-adv-x="675" 
d="M319 303h-89v-303h-125v700h125v-300h78l186 300h136l-209 -336l238 -364h-145z" />
    <glyph glyph-name="uni041B" unicode="&#x41b;" horiz-adv-x="714" 
d="M18 0v84q9 -3 22 -3q22 0 35 8.5t23 34.5t17 80l68 496h426v-700h-126v599h-189l-54 -406q-10 -71 -26.5 -114t-49 -66.5t-88.5 -23.5q-34 0 -58 11z" />
    <glyph glyph-name="uni041C" unicode="&#x41c;" horiz-adv-x="874" 
d="M769 700v-700h-121v509l-147 -408l1 -1h-133l-150 425v-525h-114v700h163l171 -494l176 493l-1 1h155z" />
    <glyph glyph-name="uni041D" unicode="&#x41d;" horiz-adv-x="743" 
d="M638 0h-126v309h-281v-309h-126v700h126v-289h281v289h126v-700z" />
    <glyph glyph-name="uni041E" unicode="&#x41e;" horiz-adv-x="706" 
d="M511.5 677q64.5 -36 97 -100.5t32.5 -148.5v-157q0 -83 -32.5 -147t-97 -100.5t-158.5 -36.5q-93 0 -157.5 36.5t-97 100.5t-32.5 147v157q0 84 32.5 148.5t97 100.5t157.5 36q94 0 158.5 -36zM232.5 566q-40.5 -50 -40.5 -137v-160q0 -86 40.5 -135.5t120.5 -49.5
t120.5 49.5t40.5 135.5v160q0 87 -40.5 137t-120.5 50t-120.5 -50z" />
    <glyph glyph-name="uni041F" unicode="&#x41f;" horiz-adv-x="743" 
d="M638 0h-126v599h-281v-599h-126v700h533v-700z" />
    <glyph glyph-name="uni0420" unicode="&#x420;" horiz-adv-x="621" 
d="M518 647.5q67 -52.5 67 -147.5v-58q0 -95 -72 -148.5t-194 -53.5h-88v-240h-126v700h231q115 0 182 -52.5zM459 494q0 55 -34 82.5t-95 27.5h-99v-268h84q144 0 144 113v45z" />
    <glyph glyph-name="uni0421" unicode="&#x421;" horiz-adv-x="583" 
d="M193 19.5q-62 32.5 -94.5 92t-32.5 138.5v184q0 85 34 148t97 97t150 34q69 0 119 -19.5t96 -56.5l-64 -72q-34 25 -68.5 38t-78.5 13q-76 0 -117.5 -45.5t-41.5 -129.5v-189q0 -83 38.5 -125.5t114.5 -42.5q47 0 85 13.5t73 37.5l53 -75q-40 -31 -95 -52t-119 -21
q-87 0 -149 32.5z" />
    <glyph glyph-name="uni0422" unicode="&#x422;" horiz-adv-x="548" 
d="M533 603h-196v-603h-126v603h-197v97h519v-97z" />
    <glyph glyph-name="uni0423" unicode="&#x423;" horiz-adv-x="564" 
d="M571 700l-316 -700h-125l98 208l-217 492h131l146 -361l158 361h125z" />
    <glyph glyph-name="uni0424" unicode="&#x424;" horiz-adv-x="851" 
d="M715 575q77 -74 77 -198v-58q0 -79 -35.5 -139.5t-105 -94.5t-167.5 -35v-82h-122v82q-96 2 -164.5 36.5t-103.5 94.5t-35 138v58q0 123 76 197t227 76v82h122v-82q154 -1 231 -75zM668 380q0 81 -45 127.5t-139 47.5v-411q90 1 137 46.5t47 125.5v64zM228.5 191.5
q45.5 -45.5 133.5 -47.5v411q-91 -2 -135 -48.5t-44 -126.5v-64q0 -79 45.5 -124.5z" />
    <glyph glyph-name="uni0425" unicode="&#x425;" horiz-adv-x="635" 
d="M630 0h-143l-170 290l-172 -290h-140l233 373l-208 327h140l148 -243h1l151 243h136l-210 -318z" />
    <glyph glyph-name="uni0426" unicode="&#x426;" horiz-adv-x="769" 
d="M743 97v-274h-82l-23 177h-533v700h126v-599h281v599h126v-603h105z" />
    <glyph glyph-name="uni0427" unicode="&#x427;" horiz-adv-x="692" 
d="M587 700v-700h-126v258q-71 -50 -187 -50q-108 0 -161 57t-53 163v272h126v-275q0 -60 30.5 -89.5t98.5 -29.5q89 0 146 46v348h126z" />
    <glyph glyph-name="uni0428" unicode="&#x428;" horiz-adv-x="1034" 
d="M929 700v-700h-824v700h125v-599h226v599h122v-599h226v599h125z" />
    <glyph glyph-name="uni0429" unicode="&#x429;" horiz-adv-x="1056" 
d="M1031 97v-274h-82l-23 177h-821v700h125v-599h226v599h122v-599h226v599h125v-603h102z" />
    <glyph glyph-name="uni042A" unicode="&#x42a;" horiz-adv-x="724" 
d="M550.5 407q61.5 -23 95 -63.5t33.5 -93.5v-70q0 -53 -33 -93.5t-94.5 -63.5t-143.5 -23h-227v605h-177v95h303v-270h101q81 0 142.5 -23zM552 243q0 44 -38 67.5t-105 23.5h-102v-238h102q67 0 105 23.5t38 67.5v56z" />
    <glyph glyph-name="uni042B" unicode="&#x42b;" horiz-adv-x="924" 
d="M460.5 407q61.5 -23 94.5 -63.5t33 -93.5v-70q0 -53 -33 -93.5t-94.5 -63.5t-142.5 -23h-213v700h126v-270h87q81 0 142.5 -23zM819 700v-700h-126v700h126zM462 243q0 44 -38 67.5t-105 23.5h-88v-238h88q67 0 105 23.5t38 67.5v56z" />
    <glyph glyph-name="uni042C" unicode="&#x42c;" horiz-adv-x="648" 
d="M474.5 407q61.5 -23 95 -63.5t33.5 -93.5v-70q0 -53 -33 -93.5t-94.5 -63.5t-143.5 -23h-227v700h126v-270h101q81 0 142.5 -23zM476 243q0 44 -38 67.5t-105 23.5h-102v-238h102q67 0 105 23.5t38 67.5v56z" />
    <glyph glyph-name="uni042D" unicode="&#x42d;" horiz-adv-x="573" 
d="M382.5 679q60.5 -34 93 -97t32.5 -148v-184q0 -79 -31.5 -138.5t-91 -92t-140.5 -32.5q-64 0 -119.5 21.5t-93.5 52.5l55 74q34 -24 69 -37.5t81 -13.5q71 0 108 43t37 125v52h-253v99h253v38q0 84 -40 129.5t-112 45.5q-42 0 -73.5 -13.5t-65.5 -38.5l-63 73
q42 34 93.5 55t119.5 21q81 0 141.5 -34z" />
    <glyph glyph-name="uni042E" unicode="&#x42e;" horiz-adv-x="958" 
d="M766 676.5q63 -36.5 95 -101t32 -147.5v-159q0 -82 -32 -145.5t-95 -100t-151 -36.5q-87 0 -149.5 36.5t-95 100.5t-32.5 145v40h-107v-309h-126v700h126v-289h107v17q0 83 32 147.5t94.5 101t150.5 36.5t151 -36.5zM766 428q0 87 -39 137.5t-112 50.5t-112 -50.5
t-39 -137.5v-159q0 -85 39 -135t112 -50t112 50t39 135v159z" />
    <glyph glyph-name="uni042F" unicode="&#x42f;" horiz-adv-x="662" 
d="M557 0h-126v267h-108l-117 -267h-138l135 289q-60 22 -94 64t-34 99v62q0 86 66.5 136t178.5 50h237v-700zM431 361v244h-107q-57 0 -90 -25t-33 -71v-53q0 -46 33 -70.5t90 -24.5h107z" />
    <glyph glyph-name="uni0430" unicode="&#x430;" horiz-adv-x="558" 
d="M430 496.5q52 -49.5 52 -137.5v-359h-97l-10 51q-65 -64 -158 -64q-48 0 -88.5 18.5t-64.5 53t-24 79.5v35q0 70 59 112t162 42h98v36q0 47 -23.5 68.5t-71.5 21.5q-42 0 -78.5 -10t-76.5 -30l-38 77q92 56 204 56q103 0 155 -49.5zM305.5 92q30.5 13 53.5 39v118h-86
q-110 0 -110 -81v-20q0 -32 19.5 -50.5t58.5 -18.5q34 0 64.5 13z" />
    <glyph glyph-name="uni0431" unicode="&#x431;" horiz-adv-x="591" 
d="M491 439.5q53 -59.5 53 -156.5v-63q0 -64 -28 -117t-83.5 -84.5t-134.5 -31.5q-76 0 -133 34t-87.5 96.5t-30.5 144.5v49q0 102 20.5 174t73.5 123.5t149 80.5q101 30 148 62l47 -79q-21 -19 -53.5 -34.5t-97.5 -36.5q-87 -27 -123 -75t-36 -102q25 27 71 51t98 24
q94 0 147 -59.5zM420 279q0 63 -24 95t-79 32q-48 0 -84.5 -22.5t-61.5 -60.5v-66q0 -90 33.5 -133.5t94.5 -43.5t91 37t30 107v55z" />
    <glyph glyph-name="uni0432" unicode="&#x432;" horiz-adv-x="587" 
d="M499.5 242.5q33.5 -27.5 33.5 -72.5v-32q0 -63 -53 -100.5t-152 -37.5h-242v532h244q85 0 135.5 -35t50.5 -94v-25q0 -36 -27 -62t-62 -37q39 -9 72.5 -36.5zM210 450v-137h101q38 0 60 17t22 46v21q0 26 -20.5 39.5t-50.5 13.5h-112zM408 172q0 61 -93 61h-105v-150h109
q89 0 89 59v30z" />
    <glyph glyph-name="uni0433" unicode="&#x433;" horiz-adv-x="466" 
d="M460 441h-250v-441h-124v532h374v-91z" />
    <glyph glyph-name="uni0434" unicode="&#x434;" horiz-adv-x="589" 
d="M565 92v-249h-82l-22 157h-354l-22 -157h-82v249h44q34 0 52 48t31 163l26 229h328v-440h81zM365 441h-105l-17 -148q-10 -80 -30 -129.5t-43 -71.5h195v349z" />
    <glyph glyph-name="uni0435" unicode="&#x435;" horiz-adv-x="560" 
d="M511 227h-343q1 -76 36 -111.5t105 -35.5q39 0 71.5 11.5t70.5 32.5l44 -74q-36 -27 -87.5 -45t-106.5 -18q-79 0 -136.5 32.5t-87.5 89t-30 129.5v55q0 72 29 129.5t83 90.5t126 33q110 0 170 -66.5t60 -192.5q0 -28 -4 -60zM404 313q0 69 -30 105.5t-88 36.5
q-57 0 -86.5 -37t-31.5 -110h236v5z" />
    <glyph glyph-name="uni0436" unicode="&#x436;" horiz-adv-x="753" 
d="M493 232h-62v-232h-112v232h-60l-130 -232h-129l159 279l-143 253h129l115 -206h59v206h112v-206h61l116 206h129l-144 -253l160 -279h-129z" />
    <glyph glyph-name="uni0437" unicode="&#x437;" horiz-adv-x="521" 
d="M113 12.5q-59 25.5 -90 52.5l51 74q26 -22 67 -41t100 -19q53 0 81.5 17.5t28.5 52.5v19q0 35 -33 50t-79 15h-79v86h79q41 0 68 12.5t27 42.5v24q0 25 -24 40.5t-63 15.5q-89 0 -162 -58l-58 66q39 35 101 59.5t128 24.5q59 0 105 -17t71.5 -46.5t25.5 -66.5v-33
q0 -37 -28.5 -67t-65.5 -40q40 -7 75 -37.5t35 -72.5v-37q0 -44 -31 -76.5t-81.5 -49t-109.5 -16.5q-80 0 -139 25.5z" />
    <glyph glyph-name="uni0438" unicode="&#x438;" horiz-adv-x="642" 
d="M556 532v-532h-124v370l-222 -370h-124v532h124v-366l222 366h124z" />
    <glyph glyph-name="uni0439" unicode="&#x439;" horiz-adv-x="642" 
d="M556 532v-532h-124v370l-222 -370h-124v532h124v-366l222 366h124zM209.5 650.5q-44.5 36.5 -60.5 89.5l80 14q12 -26 33.5 -43t53.5 -17t54 17t33 43l81 -14q-16 -53 -61 -89.5t-107 -36.5t-106.5 36.5z" />
    <glyph glyph-name="uni043A" unicode="&#x43a;" horiz-adv-x="564" 
d="M266 232h-56v-232h-124v532h124v-206h52l136 206h134l-166 -247l199 -285h-144z" />
    <glyph glyph-name="uni043B" unicode="&#x43b;" horiz-adv-x="596" 
d="M510 532v-532h-123v441h-130l-24 -218q-25 -233 -152 -233q-27 0 -56 10v77h8q24 0 39.5 13t25.5 44.5t18 89.5l38 308h356z" />
    <glyph glyph-name="uni043C" unicode="&#x43c;" horiz-adv-x="737" 
d="M651 532v-532h-114v365l-117 -309l1 -1h-102l-118 313v-368h-115v532h152l134 -354l139 354h140z" />
    <glyph glyph-name="uni043D" unicode="&#x43d;" horiz-adv-x="622" 
d="M537 532v-532h-124v232h-203v-232h-124v532h124v-208h203v208h124z" />
    <glyph glyph-name="uni043E" unicode="&#x43e;" horiz-adv-x="595" 
d="M433 514q57 -32 86 -89t29 -131v-54q0 -115 -66 -184t-186 -69q-119 0 -184 69t-65 184v54q0 74 28.5 131t84.5 89t136 32t137 -32zM203 412.5q-32 -39.5 -32 -116.5v-56q0 -79 31.5 -119.5t93.5 -40.5t95 40.5t33 119.5v56q0 76 -33 116t-95 40q-61 0 -93 -39.5z" />
    <glyph glyph-name="uni043F" unicode="&#x43f;" horiz-adv-x="618" 
d="M532 0h-124v441h-198v-441h-124v532h446v-532z" />
    <glyph glyph-name="uni0440" unicode="&#x440;" horiz-adv-x="602" 
d="M453.5 515q45.5 -31 71 -88.5t25.5 -132.5v-53q0 -73 -28.5 -131t-78 -90.5t-110.5 -32.5q-69 0 -123 43v-230h-124v732h106l7 -51q57 65 150 65q59 0 104.5 -31zM426 298q0 76 -27.5 115t-77.5 39q-33 0 -62 -15t-49 -41v-279q44 -37 101 -37q54 0 84.5 40t30.5 117v61z
" />
    <glyph glyph-name="uni0441" unicode="&#x441;" horiz-adv-x="491" 
d="M111.5 57q-64.5 70 -64.5 187v45q0 118 64 187.5t180 69.5q53 0 96 -17t80 -53l-59 -66q-25 22 -51 32t-61 10q-60 0 -92.5 -40.5t-32.5 -120.5v-49q0 -80 31.5 -121t92.5 -41q33 0 60 11t57 32l51 -73q-34 -28 -80.5 -45.5t-93.5 -17.5q-113 0 -177.5 70z" />
    <glyph glyph-name="uni0442" unicode="&#x442;" horiz-adv-x="485" 
d="M478 441h-173v-441h-124v441h-174v91h471v-91z" />
    <glyph glyph-name="uni0443" unicode="&#x443;" horiz-adv-x="542" 
d="M107.5 -209.5q-21.5 3.5 -35.5 9.5l17 81q30 -6 56 -6q36 0 57.5 15.5t30.5 51.5l17 58h-54l-171 532h128l126 -440l115 440h123l-181 -597q-24 -81 -69 -114.5t-116 -33.5q-22 0 -43.5 3.5z" />
    <glyph glyph-name="uni0444" unicode="&#x444;" horiz-adv-x="828" 
d="M690 515q43 -31 67 -88.5t24 -132.5v-54q0 -71 -28 -129t-74.5 -91t-99.5 -33q-60 0 -106 32v-219h-120v218q-45 -31 -104 -31q-53 0 -99.5 33t-74.5 90.5t-28 129.5v54q0 75 24 132.5t66.5 88.5t95.5 31q72 0 120 -40v234h120v-235q49 41 121 41q53 0 96 -31zM353 110
v303q-41 39 -95 39q-40 0 -63.5 -39t-23.5 -115v-62q0 -73 28 -114.5t70 -41.5q50 0 84 30zM657 298q0 76 -24 115t-64 39q-55 0 -96 -41v-300q37 -31 85 -31q42 0 70.5 41t28.5 115v62z" />
    <glyph glyph-name="uni0445" unicode="&#x445;" horiz-adv-x="538" 
d="M518 0h-137l-112 197l-119 -197h-130l172 266l-166 267h135l108 -201l111 201h130l-166 -266z" />
    <glyph glyph-name="uni0446" unicode="&#x446;" horiz-adv-x="661" 
d="M637 92v-249h-82l-22 157h-447v532h124v-440h198v440h124v-440h105z" />
    <glyph glyph-name="uni0447" unicode="&#x447;" horiz-adv-x="585" 
d="M499 532v-532h-124v184q-60 -40 -149 -40q-91 0 -134.5 49t-43.5 139v200h124v-203q0 -47 24 -69.5t78 -22.5q65 0 101 28v267h124z" />
    <glyph glyph-name="uni0448" unicode="&#x448;" horiz-adv-x="855" 
d="M770 532v-532h-684v532h119v-441h164v441h117v-441h164v441h120z" />
    <glyph glyph-name="uni0449" unicode="&#x449;" horiz-adv-x="899" 
d="M875 92v-249h-82l-22 157h-685v532h119v-441h164v441h117v-441h164v441h120v-440h105z" />
    <glyph glyph-name="uni044A" unicode="&#x44a;" horiz-adv-x="617" 
d="M508.5 329.5q56.5 -39.5 56.5 -106.5v-77q0 -67 -56.5 -106.5t-153.5 -39.5h-212v441h-136v91h260v-163h88q97 0 153.5 -39.5zM441 215q0 34 -26 49t-66 15h-82v-189h82q41 0 66.5 16.5t25.5 55.5v53z" />
    <glyph glyph-name="uni044B" unicode="&#x44b;" horiz-adv-x="813" 
d="M437.5 329.5q56.5 -39.5 56.5 -106.5v-77q0 -67 -56.5 -106.5t-153.5 -39.5h-198v532h124v-163h74q97 0 153.5 -39.5zM727 532v-532h-124v532h124zM370 215q0 34 -27 49t-78 15h-55v-189h55q52 0 78.5 16t26.5 56v53z" />
    <glyph glyph-name="uni044C" unicode="&#x44c;" horiz-adv-x="560" 
d="M451.5 329.5q56.5 -39.5 56.5 -106.5v-77q0 -67 -56.5 -106.5t-153.5 -39.5h-212v532h124v-163h88q97 0 153.5 -39.5zM384 215q0 34 -26 49t-66 15h-82v-189h82q41 0 66.5 16.5t25.5 55.5v53z" />
    <glyph glyph-name="uni044D" unicode="&#x44d;" horiz-adv-x="494" 
d="M332.5 516.5q53.5 -29.5 84 -85t30.5 -129.5v-57q0 -81 -31.5 -139.5t-85.5 -88.5t-121 -30q-50 0 -100 18t-81 45l51 73q29 -20 58 -31.5t65 -11.5q52 0 84.5 35t36.5 108h-187v90h188q-3 68 -40 104t-85 36q-65 0 -116 -43l-60 66q36 34 84 52t104 18q68 0 121.5 -29.5
z" />
    <glyph glyph-name="uni044E" unicode="&#x44e;" horiz-adv-x="822" 
d="M664 514q55 -32 83.5 -89t28.5 -130v-57q0 -74 -28.5 -130.5t-83.5 -88.5t-130 -32q-111 0 -174 67.5t-65 177.5h-85v-232h-124v532h124v-208h86q8 100 70.5 161t167.5 61q75 0 130 -32zM652 296q0 76 -31 116t-87 40q-55 0 -85 -40t-30 -116v-58q0 -77 30 -117.5
t85 -40.5t86.5 41t31.5 117v58z" />
    <glyph glyph-name="uni044F" unicode="&#x44f;" horiz-adv-x="569" 
d="M484 0h-124v186h-85h-1l-82 -186h-132l95 209q-43 19 -67 51t-23 72v56q1 67 57.5 105.5t152.5 38.5h209v-532zM360 276v166h-78q-40 0 -66 -14t-27 -46v-34q-1 -38 25 -55t68 -17h78z" />
    <glyph glyph-name="uni0451" unicode="&#x451;" horiz-adv-x="560" 
d="M511 227h-343q1 -76 36 -111.5t105 -35.5q39 0 71.5 11.5t70.5 32.5l44 -74q-36 -27 -87.5 -45t-106.5 -18q-79 0 -136.5 32.5t-87.5 89t-30 129.5v55q0 72 29 129.5t83 90.5t126 33q110 0 170 -66.5t60 -192.5q0 -28 -4 -60zM404 313q0 69 -30 105.5t-88 36.5
q-57 0 -86.5 -37t-31.5 -110h236v5zM119.5 641q-19.5 19 -19.5 46t19.5 46t47.5 19t47 -19t19 -46t-19 -46t-47 -19t-47.5 19zM355 641q-19 19 -19 46t19 46t46 19q28 0 47.5 -19t19.5 -46t-19.5 -46t-47.5 -19q-27 0 -46 19z" />
    <glyph glyph-name="uni0452" unicode="&#x452;" horiz-adv-x="605" 
d="M531 0h-1v-45q0 -86 -37 -127t-100 -41q-51 0 -79 15l9 79q20 -4 40 -4q24 0 33.5 16.5t9.5 67.5v214h1v183q0 94 -84 94q-69 0 -115 -68v-384h-124v595h-45v76h45v69h124v-69h121v-76h-121v-108q54 59 148 59q77 0 126 -47t49 -131v-368z" />
    <glyph glyph-name="uni0453" unicode="&#x453;" horiz-adv-x="466" 
d="M460 441h-250v-441h-124v532h374v-91zM109 667l208 111l43 -82l-218 -95z" />
    <glyph glyph-name="uni0454" unicode="&#x454;" horiz-adv-x="492" 
d="M414 123l50 -73q-31 -28 -80 -45.5t-98 -17.5q-67 0 -121 29.5t-86 87.5t-32 141v50q0 78 30.5 134.5t85.5 86.5t127 30q107 0 179 -70l-60 -66q-25 22 -52.5 32.5t-61.5 10.5q-49 0 -85 -35.5t-39 -104.5h199v-90h-198q4 -73 37 -108t85 -35q59 0 120 43z" />
    <glyph glyph-name="uni0455" unicode="&#x455;" horiz-adv-x="507" 
d="M125 6q-56 19 -97 54l59 71q35 -26 71 -39t79 -13q101 0 101 58v8q0 26 -18 41.5t-71 33.5l-67 23q-65 23 -96.5 55.5t-31.5 81.5v22q0 42 26 74.5t72 51t104 18.5q57 0 109.5 -17.5t90.5 -49.5l-57 -68q-38 25 -69.5 34t-69.5 9q-40 0 -61 -14.5t-21 -36.5v-8
q0 -22 18 -37t68 -33l67 -23q64 -23 97 -55t33 -88v-22q0 -71 -61 -110.5t-152 -39.5q-67 0 -123 19z" />
    <glyph glyph-name="uni0456" unicode="&#x456;" horiz-adv-x="317" 
d="M231 0h-124v440h-80v92h204v-532zM111 636.5q-22 21.5 -22 52.5t22 53t53 22t53 -21.5t22 -53.5q0 -31 -22 -52.5t-53 -21.5t-53 21.5z" />
    <glyph glyph-name="uni0457" unicode="&#x457;" horiz-adv-x="317" 
d="M231 0h-124v440h-80v92h204v-532zM-1.5 641q-19.5 19 -19.5 46t19.5 46t47.5 19t47 -19t19 -46t-19 -46t-47 -19t-47.5 19zM234 641q-19 19 -19 46t19 46t46 19q28 0 47.5 -19t19.5 -46t-19.5 -46t-47.5 -19q-27 0 -46 19z" />
    <glyph glyph-name="uni0458" unicode="&#x458;" horiz-adv-x="318" 
d="M232 -76q0 -66 -38 -101.5t-102 -35.5q-45 0 -69 13l9 80q14 -3 31 -3q27 0 36 10.5t9 39.5v513h-69v92h193v-608zM115 636.5q-22 21.5 -22 52.5t22 53t53 22t53 -21.5t22 -53.5q0 -31 -22 -52.5t-53 -21.5t-53 21.5z" />
    <glyph glyph-name="uni0459" unicode="&#x459;" horiz-adv-x="822" 
d="M714.5 329.5q56.5 -39.5 56.5 -106.5v-77q0 -67 -56.5 -106.5t-153.5 -39.5h-185v441h-119l-24 -220q-25 -231 -152 -231q-27 0 -56 10v77h8q24 0 39.5 12.5t25.5 44t18 88.5l38 310h344v-163h63q97 0 153.5 -39.5zM647 215q0 34 -27.5 49t-79.5 15h-42v-189h42
q53 0 80 16t27 56v53z" />
    <glyph glyph-name="uni045A" unicode="&#x45a;" horiz-adv-x="835" 
d="M727.5 303q56.5 -39 56.5 -106v-51q0 -67 -56 -106.5t-152 -39.5h-177v253h-189v-253h-124v532h124v-190h189v190h122v-190h55q95 0 151.5 -39zM660 191q0 34 -23.5 48t-67.5 14h-48v-164h48q44 0 67.5 15.5t23.5 54.5v32z" />
    <glyph glyph-name="uni045B" unicode="&#x45b;" horiz-adv-x="606" 
d="M482 499q49 -47 49 -131v-368h-124v358q0 94 -84 94q-69 0 -115 -68v-384h-124v595h-45v76h45v69h124v-69h121v-76h-121v-108q54 59 148 59q77 0 126 -47z" />
    <glyph glyph-name="uni045C" unicode="&#x45c;" horiz-adv-x="564" 
d="M266 232h-56v-232h-124v532h124v-206h52l136 206h134l-166 -247l199 -285h-144zM178 667l208 111l43 -82l-218 -95z" />
    <glyph glyph-name="uni045E" unicode="&#x45e;" horiz-adv-x="542" 
d="M107.5 -209.5q-21.5 3.5 -35.5 9.5l17 81q30 -6 56 -6q36 0 57.5 15.5t30.5 51.5l17 58h-54l-171 532h128l126 -440l115 440h123l-181 -597q-24 -81 -69 -114.5t-116 -33.5q-22 0 -43.5 3.5zM163.5 650.5q-44.5 36.5 -60.5 89.5l80 14q12 -26 33.5 -43t53.5 -17t54 17
t33 43l81 -14q-16 -53 -61 -89.5t-107 -36.5t-106.5 36.5z" />
    <glyph glyph-name="uni045F" unicode="&#x45f;" horiz-adv-x="618" 
d="M532 532v-532h-177v-157h-82l-22 157h-165v532h124v-440h198v440h124z" />
    <glyph glyph-name="uni0462" unicode="&#x462;" horiz-adv-x="703" 
d="M529.5 392q61.5 -23 94.5 -63.5t33 -93.5v-55q0 -53 -33 -93.5t-94.5 -63.5t-142.5 -23h-227v503h-146v85h146v112h126v-112h214v-85h-214v-88h101q81 0 142.5 -23zM531 228q0 44 -38 67.5t-105 23.5h-102v-223h102q67 0 105 23.5t38 67.5v41z" />
    <glyph glyph-name="uni0463" unicode="&#x463;" horiz-adv-x="624" 
d="M516.5 321.5q56.5 -39.5 56.5 -106.5v-69q0 -67 -56.5 -106.5t-153.5 -39.5h-212v490h-144v86h144v164h124v-164h217v-86h-217v-129h88q97 0 153.5 -39.5zM449 207q0 33 -26 48t-66 15h-82v-180h82q41 0 66.5 16.5t25.5 55.5v45z" />
    <glyph glyph-name="uni0472" unicode="&#x472;" horiz-adv-x="706" 
d="M511.5 677q64.5 -36 97 -100.5t32.5 -148.5v-157q0 -83 -32.5 -147t-97 -100.5t-158.5 -36.5q-93 0 -157.5 36.5t-97 100.5t-32.5 147v157q0 84 32.5 148.5t97 100.5t157.5 36q94 0 158.5 -36zM232.5 566q-40.5 -50 -40.5 -137v-27h322v27q0 87 -40.5 137t-120.5 50
t-120.5 -50zM473.5 133.5q40.5 49.5 40.5 135.5v34h-322v-34q0 -86 40.5 -135.5t120.5 -49.5t120.5 49.5z" />
    <glyph glyph-name="uni0473" unicode="&#x473;" horiz-adv-x="595" 
d="M433 514q57 -32 86 -89t29 -131v-54q0 -115 -66 -184t-186 -69q-119 0 -184 69t-65 184v54q0 74 28.5 131t84.5 89t136 32t137 -32zM206.5 416.5q-31.5 -35.5 -35.5 -103.5h253q-4 68 -36.5 103.5t-91.5 35.5q-58 0 -89.5 -35.5zM388.5 117.5q32.5 37.5 35.5 110.5h-253
q2 -73 34 -110.5t91 -37.5q60 0 92.5 37.5z" />
    <glyph glyph-name="uni0474" unicode="&#x474;" horiz-adv-x="631" 
d="M15 700h131l176 -596l164 596h129l-208 -700h-172z" />
    <glyph glyph-name="uni0475" unicode="&#x475;" horiz-adv-x="549" 
d="M351 0h-153l-173 532h129l123 -433l123 433h124z" />
    <glyph glyph-name="uni0490" unicode="&#x490;" horiz-adv-x="551" 
d="M530 862v-263h-299v-599h-126v700h323v162h102z" />
    <glyph glyph-name="uni0491" unicode="&#x491;" horiz-adv-x="466" 
d="M460 696v-255h-250v-441h-124v532h275v164h99z" />
    <glyph glyph-name="uni0492" unicode="&#x492;" horiz-adv-x="552" 
d="M232 599v-197h148v-85h-148v-317h-126v317h-88v85h88v298h425v-101h-299z" />
    <glyph glyph-name="uni0493" unicode="&#x493;" horiz-adv-x="466" 
d="M210 441v-149h151v-87h-151v-205h-124v205h-72v87h72v240h374v-91h-250z" />
    <glyph glyph-name="uni0496" unicode="&#x496;" horiz-adv-x="962" 
d="M936 97v-274h-82l-23 177h-65l-183 304h-63v-304h-116v304h-64l-182 -304h-142l224 367l-196 333h139l164 -299h57v299h116v-299h56l165 299h138l-196 -333l166 -270h87z" />
    <glyph glyph-name="uni0497" unicode="&#x497;" horiz-adv-x="819" 
d="M795 92v-249h-82l-22 157h-67l-131 232h-62v-232h-112v232h-60l-130 -232h-129l159 279l-143 253h129l115 -206h59v206h112v-206h61l116 206h129l-144 -253l107 -187h95z" />
    <glyph glyph-name="uni049A" unicode="&#x49a;" horiz-adv-x="711" 
d="M685 97v-274h-82l-23 177h-66l-195 303h-89v-303h-125v700h125v-300h78l186 300h136l-209 -336l175 -267h89z" />
    <glyph glyph-name="uni049B" unicode="&#x49b;" horiz-adv-x="616" 
d="M592 92v-249h-82l-22 157h-67l-155 232h-56v-232h-124v532h124v-206h52l136 206h134l-166 -247l135 -193h91z" />
    <glyph glyph-name="uni04A2" unicode="&#x4a2;" horiz-adv-x="769" 
d="M743 97v-274h-82l-23 177h-126v309h-281v-309h-126v700h126v-289h281v289h126v-603h105z" />
    <glyph glyph-name="uni04A3" unicode="&#x4a3;" horiz-adv-x="666" 
d="M642 92v-249h-82l-22 157h-125v232h-203v-232h-124v532h124v-208h203v208h124v-440h105z" />
    <glyph glyph-name="uni04AE" unicode="&#x4ae;" horiz-adv-x="582" 
d="M578 700l-223 -415v-285h-127v285l-224 415h132l159 -317l156 317h127z" />
    <glyph glyph-name="uni04AF" unicode="&#x4af;" horiz-adv-x="552" 
d="M527 532l-199 -504v-228h-110v228l-193 504h129l122 -392l127 392h124z" />
    <glyph glyph-name="uni04B0" unicode="&#x4b0;" horiz-adv-x="582" 
d="M379 330h107v-86h-131v-244h-127v244h-133v86h109l-200 370h132l159 -317l156 317h127z" />
    <glyph glyph-name="uni04B1" unicode="&#x4b1;" horiz-adv-x="552" 
d="M350 83h100v-86h-122v-197h-110v197h-122v86h101l-172 449h129l122 -392l127 392h124z" />
    <glyph glyph-name="uni04B2" unicode="&#x4b2;" horiz-adv-x="685" 
d="M659 97v-274h-82l-23 177h-67l-170 290l-172 -290h-140l233 373l-208 327h140l148 -243h1l151 243h136l-210 -318l175 -285h88z" />
    <glyph glyph-name="uni04B3" unicode="&#x4b3;" horiz-adv-x="578" 
d="M554 92v-249h-82l-22 157h-69l-112 197l-119 -197h-130l172 266l-166 267h135l108 -201l111 201h130l-166 -266l114 -175h96z" />
    <glyph glyph-name="uni04B6" unicode="&#x4b6;" horiz-adv-x="716" 
d="M690 97v-274h-82l-23 177h-124v258q-71 -50 -187 -50q-108 0 -161 57t-53 163v272h126v-275q0 -60 30.5 -89.5t98.5 -29.5q89 0 146 46v348h126v-603h103z" />
    <glyph glyph-name="uni04B7" unicode="&#x4b7;" horiz-adv-x="628" 
d="M604 92v-249h-82l-22 157h-125v184q-60 -40 -149 -40q-91 0 -134.5 49t-43.5 139v200h124v-203q0 -47 24 -69.5t78 -22.5q65 0 101 28v267h124v-440h105z" />
    <glyph glyph-name="uni04BA" unicode="&#x4ba;" horiz-adv-x="657" 
d="M484.5 443q45.5 -21 73 -61t27.5 -95v-287h-126v274q0 47 -29 70.5t-70 23.5q-36 0 -70.5 -14t-58.5 -39v-315h-126v700h126v-288q64 52 154 52q54 0 99.5 -21z" />
    <glyph glyph-name="uni04BB" unicode="&#x4bb;" horiz-adv-x="608" 
d="M483.5 439q48.5 -47 48.5 -131v-308h-124v298q0 92 -83 92q-69 0 -115 -66v-324h-124v740h124v-313q54 59 148 59q77 0 125.5 -47z" />
    <glyph glyph-name="uni04C0" unicode="&#x4c0;" horiz-adv-x="444" 
d="M285 603v-506h90v-97h-306v97h90v506h-90v97h306v-97h-90z" />
    <glyph glyph-name="uni04CF" unicode="&#x4cf;" horiz-adv-x="307" 
d="M200 124q0 -22 8 -31.5t28 -9.5q5 0 21 2l13 -85q-37 -13 -71 -13q-57 0 -90 30.5t-33 88.5v634h124v-616z" />
    <glyph glyph-name="uni04D8" unicode="&#x4d8;" horiz-adv-x="690" 
d="M181 30q-63 43 -91.5 114.5t-28.5 159.5q0 27 2 56t5 39h431v32q0 59 -22 100.5t-59.5 63t-83.5 21.5t-91.5 -14.5t-78.5 -34.5l-64 74q45 31 110 51.5t135 20.5q78 0 141.5 -35t100.5 -100.5t37 -153.5v-125q0 -151 -76 -231.5t-205 -80.5q-99 0 -162 43zM462 134.5
q37 50.5 37 154.5v11h-324v-18q0 -98 46 -148t124 -50q80 0 117 50.5z" />
    <glyph glyph-name="uni04D9" unicode="&#x4d9;" horiz-adv-x="570" 
d="M463 477q61 -69 61 -183v-54q0 -114 -61.5 -183.5t-181.5 -69.5q-113 0 -174.5 67.5t-61.5 177.5q0 52 4 73h357q-1 76 -33 112.5t-95 36.5q-84 0 -166 -53l-39 74q37 28 91.5 49.5t117.5 21.5q120 0 181 -69zM374 113q30 35 32 111h-253v-14q0 -63 34 -97.5t92 -34.5
q65 0 95 35z" />
    <glyph glyph-name="uni04E2" unicode="&#x4e2;" horiz-adv-x="744" 
d="M639 700v-700h-119v539l-275 -539h-140v700h119v-527l270 527h145zM232 858h281v-79h-281v79z" />
    <glyph glyph-name="uni04E3" unicode="&#x4e3;" horiz-adv-x="642" 
d="M556 532v-532h-124v370l-222 -370h-124v532h124v-366l222 366h124zM177 715h281v-79h-281v79z" />
    <glyph glyph-name="uni04E8" unicode="&#x4e8;" horiz-adv-x="706" 
d="M511.5 677q64.5 -36 97 -100.5t32.5 -148.5v-157q0 -83 -32.5 -147t-97 -100.5t-158.5 -36.5q-93 0 -157.5 36.5t-97 100.5t-32.5 147v157q0 84 32.5 148.5t97 100.5t157.5 36q94 0 158.5 -36zM232.5 566q-40.5 -50 -40.5 -137v-27h322v27q0 87 -40.5 137t-120.5 50
t-120.5 -50zM473.5 133.5q40.5 49.5 40.5 135.5v34h-322v-34q0 -86 40.5 -135.5t120.5 -49.5t120.5 49.5z" />
    <glyph glyph-name="uni04E9" unicode="&#x4e9;" horiz-adv-x="595" 
d="M433 514q57 -32 86 -89t29 -131v-54q0 -115 -66 -184t-186 -69q-119 0 -184 69t-65 184v54q0 74 28.5 131t84.5 89t136 32t137 -32zM206.5 416.5q-31.5 -35.5 -35.5 -103.5h253q-4 68 -36.5 103.5t-91.5 35.5q-58 0 -89.5 -35.5zM388.5 117.5q32.5 37.5 35.5 110.5h-253
q2 -73 34 -110.5t91 -37.5q60 0 92.5 37.5z" />
    <glyph glyph-name="uni04EE" unicode="&#x4ee;" horiz-adv-x="564" 
d="M571 700l-316 -700h-125l98 208l-217 492h131l146 -361l158 361h125zM146 858h281v-79h-281v79z" />
    <glyph glyph-name="uni04EF" unicode="&#x4ef;" horiz-adv-x="542" 
d="M107.5 -209.5q-21.5 3.5 -35.5 9.5l17 81q30 -6 56 -6q36 0 57.5 15.5t30.5 51.5l17 58h-54l-171 532h128l126 -440l115 440h123l-181 -597q-24 -81 -69 -114.5t-116 -33.5q-22 0 -43.5 3.5zM131 715h281v-79h-281v79z" />
    <glyph glyph-name="uni1E02" unicode="&#x1e02;" horiz-adv-x="651" 
d="M553 319q38 -34 38 -98v-40q0 -53 -33.5 -94t-94.5 -64t-143 -23h-215v700h216q114 0 181 -46t67 -128v-44q0 -50 -30 -79t-73 -40q49 -10 87 -44zM231 608v-211h110q47 0 74 21.5t27 63.5v37q0 45 -31.5 67t-88.5 22h-91zM465 223q0 40 -30.5 62.5t-87.5 22.5h-116v-216
h91q68 0 105.5 24t37.5 71v36zM272 774.5q-22 21.5 -22 52.5t22 53t53 22t53 -21.5t22 -53.5q0 -31 -22 -52.5t-53 -21.5t-53 21.5z" />
    <glyph glyph-name="uni1E03" unicode="&#x1e03;" horiz-adv-x="602" 
d="M454.5 515q45.5 -31 70.5 -88t25 -133v-54q0 -72 -28.5 -130t-78.5 -90.5t-110 -32.5q-83 0 -139 58l-11 -45h-97v740h124v-249q53 55 138 55q61 0 106.5 -31zM426 298q0 154 -103 154q-35 0 -64 -15t-49 -42v-271q42 -44 102 -44q53 0 83.5 40.5t30.5 115.5v62z
M95 814.5q-22 21.5 -22 52.5t22 53t53 22t53 -21.5t22 -53.5q0 -31 -22 -52.5t-53 -21.5t-53 21.5z" />
    <glyph glyph-name="uni1E0A" unicode="&#x1e0a;" horiz-adv-x="685" 
d="M546 625q73 -75 73 -205v-124q0 -139 -80.5 -217.5t-229.5 -78.5h-204v700h229q139 0 212 -75zM493 423q0 87 -41.5 133.5t-123.5 46.5h-97v-506h79q92 0 137.5 49t45.5 148v129zM269 774.5q-22 21.5 -22 52.5t22 53t53 22t53 -21.5t22 -53.5q0 -31 -22 -52.5t-53 -21.5
t-53 21.5z" />
    <glyph glyph-name="uni1E0B" unicode="&#x1e0b;" horiz-adv-x="604" 
d="M518 740v-740h-97l-14 58q-56 -71 -145 -71q-62 0 -109.5 31t-74.5 88t-27 132v56q0 72 27.5 129.5t76.5 90t113 32.5q74 0 126 -47v241h124zM345.5 96q26.5 16 48.5 46v266q-19 20 -46 32t-59 12q-54 0 -84 -40t-30 -115v-61q0 -78 28.5 -117t80.5 -39q35 0 61.5 16z
M403 814.5q-22 21.5 -22 52.5t22 53t53 22t53 -21.5t22 -53.5q0 -31 -22 -52.5t-53 -21.5t-53 21.5z" />
    <glyph glyph-name="uni1E1E" unicode="&#x1e1e;" horiz-adv-x="546" 
d="M231 603v-208h252v-97h-252v-298h-126v700h420v-97h-294zM269 774.5q-22 21.5 -22 52.5t22 53t53 22t53 -21.5t22 -53.5q0 -31 -22 -52.5t-53 -21.5t-53 21.5z" />
    <glyph glyph-name="uni1E1F" unicode="&#x1e1f;" horiz-adv-x="382" 
d="M250 644.5q-17 -15.5 -17 -51.5v-61h127v-92h-127v-440h-124v440h-71v92h71v51q0 85 45.5 127.5t133.5 42.5q57 0 98 -13l-13 -88q-35 8 -68 8q-38 0 -55 -15.5zM206 814.5q-22 21.5 -22 52.5t22 53t53 22t53 -21.5t22 -53.5q0 -31 -22 -52.5t-53 -21.5t-53 21.5z" />
    <glyph glyph-name="uni1E40" unicode="&#x1e40;" horiz-adv-x="874" 
d="M769 700v-700h-121v509l-147 -408l1 -1h-133l-150 425v-525h-114v700h163l171 -494l176 493l-1 1h155zM384 774.5q-22 21.5 -22 52.5t22 53t53 22t53 -21.5t22 -53.5q0 -31 -22 -52.5t-53 -21.5t-53 21.5z" />
    <glyph glyph-name="uni1E41" unicode="&#x1e41;" horiz-adv-x="880" 
d="M722.5 525q37.5 -21 59.5 -61t22 -96v-368h-123v359q0 47 -20.5 70t-52.5 23q-55 0 -101 -67v-385h-124v359q0 48 -20 70.5t-52 22.5q-29 0 -54 -17t-48 -51v-384h-123v532h106l7 -54q57 68 144 68q44 0 82 -21t59 -60q61 81 156 81q45 0 82.5 -21zM424 636.5
q-22 21.5 -22 52.5t22 53t53 22t53 -21.5t22 -53.5q0 -31 -22 -52.5t-53 -21.5t-53 21.5z" />
    <glyph glyph-name="uni1E56" unicode="&#x1e56;" horiz-adv-x="621" 
d="M518 647.5q67 -52.5 67 -147.5v-58q0 -95 -72 -148.5t-194 -53.5h-88v-240h-126v700h231q115 0 182 -52.5zM459 494q0 55 -34 82.5t-95 27.5h-99v-268h84q144 0 144 113v45zM262 774.5q-22 21.5 -22 52.5t22 53t53 22t53 -21.5t22 -53.5q0 -31 -22 -52.5t-53 -21.5
t-53 21.5z" />
    <glyph glyph-name="uni1E57" unicode="&#x1e57;" horiz-adv-x="602" 
d="M453.5 515q45.5 -31 71 -88.5t25.5 -132.5v-53q0 -73 -28.5 -131t-78 -90.5t-110.5 -32.5q-69 0 -123 43v-230h-124v732h106l7 -51q57 65 150 65q59 0 104.5 -31zM426 298q0 76 -27.5 115t-77.5 39q-33 0 -62 -15t-49 -41v-279q44 -37 101 -37q54 0 84.5 40t30.5 117v61z
M263 636.5q-22 21.5 -22 52.5t22 53t53 22t53 -21.5t22 -53.5q0 -31 -22 -52.5t-53 -21.5t-53 21.5z" />
    <glyph glyph-name="uni1E60" unicode="&#x1e60;" horiz-adv-x="613" 
d="M28 78l63 75q38 -25 61 -37.5t55 -20.5t77 -8q72 0 110 29.5t38 68.5v13q0 38 -22.5 60t-84.5 42l-103 34q-165 53 -165 177v23q0 48 29.5 89t86.5 65.5t134 24.5t137 -23t109 -68l-62 -69q-48 36 -87 50t-92 14q-63 0 -96 -24.5t-33 -57.5v-17q0 -27 26.5 -49t85.5 -40
l93 -30q80 -25 124.5 -69t44.5 -119v-27q0 -58 -34 -103t-94.5 -69.5t-138.5 -24.5q-164 0 -262 91zM249 774.5q-22 21.5 -22 52.5t22 53t53 22t53 -21.5t22 -53.5q0 -31 -22 -52.5t-53 -21.5t-53 21.5z" />
    <glyph glyph-name="uni1E61" unicode="&#x1e61;" horiz-adv-x="507" 
d="M125 6q-56 19 -97 54l59 71q35 -26 71 -39t79 -13q101 0 101 58v8q0 26 -18 41.5t-71 33.5l-67 23q-65 23 -96.5 55.5t-31.5 81.5v22q0 42 26 74.5t72 51t104 18.5q57 0 109.5 -17.5t90.5 -49.5l-57 -68q-38 25 -69.5 34t-69.5 9q-40 0 -61 -14.5t-21 -36.5v-8
q0 -22 18 -37t68 -33l67 -23q64 -23 97 -55t33 -88v-22q0 -71 -61 -110.5t-152 -39.5q-67 0 -123 19zM202 636.5q-22 21.5 -22 52.5t22 53t53 22t53 -21.5t22 -53.5q0 -31 -22 -52.5t-53 -21.5t-53 21.5z" />
    <glyph glyph-name="uni1E6A" unicode="&#x1e6a;" horiz-adv-x="548" 
d="M533 603h-196v-603h-126v603h-197v97h519v-97zM221 774.5q-22 21.5 -22 52.5t22 53t53 22t53 -21.5t22 -53.5q0 -31 -22 -52.5t-53 -21.5t-53 21.5z" />
    <glyph glyph-name="uni1E6B" unicode="&#x1e6b;" horiz-adv-x="401" 
d="M367 0q-45 -13 -93 -13q-78 0 -119.5 35.5t-41.5 109.5v308h-81v92h84l10 131h111v-131h115v-92h-115v-301q0 -29 16 -43t49 -14q25 0 52 5zM129 774.5q-22 21.5 -22 52.5t22 53t53 22t53 -21.5t22 -53.5q0 -31 -22 -52.5t-53 -21.5t-53 21.5z" />
    <glyph glyph-name="Wgrave" unicode="&#x1e80;" horiz-adv-x="899" 
d="M860 700l-118 -700h-177l-118 589l-118 -589h-178l-121 700h129l88 -593l121 593h162l123 -593l85 593h122zM325 831l38 83l211 -104l-31 -67z" />
    <glyph glyph-name="wgrave" unicode="&#x1e81;" horiz-adv-x="799" 
d="M764 532l-118 -532h-153l-93 424l-95 -424h-150l-120 532h124l79 -428l95 428h138l96 -428l75 428h122zM273 696l43 82l208 -111l-33 -66z" />
    <glyph glyph-name="Wacute" unicode="&#x1e82;" horiz-adv-x="899" 
d="M860 700l-118 -700h-177l-118 589l-118 -589h-178l-121 700h129l88 -593l121 593h162l123 -593l85 593h122zM324 810l210 104l39 -83l-218 -88z" />
    <glyph glyph-name="wacute" unicode="&#x1e83;" horiz-adv-x="799" 
d="M764 532l-118 -532h-153l-93 424l-95 -424h-150l-120 532h124l79 -428l95 428h138l96 -428l75 428h122zM273 667l208 111l43 -82l-218 -95z" />
    <glyph glyph-name="Wdieresis" unicode="&#x1e84;" horiz-adv-x="899" 
d="M860 700l-118 -700h-177l-118 589l-118 -589h-178l-121 700h129l88 -593l121 593h162l123 -593l85 593h122zM285.5 795q-19.5 19 -19.5 46t19.5 46t47.5 19t47 -19t19 -46t-19 -46t-47 -19t-47.5 19zM521 795q-19 19 -19 46t19 46t46 19q28 0 47.5 -19t19.5 -46
t-19.5 -46t-47.5 -19q-27 0 -46 19z" />
    <glyph glyph-name="wdieresis" unicode="&#x1e85;" horiz-adv-x="799" 
d="M764 532l-118 -532h-153l-93 424l-95 -424h-150l-120 532h124l79 -428l95 428h138l96 -428l75 428h122zM233.5 641q-19.5 19 -19.5 46t19.5 46t47.5 19t47 -19t19 -46t-19 -46t-47 -19t-47.5 19zM469 641q-19 19 -19 46t19 46t46 19q28 0 47.5 -19t19.5 -46t-19.5 -46
t-47.5 -19q-27 0 -46 19z" />
    <glyph glyph-name="Ygrave" unicode="&#x1ef2;" horiz-adv-x="582" 
d="M578 700l-223 -415v-285h-127v285l-224 415h132l159 -317l156 317h127zM167 831l38 83l211 -104l-31 -67z" />
    <glyph glyph-name="ygrave" unicode="&#x1ef3;" horiz-adv-x="542" 
d="M107.5 -209.5q-21.5 3.5 -35.5 9.5l17 81q30 -6 56 -6q36 0 57.5 15.5t30.5 51.5l17 58h-54l-171 532h128l126 -440l115 440h123l-181 -597q-24 -81 -69 -114.5t-116 -33.5q-22 0 -43.5 3.5zM146 696l43 82l208 -111l-33 -66z" />
    <glyph glyph-name="uni2007" unicode="&#x2007;" horiz-adv-x="594" 
 />
    <glyph glyph-name="uni200B" unicode="&#x200b;" horiz-adv-x="0" 
 />
    <glyph glyph-name="uni200C" unicode="&#x200c;" horiz-adv-x="0" 
d="M8 -150h-16v900h16v-900z" />
    <glyph glyph-name="uni200D" unicode="&#x200d;" horiz-adv-x="0" 
d="M65 804l-54 -54l57 -57l-11 -11l-49 49v-881h-16v881l-49 -49l-11 11l57 57l-54 54l11 11l54 -54l54 54z" />
    <glyph glyph-name="uni200E" unicode="&#x200e;" horiz-adv-x="0" 
d="M128 750l-55 -72l-13 9l43 55h-95v-892h-16v908h111l-43 55l13 9z" />
    <glyph glyph-name="uni200F" unicode="&#x200f;" horiz-adv-x="0" 
d="M-60 813l-43 -55h111v-908h-16v892h-95l43 -55l-13 -9l-55 72l55 72z" />
    <glyph glyph-name="endash" unicode="&#x2013;" horiz-adv-x="632" 
d="M570 293h-507v98h507v-98z" />
    <glyph glyph-name="emdash" unicode="&#x2014;" horiz-adv-x="692" 
d="M630 293h-567v98h567v-98z" />
    <glyph glyph-name="uni2015" unicode="&#x2015;" 
d="M568 293h-507v98h507v-98z" />
    <glyph glyph-name="quoteleft" unicode="&#x2018;" horiz-adv-x="256" 
d="M203 701q-26 -37 -37 -67t-16 -68q40 -21 40 -65q0 -30 -22 -51.5t-51 -21.5q-31 0 -52 20.5t-21 52.5q1 55 27 112t88 121z" />
    <glyph glyph-name="quoteright" unicode="&#x2019;" horiz-adv-x="256" 
d="M53 464q26 37 37 67t16 68q-40 21 -40 65q0 30 22 51.5t51 21.5q31 0 52 -20.5t21 -52.5q-1 -55 -27 -112t-88 -121z" />
    <glyph glyph-name="quotesinglbase" unicode="&#x201a;" horiz-adv-x="256" 
d="M53 -140q26 37 37 67t16 68q-40 21 -40 65q0 30 22 51.5t51 21.5q31 0 52 -20.5t21 -52.5q-1 -55 -27 -112t-88 -121z" />
    <glyph glyph-name="quotedblleft" unicode="&#x201c;" horiz-adv-x="463" 
d="M203 701q-26 -37 -37 -67t-16 -68q40 -21 40 -65q0 -30 -22 -51.5t-51 -21.5q-31 0 -52 20.5t-21 52.5q1 55 27 112t88 121zM410 701q-26 -37 -37 -67t-16 -68q40 -21 40 -65q0 -30 -22 -51.5t-51 -21.5q-31 0 -52 20.5t-21 52.5q1 55 27 112t88 121z" />
    <glyph glyph-name="quotedblright" unicode="&#x201d;" horiz-adv-x="463" 
d="M251 462q26 37 37 67t16 68q-40 21 -40 65q0 30 22 51.5t51 21.5q31 0 52 -20.5t21 -52.5q-1 -55 -27 -112t-88 -121zM44 462q26 37 37 67t16 68q-40 21 -40 65q0 30 22 51.5t51 21.5q31 0 52 -20.5t21 -52.5q-1 -55 -27 -112t-88 -121z" />
    <glyph glyph-name="quotedblbase" unicode="&#x201e;" horiz-adv-x="463" 
d="M251 -140q26 37 37 67t16 68q-40 21 -40 65q0 30 22 51.5t51 21.5q31 0 52 -20.5t21 -52.5q-1 -55 -27 -112t-88 -121zM44 -140q26 37 37 67t16 68q-40 21 -40 65q0 30 22 51.5t51 21.5q31 0 52 -20.5t21 -52.5q-1 -55 -27 -112t-88 -121z" />
    <glyph glyph-name="dagger" unicode="&#x2020;" 
d="M351 532h168v-89h-168v-443h-102v443h-168v89h168v168h102v-168z" />
    <glyph glyph-name="daggerdbl" unicode="&#x2021;" 
d="M351 443v-186h168v-89h-168v-168h-102v168h-168v89h168v186h-168v89h168v168h102v-168h168v-89h-168z" />
    <glyph glyph-name="bullet" unicode="&#x2022;" horiz-adv-x="349" 
d="M259 426q34 -34 34 -85t-34 -84.5t-84 -33.5q-51 0 -85 34t-34 85t34 84.5t85 33.5q50 0 84 -34z" />
    <glyph glyph-name="ellipsis" unicode="&#x2026;" horiz-adv-x="724" 
d="M86 10q-23 23 -23 56q0 32 23 55.5t56 23.5t55.5 -23t22.5 -56t-22.5 -56t-55.5 -23t-56 23zM307 10q-23 23 -23 56q0 32 23 55.5t56 23.5t55.5 -23t22.5 -56t-22.5 -56t-55.5 -23t-56 23zM527 10q-23 23 -23 56q0 32 23 55.5t56 23.5t55.5 -23t22.5 -56t-22.5 -56
t-55.5 -23t-56 23z" />
    <glyph glyph-name="perthousand" unicode="&#x2030;" horiz-adv-x="1327" 
d="M252 0l355 776l85 -36l-356 -776zM102.5 369.5q-44.5 41.5 -44.5 112.5v115q0 73 44.5 114.5t124.5 41.5q78 0 121 -41.5t43 -114.5v-115q0 -71 -43.5 -112.5t-120.5 -41.5q-80 0 -124.5 41.5zM277.5 424.5q18.5 19.5 18.5 55.5v120q0 38 -19 58t-50 20q-35 0 -54.5 -20
t-19.5 -58v-120q0 -36 20 -55.5t54 -19.5q32 0 50.5 19.5zM594.5 28.5q-44.5 41.5 -44.5 112.5v116q0 73 44.5 114.5t124.5 41.5q77 0 120 -41.5t43 -114.5v-116q0 -71 -43 -112.5t-120 -41.5q-80 0 -124.5 41.5zM980.5 28.5q-44.5 41.5 -44.5 112.5v116q0 73 44.5 114.5
t124.5 41.5q77 0 120 -41.5t43 -114.5v-116q0 -71 -43 -112.5t-120 -41.5q-80 0 -124.5 41.5zM768.5 83.5q18.5 19.5 18.5 55.5v120q0 38 -18.5 58.5t-49.5 20.5q-35 0 -54.5 -20.5t-19.5 -58.5v-120q0 -36 19.5 -55.5t54.5 -19.5q31 0 49.5 19.5zM1155 83.5
q19 19.5 19 55.5v120q0 38 -19 58.5t-50 20.5q-35 0 -54.5 -20.5t-19.5 -58.5v-120q0 -36 20 -55.5t54 -19.5q31 0 50 19.5z" />
    <glyph glyph-name="guilsinglleft" unicode="&#x2039;" horiz-adv-x="390" 
d="M77 256v60l177 219l67 -45l-133 -204l135 -208l-68 -44z" />
    <glyph glyph-name="guilsinglright" unicode="&#x203a;" horiz-adv-x="390" 
d="M77 78l135 208l-133 204l67 45l177 -219v-60l-178 -222z" />
    <glyph glyph-name="uni203D" unicode="&#x203d;" horiz-adv-x="499" 
d="M181 615q-27 -6 -51 -19t-57 -35l-53 71q50 39 103.5 60t124.5 21q66 0 116.5 -22.5t78.5 -60t28 -83.5v-30q0 -48 -26.5 -78.5t-76.5 -64.5q-43 -29 -64 -51.5t-21 -55.5v-31h-90zM315 442q20 19 30 36t10 35v26q0 26 -16.5 47.5t-43.5 29.5l-7 -200q7 7 27 26zM176 10
q-23 23 -23 56q0 32 23 55.5t56 23.5t55.5 -23t22.5 -56t-22.5 -56t-55.5 -23t-56 23z" />
    <glyph glyph-name="fraction" unicode="&#x2044;" horiz-adv-x="225" 
d="M-83 16l304 740l88 -32l-305 -739z" />
    <glyph glyph-name="uni2070" unicode="&#x2070;" horiz-adv-x="500" 
d="M102.5 453.5q-54.5 49.5 -54.5 135.5v175q0 87 54.5 137t150.5 50q93 0 145.5 -50t52.5 -137v-175q0 -86 -52.5 -135.5t-145.5 -49.5q-96 0 -150.5 49.5zM319 512q24 26 24 78v175q0 54 -24 80.5t-66 26.5q-97 0 -97 -107v-175q0 -104 97 -104q42 0 66 26z" />
    <glyph glyph-name="uni2074" unicode="&#x2074;" horiz-adv-x="500" 
d="M285 513h-245v64l178 363h103l-167 -345h133l21 135l84 1v-136h68v-82h-68v-98h-107v98z" />
    <glyph glyph-name="uni2075" unicode="&#x2075;" horiz-adv-x="500" 
d="M132 426.5q-49 22.5 -86 63.5l62 57q33 -31 63.5 -45.5t73.5 -14.5q44 0 73.5 20t29.5 57v30q0 38 -29.5 57.5t-77.5 19.5q-20 0 -35.5 -2.5t-41.5 -9.5h-68v281h326v-84h-222v-119q36 12 78 12q52 0 92 -19t62 -52t22 -74v-47q0 -42 -25.5 -77t-72 -55.5t-106.5 -20.5
q-69 0 -118 22.5z" />
    <glyph glyph-name="uni2076" unicode="&#x2076;" horiz-adv-x="500" 
d="M103 461q-56 57 -56 153v38q0 145 88.5 220.5t254.5 78.5v-82q-106 -4 -164.5 -42t-67.5 -116q48 54 134 54q76 0 118.5 -44t42.5 -112v-32q0 -47 -22.5 -86.5t-67.5 -63t-109 -23.5q-95 0 -151 57zM324 510.5q23 24.5 23 69.5v26q0 81 -80 81q-35 0 -61.5 -14t-49.5 -42
v-28q0 -59 25.5 -88t72.5 -29t70 24.5z" />
    <glyph glyph-name="uni2077" unicode="&#x2077;" horiz-adv-x="500" 
d="M330 854h-272v86h383v-83l-204 -442h-117z" />
    <glyph glyph-name="uni2078" unicode="&#x2078;" horiz-adv-x="500" 
d="M139 421.5q-48 17.5 -75 49.5t-27 73v32q0 68 99 104l8 3l-7 4q-40 18 -57.5 42.5t-17.5 64.5v31q0 56 51.5 91t134.5 35q54 0 97 -15.5t67.5 -43.5t24.5 -64v-32q0 -33 -18.5 -54t-62.5 -35l-6 -3l6 -2q53 -18 79.5 -47.5t26.5 -77.5v-33q0 -41 -28 -73t-77 -49.5
t-109 -17.5q-61 0 -109 17.5zM275 735q33 13 47 26t14 32v26q0 28 -26.5 43t-62.5 15q-35 0 -59 -13t-24 -40v-25q0 -22 17.5 -33.5t65.5 -27.5l21 -6zM326 499q30 18 30 49v26q0 25 -23 38.5t-78 31.5l-32 11l-9 -4q-37 -15 -54 -30.5t-17 -41.5v-26q0 -34 29 -53t78 -19
q46 0 76 18z" />
    <glyph glyph-name="uni2079" unicode="&#x2079;" horiz-adv-x="500" 
d="M97 488q115 3 176 40.5t69 115.5q-48 -54 -133 -54q-75 0 -118.5 44t-43.5 112v32q0 47 23 86.5t68.5 63t111.5 23.5q98 0 150.5 -56.5t52.5 -153.5v-37q0 -147 -90 -222t-267 -78zM294.5 681q25.5 14 49.5 43v29q0 60 -23.5 88.5t-72.5 28.5q-48 0 -71.5 -25t-23.5 -70
v-26q0 -38 20 -60t62 -22q34 0 59.5 14z" />
    <glyph glyph-name="uni2080" unicode="&#x2080;" horiz-adv-x="500" 
d="M102.5 -121.5q-54.5 49.5 -54.5 135.5v175q0 87 54.5 137t150.5 50q93 0 145.5 -50t52.5 -137v-175q0 -86 -52.5 -135.5t-145.5 -49.5q-96 0 -150.5 49.5zM319 -63q24 26 24 78v175q0 54 -24 80.5t-66 26.5q-97 0 -97 -107v-175q0 -104 97 -104q42 0 66 26z" />
    <glyph glyph-name="uni2081" unicode="&#x2081;" horiz-adv-x="500" 
d="M91 -81h125v334l-107 -49l-38 68l173 93h78v-446h107v-79h-338v79z" />
    <glyph glyph-name="uni2082" unicode="&#x2082;" horiz-adv-x="500" 
d="M73 -102q0 65 28 108t82 77l79 50q40 26 54 43t14 40v16q0 26 -23 44t-67 18q-36 0 -67 -10.5t-67 -34.5l-46 65q85 61 188 61q59 0 102 -18.5t65 -50t22 -69.5v-25q0 -40 -26.5 -73t-87.5 -72l-67 -42q-44 -28 -60.5 -50t-18.5 -51h261v-84h-365v58z" />
    <glyph glyph-name="uni2083" unicode="&#x2083;" horiz-adv-x="500" 
d="M127.5 -149.5q-47.5 21.5 -84.5 60.5l60 56q58 -58 137 -58q47 0 78 20t31 58v18q0 41 -34.5 58t-78.5 17h-47v75h47q40 0 67.5 14.5t27.5 48.5v16q0 32 -25.5 48t-64.5 16q-38 0 -70.5 -13.5t-63.5 -40.5l-54 55q39 36 86.5 56.5t111.5 20.5q51 0 93.5 -16.5t67.5 -45.5
t25 -66v-29q0 -34 -30 -61t-70 -35q45 -7 82 -37t37 -76v-34q0 -41 -27 -75t-75 -53t-107 -19q-72 0 -119.5 21.5z" />
    <glyph glyph-name="uni2084" unicode="&#x2084;" horiz-adv-x="500" 
d="M285 -62h-245v64l178 363h103l-167 -345h133l21 135l84 1v-136h68v-82h-68v-98h-107v98z" />
    <glyph glyph-name="uni2085" unicode="&#x2085;" horiz-adv-x="500" 
d="M132 -148.5q-49 22.5 -86 63.5l62 57q33 -31 63.5 -45.5t73.5 -14.5q44 0 73.5 20t29.5 57v30q0 38 -29.5 57.5t-77.5 19.5q-20 0 -35.5 -2.5t-41.5 -9.5h-68v281h326v-84h-222v-119q36 12 78 12q52 0 92 -19t62 -52t22 -74v-47q0 -42 -25.5 -77t-72 -55.5t-106.5 -20.5
q-69 0 -118 22.5z" />
    <glyph glyph-name="uni2086" unicode="&#x2086;" horiz-adv-x="500" 
d="M103 -114q-56 57 -56 153v38q0 145 88.5 220.5t254.5 78.5v-82q-106 -4 -164.5 -42t-67.5 -116q48 54 134 54q76 0 118.5 -44t42.5 -112v-32q0 -47 -22.5 -86.5t-67.5 -63t-109 -23.5q-95 0 -151 57zM324 -64.5q23 24.5 23 69.5v26q0 81 -80 81q-35 0 -61.5 -14
t-49.5 -42v-28q0 -59 25.5 -88t72.5 -29t70 24.5z" />
    <glyph glyph-name="uni2087" unicode="&#x2087;" horiz-adv-x="500" 
d="M330 279h-272v86h383v-83l-204 -442h-117z" />
    <glyph glyph-name="uni2088" unicode="&#x2088;" horiz-adv-x="500" 
d="M139 -153.5q-48 17.5 -75 49.5t-27 73v32q0 68 99 104l8 3l-7 4q-40 18 -57.5 42.5t-17.5 64.5v31q0 56 51.5 91t134.5 35q54 0 97 -15.5t67.5 -43.5t24.5 -64v-32q0 -33 -18.5 -54t-62.5 -35l-6 -3l6 -2q53 -18 79.5 -47.5t26.5 -77.5v-33q0 -41 -28 -73t-77 -49.5
t-109 -17.5q-61 0 -109 17.5zM275 160q33 13 47 26t14 32v26q0 28 -26.5 43t-62.5 15q-35 0 -59 -13t-24 -40v-25q0 -22 17.5 -33.5t65.5 -27.5l21 -6zM326 -76q30 18 30 49v26q0 25 -23 38.5t-78 31.5l-32 11l-9 -4q-37 -15 -54 -30.5t-17 -41.5v-26q0 -34 29 -53t78 -19
q46 0 76 18z" />
    <glyph glyph-name="uni2089" unicode="&#x2089;" horiz-adv-x="500" 
d="M97 -87q115 3 176 40.5t69 115.5q-48 -54 -133 -54q-75 0 -118.5 44t-43.5 112v32q0 47 23 86.5t68.5 63t111.5 23.5q98 0 150.5 -56.5t52.5 -153.5v-37q0 -147 -90 -222t-267 -78zM294.5 106q25.5 14 49.5 43v29q0 60 -23.5 88.5t-72.5 28.5q-48 0 -71.5 -25t-23.5 -70
v-26q0 -38 20 -60t62 -22q34 0 59.5 14z" />
    <glyph glyph-name="Euro" unicode="&#x20ac;" horiz-adv-x="619" 
d="M440 101q31 13 64 35l56 -74q-34 -31 -86 -53t-107 -22q-113 0 -177 71.5t-64 191.5v15h-60v57h60v76h-60v57h60q3 122 68 190t176 68q109 0 195 -79l-67 -69q-31 25 -59 38t-65 13q-62 0 -92 -39.5t-31 -121.5h225v-57h-225v-76h225v-57h-225v-13q0 -82 28.5 -123
t90.5 -41q39 0 70 13z" />
    <glyph glyph-name="uni20B9" unicode="&#x20b9;" 
d="M407 620q33 -33 42 -69h81v-82h-78q-7 -74 -76 -119t-172 -50l221 -300h-137l-218 300v88h120q64 0 97.5 20t39.5 61h-257v82h254q-18 69 -125 69h-129v80h460v-80h-123z" />
    <glyph glyph-name="uni20BA" unicode="&#x20ba;" 
d="M556 179q-33 -89 -97.5 -134t-172.5 -45h-164v221l-54 -25l-25 56l79 37v73l-52 -24l-27 58l79 37v267h123v-211l144 67l26 -56l-170 -80v-74l143 67l26 -57l-169 -78v-176h50q66 0 102 23.5t69 90.5z" />
    <glyph glyph-name="uni20BD" unicode="&#x20bd;" 
d="M468.5 678q56.5 -22 87 -63t30.5 -95v-33q0 -92 -73 -144t-192 -52h-87v-62h182v-84h-182v-144h-124v144h-96v84h96v62h-96v86h96v323h227q75 0 131.5 -22zM459 512q0 48 -34 73t-94 25h-97v-233h82q143 0 143 112v23z" />
    <glyph glyph-name="uni2105" unicode="&#x2105;" horiz-adv-x="917" 
d="M250 16l304 740l88 -32l-305 -739zM99 387q-41 45 -41 121v28q0 75 41 120t113 45q70 0 114 -46l-42 -48q-14 12 -28 17t-34 5q-35 0 -55 -23.5t-20 -70.5v-27q0 -47 19 -70.5t54 -23.5q20 0 35 5.5t31 17.5l37 -54q-21 -18 -51 -29.5t-61 -11.5q-71 0 -112 45zM578 31.5
q-42 44.5 -42 117.5v35q0 73 42 117.5t119 44.5t119.5 -44.5t42.5 -117.5v-35q0 -73 -42.5 -117.5t-119.5 -44.5t-119 44.5zM770 151v31q0 44 -19 68t-55 24q-35 0 -53 -23.5t-18 -68.5v-31q0 -92 71 -92q74 0 74 92z" />
    <glyph glyph-name="uni2113" unicode="&#x2113;" 
d="M276 179q-2 -15 -2 -40q0 -35 12 -50.5t41 -15.5q17 0 37 5l19 -77q-42 -14 -84 -14q-131 0 -131 143q0 22 3 46l5 39l-54 -37l-30 66l95 65l28 232q19 172 165 172q61 0 94.5 -33.5t33.5 -87.5q0 -51 -20 -94.5t-67 -91t-131 -110.5zM322 561l-19 -159q64 58 88 97.5
t24 86.5q0 51 -37 51q-46 0 -56 -76z" />
    <glyph glyph-name="uni2116" unicode="&#x2116;" horiz-adv-x="1132" 
d="M637 700v-700h-146l-275 543v-543h-111v700h151l269 -525v525h112zM754.5 340.5q-47.5 51.5 -47.5 139.5v41q0 88 48 139.5t143 51.5q96 0 144.5 -51.5t48.5 -139.5v-41q0 -88 -48.5 -139.5t-144.5 -51.5t-143.5 51.5zM965 395q20 27 20 85v43q0 58 -20.5 85t-66.5 27
t-66 -27t-20 -85v-43q0 -58 20 -85t66 -27q47 0 67 27z" />
    <glyph glyph-name="uni2117" unicode="&#x2117;" horiz-adv-x="905" 
d="M643 671.5q84 -41.5 130.5 -113t46.5 -157.5v-94q0 -94 -46.5 -166.5t-130 -113t-192.5 -40.5q-101 0 -185 41t-132.5 113.5t-48.5 165.5v94q0 85 49 156.5t133.5 113.5t185.5 42q106 0 190 -41.5zM741 402q0 68 -35.5 123t-101 87t-151.5 32q-81 0 -147 -32t-104 -87.5
t-38 -122.5v-96q0 -75 37.5 -131.5t103.5 -87.5t148 -31q87 0 152 30.5t100.5 87t35.5 132.5v96zM578 529q40 -31 40 -88v-36q0 -56 -43 -88.5t-116 -32.5h-40v-144h-88v420h138q69 0 109 -31zM531 437q0 31 -18 42.5t-49 11.5h-45v-137h36q33 0 54.5 14t21.5 41v28z" />
    <glyph glyph-name="uni2120" unicode="&#x2120;" horiz-adv-x="980" 
d="M199 668q-17 -11 -17 -24v-9q0 -24 58 -42l53 -17q53 -18 78.5 -42.5t25.5 -68.5v-14q0 -48 -44 -80t-115 -32q-51 0 -91.5 15.5t-66.5 37.5l36 56q30 -20 54 -29.5t61 -9.5t56.5 12t19.5 30v7q0 18 -10.5 26.5t-42.5 18.5l-52 17q-57 18 -83 47.5t-26 61.5v14
q0 45 40.5 75t114.5 30q44 0 83 -12.5t66 -36.5l-36 -56q-48 36 -113 36q-32 0 -49 -11zM900 740v-394h-96v256l-74 -199h-98l-80 213v-270h-89v394h128l91 -254l94 254h124z" />
    <glyph glyph-name="trademark" unicode="&#x2122;" horiz-adv-x="1000" 
d="M80 740h345v-82h-122v-312h-101v312h-122v82zM920 740v-394h-96v256l-74 -199h-98l-80 213v-270h-89v394h128l91 -254l94 254h124z" />
    <glyph glyph-name="uni2126" unicode="&#x2126;" horiz-adv-x="710" 
d="M618.5 177q-25.5 -49 -74.5 -80h100v-97h-245v85q58 17 88.5 61.5t30.5 111.5v171q0 87 -41 137t-122 50t-122 -50.5t-41 -136.5v-171q0 -67 30.5 -111.5t88.5 -61.5v-85h-245v97h100q-49 31 -74.5 80t-25.5 113v138q0 84 32.5 148t97.5 100.5t159 36.5t159 -36.5
t97.5 -100.5t32.5 -148v-138q0 -64 -25.5 -113z" />
    <glyph glyph-name="estimated" unicode="&#x212e;" horiz-adv-x="945" 
d="M218 123q30 -45 104.5 -71t150.5 -26q75 0 147.5 26t112.5 73h58q-56 -66 -136.5 -102t-182.5 -36q-113 0 -205 46t-144.5 128.5t-52.5 185.5t54 186.5t146.5 131.5t201.5 48q107 0 199.5 -48t148 -133.5t55.5 -192.5h-657v-216zM473 674q-86 0 -151 -26.5t-104 -74.5
v-194h509v193q-94 102 -254 102z" />
    <glyph glyph-name="uni2153" unicode="&#x2153;" horiz-adv-x="1225" 
d="M91 294h125v334l-107 -49l-38 68l173 93h78v-446h107v-79h-338v79zM417 16l304 740l88 -32l-305 -739zM852.5 10.5q-47.5 21.5 -84.5 60.5l60 56q58 -58 137 -58q47 0 78 20t31 58v18q0 41 -34.5 58t-78.5 17h-47v75h47q40 0 67.5 14.5t27.5 48.5v16q0 32 -25.5 48
t-64.5 16q-38 0 -70.5 -13.5t-63.5 -40.5l-54 55q39 36 86.5 56.5t111.5 20.5q51 0 93.5 -16.5t67.5 -45.5t25 -66v-29q0 -34 -30 -61t-70 -35q45 -7 82 -37t37 -76v-34q0 -41 -27 -75t-75 -53t-107 -19q-72 0 -119.5 21.5z" />
    <glyph glyph-name="uni2154" unicode="&#x2154;" horiz-adv-x="1225" 
d="M73 273q0 65 28 108t82 77l79 50q40 26 54 43t14 40v16q0 26 -23 44t-67 18q-36 0 -67 -10.5t-67 -34.5l-46 65q85 61 188 61q59 0 102 -18.5t65 -50t22 -69.5v-25q0 -40 -26.5 -73t-87.5 -72l-67 -42q-44 -28 -60.5 -50t-18.5 -51h261v-84h-365v58zM417 16l304 740
l88 -32l-305 -739zM852.5 10.5q-47.5 21.5 -84.5 60.5l60 56q58 -58 137 -58q47 0 78 20t31 58v18q0 41 -34.5 58t-78.5 17h-47v75h47q40 0 67.5 14.5t27.5 48.5v16q0 32 -25.5 48t-64.5 16q-38 0 -70.5 -13.5t-63.5 -40.5l-54 55q39 36 86.5 56.5t111.5 20.5
q51 0 93.5 -16.5t67.5 -45.5t25 -66v-29q0 -34 -30 -61t-70 -35q45 -7 82 -37t37 -76v-34q0 -41 -27 -75t-75 -53t-107 -19q-72 0 -119.5 21.5z" />
    <glyph glyph-name="uni2155" unicode="&#x2155;" horiz-adv-x="1225" 
d="M91 294h125v334l-107 -49l-38 68l173 93h78v-446h107v-79h-338v79zM417 16l304 740l88 -32l-305 -739zM857 11.5q-49 22.5 -86 63.5l62 57q33 -31 63.5 -45.5t73.5 -14.5q44 0 73.5 20t29.5 57v30q0 38 -29.5 57.5t-77.5 19.5q-20 0 -35.5 -2.5t-41.5 -9.5h-68v281h326
v-84h-222v-119q36 12 78 12q52 0 92 -19t62 -52t22 -74v-47q0 -42 -25.5 -77t-72 -55.5t-106.5 -20.5q-69 0 -118 22.5z" />
    <glyph glyph-name="uni2156" unicode="&#x2156;" horiz-adv-x="1225" 
d="M73 273q0 65 28 108t82 77l79 50q40 26 54 43t14 40v16q0 26 -23 44t-67 18q-36 0 -67 -10.5t-67 -34.5l-46 65q85 61 188 61q59 0 102 -18.5t65 -50t22 -69.5v-25q0 -40 -26.5 -73t-87.5 -72l-67 -42q-44 -28 -60.5 -50t-18.5 -51h261v-84h-365v58zM417 16l304 740
l88 -32l-305 -739zM857 11.5q-49 22.5 -86 63.5l62 57q33 -31 63.5 -45.5t73.5 -14.5q44 0 73.5 20t29.5 57v30q0 38 -29.5 57.5t-77.5 19.5q-20 0 -35.5 -2.5t-41.5 -9.5h-68v281h326v-84h-222v-119q36 12 78 12q52 0 92 -19t62 -52t22 -74v-47q0 -42 -25.5 -77t-72 -55.5
t-106.5 -20.5q-69 0 -118 22.5z" />
    <glyph glyph-name="uni2157" unicode="&#x2157;" horiz-adv-x="1225" 
d="M127.5 225.5q-47.5 21.5 -84.5 60.5l60 56q58 -58 137 -58q47 0 78 20t31 58v18q0 41 -34.5 58t-78.5 17h-47v75h47q40 0 67.5 14.5t27.5 48.5v16q0 32 -25.5 48t-64.5 16q-38 0 -70.5 -13.5t-63.5 -40.5l-54 55q39 36 86.5 56.5t111.5 20.5q51 0 93.5 -16.5t67.5 -45.5
t25 -66v-29q0 -34 -30 -61t-70 -35q45 -7 82 -37t37 -76v-34q0 -41 -27 -75t-75 -53t-107 -19q-72 0 -119.5 21.5zM417 16l304 740l88 -32l-305 -739zM857 11.5q-49 22.5 -86 63.5l62 57q33 -31 63.5 -45.5t73.5 -14.5q44 0 73.5 20t29.5 57v30q0 38 -29.5 57.5t-77.5 19.5
q-20 0 -35.5 -2.5t-41.5 -9.5h-68v281h326v-84h-222v-119q36 12 78 12q52 0 92 -19t62 -52t22 -74v-47q0 -42 -25.5 -77t-72 -55.5t-106.5 -20.5q-69 0 -118 22.5z" />
    <glyph glyph-name="uni2158" unicode="&#x2158;" horiz-adv-x="1245" 
d="M285 313h-245v64l178 363h103l-167 -345h133l21 135l84 1v-136h68v-82h-68v-98h-107v98zM437 16l304 740l88 -32l-305 -739zM877 11.5q-49 22.5 -86 63.5l62 57q33 -31 63.5 -45.5t73.5 -14.5q44 0 73.5 20t29.5 57v30q0 38 -29.5 57.5t-77.5 19.5q-20 0 -35.5 -2.5
t-41.5 -9.5h-68v281h326v-84h-222v-119q36 12 78 12q52 0 92 -19t62 -52t22 -74v-47q0 -42 -25.5 -77t-72 -55.5t-106.5 -20.5q-69 0 -118 22.5z" />
    <glyph glyph-name="uni2159" unicode="&#x2159;" horiz-adv-x="1225" 
d="M91 294h125v334l-107 -49l-38 68l173 93h78v-446h107v-79h-338v79zM417 16l304 740l88 -32l-305 -739zM828 46q-56 57 -56 153v38q0 145 88.5 220.5t254.5 78.5v-82q-106 -4 -164.5 -42t-67.5 -116q48 54 134 54q76 0 118.5 -44t42.5 -112v-32q0 -47 -22.5 -86.5
t-67.5 -63t-109 -23.5q-95 0 -151 57zM1049 95.5q23 24.5 23 69.5v26q0 81 -80 81q-35 0 -61.5 -14t-49.5 -42v-28q0 -59 25.5 -88t72.5 -29t70 24.5z" />
    <glyph glyph-name="uni215A" unicode="&#x215a;" horiz-adv-x="1225" 
d="M132 226.5q-49 22.5 -86 63.5l62 57q33 -31 63.5 -45.5t73.5 -14.5q44 0 73.5 20t29.5 57v30q0 38 -29.5 57.5t-77.5 19.5q-20 0 -35.5 -2.5t-41.5 -9.5h-68v281h326v-84h-222v-119q36 12 78 12q52 0 92 -19t62 -52t22 -74v-47q0 -42 -25.5 -77t-72 -55.5t-106.5 -20.5
q-69 0 -118 22.5zM417 16l304 740l88 -32l-305 -739zM828 46q-56 57 -56 153v38q0 145 88.5 220.5t254.5 78.5v-82q-106 -4 -164.5 -42t-67.5 -116q48 54 134 54q76 0 118.5 -44t42.5 -112v-32q0 -47 -22.5 -86.5t-67.5 -63t-109 -23.5q-95 0 -151 57zM1049 95.5
q23 24.5 23 69.5v26q0 81 -80 81q-35 0 -61.5 -14t-49.5 -42v-28q0 -59 25.5 -88t72.5 -29t70 24.5z" />
    <glyph glyph-name="oneeighth" unicode="&#x215b;" horiz-adv-x="1225" 
d="M91 294h125v334l-107 -49l-38 68l173 93h78v-446h107v-79h-338v79zM417 16l304 740l88 -32l-305 -739zM864 6.5q-48 17.5 -75 49.5t-27 73v32q0 68 99 104l8 3l-7 4q-40 18 -57.5 42.5t-17.5 64.5v31q0 56 51.5 91t134.5 35q54 0 97 -15.5t67.5 -43.5t24.5 -64v-32
q0 -33 -18.5 -54t-62.5 -35l-6 -3l6 -2q53 -18 79.5 -47.5t26.5 -77.5v-33q0 -41 -28 -73t-77 -49.5t-109 -17.5q-61 0 -109 17.5zM1000 320q33 13 47 26t14 32v26q0 28 -26.5 43t-62.5 15q-35 0 -59 -13t-24 -40v-25q0 -22 17.5 -33.5t65.5 -27.5l21 -6zM1051 84
q30 18 30 49v26q0 25 -23 38.5t-78 31.5l-32 11l-9 -4q-37 -15 -54 -30.5t-17 -41.5v-26q0 -34 29 -53t78 -19q46 0 76 18z" />
    <glyph glyph-name="threeeighths" unicode="&#x215c;" horiz-adv-x="1225" 
d="M127.5 225.5q-47.5 21.5 -84.5 60.5l60 56q58 -58 137 -58q47 0 78 20t31 58v18q0 41 -34.5 58t-78.5 17h-47v75h47q40 0 67.5 14.5t27.5 48.5v16q0 32 -25.5 48t-64.5 16q-38 0 -70.5 -13.5t-63.5 -40.5l-54 55q39 36 86.5 56.5t111.5 20.5q51 0 93.5 -16.5t67.5 -45.5
t25 -66v-29q0 -34 -30 -61t-70 -35q45 -7 82 -37t37 -76v-34q0 -41 -27 -75t-75 -53t-107 -19q-72 0 -119.5 21.5zM417 16l304 740l88 -32l-305 -739zM864 6.5q-48 17.5 -75 49.5t-27 73v32q0 68 99 104l8 3l-7 4q-40 18 -57.5 42.5t-17.5 64.5v31q0 56 51.5 91t134.5 35
q54 0 97 -15.5t67.5 -43.5t24.5 -64v-32q0 -33 -18.5 -54t-62.5 -35l-6 -3l6 -2q53 -18 79.5 -47.5t26.5 -77.5v-33q0 -41 -28 -73t-77 -49.5t-109 -17.5q-61 0 -109 17.5zM1000 320q33 13 47 26t14 32v26q0 28 -26.5 43t-62.5 15q-35 0 -59 -13t-24 -40v-25
q0 -22 17.5 -33.5t65.5 -27.5l21 -6zM1051 84q30 18 30 49v26q0 25 -23 38.5t-78 31.5l-32 11l-9 -4q-37 -15 -54 -30.5t-17 -41.5v-26q0 -34 29 -53t78 -19q46 0 76 18z" />
    <glyph glyph-name="fiveeighths" unicode="&#x215d;" horiz-adv-x="1225" 
d="M132 226.5q-49 22.5 -86 63.5l62 57q33 -31 63.5 -45.5t73.5 -14.5q44 0 73.5 20t29.5 57v30q0 38 -29.5 57.5t-77.5 19.5q-20 0 -35.5 -2.5t-41.5 -9.5h-68v281h326v-84h-222v-119q36 12 78 12q52 0 92 -19t62 -52t22 -74v-47q0 -42 -25.5 -77t-72 -55.5t-106.5 -20.5
q-69 0 -118 22.5zM417 16l304 740l88 -32l-305 -739zM864 6.5q-48 17.5 -75 49.5t-27 73v32q0 68 99 104l8 3l-7 4q-40 18 -57.5 42.5t-17.5 64.5v31q0 56 51.5 91t134.5 35q54 0 97 -15.5t67.5 -43.5t24.5 -64v-32q0 -33 -18.5 -54t-62.5 -35l-6 -3l6 -2q53 -18 79.5 -47.5
t26.5 -77.5v-33q0 -41 -28 -73t-77 -49.5t-109 -17.5q-61 0 -109 17.5zM1000 320q33 13 47 26t14 32v26q0 28 -26.5 43t-62.5 15q-35 0 -59 -13t-24 -40v-25q0 -22 17.5 -33.5t65.5 -27.5l21 -6zM1051 84q30 18 30 49v26q0 25 -23 38.5t-78 31.5l-32 11l-9 -4
q-37 -15 -54 -30.5t-17 -41.5v-26q0 -34 29 -53t78 -19q46 0 76 18z" />
    <glyph glyph-name="seveneighths" unicode="&#x215e;" horiz-adv-x="1175" 
d="M330 654h-272v86h383v-83l-204 -442h-117zM367 16l304 740l88 -32l-305 -739zM814 6.5q-48 17.5 -75 49.5t-27 73v32q0 68 99 104l8 3l-7 4q-40 18 -57.5 42.5t-17.5 64.5v31q0 56 51.5 91t134.5 35q54 0 97 -15.5t67.5 -43.5t24.5 -64v-32q0 -33 -18.5 -54t-62.5 -35
l-6 -3l6 -2q53 -18 79.5 -47.5t26.5 -77.5v-33q0 -41 -28 -73t-77 -49.5t-109 -17.5q-61 0 -109 17.5zM950 320q33 13 47 26t14 32v26q0 28 -26.5 43t-62.5 15q-35 0 -59 -13t-24 -40v-25q0 -22 17.5 -33.5t65.5 -27.5l21 -6zM1001 84q30 18 30 49v26q0 25 -23 38.5
t-78 31.5l-32 11l-9 -4q-37 -15 -54 -30.5t-17 -41.5v-26q0 -34 29 -53t78 -19q46 0 76 18z" />
    <glyph glyph-name="uni215F" unicode="&#x215f;" horiz-adv-x="725" 
d="M91 294h125v334l-107 -49l-38 68l173 93h78v-446h107v-79h-338v79zM417 16l304 740l88 -32l-305 -739z" />
    <glyph glyph-name="arrowleft" unicode="&#x2190;" horiz-adv-x="900" 
d="M461 579l-195 -204h519v-92h-519l195 -204l-76 -65l-281 315l281 315z" />
    <glyph glyph-name="arrowup" unicode="&#x2191;" horiz-adv-x="900" 
d="M398 514l-204 -191l-64 68l320 288l320 -288l-64 -68l-204 191v-514h-104v514z" />
    <glyph glyph-name="arrowright" unicode="&#x2192;" horiz-adv-x="900" 
d="M796 329l-281 -315l-76 65l195 204h-519v92h519l-195 204l76 65z" />
    <glyph glyph-name="arrowdown" unicode="&#x2193;" horiz-adv-x="900" 
d="M502 126l204 191l64 -68l-320 -288l-320 288l64 68l204 -191v514h104v-514z" />
    <glyph glyph-name="arrowboth" unicode="&#x2194;" horiz-adv-x="1320" 
d="M1216 329l-281 -315l-76 65l195 204h-788l195 -204l-76 -65l-281 315l281 315l76 -65l-195 -204h788l-195 204l76 65z" />
    <glyph glyph-name="arrowupdn" unicode="&#x2195;" horiz-adv-x="900" 
d="M706 118l64 -68l-320 -288l-320 288l64 68l204 -191v727l-204 -191l-64 68l320 288l320 -288l-64 -68l-204 191v-727z" />
    <glyph glyph-name="uni2196" unicode="&#x2196;" horiz-adv-x="900" 
d="M287 396l-10 -283l-100 6l23 432l424 22l6 -94l-275 -12l368 -368l-70 -70z" />
    <glyph glyph-name="uni2197" unicode="&#x2197;" horiz-adv-x="900" 
d="M177 135l368 368l-275 12l6 94l424 -22l23 -432l-100 -6l-10 283l-366 -367z" />
    <glyph glyph-name="uni2198" unicode="&#x2198;" horiz-adv-x="900" 
d="M613 211l10 283l100 -6l-23 -432l-424 -22l-6 94l275 12l-368 368l70 70z" />
    <glyph glyph-name="uni2199" unicode="&#x2199;" horiz-adv-x="900" 
d="M723 508l-368 -368l275 -12l-6 -94l-424 22l-23 432l100 6l10 -283l366 367z" />
    <glyph glyph-name="uni21A9" unicode="&#x21a9;" horiz-adv-x="1103" 
d="M104 239l243 274l76 -64l-159 -165h545q63 0 101.5 36t38.5 90v55q0 70 -38 96.5t-102 26.5h-288v91h295q114 0 177.5 -58t63.5 -155v-57q0 -57 -28.5 -106.5t-83 -79.5t-129.5 -30h-551l158 -164l-76 -65z" />
    <glyph glyph-name="uni21B0" unicode="&#x21b0;" horiz-adv-x="870" 
d="M693 394h-427l157 -164l-76 -64l-243 274l243 275l76 -65l-157 -164h519v-485h-92v393z" />
    <glyph glyph-name="uni21B1" unicode="&#x21b1;" horiz-adv-x="870" 
d="M85 1v485h519l-157 164l76 65l243 -275l-243 -274l-76 64l157 164h-427v-393h-92z" />
    <glyph glyph-name="uni21B2" unicode="&#x21b2;" horiz-adv-x="870" 
d="M785 708v-485h-519l157 -164l-76 -65l-243 275l243 274l76 -64l-157 -164h427v393h92z" />
    <glyph glyph-name="uni21B3" unicode="&#x21b3;" horiz-adv-x="870" 
d="M177 315h427l-157 164l76 64l243 -274l-243 -275l-76 65l157 164h-519v485h92v-393z" />
    <glyph glyph-name="uni21BA" unicode="&#x21ba;" horiz-adv-x="995" 
d="M262.5 32q-83.5 45 -133 126.5t-49.5 184.5q0 105 49 189.5t134.5 132.5t190.5 48q50 0 94 -13t74.5 -29t43.5 -28l-39 -52q-79 57 -173 57q-87 0 -156 -39.5t-108 -109.5t-39 -156q0 -85 40 -151t108 -103t148 -37q75 0 140 37.5t103.5 106t38.5 157.5v49l-145 -133
l-48 47l226 204l228 -204l-48 -47l-145 133v-49q0 -108 -48 -191.5t-129 -129t-177 -45.5q-97 0 -180.5 45z" />
    <glyph glyph-name="uni21BB" unicode="&#x21bb;" horiz-adv-x="995" 
d="M449 32.5q-81 45.5 -129 129t-48 191.5v49l-144 -133l-48 47l227 204l227 -204l-48 -47l-146 133v-49q0 -89 39 -157.5t103.5 -106t139.5 -37.5q81 0 149 37t108 103t40 151q0 86 -39 156t-108 109.5t-156 39.5q-52 0 -96 -16.5t-77 -40.5l-39 52q24 21 82.5 45.5
t129.5 24.5q105 0 190.5 -48t134.5 -132.5t49 -189.5q0 -103 -49.5 -184.5t-133 -126.5t-180.5 -45t-178 45.5z" />
    <glyph glyph-name="uni21C6" unicode="&#x21c6;" horiz-adv-x="990" 
d="M20 521l223 253l67 -64l-140 -146h717v-86h-717l140 -145l-67 -65zM680 -8l141 145h-716v86h716l-141 146l67 64l223 -253l-223 -253z" />
    <glyph glyph-name="partialdiff" unicode="&#x2202;" 
d="M440.5 606q108.5 -101 108.5 -295v-49q0 -82 -31.5 -144t-89.5 -96.5t-135 -34.5q-78 0 -134 31t-84 83.5t-28 114.5v43q0 58 23.5 104.5t69 73.5t108.5 27q112 0 175 -76q-20 215 -295 226v99q204 -6 312.5 -107zM389.5 128q35.5 43 35.5 129v32q-32 41 -67.5 60.5
t-83.5 19.5q-103 0 -103 -113v-36q0 -64 30.5 -99.5t91.5 -35.5t96.5 43z" />
    <glyph glyph-name="emptyset" unicode="&#x2205;" horiz-adv-x="900" 
d="M783.5 502q32.5 -71 32.5 -153q0 -101 -48.5 -184t-132.5 -130.5t-184 -47.5q-115 0 -206 61l-66 -84l-51 36l68 87q-53 50 -82.5 117.5t-29.5 144.5q0 101 49 184.5t133.5 131.5t184.5 48q105 0 191 -53l59 76l51 -36l-59 -76q58 -51 90.5 -122zM176.5 234.5
q21.5 -53.5 61.5 -93.5l363 466q-70 40 -150 40q-82 0 -149.5 -40t-107 -108t-39.5 -150q0 -61 21.5 -114.5zM600 92.5q67 39.5 106 107t39 149.5q0 65 -25 122t-69 99l-365 -468q74 -49 165 -49q82 0 149 39.5z" />
    <glyph glyph-name="uni2206" unicode="&#x2206;" horiz-adv-x="640" 
d="M625 0h-610l214 700h171zM465 100l-151 509l-144 -509h295z" />
    <glyph glyph-name="product" unicode="&#x220f;" 
d="M51 700h498v-900h-123v802h-252v-802h-123v900z" />
    <glyph glyph-name="summation" unicode="&#x2211;" 
d="M56 -104l259 374l-259 374v96h488v-104h-348l224 -323v-86l-224 -323h348v-104h-488v96z" />
    <glyph glyph-name="minus" unicode="&#x2212;" 
d="M493 293h-386v98h386v-98z" />
    <glyph glyph-name="uni2219" unicode="&#x2219;" horiz-adv-x="283" 
d="M86 275q-23 23 -23 56q0 32 23 55.5t56 23.5t55.5 -23t22.5 -56t-22.5 -56t-55.5 -23t-56 23z" />
    <glyph glyph-name="radical" unicode="&#x221a;" 
d="M728 800h-173l-217 -800h-149l-167 458l110 34l129 -380l204 783h263v-95z" />
    <glyph glyph-name="infinity" unicode="&#x221e;" horiz-adv-x="900" 
d="M758.5 519q45.5 -29 68 -77.5t22.5 -106.5t-22.5 -106t-68.5 -77t-113 -29q-60 0 -111 33t-86 91q-36 -60 -83.5 -92t-111.5 -32q-66 0 -111.5 29t-68 77.5t-22.5 106.5t22.5 106t68.5 77t113 29q60 0 111 -33t86 -91q38 61 85 92.5t110 31.5q66 0 111.5 -29zM340.5 243
q33.5 33 66.5 97q-57 122 -148 122q-45 0 -72 -33.5t-27 -92.5t27 -92.5t72 -33.5q48 0 81.5 33zM713 242.5q27 33.5 27 92.5t-27 92.5t-72 33.5q-48 0 -81 -32.5t-68 -98.5q61 -121 149 -121q45 0 72 33.5z" />
    <glyph glyph-name="integral" unicode="&#x222b;" 
d="M85 -200l13 87q34 -8 67 -8q38 0 55.5 16t17.5 52v783q0 85 46.5 129t133.5 44q56 0 97 -13l-13 -87q-34 8 -67 8q-38 0 -55.5 -16t-17.5 -52v-783q0 -85 -46.5 -129t-133.5 -44q-56 0 -97 13z" />
    <glyph glyph-name="approxequal" unicode="&#x2248;" 
d="M329 181.5q-22 9.5 -47 26.5q-20 13 -33 19t-28 6q-43 0 -74 -53l-70 33q22 43 57 73.5t88 30.5q28 0 48 -8.5t48 -25.5q18 -13 32.5 -19.5t30.5 -6.5q43 0 73 47l69 -33q-21 -42 -56 -70.5t-86 -28.5q-30 0 -52 9.5zM329 375.5q-22 9.5 -47 26.5q-20 13 -33 19t-28 6
q-43 0 -74 -53l-70 33q22 43 57 73.5t88 30.5q28 0 48 -8.5t48 -25.5q18 -13 32.5 -19.5t30.5 -6.5q43 0 73 47l69 -33q-21 -42 -56 -70.5t-86 -28.5q-30 0 -52 9.5z" />
    <glyph glyph-name="notequal" unicode="&#x2260;" 
d="M453 494h39v-96h-104l-76 -113h180v-96h-246l-68 -101l-72 44l39 57h-39v96h104l76 113h-180v96h245l69 102l72 -45z" />
    <glyph glyph-name="lessequal" unicode="&#x2264;" 
d="M107 304v108l341 170l45 -90l-275 -134l275 -136l-45 -88zM493 98v-98h-386v98h386z" />
    <glyph glyph-name="greaterequal" unicode="&#x2265;" 
d="M107 222l275 136l-275 134l45 90l341 -170v-108l-341 -170zM493 0h-386v98h386v-98z" />
    <glyph glyph-name="uni2460" unicode="&#x2460;" horiz-adv-x="905" 
d="M266 28q-84 41 -132.5 113.5t-48.5 165.5v94q0 85 49 156.5t133.5 113.5t185.5 42q106 0 190 -41.5t130.5 -113t46.5 -157.5v-94q0 -94 -46.5 -166.5t-130 -113t-192.5 -40.5q-101 0 -185 41zM605 86.5q65 30.5 100.5 87t35.5 132.5v96q0 68 -35.5 123t-101 87t-151.5 32
q-81 0 -147 -32t-104 -87.5t-38 -122.5v-96q0 -75 37.5 -131.5t103.5 -87.5t148 -31q87 0 152 30.5zM319 204h107v284l-91 -42l-33 58l147 79h67v-379h91v-67h-288v67z" />
    <glyph glyph-name="uni2461" unicode="&#x2461;" horiz-adv-x="905" 
d="M266 28q-84 41 -132.5 113.5t-48.5 165.5v94q0 85 49 156.5t133.5 113.5t185.5 42q106 0 190 -41.5t130.5 -113t46.5 -157.5v-94q0 -94 -46.5 -166.5t-130 -113t-192.5 -40.5q-101 0 -185 41zM605 86.5q65 30.5 100.5 87t35.5 132.5v96q0 68 -35.5 123t-101 87t-151.5 32
q-81 0 -147 -32t-104 -87.5t-38 -122.5v-96q0 -75 37.5 -131.5t103.5 -87.5t148 -31q87 0 152 30.5zM302 186q0 56 24 92.5t70 65.5l67 42q34 23 46 37t12 34v13q0 22 -19.5 37.5t-57.5 15.5q-31 0 -57 -9t-57 -29l-39 55q73 52 160 52q75 0 117.5 -34t42.5 -84v-21
q0 -34 -22.5 -62t-73.5 -61l-57 -36q-37 -23 -51.5 -42t-16.5 -44h222v-71h-310v49z" />
    <glyph glyph-name="uni2462" unicode="&#x2462;" horiz-adv-x="905" 
d="M266 28q-84 41 -132.5 113.5t-48.5 165.5v94q0 85 49 156.5t133.5 113.5t185.5 42q106 0 190 -41.5t130.5 -113t46.5 -157.5v-94q0 -94 -46.5 -166.5t-130 -113t-192.5 -40.5q-101 0 -185 41zM605 86.5q65 30.5 100.5 87t35.5 132.5v96q0 68 -35.5 123t-101 87t-151.5 32
q-81 0 -147 -32t-104 -87.5t-38 -122.5v-96q0 -75 37.5 -131.5t103.5 -87.5t148 -31q87 0 152 30.5zM349.5 142q-40.5 18 -71.5 51l51 48q47 -49 116 -49q40 0 66.5 16.5t26.5 49.5v15q0 35 -29.5 49.5t-66.5 14.5h-40v64h40q33 0 56.5 12.5t23.5 40.5v14q0 28 -21.5 41
t-54.5 13q-62 0 -114 -46l-46 47q33 31 73.5 48.5t94.5 17.5q66 0 112 -31t46 -78v-25q0 -30 -25 -52.5t-60 -28.5q38 -6 70 -31.5t32 -64.5v-29q0 -35 -23 -64t-64 -45t-91 -16q-61 0 -101.5 18z" />
    <glyph glyph-name="uni2463" unicode="&#x2463;" horiz-adv-x="905" 
d="M266 28q-84 41 -132.5 113.5t-48.5 165.5v94q0 85 49 156.5t133.5 113.5t185.5 42q106 0 190 -41.5t130.5 -113t46.5 -157.5v-94q0 -94 -46.5 -166.5t-130 -113t-192.5 -40.5q-101 0 -185 41zM605 86.5q65 30.5 100.5 87t35.5 132.5v96q0 68 -35.5 123t-101 87t-151.5 32
q-81 0 -147 -32t-104 -87.5t-38 -122.5v-96q0 -75 37.5 -131.5t103.5 -87.5t148 -31q87 0 152 30.5zM472 220h-208v55l151 308h88l-142 -293h113l18 115l71 1v-116h58v-70h-58v-83h-91v83z" />
    <glyph glyph-name="uni2464" unicode="&#x2464;" horiz-adv-x="905" 
d="M266 28q-84 41 -132.5 113.5t-48.5 165.5v94q0 85 49 156.5t133.5 113.5t185.5 42q106 0 190 -41.5t130.5 -113t46.5 -157.5v-94q0 -94 -46.5 -166.5t-130 -113t-192.5 -40.5q-101 0 -185 41zM605 86.5q65 30.5 100.5 87t35.5 132.5v96q0 68 -35.5 123t-101 87t-151.5 32
q-81 0 -147 -32t-104 -87.5t-38 -122.5v-96q0 -75 37.5 -131.5t103.5 -87.5t148 -31q87 0 152 30.5zM351.5 130q-41.5 19 -72.5 54l53 48q28 -26 53.5 -38.5t62.5 -12.5q38 0 63 17t25 49v25q0 32 -25 49t-66 17q-17 0 -33 -3.5t-33 -7.5h-57v239h277v-71h-189v-101
q30 10 66 10q67 0 108.5 -35t41.5 -88v-40q0 -36 -22 -66t-61.5 -47t-89.5 -17q-60 0 -101.5 19z" />
    <glyph glyph-name="uni2465" unicode="&#x2465;" horiz-adv-x="905" 
d="M266 28q-84 41 -132.5 113.5t-48.5 165.5v94q0 85 49 156.5t133.5 113.5t185.5 42q106 0 190 -41.5t130.5 -113t46.5 -157.5v-94q0 -94 -46.5 -166.5t-130 -113t-192.5 -40.5q-101 0 -185 41zM605 86.5q65 30.5 100.5 87t35.5 132.5v96q0 68 -35.5 123t-101 87t-151.5 32
q-81 0 -147 -32t-104 -87.5t-38 -122.5v-96q0 -75 37.5 -131.5t103.5 -87.5t148 -31q87 0 152 30.5zM317.5 169.5q-47.5 48.5 -47.5 129.5v32q0 124 75.5 188t216.5 67v-70q-90 -3 -140 -35t-58 -99q41 46 114 46q65 0 101 -37.5t36 -95.5v-27q0 -62 -44 -104.5t-125 -42.5
t-128.5 48.5zM505.5 211q19.5 21 19.5 59v22q0 69 -68 69q-30 0 -52 -11.5t-42 -35.5v-24q0 -50 21.5 -75t61.5 -25t59.5 21z" />
    <glyph glyph-name="uni2466" unicode="&#x2466;" horiz-adv-x="905" 
d="M266 28q-84 41 -132.5 113.5t-48.5 165.5v94q0 85 49 156.5t133.5 113.5t185.5 42q106 0 190 -41.5t130.5 -113t46.5 -157.5v-94q0 -94 -46.5 -166.5t-130 -113t-192.5 -40.5q-101 0 -185 41zM605 86.5q65 30.5 100.5 87t35.5 132.5v96q0 68 -35.5 123t-101 87t-151.5 32
q-81 0 -147 -32t-104 -87.5t-38 -122.5v-96q0 -75 37.5 -131.5t103.5 -87.5t148 -31q87 0 152 30.5zM526 486h-232v73h326v-70l-174 -376h-99z" />
    <glyph glyph-name="uni2467" unicode="&#x2467;" horiz-adv-x="905" 
d="M266 28q-84 41 -132.5 113.5t-48.5 165.5v94q0 85 49 156.5t133.5 113.5t185.5 42q106 0 190 -41.5t130.5 -113t46.5 -157.5v-94q0 -94 -46.5 -166.5t-130 -113t-192.5 -40.5q-101 0 -185 41zM605 86.5q65 30.5 100.5 87t35.5 132.5v96q0 68 -35.5 123t-101 87t-151.5 32
q-81 0 -147 -32t-104 -87.5t-38 -122.5v-96q0 -75 37.5 -131.5t103.5 -87.5t148 -31q87 0 152 30.5zM321.5 155.5q-50.5 32.5 -50.5 86.5v27q0 58 85 88l6 3l-6 3q-34 16 -48.5 36.5t-14.5 54.5v27q0 47 44 77t114 30t115 -29.5t45 -75.5v-27q0 -28 -15.5 -46t-52.5 -30
l-5 -2l5 -2q45 -16 67.5 -40.5t22.5 -65.5v-28q0 -53 -52 -86t-130 -33q-79 0 -129.5 32.5zM474 404q28 11 40 22t12 27v22q0 24 -22.5 37t-53.5 13q-30 0 -50.5 -11t-20.5 -34v-22q0 -18 15 -28t56 -23l18 -6zM517.5 203.5q25.5 15.5 25.5 41.5v22q0 21 -19.5 33t-66.5 27
l-27 9l-8 -3q-32 -13 -46 -26t-14 -36v-22q0 -29 24.5 -45t66.5 -16q39 0 64.5 15.5z" />
    <glyph glyph-name="uni2468" unicode="&#x2468;" horiz-adv-x="905" 
d="M266 28q-84 41 -132.5 113.5t-48.5 165.5v94q0 85 49 156.5t133.5 113.5t185.5 42q106 0 190 -41.5t130.5 -113t46.5 -157.5v-94q0 -94 -46.5 -166.5t-130 -113t-192.5 -40.5q-101 0 -185 41zM605 86.5q65 30.5 100.5 87t35.5 132.5v96q0 68 -35.5 123t-101 87t-151.5 32
q-81 0 -147 -32t-104 -87.5t-38 -122.5v-96q0 -75 37.5 -131.5t103.5 -87.5t148 -31q87 0 152 30.5zM331 191q97 2 149.5 34t59.5 99q-41 -46 -113 -46q-64 0 -101 37.5t-37 94.5v28q0 62 45 104.5t128 42.5t127.5 -48t44.5 -131v-31q0 -125 -76.5 -189t-226.5 -66v71z
M499.5 355q21.5 12 41.5 37v24q0 51 -20 75.5t-61 24.5q-40 0 -60.5 -21.5t-20.5 -59.5v-22q0 -70 70 -70q29 0 50.5 12z" />
    <glyph glyph-name="uni24EA" unicode="&#x24ea;" horiz-adv-x="905" 
d="M266 28q-84 41 -132.5 113.5t-48.5 165.5v94q0 85 49 156.5t133.5 113.5t185.5 42q106 0 190 -41.5t130.5 -113t46.5 -157.5v-94q0 -94 -46.5 -166.5t-130 -113t-192.5 -40.5q-101 0 -185 41zM605 86.5q65 30.5 100.5 87t35.5 132.5v96q0 68 -35.5 123t-101 87t-151.5 32
q-81 0 -147 -32t-104 -87.5t-38 -122.5v-96q0 -75 37.5 -131.5t103.5 -87.5t148 -31q87 0 152 30.5zM328.5 158q-46.5 42 -46.5 115v149q0 74 46.5 116.5t127.5 42.5q78 0 123 -42.5t45 -116.5v-149q0 -73 -44.5 -115t-123.5 -42q-81 0 -127.5 42zM512.5 207.5
q20.5 22.5 20.5 66.5v149q0 45 -20.5 67.5t-56.5 22.5q-82 0 -82 -90v-149q0 -89 82 -89q36 0 56.5 22.5z" />
    <glyph glyph-name="uni24FF" unicode="&#x24ff;" horiz-adv-x="905" 
d="M266 28q-84 41 -132.5 113.5t-48.5 165.5v94q0 85 49 156.5t133.5 113.5t185.5 42q106 0 190 -41.5t130.5 -113t46.5 -157.5v-94q0 -94 -46.5 -166.5t-130 -113t-192.5 -40.5q-101 0 -185 41zM579 158q45 42 45 116v148q0 74 -45 116.5t-124 42.5q-81 0 -127 -42.5
t-46 -116.5v-148q0 -74 46 -116t127 -42q79 0 124 42zM394.5 208q-21.5 22 -21.5 66v149q0 46 21.5 68.5t60.5 22.5q36 0 56.5 -22.5t20.5 -68.5v-149q0 -44 -20.5 -66t-56.5 -22q-39 0 -60.5 22z" />
    <glyph glyph-name="filledbox" unicode="&#x25a0;" 
d="M489 454v-379h-379v379h379z" />
    <glyph glyph-name="uni25A1" unicode="&#x25a1;" 
d="M489 458v-379h-379v379h379zM207 176h185v185h-185v-185z" />
    <glyph glyph-name="uni25AF" unicode="&#x25af;" horiz-adv-x="647" 
d="M105 700h437v-700h-437v700zM435 108v484h-222v-484h222z" />
    <glyph glyph-name="uni25B3" unicode="&#x25b3;" horiz-adv-x="876" 
d="M100 0v26l328 674h25l323 -674v-26h-676zM622 99l-183 388l-183 -388h366z" />
    <glyph glyph-name="uni25B4" unicode="&#x25b4;" 
d="M302 491l207 -412v-4h-418v4l207 412h4z" />
    <glyph glyph-name="uni25B8" unicode="&#x25b8;" 
d="M508 281l-412 -207h-4v418h4l412 -207v-4z" />
    <glyph glyph-name="uni25BD" unicode="&#x25bd;" horiz-adv-x="900" 
d="M776 674l-323 -674h-25l-328 674v26h676v-26zM439 213l183 388h-366z" />
    <glyph glyph-name="uni25BE" unicode="&#x25be;" 
d="M92 483v4h418v-4l-207 -412h-4z" />
    <glyph glyph-name="uni25C2" unicode="&#x25c2;" 
d="M504 492h4v-418h-4l-412 207v4z" />
    <glyph glyph-name="uni25C6" unicode="&#x25c6;" 
d="M540 266l-240 -258l-240 258l240 253z" />
    <glyph glyph-name="uni25C7" unicode="&#x25c7;" 
d="M60 266l240 253l240 -253l-240 -258zM416 266l-116 122l-116 -122l116 -128z" />
    <glyph glyph-name="lozenge" unicode="&#x25ca;" 
d="M27 350l203 350h140l203 -350l-204 -350h-138zM449 350l-149 259l-149 -259l149 -259z" />
    <glyph glyph-name="circle" unicode="&#x25cb;" horiz-adv-x="604" 
d="M175 54.5q-55 27.5 -85 74.5t-30 104v62q0 63 30 112t85 76t127 27t127 -27t85 -76t30 -112v-62q0 -57 -30 -104t-85 -74.5t-127 -27.5t-127 27.5zM395 154.5q35 32.5 35 83.5v57q0 56 -34.5 88t-94.5 32q-59 0 -93 -32t-34 -88v-57q0 -51 34.5 -83.5t92.5 -32.5
q59 0 94 32.5z" />
    <glyph glyph-name="uni25CF" unicode="&#x25cf;" 
d="M427 483q55 -27 85 -76t30 -112v-62q0 -57 -30 -104t-85 -74.5t-127 -27.5t-127 27.5t-85 74.5t-30 104v62q0 63 30 112t85 76t127 27t127 -27z" />
    <glyph glyph-name="uni2605" unicode="&#x2605;" horiz-adv-x="829" 
d="M596 269l78 -274l-24 -15l-234 182h-5l-224 -182l-24 15l77 268l-210 195l12 25l271 -32l85 262h28l85 -263l276 33l12 -25z" />
    <glyph glyph-name="uni2610" unicode="&#x2610;" horiz-adv-x="900" 
d="M100 700h700v-700h-700v700zM721 72v556h-542v-556h542z" />
    <glyph glyph-name="uni2611" unicode="&#x2611;" horiz-adv-x="900" 
d="M100 700h700v-700h-700v700zM721 72v556h-542v-556h542zM272 410l54 21l72 -171l219 277l44 -34l-253 -322h-38z" />
    <glyph glyph-name="uni2612" unicode="&#x2612;" horiz-adv-x="900" 
d="M800 700v-700h-700v700h700zM721 628h-542v-556h542v556zM286 165q69 110 139 211q-40 64 -92 132l51 33q34 -44 79 -112q29 40 87 116l50 -35q-48 -60 -102 -134q43 -73 74 -132l-54 -29q-18 36 -58 106q-70 -102 -125 -192z" />
    <glyph glyph-name="uni2620" unicode="&#x2620;" 
d="M157 373q-18 21 -29 39t-11 34v29q0 43 24.5 78t65 55t88.5 20t88.5 -20t65 -55t24.5 -78v-29q0 -16 -11 -34t-29 -39l10 -42q-2 -11 -9.5 -17t-17.5 -12t-16 -9l-32 -65h-5l-15 30h-7l-11 -39h-15l-16 39h-7l-15 -39h-15l-10 39h-7l-17 -30h-5l-33 65q-6 3 -17.5 9.5
t-17.5 13t-8 15.5zM186 412q0 -13 10 -23t23 -10q14 0 23.5 10t9.5 23v9q0 15 -10.5 24.5t-22.5 9.5q-14 0 -23.5 -9t-9.5 -25v-9zM340 412q0 -13 10 -23t23 -10q14 0 23.5 10t9.5 23v9q0 15 -10.5 24.5t-22.5 9.5q-14 0 -23.5 -9t-9.5 -25v-9zM279 354q-8 -22 -10 -37
q20 -2 29 -2q10 0 28 2q-3 15 -11.5 36.5t-17.5 31.5q-10 -9 -18 -31zM539.5 214q8.5 -10 8.5 -23t-8 -20t-19 -7t-21.5 4t-27.5 15l-126 -64l62 -32q17 11 27.5 15t21.5 4t19 -7t8 -20t-8.5 -23t-27.5 -12l-3 -7q13 -11 13 -29q0 -13 -8.5 -21t-23.5 -8q-20 0 -29.5 15
t-11.5 43l-91 54l-84 -53q-2 -28 -11.5 -43t-29.5 -15q-15 0 -23.5 8t-8.5 21q0 18 13 29l-3 7q-19 2 -27.5 12t-8.5 23t8 20t19 7t21.5 -4t27.5 -15l59 33l-121 60q-17 -11 -27.5 -15t-21.5 -4t-19 7t-8 20t8.5 23t27.5 12l3 7q-13 11 -13 29q0 13 8.5 21t23.5 8
q20 0 29.5 -15t11.5 -43l150 -80l151 82q2 28 11.5 43t29.5 15q15 0 23.5 -8t8.5 -21q0 -18 -13 -29l3 -7q19 -2 27.5 -12z" />
    <glyph glyph-name="smileface" unicode="&#x263a;" 
d="M158 28q-62 31 -96 84t-34 117v70q0 71 33.5 126t95.5 85.5t143 30.5t143 -30.5t95.5 -85.5t33.5 -126v-70q0 -64 -34 -117t-96 -84t-142 -31t-142 31zM417 72q50 26 76 68.5t26 91.5v65q0 56 -26 100t-75.5 69.5t-117.5 25.5t-117.5 -25.5t-75.5 -69.5t-26 -100v-65
q0 -49 26 -91.5t76 -68.5t117 -26t117 26zM169.5 299.5q-13.5 13.5 -13.5 32.5v12q0 22 13 34.5t33 12.5q17 0 31 -13t14 -34v-12q0 -19 -13.5 -32.5t-31.5 -13.5q-19 0 -32.5 13.5zM359.5 299.5q-13.5 13.5 -13.5 32.5v12q0 22 13 34.5t33 12.5q17 0 31 -13t14 -34v-12
q0 -19 -13.5 -32.5t-31.5 -13.5q-19 0 -32.5 13.5zM209 137.5q-36 27.5 -49 70.5l52 13q21 -65 86 -65q32 0 56.5 16.5t34.5 49.5l50 -14q-13 -43 -50.5 -70.5t-90.5 -27.5t-89 27.5z" />
    <glyph glyph-name="invsmileface" unicode="&#x263b;" 
d="M158 28q-62 31 -96 84t-34 117v70q0 71 33.5 126t95.5 85.5t143 30.5t143 -30.5t95.5 -85.5t33.5 -126v-70q0 -64 -34 -117t-96 -84t-142 -31t-142 31zM243.5 299.5q13.5 13.5 13.5 32.5v12q0 21 -14 34t-31 13q-20 0 -33 -12.5t-13 -34.5v-12q0 -19 13.5 -32.5
t32.5 -13.5q18 0 31.5 13.5zM413.5 299.5q13.5 13.5 13.5 32.5v12q0 21 -14 34t-31 13q-20 0 -33 -12.5t-13 -34.5v-12q0 -19 13.5 -32.5t32.5 -13.5q18 0 31.5 13.5zM389 129q38 29 49 73l-51 8q-11 -33 -34.5 -48.5t-54.5 -15.5t-54.5 15.5t-34.5 48.5l-51 -8
q11 -44 49 -73t91 -29t91 29z" />
    <glyph glyph-name="sun" unicode="&#x263c;" 
d="M269 573h62v-153h-62v153zM78 475l43 43l109 -109l-43 -42zM371 410l109 108l45 -44l-109 -108zM225 201.5q-30 30.5 -30 69.5v28q0 39 30 69.5t76 30.5q47 0 76.5 -30t29.5 -70v-28q0 -39 -30 -69.5t-76 -30.5t-76 30.5zM22 317h153v-62h-153v62zM427 315h153v-62h-153
v62zM78 95l108 108l44 -42l-108 -109zM372 161l43 42l109 -108l-44 -43zM270 150h64v-153h-64v153z" />
    <glyph glyph-name="female" unicode="&#x2640;" 
d="M420 290q-36 -41 -91 -50v-78h86v-52h-86v-110h-62v110h-87v52h87v78q-55 10 -89 50.5t-34 87.5v41q0 38 19.5 71.5t55 54t80.5 20.5t81 -20.5t56 -54t20 -71.5v-41q0 -47 -36 -88zM236 322.5q25 -24.5 64 -24.5q38 0 63.5 24.5t25.5 55.5v41q0 34 -25 59.5t-64 25.5
t-64 -25.5t-25 -59.5v-41q0 -31 25 -55.5z" />
    <glyph glyph-name="male" unicode="&#x2642;" 
d="M542 313l-58 -8l-15 125l-136 -163q18 -20 27.5 -44.5t9.5 -50.5v-41q0 -35 -20 -67.5t-56 -53t-81 -20.5t-80.5 20.5t-55 53t-19.5 67.5v41q0 38 19.5 71.5t55 54t80.5 20.5q39 0 69 -15l142 169l-138 -2v55h231zM303 172q0 34 -25 59.5t-64 25.5t-64 -25.5t-25 -59.5
v-41q0 -31 25 -55.5t64 -24.5q38 0 63.5 24.5t25.5 55.5v41z" />
    <glyph glyph-name="spade" unicode="&#x2660;" 
d="M100 44q72 0 111 15t55 50t16 101q-44 -73 -114 -73q-38 0 -65.5 27t-27.5 64v30q0 38 25 77t66.5 80t133.5 124q92 -83 133.5 -124t66.5 -80t25 -77v-30q0 -37 -27.5 -64t-65.5 -27q-70 0 -114 73q0 -65 16 -100.5t55 -50.5t111 -15v-44h-400v44z" />
    <glyph glyph-name="club" unicode="&#x2663;" 
d="M100 45q64 0 102.5 11t59 44.5t20.5 99.5q-21 -35 -47.5 -50.5t-63.5 -15.5q-43 0 -76 28.5t-33 73.5v27q0 21 13.5 43t38.5 36.5t58 14.5q18 0 29.5 -3t32.5 -12q-51 42 -51 84v25q0 41 34.5 68.5t82.5 27.5t82.5 -27.5t34.5 -68.5v-25q0 -42 -51 -84q21 9 32.5 12
t29.5 3q33 0 58 -14.5t38.5 -36.5t13.5 -43v-27q0 -45 -33 -73.5t-76 -28.5q-37 0 -63.5 15.5t-47.5 50.5q0 -66 20.5 -99.5t59 -44.5t102.5 -11v-45h-400v45z" />
    <glyph glyph-name="heart" unicode="&#x2665;" 
d="M109.5 239q-69.5 77 -69.5 143v33q0 57 35 90.5t91 33.5q49 0 79 -23t55 -69q25 46 55 69t79 23q56 0 91 -33.5t35 -90.5v-33q0 -66 -69.5 -143t-190.5 -175q-121 98 -190.5 175z" />
    <glyph glyph-name="diamond" unicode="&#x2666;" 
d="M80 297l220 273l220 -273l-220 -278z" />
    <glyph glyph-name="musicalnote" unicode="&#x266a;" 
d="M393 493q46 -28 64.5 -56.5t18.5 -68.5q0 -32 -22 -78l-30 12q7 25 7 40q0 38 -15 62.5t-47 45.5l-23 15v-385q0 -40 -36.5 -66t-82.5 -26q-45 0 -74 18.5t-29 45.5v24q0 29 28.5 50.5t70.5 21.5q21 0 41.5 -7t30.5 -17v398h51z" />
    <glyph glyph-name="musicalnotedbl" unicode="&#x266b;" 
d="M547 577v-447q0 -40 -34.5 -66t-80.5 -26q-45 0 -74 18.5t-29 45.5v24q0 29 28.5 50.5t70.5 21.5q21 0 41.5 -7t30.5 -17v301l-221 -59l-4 6v-342q0 -40 -34.5 -66t-80.5 -26q-45 0 -74 18.5t-29 45.5v24q0 29 28.5 50.5t70.5 21.5q21 0 41.5 -7t30.5 -17v368z" />
    <glyph glyph-name="uni2713" unicode="&#x2713;" horiz-adv-x="844" 
d="M20 473l111 42l149 -353l452 572l92 -70l-523 -664h-79z" />
    <glyph glyph-name="uni2715" unicode="&#x2715;" horiz-adv-x="800" 
d="M628 -12l-228 282l-228 -282l-81 67l241 299l-236 292l81 67l223 -276l223 276l81 -67l-236 -292l241 -299z" />
    <glyph glyph-name="uni2717" unicode="&#x2717;" 
d="M394 386q71 -115 129 -229l-93 -50q-52 100 -102 184q-97 -139 -215 -333l-86 62q117 190 242 367q-75 117 -159 228l88 57q78 -102 137 -193q60 83 151 201l86 -62q-92 -113 -178 -232z" />
    <glyph glyph-name="uni2776" unicode="&#x2776;" horiz-adv-x="905" 
d="M266 28q-84 41 -132.5 113.5t-48.5 165.5v94q0 85 49 156.5t133.5 113.5t185.5 42q106 0 190 -41.5t130.5 -113t46.5 -157.5v-94q0 -94 -46.5 -166.5t-130 -113t-192.5 -40.5q-101 0 -185 41zM607 137v67h-92v379h-66l-147 -80l33 -57l90 41v-283h-106v-67h288z" />
    <glyph glyph-name="uni2777" unicode="&#x2777;" horiz-adv-x="905" 
d="M266 28q-84 41 -132.5 113.5t-48.5 165.5v94q0 85 49 156.5t133.5 113.5t185.5 42q106 0 190 -41.5t130.5 -113t46.5 -157.5v-94q0 -94 -46.5 -166.5t-130 -113t-192.5 -40.5q-101 0 -185 41zM613 137v71h-222q2 25 16 44t51 42l56 36q52 33 75 61t23 62v21q0 50 -43 84
t-117 34q-47 0 -85.5 -13t-74.5 -39l39 -55q30 19 56.5 28t57.5 9q37 0 56.5 -15.5t19.5 -36.5v-14q0 -20 -12.5 -34.5t-46.5 -35.5l-66 -43q-45 -29 -69 -65.5t-24 -91.5v-49h310z" />
    <glyph glyph-name="uni2778" unicode="&#x2778;" horiz-adv-x="905" 
d="M266 28q-84 41 -132.5 113.5t-48.5 165.5v94q0 85 49 156.5t133.5 113.5t185.5 42q106 0 190 -41.5t130.5 -113t46.5 -157.5v-94q0 -94 -46.5 -166.5t-130 -113t-192.5 -40.5q-101 0 -185 41zM541 140q41 16 64 45t23 64v29q0 38 -31.5 64t-69.5 32q34 6 59.5 29t25.5 52
v25q0 47 -46 78t-112 31q-54 0 -94.5 -17.5t-74.5 -48.5l46 -46q28 23 55.5 34.5t59.5 11.5t53.5 -14t21.5 -41v-14q0 -28 -23.5 -41t-56.5 -13h-39v-63h39q38 0 67.5 -14.5t29.5 -49.5v-15q0 -33 -26.5 -50t-66.5 -17q-65 0 -116 49l-52 -47q31 -33 71.5 -51t101.5 -18
q50 0 91 16z" />
    <glyph glyph-name="uni2779" unicode="&#x2779;" horiz-adv-x="905" 
d="M266 28q-84 41 -132.5 113.5t-48.5 165.5v94q0 85 49 156.5t133.5 113.5t185.5 42q106 0 190 -41.5t130.5 -113t46.5 -157.5v-94q0 -94 -46.5 -166.5t-130 -113t-192.5 -40.5q-101 0 -185 41zM563 137v83h58v70h-58v115l-71 -1l-17 -114h-114l142 293h-87l-152 -308v-55
h209v-83h90z" />
    <glyph glyph-name="uni277A" unicode="&#x277a;" horiz-adv-x="905" 
d="M266 28q-84 41 -132.5 113.5t-48.5 165.5v94q0 85 49 156.5t133.5 113.5t185.5 42q106 0 190 -41.5t130.5 -113t46.5 -157.5v-94q0 -94 -46.5 -166.5t-130 -113t-192.5 -40.5q-101 0 -185 41zM543.5 128q39.5 17 61 47t21.5 66v40q0 53 -41 88t-108 35q-38 0 -66 -10v101
h188v71h-277v-238h58q38 10 65 10q41 0 66 -16.5t25 -48.5v-26q0 -31 -25 -48t-62 -17t-63.5 12.5t-53.5 38.5l-52 -49q32 -36 72.5 -54.5t100.5 -18.5q51 0 90.5 17z" />
    <glyph glyph-name="uni277B" unicode="&#x277b;" horiz-adv-x="905" 
d="M266 28q-84 41 -132.5 113.5t-48.5 165.5v94q0 85 49 156.5t133.5 113.5t185.5 42q106 0 190 -41.5t130.5 -113t46.5 -157.5v-94q0 -94 -46.5 -166.5t-130 -113t-192.5 -40.5q-101 0 -185 41zM570.5 163.5q43.5 42.5 43.5 104.5v28q0 58 -36 95t-100 37q-39 0 -66 -11.5
t-47 -34.5q7 66 56.5 98.5t139.5 35.5v70q-141 -3 -216 -67t-75 -187v-33q0 -81 47.5 -129.5t128.5 -48.5t124.5 42.5zM384.5 215q-21.5 25 -21.5 75v24q20 24 42 36t52 12q67 0 67 -70v-21q0 -39 -19.5 -60t-59.5 -21q-39 0 -60.5 25z" />
    <glyph glyph-name="uni277C" unicode="&#x277c;" horiz-adv-x="905" 
d="M266 28q-84 41 -132.5 113.5t-48.5 165.5v94q0 85 49 156.5t133.5 113.5t185.5 42q106 0 190 -41.5t130.5 -113t46.5 -157.5v-94q0 -94 -46.5 -166.5t-130 -113t-192.5 -40.5q-101 0 -185 41zM446 113l173 376v70h-325v-72h231l-178 -374h99z" />
    <glyph glyph-name="uni277D" unicode="&#x277d;" horiz-adv-x="905" 
d="M266 28q-84 41 -132.5 113.5t-48.5 165.5v94q0 85 49 156.5t133.5 113.5t185.5 42q106 0 190 -41.5t130.5 -113t46.5 -157.5v-94q0 -94 -46.5 -166.5t-130 -113t-192.5 -40.5q-101 0 -185 41zM581 155.5q52 33.5 52 86.5v28q0 41 -22 65t-68 41l-6 2l6 1q37 13 53 31
t16 46v26q0 46 -45.5 76t-114.5 30q-71 0 -115 -30t-44 -78v-27q0 -33 14.5 -53.5t49.5 -37.5l6 -2l-7 -3q-84 -30 -84 -88v-27q0 -54 50 -87t129 -33q78 0 130 33.5zM451 407q-41 12 -56.5 22t-15.5 29v22q0 22 21 33.5t51 11.5t52.5 -13t22.5 -37v-22q0 -17 -11.5 -27.5
t-39.5 -22.5l-7 -2zM386.5 204q-24.5 16 -24.5 45v22q0 22 14.5 35.5t46.5 26.5l6 3l29 -10q46 -15 65.5 -27t19.5 -33v-22q0 -26 -25.5 -41t-64.5 -15q-42 0 -66.5 16z" />
    <glyph glyph-name="uni277E" unicode="&#x277e;" horiz-adv-x="905" 
d="M266 28q-84 41 -132.5 113.5t-48.5 165.5v94q0 85 49 156.5t133.5 113.5t185.5 42q106 0 190 -41.5t130.5 -113t46.5 -157.5v-94q0 -94 -46.5 -166.5t-130 -113t-192.5 -40.5q-101 0 -185 41zM634 375v31q0 83 -44.5 131t-127.5 48q-56 0 -95 -20t-58.5 -53.5
t-19.5 -73.5v-28q0 -58 37 -95t101 -37q73 0 112 45q-7 -67 -58.5 -98.5t-149.5 -33.5v-72q303 6 303 256zM397 361.5q-17 18.5 -17 51.5v21q0 81 80 81q42 0 61.5 -24t19.5 -75v-24q-20 -25 -41 -37t-51 -12q-35 0 -52 18.5z" />
    <glyph glyph-name="uni2999" unicode="&#x2999;" horiz-adv-x="246" 
d="M71.5 925q-21.5 21 -21.5 52q0 30 21.5 51.5t51.5 21.5q31 0 52 -21.5t21 -51.5q0 -31 -21 -52t-52 -21q-30 0 -51.5 21zM71.5 619q-21.5 21 -21.5 52q0 30 21.5 51.5t51.5 21.5q31 0 52 -21.5t21 -51.5q0 -31 -21 -52t-52 -21q-30 0 -51.5 21zM71.5 317
q-21.5 21 -21.5 52q0 30 21.5 51.5t51.5 21.5q31 0 52 -21.5t21 -51.5q0 -31 -21 -52t-52 -21q-30 0 -51.5 21zM71.5 -11q-21.5 21 -21.5 52q0 30 21.5 51.5t51.5 21.5q31 0 52 -21.5t21 -51.5q0 -31 -21 -52t-52 -21q-30 0 -51.5 21zM71.5 -329q-21.5 21 -21.5 52
q0 30 21.5 51.5t51.5 21.5q31 0 52 -21.5t21 -51.5q0 -31 -21 -52t-52 -21q-30 0 -51.5 21z" />
    <glyph glyph-name="uniF8FF" unicode="&#xf8ff;" horiz-adv-x="1000" 
d="M317 14q68 100 98.5 175.5t30.5 148.5q-44 22 -68.5 56.5t-24.5 87.5q0 43 22.5 80.5t59.5 59.5t80 22q45 0 82 -20.5t58.5 -57t21.5 -82.5q0 -137 -69 -271.5t-191 -268.5z" />
    <glyph glyph-name="uniFEFF" unicode="&#xfeff;" horiz-adv-x="0" 
 />
    <glyph glyph-name="u1F310" unicode="&#x1f310;" horiz-adv-x="1200" 
d="M348.5 -160q-118.5 69 -188 187t-69.5 258t69.5 258t188 187t259.5 69t259.5 -69t188 -187t69.5 -258t-69.5 -258t-188 -187t-259.5 -69t-259.5 69zM493 709q-59 -16 -110.5 -48t-91.5 -77q42 -27 87 -47q42 97 115 172zM925 584q-40 44 -91 76t-108 48q71 -76 114 -170
q39 18 85 46zM761 513q-41 100 -110 168v-184q61 3 110 16zM565 679q-67 -67 -110 -167q53 -12 110 -15v182zM324 323q4 72 26 143q-49 19 -107 55q-56 -90 -65 -198h146zM1038 323q-9 109 -66 198q-53 -35 -105 -55q22 -69 27 -143h144zM565 323v98q-65 3 -135 19
q-16 -59 -20 -117h155zM808 323q-5 61 -21 117q-70 -16 -136 -19v-98h157zM350 104q-22 71 -26 143h-146q9 -108 65 -198q58 36 107 55zM565 149v98h-155q4 -58 20 -117q70 16 135 19zM808 247h-157v-98q66 -3 136 -19q16 56 21 117zM1038 247h-144q-5 -74 -27 -143
q52 -20 105 -55q57 89 66 198zM565 73q-57 -3 -110 -15q43 -100 110 -167v182zM761 57q-49 13 -110 16v-184q69 68 110 168zM378 33q-45 -20 -87 -47q40 -45 91.5 -77t110.5 -48q-73 75 -115 172zM834 -90q51 32 91 76q-46 28 -85 46q-43 -94 -114 -170q57 16 108 48z" />
    <glyph glyph-name="u1F5D8" unicode="&#x1f5d8;" horiz-adv-x="1097" 
d="M682.5 640.5q-65.5 32.5 -135.5 32.5q-75 0 -139.5 -37t-103.5 -103.5t-39 -150.5v-46l146 133l48 -47l-227 -204l-227 204l48 47l144 -133v46q0 104 47 185t127 126t174 45q87 0 165.5 -38t130.5 -99l-50 -45q-43 52 -108.5 84.5zM414.5 84.5q65.5 -32.5 135.5 -32.5
q76 0 140 33.5t102.5 99.5t38.5 158v46l-145 -133l-48 47l227 204l227 -204l-48 -47l-145 133v-46q0 -111 -47 -191.5t-126 -122.5t-174 -42q-87 0 -165.5 38t-130.5 99l50 45q43 -52 108.5 -84.5z" />
    <glyph glyph-name="i.loclTRK" horiz-adv-x="317" 
d="M231 0h-124v440h-80v92h204v-532zM111 636.5q-22 21.5 -22 52.5t22 53t53 22t53 -21.5t22 -53.5q0 -31 -22 -52.5t-53 -21.5t-53 21.5z" />
    <glyph glyph-name="f_i" horiz-adv-x="651" 
d="M566 0h-124v440h-209v-440h-124v440h-71v92h71v26q0 195 248 195q85 0 178 -35l-31 -86q-80 29 -147 29q-72 0 -98 -25.5t-26 -69.5v-34h333v-532z" />
    <glyph glyph-name="f_l" horiz-adv-x="688" 
d="M650 0q-37 -13 -71 -13q-57 0 -90 30.5t-33 88.5v546q-91 9 -124 9q-51 0 -75 -20.5t-24 -74.5v-34h127v-92h-127v-441h-124v441h-71v92h71v24q0 102 52.5 149.5t153.5 47.5q59 0 147 -13h118v-616q0 -22 8 -31.5t28 -9.5q5 0 21 2z" />
    <glyph glyph-name="uni0408.ss02" horiz-adv-x="541" 
d="M73 38.5q-59 51.5 -65 136.5h118q7 -45 33 -68t69 -23q46 0 74 28.5t28 84.5v503h126v-504q0 -62 -27 -109.5t-77.5 -73.5t-119.5 -26q-100 0 -159 51.5z" />
    <glyph glyph-name="zero.tf" 
d="M118 52.5q-67 65.5 -67 177.5v236q0 116 67 181.5t186 65.5q113 0 178.5 -66t65.5 -181v-236q0 -112 -65.5 -177.5t-178.5 -65.5q-119 0 -186 65.5zM390.5 122q32.5 37 32.5 107v239q0 73 -32.5 111.5t-86.5 38.5q-60 0 -93.5 -38t-33.5 -112v-239q0 -71 33.5 -107.5
t93.5 -36.5q54 0 86.5 37z" />
    <glyph glyph-name="one.tf" 
d="M526 95v-95h-418v95h157v467l-135 -67l-45 82l214 123h92v-605h135z" />
    <glyph glyph-name="two.tf" 
d="M532 102v-102h-450v71q0 86 36 143.5t104 104.5l96 66q50 33 69 57.5t19 57.5v24q0 36 -29.5 63t-86.5 27q-46 0 -84.5 -13.5t-82.5 -45.5l-56 76q51 40 107.5 60.5t123.5 20.5q72 0 125 -26t80.5 -68t27.5 -90v-31q0 -53 -35 -100.5t-114 -99.5l-78 -50
q-56 -37 -77 -69.5t-23 -75.5h328z" />
    <glyph glyph-name="three.tf" 
d="M140 15q-59 28 -104 79l72 69q75 -80 173 -80q61 0 101 27.5t40 82.5v25q0 58 -44 82.5t-97 24.5h-65v90h65q48 0 83.5 21t35.5 69v23q0 47 -33 69t-84 22q-48 0 -89 -18.5t-83 -56.5l-65 68q49 48 108.5 74.5t137.5 26.5q64 0 117 -21.5t83.5 -60.5t30.5 -89v-39
q0 -45 -36 -80t-85 -46q33 -5 66.5 -25t56 -52t22.5 -72v-45q0 -55 -33.5 -100t-93 -70.5t-132.5 -25.5q-89 0 -148 28z" />
    <glyph glyph-name="four.tf" 
d="M354 135h-306v82l227 483h121l-216 -467h175l25 188l98 1v-189h91v-98h-91v-135h-124v135z" />
    <glyph glyph-name="five.tf" 
d="M445.5 418.5q50.5 -25.5 78 -69t27.5 -96.5v-65q0 -56 -32.5 -102t-90 -72.5t-130.5 -26.5q-85 0 -144 29t-106 85l74 68q41 -43 80 -63t92 -20q57 0 94.5 28t37.5 82v45q0 53 -38 80t-102 27q-24 0 -43 -3t-49 -11h-84v366h401v-103h-279v-166q42 13 96 13
q67 0 117.5 -25.5z" />
    <glyph glyph-name="six.tf" 
d="M458 437q46 -27 69.5 -73.5t23.5 -104.5v-43q0 -62 -28.5 -114t-84.5 -83.5t-134 -31.5q-77 0 -134.5 34.5t-89 96.5t-31.5 144v49q0 195 108 295.5t313 106.5v-99q-274 -11 -296 -226q63 76 175 76q63 0 109 -27zM427 256q0 53 -25.5 83t-78.5 30q-48 0 -83.5 -19.5
t-67.5 -60.5v-32q0 -86 35.5 -129t96.5 -43t92 35.5t31 99.5v36z" />
    <glyph glyph-name="seven.tf" 
d="M536 597l-257 -597h-137l269 594h-348v106h473v-103z" />
    <glyph glyph-name="eight.tf" 
d="M527.5 319.5q35.5 -38.5 35.5 -103.5v-43q0 -55 -35 -97t-95.5 -65.5t-133.5 -23.5q-76 0 -135.5 23t-93 65.5t-33.5 97.5v43q0 49 34 83.5t105 59.5q-57 24 -82 57.5t-25 88.5v44q0 48 28.5 85t80.5 58t119 21q68 0 121 -21t83 -58t30 -84v-44q0 -43 -25 -72t-86 -49
q72 -27 107.5 -65.5zM188 510q0 -31 23.5 -48t78.5 -34l32 -10q49 20 69.5 38t20.5 46v38q0 41 -34.5 62t-80.5 21t-77.5 -17.5t-31.5 -58.5v-37zM438 215q0 35 -31.5 57t-96.5 42l-36 12q-59 -23 -85.5 -45.5t-26.5 -61.5v-38q0 -49 38 -73.5t100 -24.5q59 0 98.5 24
t39.5 70v38z" />
    <glyph glyph-name="nine.tf" 
d="M485 638.5q66 -74.5 66 -200.5v-49q0 -390 -438 -402v101q146 5 224 59t89 164q-64 -75 -174 -75q-63 0 -109 27t-70 73.5t-24 104.5v43q0 62 28.5 114.5t85 83.5t137.5 31q119 0 185 -74.5zM361.5 349.5q34.5 20.5 66.5 62.5v31q0 172 -130 172q-62 0 -93.5 -35.5
t-31.5 -99.5v-36q0 -52 26 -83.5t79 -31.5q49 0 83.5 20.5z" />
    <glyph glyph-name="zero.zero.tf" 
d="M482.5 647q65.5 -66 65.5 -181v-236q0 -112 -65.5 -177.5t-178.5 -65.5q-119 0 -186 65.5t-67 177.5v236q0 116 67 181.5t186 65.5q113 0 178.5 -66zM171 228q0 -46 16 -80l173 460q-27 11 -56 11q-62 0 -97.5 -38t-35.5 -112v-241zM428 469q0 47 -14 81l-172 -454
q26 -12 62 -12q57 0 90.5 37t33.5 107v241z" />
    <glyph glyph-name="zero.zero" horiz-adv-x="636" 
d="M506.5 647.5q65.5 -65.5 65.5 -181.5v-236q0 -113 -66 -178t-184 -65q-123 0 -191 65t-68 178v236q0 116 68 181.5t191 65.5q119 0 184.5 -65.5zM185 228q0 -57 14 -86l178 471q-23 6 -55 6q-66 0 -101.5 -37.5t-35.5 -112.5v-241zM451 469q0 57 -13 89l-178 -467
q24 -7 62 -7q60 0 94.5 37t34.5 107v241z" />
    <glyph glyph-name="zero.dnom" horiz-adv-x="500" 
d="M102.5 38.5q-54.5 49.5 -54.5 135.5v175q0 87 54.5 137t150.5 50q93 0 145.5 -50t52.5 -137v-175q0 -86 -52.5 -135.5t-145.5 -49.5q-96 0 -150.5 49.5zM319 97q24 26 24 78v175q0 54 -24 80.5t-66 26.5q-97 0 -97 -107v-175q0 -104 97 -104q42 0 66 26z" />
    <glyph glyph-name="one.dnom" horiz-adv-x="500" 
d="M91 79h125v334l-107 -49l-38 68l173 93h78v-446h107v-79h-338v79z" />
    <glyph glyph-name="two.dnom" horiz-adv-x="500" 
d="M73 58q0 65 28 108t82 77l79 50q40 26 54 43t14 40v16q0 26 -23 44t-67 18q-36 0 -67 -10.5t-67 -34.5l-46 65q85 61 188 61q59 0 102 -18.5t65 -50t22 -69.5v-25q0 -40 -26.5 -73t-87.5 -72l-67 -42q-44 -28 -60.5 -50t-18.5 -51h261v-84h-365v58z" />
    <glyph glyph-name="three.dnom" horiz-adv-x="500" 
d="M127.5 10.5q-47.5 21.5 -84.5 60.5l60 56q58 -58 137 -58q47 0 78 20t31 58v18q0 41 -34.5 58t-78.5 17h-47v75h47q40 0 67.5 14.5t27.5 48.5v16q0 32 -25.5 48t-64.5 16q-38 0 -70.5 -13.5t-63.5 -40.5l-54 55q39 36 86.5 56.5t111.5 20.5q51 0 93.5 -16.5t67.5 -45.5
t25 -66v-29q0 -34 -30 -61t-70 -35q45 -7 82 -37t37 -76v-34q0 -41 -27 -75t-75 -53t-107 -19q-72 0 -119.5 21.5z" />
    <glyph glyph-name="four.dnom" horiz-adv-x="500" 
d="M285 98h-245v64l178 363h103l-167 -345h133l21 135l84 1v-136h68v-82h-68v-98h-107v98z" />
    <glyph glyph-name="five.dnom" horiz-adv-x="500" 
d="M132 11.5q-49 22.5 -86 63.5l62 57q33 -31 63.5 -45.5t73.5 -14.5q44 0 73.5 20t29.5 57v30q0 38 -29.5 57.5t-77.5 19.5q-20 0 -35.5 -2.5t-41.5 -9.5h-68v281h326v-84h-222v-119q36 12 78 12q52 0 92 -19t62 -52t22 -74v-47q0 -42 -25.5 -77t-72 -55.5t-106.5 -20.5
q-69 0 -118 22.5z" />
    <glyph glyph-name="six.dnom" horiz-adv-x="500" 
d="M103 46q-56 57 -56 153v38q0 145 88.5 220.5t254.5 78.5v-82q-106 -4 -164.5 -42t-67.5 -116q48 54 134 54q76 0 118.5 -44t42.5 -112v-32q0 -47 -22.5 -86.5t-67.5 -63t-109 -23.5q-95 0 -151 57zM324 95.5q23 24.5 23 69.5v26q0 81 -80 81q-35 0 -61.5 -14t-49.5 -42
v-28q0 -59 25.5 -88t72.5 -29t70 24.5z" />
    <glyph glyph-name="seven.dnom" horiz-adv-x="500" 
d="M330 439h-272v86h383v-83l-204 -442h-117z" />
    <glyph glyph-name="eight.dnom" horiz-adv-x="500" 
d="M139 6.5q-48 17.5 -75 49.5t-27 73v32q0 68 99 104l8 3l-7 4q-40 18 -57.5 42.5t-17.5 64.5v31q0 56 51.5 91t134.5 35q54 0 97 -15.5t67.5 -43.5t24.5 -64v-32q0 -33 -18.5 -54t-62.5 -35l-6 -3l6 -2q53 -18 79.5 -47.5t26.5 -77.5v-33q0 -41 -28 -73t-77 -49.5
t-109 -17.5q-61 0 -109 17.5zM275 320q33 13 47 26t14 32v26q0 28 -26.5 43t-62.5 15q-35 0 -59 -13t-24 -40v-25q0 -22 17.5 -33.5t65.5 -27.5l21 -6zM326 84q30 18 30 49v26q0 25 -23 38.5t-78 31.5l-32 11l-9 -4q-37 -15 -54 -30.5t-17 -41.5v-26q0 -34 29 -53t78 -19
q46 0 76 18z" />
    <glyph glyph-name="nine.dnom" horiz-adv-x="500" 
d="M97 73q115 3 176 40.5t69 115.5q-48 -54 -133 -54q-75 0 -118.5 44t-43.5 112v32q0 47 23 86.5t68.5 63t111.5 23.5q98 0 150.5 -56.5t52.5 -153.5v-37q0 -147 -90 -222t-267 -78zM294.5 266q25.5 14 49.5 43v29q0 60 -23.5 88.5t-72.5 28.5q-48 0 -71.5 -25t-23.5 -70
v-26q0 -38 20 -60t62 -22q34 0 59.5 14z" />
    <glyph glyph-name="zero.numr" horiz-adv-x="500" 
d="M102.5 253.5q-54.5 49.5 -54.5 135.5v175q0 87 54.5 137t150.5 50q93 0 145.5 -50t52.5 -137v-175q0 -86 -52.5 -135.5t-145.5 -49.5q-96 0 -150.5 49.5zM319 312q24 26 24 78v175q0 54 -24 80.5t-66 26.5q-97 0 -97 -107v-175q0 -104 97 -104q42 0 66 26z" />
    <glyph glyph-name="one.numr" horiz-adv-x="500" 
d="M91 294h125v334l-107 -49l-38 68l173 93h78v-446h107v-79h-338v79z" />
    <glyph glyph-name="two.numr" horiz-adv-x="500" 
d="M73 273q0 65 28 108t82 77l79 50q40 26 54 43t14 40v16q0 26 -23 44t-67 18q-36 0 -67 -10.5t-67 -34.5l-46 65q85 61 188 61q59 0 102 -18.5t65 -50t22 -69.5v-25q0 -40 -26.5 -73t-87.5 -72l-67 -42q-44 -28 -60.5 -50t-18.5 -51h261v-84h-365v58z" />
    <glyph glyph-name="three.numr" horiz-adv-x="500" 
d="M127.5 225.5q-47.5 21.5 -84.5 60.5l60 56q58 -58 137 -58q47 0 78 20t31 58v18q0 41 -34.5 58t-78.5 17h-47v75h47q40 0 67.5 14.5t27.5 48.5v16q0 32 -25.5 48t-64.5 16q-38 0 -70.5 -13.5t-63.5 -40.5l-54 55q39 36 86.5 56.5t111.5 20.5q51 0 93.5 -16.5t67.5 -45.5
t25 -66v-29q0 -34 -30 -61t-70 -35q45 -7 82 -37t37 -76v-34q0 -41 -27 -75t-75 -53t-107 -19q-72 0 -119.5 21.5z" />
    <glyph glyph-name="four.numr" horiz-adv-x="500" 
d="M285 313h-245v64l178 363h103l-167 -345h133l21 135l84 1v-136h68v-82h-68v-98h-107v98z" />
    </font>
</defs>
</svg>
