<?xml version="1.0" standalone="no"?>
  <!DOCTYPE svg PUBLIC "-//W3C//DTD SVG 1.1//EN" "http://www.w3.org/Graphics/SVG/1.1/DTD/svg11.dtd" >
  <svg>
  <metadata>
  Created by font-carrier
  </metadata>
  <defs>
  <font id="ArtifaktElement-Regular" horiz-adv-x="1320" vert-adv-y="1320" >
    <font-face
      
      font-family="Artifakt Element"
      
      font-weight="400"
      
      font-stretch="normal"
      
      units-per-em="1000"
      
      ascent="1050"
      
      descent="-350"
      
    />
      <missing-glyph />

      

      
      <glyph glyph-name="uni21" unicode="&#x21;" d="M100 700L182 700L171 221L111 221L100 700M141-8Q120-8 104.50 7Q89 22 89 43Q89 65 104.50 80Q120 95 141 95Q163 95 178 80Q193 65 193 43Q193 21 178 6.50Q163-8 141-8Z"  horiz-adv-x="282" vert-adv-y="1000"  />

      
      <glyph glyph-name="uni22" unicode="&#x22;" d="M80 446L69 700L139 700L128 446L80 446M267 446L256 700L325 700L315 446L267 446Z"  horiz-adv-x="394" vert-adv-y="1000"  />

      
      <glyph glyph-name="uni23" unicode="&#x23;" d="M565 466L479 466L454 233L541 233L535 173L448 173L429-5L357 0L375 173L187 173L168-5L96 0L114 173L28 173L34 233L121 233L145 466L58 466L65 527L152 527L170 700L242 695L225 527L412 527L431 700L503 695L485 527L572 527L565 466M381 233L406 466L218 466L194 233L381 233Z"  horiz-adv-x="600" vert-adv-y="1000"  />

      
      <glyph glyph-name="uni24" unicode="&#x24;" d="M360 353Q438 329 480 292.50Q522 256 522 190L522 168Q522 103 468 56Q414 9 321 1L321-110L257-110L257 0Q132 6 52 79L91 122Q122 100 142.50 88.50Q163 77 200 67Q237 57 284 57Q366 57 408.50 91Q451 125 451 168L451 183Q451 227 423 251Q395 275 327 297L232 327Q150 353 114 390Q78 427 78 479L78 499Q78 552 125 595Q172 638 257 648L257 752L321 752L321 651Q437 645 520 569L481 530Q402 596 301 596Q226 596 188 566Q150 536 150 498L150 480Q150 448 179 424Q208 400 273 380L360 353Z"  horiz-adv-x="584" vert-adv-y="1000"  />

      
      <glyph glyph-name="uni25" unicode="&#x25;" d="M254 0L602 763L654 740L307-23L254 0M229 338Q155 338 112 378Q69 418 69 486L69 601Q69 671 112 711.50Q155 752 229 752Q299 752 341 711.50Q383 671 383 601L383 486Q383 419 341 378.50Q299 338 229 338M229 387Q272 387 298.50 413.50Q325 440 325 486L325 602Q325 649 297 676.50Q269 704 229 704Q182 704 154.50 677.50Q127 651 127 602L127 486Q127 439 154.50 413Q182 387 229 387M689-12Q615-12 572.50 28Q530 68 530 137L530 252Q530 322 572.50 362Q615 402 689 402Q760 402 801.50 361.50Q843 321 843 252L843 137Q843 69 801.50 28.50Q760-12 689-12M689 37Q732 37 758.50 63.50Q785 90 785 136L785 253Q785 300 757 327Q729 354 689 354Q642 354 615 327.50Q588 301 588 253L588 136Q588 89 615 63Q642 37 689 37Z"  horiz-adv-x="912" vert-adv-y="1000"  />

      
      <glyph glyph-name="uni26" unicode="&#x26;" d="M667 0L577 0L495 84Q446 30 397.50 9Q349-12 274-12Q174-12 112.50 39Q51 90 51 174L51 219Q51 281 84.50 322.50Q118 364 191 396Q158 430 143.50 447Q129 464 117.50 489Q106 514 106 543L106 574Q106 635 156.50 673.50Q207 712 291 712Q372 712 420 673Q468 634 468 577L468 548Q468 494 431 455.50Q394 417 298 380L488 184L590 390L650 364L535 136L667 0M179 570L179 550Q179 517 195 492.50Q211 468 257 421Q338 451 367 479Q396 507 396 551L396 573Q396 610 367.50 633Q339 656 290 656Q238 656 208.50 633.50Q179 611 179 570M275 49Q335 49 375 67Q415 85 452 129L231 354Q177 331 151 299.50Q125 268 125 213L125 179Q125 119 166.50 84Q208 49 275 49Z"  horiz-adv-x="693" vert-adv-y="1000"  />

      
      <glyph glyph-name="uni27" unicode="&#x27;" d="M80 446L69 700L139 700L128 446L80 446Z"  horiz-adv-x="207" vert-adv-y="1000"  />

      
      <glyph glyph-name="uni28" unicode="&#x28;" d="M157 170Q157 61 189.50-9.50Q222-80 316-172L272-212Q167-120 125-37.50Q83 45 83 170L83 370Q83 495 125 577.50Q167 660 272 752L316 712Q222 620 189.50 549.50Q157 479 157 370L157 170Z"  horiz-adv-x="400" vert-adv-y="1000"  />

      
      <glyph glyph-name="uni29" unicode="&#x29;" d="M128 752Q233 660 275 577.50Q317 495 317 370L317 170Q317 45 275-37.50Q233-120 128-212L84-172Q178-80 210.50-9.50Q243 61 243 170L243 370Q243 479 210.50 549.50Q178 620 84 712L128 752Z"  horiz-adv-x="400" vert-adv-y="1000"  />

      
      <glyph glyph-name="uni2a" unicode="&#x2a;" d="M410 579L258 537L355 413L305 376L217 506L130 376L80 412L177 537L26 579L45 636L192 583L186 740L249 740L243 583L390 637L410 579Z"  horiz-adv-x="435" vert-adv-y="1000"  />

      
      <glyph glyph-name="uni2b" unicode="&#x2b;" d="M482 373L482 312L332 312L332 160L268 160L268 312L118 312L118 373L268 373L268 524L332 524L332 373L482 373Z"  horiz-adv-x="600" vert-adv-y="1000"  />

      
      <glyph glyph-name="uni2c" unicode="&#x2c;" d="M84-165L54-142Q101-76 106-3Q77 12 77 44Q77 65 92.50 80Q108 95 129 95Q151 95 165.50 80.50Q180 66 180 44Q180-57 84-165Z"  horiz-adv-x="254" vert-adv-y="1000"  />

      
      <glyph glyph-name="uni2d" unicode="&#x2d;" d="M361 373L361 312L74 312L74 373L361 373Z"  horiz-adv-x="435" vert-adv-y="1000"  />

      
      <glyph glyph-name="uni2e" unicode="&#x2e;" d="M162.50 6.50Q162.50 6.50 155.25-0.75Q148-8 126-8Q104-8 89 6.50Q74 21 74 43Q74 65 89.50 80Q105 95 126 95Q148 95 162.50 80Q177 65 177 43Q177 21 162.50 6.50Z"  horiz-adv-x="251" vert-adv-y="1000"  />

      
      <glyph glyph-name="uni2f" unicode="&#x2f;" d="M68-160L5-140L331 760L395 740L68-160Z"  horiz-adv-x="400" vert-adv-y="1000"  />

      
      <glyph glyph-name="uni30" unicode="&#x30;" d="M322-12Q207-12 142 52Q77 116 77 230L77 467Q77 583 142 647.50Q207 712 322 712Q431 712 494.50 647.50Q558 583 558 467L558 230Q558 116 494 52Q430-12 322-12M322 50Q394 50 438.50 96Q483 142 483 229L483 469Q483 558 438.50 605Q394 652 322 652Q243 652 197.50 605Q152 558 152 469L152 229Q152 141 197.50 95.50Q243 50 322 50Z"  horiz-adv-x="635" vert-adv-y="1000"  />

      
      <glyph glyph-name="uni31" unicode="&#x31;" d="M284 60L413 60L413 0L212 0L64 0L64 60L212 60L212 613L81 540L52 592L230 700L284 700L284 60Z"  horiz-adv-x="450" vert-adv-y="1000"  />

      
      <glyph glyph-name="uni32" unicode="&#x32;" d="M119 63L467 63L467 0L46 0L46 44Q46 133 78.50 188.50Q111 244 178 292L282 367Q341 408 364 436.50Q387 465 387 508L387 535Q387 582 349 616.50Q311 651 244 651Q151 651 64 585L29 631Q125 712 246 712Q343 712 402.50 660Q462 608 462 536L462 507Q462 453 428 408Q394 363 315 309L227 248Q165 206 143 165.50Q121 125 119 63Z"  horiz-adv-x="518" vert-adv-y="1000"  />

      
      <glyph glyph-name="uni33" unicode="&#x33;" d="M272-12Q185-12 129.50 15.50Q74 43 31 92L76 135Q153 49 268 49Q343 49 391.50 84.50Q440 120 440 187L440 217Q440 261 412.50 290.50Q385 320 350 331Q315 342 276 342L207 342L207 401L276 401Q334 401 375 428Q416 455 416 509L416 534Q416 593 374 622.50Q332 652 267 652Q169 652 81 571L39 614Q139 712 271 712Q364 712 426.50 665Q489 618 489 541L489 506Q489 457 451.50 420.50Q414 384 364 376Q418 370 466.50 328Q515 286 515 224L515 183Q515 99 446 43.50Q377-12 272-12Z"  horiz-adv-x="579" vert-adv-y="1000"  />

      
      <glyph glyph-name="uni34" unicode="&#x34;" d="M374 0L374 156L37 156L37 209L300 700L375 700L117 217L375 217L389 423L448 424L448 217L547 217L547 156L448 156L448 0L374 0Z"  horiz-adv-x="581" vert-adv-y="1000"  />

      
      <glyph glyph-name="uni35" unicode="&#x35;" d="M286 436Q387 436 447 382.50Q507 329 507 250L507 184Q507 101 439.50 44.50Q372-12 269-12Q185-12 130.50 17Q76 46 31 101L79 141Q119 95 161 72.50Q203 50 267 50Q340 50 386.50 87Q433 124 433 189L433 243Q433 305 386 340Q339 375 262 375Q208 375 145 354L92 354L92 700L470 700L470 636L166 636L166 416Q218 436 286 436Z"  horiz-adv-x="564" vert-adv-y="1000"  />

      
      <glyph glyph-name="uni36" unicode="&#x36;" d="M331 459Q424 459 476 401.50Q528 344 528 256L528 213Q528 118 467.50 53Q407-12 296-12Q188-12 123 62.50Q58 137 58 255L58 306Q58 501 159.50 602.50Q261 704 452 712L452 650Q151 636 133 363Q204 459 331 459M454 215L454 254Q454 320 420 359.50Q386 399 318 399Q259 399 215 373Q171 347 132 292L132 257Q132 159 176.50 104.50Q221 50 297 50Q375 50 414.50 95Q454 140 454 215Z"  horiz-adv-x="575" vert-adv-y="1000"  />

      
      <glyph glyph-name="uni37" unicode="&#x37;" d="M468 700L468 634L189 0L111 0L395 637L19 637L19 700L468 700Z"  horiz-adv-x="504" vert-adv-y="1000"  />

      
      <glyph glyph-name="uni38" unicode="&#x38;" d="M396 381Q471 358 512 319.50Q553 281 553 213L553 165Q553 87 483.50 37.50Q414-12 305-12Q194-12 126.50 37.50Q59 87 59 167L59 216Q59 271 98.50 306.50Q138 342 215 366Q151 386 121 419.50Q91 453 91 510L91 554Q91 622 150.50 667Q210 712 304 712Q399 712 460 667.50Q521 623 521 554L521 510Q521 463 491 432Q461 401 396 381M164 514Q164 472 192.50 449.50Q221 427 281 411L322 401L323 401Q388 423 418 446Q448 469 448 508L448 547Q448 599 405 627Q362 655 303 655Q245 655 204.50 629Q164 603 164 553L164 514M478 167L478 214Q478 262 441.50 288Q405 314 338 333L291 345L286 343Q249 331 226.50 322Q204 313 180 298.50Q156 284 145 264Q134 244 134 218L134 170Q134 113 181 81Q228 49 306 49Q382 49 430 81Q478 113 478 167Z"  horiz-adv-x="611" vert-adv-y="1000"  />

      
      <glyph glyph-name="uni39" unicode="&#x39;" d="M282 712Q393 712 455 638.50Q517 565 517 445L517 394Q517 198 413.50 97Q310-4 109-12L109 51Q425 65 441 338Q369 241 245 241Q152 241 99.50 298.50Q47 356 47 444L47 487Q47 582 108 647Q169 712 282 712M256 300Q317 300 360 326Q403 352 442 408L442 443Q442 543 401 596.50Q360 650 280 650Q201 650 161 605Q121 560 121 485L121 446Q121 381 155.50 340.50Q190 300 256 300Z"  horiz-adv-x="574" vert-adv-y="1000"  />

      
      <glyph glyph-name="uni3a" unicode="&#x3a;" d="M162.50 420Q162.50 420 155.25 412.50Q148 405 126 405Q104 405 89 420Q74 435 74 457Q74 478 89.50 493Q105 508 126 508Q148 508 162.50 493Q177 478 177 457Q177 435 162.50 420M162.50 6.50Q162.50 6.50 155.25-0.75Q148-8 126-8Q104-8 89 6.50Q74 21 74 43Q74 65 89.50 80Q105 95 126 95Q148 95 162.50 80Q177 65 177 43Q177 21 162.50 6.50Z"  horiz-adv-x="251" vert-adv-y="1000"  />

      
      <glyph glyph-name="uni3b" unicode="&#x3b;" d="M162.50 420Q162.50 420 155.25 412.50Q148 405 126 405Q104 405 89 420Q74 435 74 457Q74 478 89.50 493Q105 508 126 508Q148 508 162.50 493Q177 478 177 457Q177 435 162.50 420M84-165L54-142Q101-76 106-3Q77 12 77 44Q77 65 92.50 80Q108 95 129 95Q151 95 165.50 80.50Q180 66 180 44Q180-57 84-165Z"  horiz-adv-x="254" vert-adv-y="1000"  />

      
      <glyph glyph-name="uni3c" unicode="&#x3c;" d="M454 141L118 309L118 377L454 545L483 487L189 343L483 196L454 141Z"  horiz-adv-x="600" vert-adv-y="1000"  />

      
      <glyph glyph-name="uni3d" unicode="&#x3d;" d="M482 469L482 411L118 411L118 469L482 469M482 273L482 214L118 214L118 273L482 273Z"  horiz-adv-x="600" vert-adv-y="1000"  />

      
      <glyph glyph-name="uni3e" unicode="&#x3e;" d="M146 141L117 196L411 343L117 487L146 545L482 377L482 309L146 141Z"  horiz-adv-x="600" vert-adv-y="1000"  />

      
      <glyph glyph-name="uni3f" unicode="&#x3f;" d="M170 221L170 255Q170 296 189.50 329Q209 362 236.50 383.50Q264 405 291.50 424Q319 443 338.50 467.50Q358 492 358 520L358 547Q358 593 323.50 622Q289 651 232 651Q184 651 147 636Q110 621 63 586L27 632Q123 712 238 712Q326 712 380.50 666Q435 620 435 551L435 522Q435 483 415 452.50Q395 422 366.50 402Q338 382 310 362.50Q282 343 262 315.50Q242 288 242 253L242 221L170 221M243.50 6.50Q243.50 6.50 236.25-0.75Q229-8 207-8Q185-8 170 6.50Q155 21 155 43Q155 65 170.50 80Q186 95 207 95Q229 95 243.50 80Q258 65 258 43Q258 21 243.50 6.50Z"  horiz-adv-x="471" vert-adv-y="1000"  />

      
      <glyph glyph-name="uni40" unicode="&#x40;" d="M525 712Q709 712 812.50 610.50Q916 509 916 364L916 273Q916 192 873.50 136.50Q831 81 760 81Q711 81 680 102.50Q649 124 637 158Q575 87 483 87Q412 87 371.50 133Q331 179 331 260L331 318Q331 412 380.50 463Q430 514 524 514Q609 514 678 469L677 244Q677 191 695 164Q713 137 759 137Q802 137 826 176Q850 215 850 282L850 357Q850 491 766 574Q682 657 525 657Q366 657 274.50 569Q183 481 183 356L183 226Q183 82 271.50 6.50Q360-69 507-69Q605-69 695-34L714-86Q612-124 506-124Q331-124 223.50-34Q116 56 116 220L116 356Q116 501 228 606.50Q340 712 525 712M490 142Q562 142 613 197L614 439Q576 460 526 460Q460 460 429 424.50Q398 389 398 314L398 263Q398 200 420.50 171Q443 142 490 142Z"  horiz-adv-x="1024" vert-adv-y="1000"  />

      
      <glyph glyph-name="uni41" unicode="&#x41;" d="M522 0L450 216L177 216L109 0L32 0L261 700L364 700L600 0L522 0M312 645L197 278L430 278L312 645Z"  horiz-adv-x="632" vert-adv-y="1000"  />

      
      <glyph glyph-name="uni42" unicode="&#x42;" d="M429 360Q484 354 526.50 318Q569 282 569 215L569 172Q569 93 499.50 46.50Q430 0 309 0L197 0L123 0L123 700L199 700L316 700Q422 700 484.50 656.50Q547 613 547 533L547 489Q547 435 512.50 401Q478 367 428 360L429 360M318 641L199 641L199 383L347 383Q404 383 438 411.50Q472 440 472 490L472 529Q472 584 430.50 612.50Q389 641 318 641M494 175L494 215Q494 266 454.50 295Q415 324 351 324L199 324L199 59L311 59Q400 59 447 88.50Q494 118 494 175Z"  horiz-adv-x="645" vert-adv-y="1000"  />

      
      <glyph glyph-name="uni43" unicode="&#x43;" d="M340-12Q217-12 149 59Q81 130 81 249L81 434Q81 561 151.50 636.50Q222 712 345 712Q458 712 544 637L504 592Q432 651 347 651Q256 651 206 594Q156 537 156 436L156 251Q156 155 203.50 102Q251 49 341 49Q431 49 504 105L537 57Q452-12 340-12Z"  horiz-adv-x="580" vert-adv-y="1000"  />

      
      <glyph glyph-name="uni44" unicode="&#x44;" d="M322 700Q460 700 532.50 624.50Q605 549 605 420L605 298Q605 159 525 79.50Q445 0 297 0L169 0L123 0L123 700L198 700L322 700M530 296L530 422Q530 524 476 581.50Q422 639 318 639L198 639L198 61L297 61Q412 61 471 121Q530 181 530 296Z"  horiz-adv-x="685" vert-adv-y="1000"  />

      
      <glyph glyph-name="uni45" unicode="&#x45;" d="M502 639L198 639L198 391L480 391L480 329L198 329L198 61L502 61L502 0L125 0L123 0L123 700L198 700L502 700L502 639Z"  horiz-adv-x="582" vert-adv-y="1000"  />

      
      <glyph glyph-name="uni46" unicode="&#x46;" d="M513 639L198 639L198 381L471 381L471 320L198 320L198 0L123 0L123 700L198 700L513 700L513 639Z"  horiz-adv-x="537" vert-adv-y="1000"  />

      
      <glyph glyph-name="uni47" unicode="&#x47;" d="M579 373L579 0L518 0L512 74Q436-12 316-12Q211-12 146 55Q81 122 81 237L81 428Q81 556 151.50 634Q222 712 347 712Q492 712 569 608L519 571Q489 611 449 631Q409 651 347 651Q253 651 204.50 592Q156 533 156 430L156 240Q156 151 201.50 100Q247 49 331 49Q448 49 506 147L506 312L321 312L321 373L579 373Z"  horiz-adv-x="667" vert-adv-y="1000"  />

      
      <glyph glyph-name="uni48" unicode="&#x48;" d="M621 700L621 0L546 0L546 332L198 332L198 0L123 0L123 700L198 700L198 395L546 395L546 700L621 700Z"  horiz-adv-x="745" vert-adv-y="1000"  />

      
      <glyph glyph-name="uni49" unicode="&#x49;" d="M326 639L242 639L242 61L326 61L326 0L167 0L84 0L84 61L167 61L167 639L84 639L84 700L242 700L326 700L326 639Z"  horiz-adv-x="409" vert-adv-y="1000"  />

      
      <glyph glyph-name="uni4a" unicode="&#x4a;" d="M424 700L424 199Q424 101 371 44.50Q318-12 223-12Q112-12 41 53L78 98Q144 49 218 49Q278 49 313.50 86.50Q349 124 349 197L349 639L78 639L78 700L424 700Z"  horiz-adv-x="523" vert-adv-y="1000"  />

      
      <glyph glyph-name="uni4b" unicode="&#x4b;" d="M538 0L289 331L195 213L195 0L123 0L123 700L195 700L195 315L502 700L584 700L335 384L625 0L538 0Z"  horiz-adv-x="641" vert-adv-y="1000"  />

      
      <glyph glyph-name="uni4c" unicode="&#x4c;" d="M198 64L501 64L501 0L125 0L123 0L123 700L198 700L198 64Z"  horiz-adv-x="513" vert-adv-y="1000"  />

      
      <glyph glyph-name="uni4d" unicode="&#x4d;" d="M655 700L749 700L749 0L677 0L677 587L477 101L478 100L393 100L192 595L192 0L123 0L123 700L222 700L438 163L656 699L655 700Z"  horiz-adv-x="873" vert-adv-y="1000"  />

      
      <glyph glyph-name="uni4e" unicode="&#x4e;" d="M550 700L618 700L618 0L528 0L191 606L191 0L123 0L123 700L214 700L550 95L550 700Z"  horiz-adv-x="741" vert-adv-y="1000"  />

      
      <glyph glyph-name="uni4f" unicode="&#x4f;" d="M353 712Q489 712 557 633Q625 554 625 425L625 271Q625 146 556.50 67Q488-12 353-12Q218-12 149.50 67Q81 146 81 271L81 425Q81 555 149.50 633.50Q218 712 353 712M353 651Q254 651 205 590Q156 529 156 426L156 269Q156 171 205 110Q254 49 353 49Q452 49 501 110Q550 171 550 269L550 426Q550 528 501.50 589.50Q453 651 353 651Z"  horiz-adv-x="706" vert-adv-y="1000"  />

      
      <glyph glyph-name="uni50" unicode="&#x50;" d="M326 700Q436 700 500.50 649Q565 598 565 505L565 451Q565 358 497 306Q429 254 309 254L198 254L198 0L123 0L123 700L198 700L326 700M490 454L490 501Q490 569 446 604Q402 639 324 639L198 639L198 315L307 315Q490 315 490 454Z"  horiz-adv-x="608" vert-adv-y="1000"  />

      
      <glyph glyph-name="uni51" unicode="&#x51;" d="M635-62L584-101L491 18Q435-12 354-12Q218-12 149.50 65Q81 142 81 271L81 427Q81 559 150 635.50Q219 712 354 712Q491 712 559.50 635Q628 558 628 427L628 264Q628 125 543 53L635-62M354 48Q412 48 454 65L383 155L433 192L506 100Q553 151 553 251L553 429Q553 532 504 591.50Q455 651 354 651Q254 651 205 592Q156 533 156 429L156 266Q156 165 205 106.50Q254 48 354 48Z"  horiz-adv-x="709" vert-adv-y="1000"  />

      
      <glyph glyph-name="uni52" unicode="&#x52;" d="M594 0L511 0L351 297Q348 297 341.50 296.50Q335 296 331 296L198 296L198 0L123 0L123 700L198 700L329 700Q438 700 502.50 651.50Q567 603 567 520L567 474Q567 413 529.50 370.50Q492 328 426 309L594 0M330 357Q406 357 448.50 388Q491 419 491 476L491 518Q491 575 447 607Q403 639 328 639L198 639L198 357L330 357Z"  horiz-adv-x="657" vert-adv-y="1000"  />

      
      <glyph glyph-name="uni53" unicode="&#x53;" d="M289-12Q134-12 45 77L85 124Q118 99 139.50 86.50Q161 74 200 63Q239 52 289 52Q375 52 419.50 90Q464 128 464 176L464 192Q464 241 435 268Q406 295 334 319L234 352Q148 381 110 422.50Q72 464 72 521L72 543Q72 610 134 661Q196 712 306 712Q445 712 536 621L496 577Q452 616 408.50 633.50Q365 651 307 651Q228 651 187.50 617.50Q147 584 147 543L147 522Q147 487 177.50 460Q208 433 277 411L368 382Q451 355 495 314Q539 273 539 200L539 175Q539 96 471.50 42Q404-12 289-12Z"  horiz-adv-x="607" vert-adv-y="1000"  />

      
      <glyph glyph-name="uni54" unicode="&#x54;" d="M515 700L515 638L306 638L306 0L231 0L231 638L23 638L23 700L515 700Z"  horiz-adv-x="538" vert-adv-y="1000"  />

      
      <glyph glyph-name="uni55" unicode="&#x55;" d="M605 700L605 226Q605 121 541.50 54.50Q478-12 351-12Q225-12 161.50 54.50Q98 121 98 226L98 700L173 700L173 225Q173 145 216.50 97Q260 49 351 49Q443 49 486.50 97Q530 145 530 225L530 700L605 700Z"  horiz-adv-x="704" vert-adv-y="1000"  />

      
      <glyph glyph-name="uni56" unicode="&#x56;" d="M265 0L32 700L111 700L316 64L515 700L593 700L368 0L265 0Z"  horiz-adv-x="625" vert-adv-y="1000"  />

      
      <glyph glyph-name="uni57" unicode="&#x57;" d="M751 700L826 700L697 0L589 0L437 633L286 0L177 0L47 700L124 700L235 62L389 700L487 700L488 700L643 62L751 700Z"  horiz-adv-x="878" vert-adv-y="1000"  />

      
      <glyph glyph-name="uni58" unicode="&#x58;" d="M598 0L513 0L310 321L106 0L22 0L262 374L46 700L131 700L311 427L493 700L575 700L357 378L598 0Z"  horiz-adv-x="620" vert-adv-y="1000"  />

      
      <glyph glyph-name="uni59" unicode="&#x59;" d="M548 700L320 292L320 0L245 0L245 292L16 700L96 700L284 355L471 700L548 700Z"  horiz-adv-x="564" vert-adv-y="1000"  />

      
      <glyph glyph-name="uni5a" unicode="&#x5a;" d="M504 700L504 643L135 62L512 62L512 0L52 0L52 59L421 639L68 639L68 700L504 700Z"  horiz-adv-x="559" vert-adv-y="1000"  />

      
      <glyph glyph-name="uni5b" unicode="&#x5b;" d="M98-200L98 740L301 740L301 679L172 679L172-139L301-139L301-200L98-200Z"  horiz-adv-x="400" vert-adv-y="1000"  />

      
      <glyph glyph-name="uni5c" unicode="&#x5c;" d="M332-160L5 740L69 760L395-140L332-160Z"  horiz-adv-x="400" vert-adv-y="1000"  />

      
      <glyph glyph-name="uni5d" unicode="&#x5d;" d="M302-200L99-200L99-139L228-139L228 679L99 679L99 740L302 740L302-200Z"  horiz-adv-x="400" vert-adv-y="1000"  />

      
      <glyph glyph-name="uni5e" unicode="&#x5e;" d="M336 700L512 396L437 396L299 641L163 396L89 396L265 700L336 700Z"  horiz-adv-x="600" vert-adv-y="1000"  />

      
      <glyph glyph-name="uni5f" unicode="&#x5f;" d="M555-75L555-135L70-135L70-75L555-75Z"  horiz-adv-x="600" vert-adv-y="1000"  />

      
      <glyph glyph-name="uni60" unicode="&#x60;" d="M288 611L92 700L118 753L309 654L288 611Z"  horiz-adv-x="400" vert-adv-y="1000"  />

      
      <glyph glyph-name="uni61" unicode="&#x61;" d="M276 539Q369 539 416 492Q463 445 463 362L463 0L402 0L397 62Q330-12 224-12Q154-12 104 28Q54 68 54 135L54 168Q54 237 111.50 278.50Q169 320 267 320L389 320L389 364Q389 479 271 479Q194 479 112 437L88 487Q176 539 276 539M236 46Q333 46 389 120L389 267L272 267Q203 267 165.50 240Q128 213 128 162L128 140Q128 97 157.50 71.50Q187 46 236 46Z"  horiz-adv-x="556" vert-adv-y="1000"  />

      
      <glyph glyph-name="uni62" unicode="&#x62;" d="M334 539Q425 539 479 471Q533 403 533 291L533 239Q533 132 471.50 60Q410-12 318-12Q231-12 170 52L163 0L103 0L103 740L177 740L177 470Q237 539 334 539M459 237L459 292Q459 382 423.50 430.50Q388 479 323 479Q232 479 177 401L177 110Q230 47 309 47Q376 47 417.50 98.50Q459 150 459 237Z"  horiz-adv-x="597" vert-adv-y="1000"  />

      
      <glyph glyph-name="uni63" unicode="&#x63;" d="M285-12Q179-12 120 58Q61 128 61 242L61 286Q61 399 119.50 469Q178 539 286 539Q382 539 451 473L413 431Q359 479 288 479Q215 479 175 428Q135 377 135 288L135 241Q135 150 174 99Q213 48 286 48Q349 48 412 94L446 46Q374-12 285-12Z"  horiz-adv-x="492" vert-adv-y="1000"  />

      
      <glyph glyph-name="uni64" unicode="&#x64;" d="M422 740L496 740L496 0L436 0L428 67Q368-12 271-12Q177-12 120.50 57Q64 126 64 237L64 288Q64 395 122 467Q180 539 276 539Q364 539 422 480L422 740M281 47Q367 47 422 131L422 415Q373 479 286 479Q216 479 177 427Q138 375 138 290L138 235Q138 146 176 96.50Q214 47 281 47Z"  horiz-adv-x="599" vert-adv-y="1000"  />

      
      <glyph glyph-name="uni65" unicode="&#x65;" d="M497 241L133 241L133 239Q133 147 178 97Q223 47 304 47Q373 47 448 96L477 48Q400-12 300-12Q190-12 125.50 58.50Q61 129 61 239L61 291Q61 397 122 468Q183 539 285 539Q386 539 443 472.50Q500 406 500 288Q500 259 497 241M394.50 432.50Q394.50 432.50 375.25 456.25Q356 480 285 480Q214 480 174 430.50Q134 381 133 295L433 295L433 302Q433 385 394.50 432.50Z"  horiz-adv-x="557" vert-adv-y="1000"  />

      
      <glyph glyph-name="uni66" unicode="&#x66;" d="M288 693Q195 693 195 605L195 527L339 527L339 469L195 469L195 0L121 0L121 469L48 469L48 527L121 527L121 599Q121 672 162 712Q203 752 280 752Q328 752 366 740L356 684Q320 693 288 693Z"  horiz-adv-x="369" vert-adv-y="1000"  />

      
      <glyph glyph-name="uni67" unicode="&#x67;" d="M431 530L493 530L493-13Q493-106 435.50-159Q378-212 281-212Q177-212 99-164L125-116Q197-153 276-153Q347-153 384.50-117Q422-81 422-10L422 76Q358 0 264 0Q177 0 120.50 60.50Q64 121 64 245L64 292Q64 412 124.50 475.50Q185 539 272 539Q365 539 425 470L431 530M273 59Q362 59 419 142L419 405Q370 479 283 479Q218 479 178 435.50Q138 392 138 294L138 246Q138 59 273 59Z"  horiz-adv-x="597" vert-adv-y="1000"  />

      
      <glyph glyph-name="uni68" unicode="&#x68;" d="M344 539Q420 539 466.50 493Q513 447 513 363L513 0L439 0L439 357Q439 479 328 479Q234 479 177 385L177 0L103 0L103 740L177 740L177 460Q236 539 344 539Z"  horiz-adv-x="606" vert-adv-y="1000"  />

      
      <glyph glyph-name="uni69" unicode="&#x69;" d="M186 644Q186 644 179 637Q172 630 152 630Q132 630 118.50 644Q105 658 105 678Q105 698 118.50 711.50Q132 725 152 725Q172 725 186 711.50Q200 698 200 678Q200 658 186 644M36 527L193 527L193 0L119 0L119 469L36 469L36 527Z"  horiz-adv-x="296" vert-adv-y="1000"  />

      
      <glyph glyph-name="uni6a" unicode="&#x6a;" d="M197 644Q197 644 190 637Q183 630 163 630Q143 630 129.50 644Q116 658 116 678Q116 698 130 711.50Q144 725 163 725Q183 725 197 711.50Q211 698 211 678Q211 658 197 644M202 527L202-102Q202-155 172.50-183.50Q143-212 91-212Q55-212 31-200L38-149Q60-155 76-155Q104-155 116-142Q128-129 128-98L128 469L53 469L53 527L202 527Z"  horiz-adv-x="305" vert-adv-y="1000"  />

      
      <glyph glyph-name="uni6b" unicode="&#x6b;" d="M441 0L246 271L177 196L177 0L103 0L103 740L177 740L177 285L402 527L489 527L295 319L526 0L441 0Z"  horiz-adv-x="532" vert-adv-y="1000"  />

      
      <glyph glyph-name="uni6c" unicode="&#x6c;" d="M167 740L167 97Q167 49 209 49Q225 49 240 53L250 0Q221-12 190-12Q145-12 119 13.50Q93 39 93 86L93 740L167 740Z"  horiz-adv-x="298" vert-adv-y="1000"  />

      
      <glyph glyph-name="uni6d" unicode="&#x6d;" d="M630 539Q696 539 741 493.50Q786 448 786 367L786 0L712 0L712 360Q712 421 685 450.50Q658 480 614 480Q535 480 481 386L481 0L407 0L407 366Q407 422 380.50 451Q354 480 310 480Q230 480 177 386L177 0L103 0L103 527L166 527L172 458Q230 539 325 539Q372 539 410 515.50Q448 492 466 448Q528 539 630 539Z"  horiz-adv-x="879" vert-adv-y="1000"  />

      
      <glyph glyph-name="uni6e" unicode="&#x6e;" d="M344 539Q420 539 466.50 493Q513 447 513 363L513 0L439 0L439 357Q439 479 328 479Q235 479 177 386L177 0L103 0L103 527L166 527L172 457Q235 539 344 539Z"  horiz-adv-x="606" vert-adv-y="1000"  />

      
      <glyph glyph-name="uni6f" unicode="&#x6f;" d="M122 470Q122 470 152.50 504.50Q183 539 295 539Q407 539 469 470Q531 401 531 291L531 239Q531 127 469 57.50Q407-12 295-12Q183-12 122 57Q61 126 61 239L61 291Q61 401 122 470M295 479Q217 479 176 429.50Q135 380 135 292L135 240Q135 149 176 98Q217 47 295 47Q372 47 414.50 98Q457 149 457 240L457 292Q457 379 414.50 429Q372 479 295 479Z"  horiz-adv-x="591" vert-adv-y="1000"  />

      
      <glyph glyph-name="uni70" unicode="&#x70;" d="M333 539Q423 539 478 470Q533 401 533 288L533 240Q533 132 472 60Q411-12 317-12Q236-12 177 41L177-200L103-200L103 530L166 530L172 466Q231 539 333 539M459 238L459 290Q459 380 422.50 429.50Q386 479 320 479Q227 479 177 401L177 102Q232 47 307 47Q377 47 418 98.50Q459 150 459 238Z"  horiz-adv-x="597" vert-adv-y="1000"  />

      
      <glyph glyph-name="uni71" unicode="&#x71;" d="M433 527L496 527L496-200L422-200L422 59Q362-12 270-12Q178-12 121 57.50Q64 127 64 238L64 291Q64 397 122 468Q180 539 277 539Q368 539 428 476L433 527M282 47Q364 47 422 125L422 416Q375 479 287 479Q217 479 177.50 427.50Q138 376 138 292L138 236Q138 147 176 97Q214 47 282 47Z"  horiz-adv-x="599" vert-adv-y="1000"  />

      
      <glyph glyph-name="uni72" unicode="&#x72;" d="M317 536Q346 536 375 527L362 457Q349 461 326 461Q216 461 177 333L177 0L103 0L103 527L159 527L171 432Q193 485 232 510.50Q271 536 317 536Z"  horiz-adv-x="398" vert-adv-y="1000"  />

      
      <glyph glyph-name="uni73" unicode="&#x73;" d="M248-12Q130-12 45 56L83 104Q153 47 242 47Q303 47 336.50 68.50Q370 90 370 131L370 139Q370 175 348.50 194.50Q327 214 268 234L198 259Q131 282 100 312Q69 342 69 390L69 407Q69 465 121 502Q173 539 252 539Q363 539 439 475L402 431Q332 479 253 479Q202 479 172.50 460Q143 441 143 408L143 400Q143 370 165 351Q187 332 244 312L314 287Q380 264 412 233.50Q444 203 444 147L444 130Q444 64 388.50 26Q333-12 248-12Z"  horiz-adv-x="507" vert-adv-y="1000"  />

      
      <glyph glyph-name="uni74" unicode="&#x74;" d="M338 55L347 0Q305-12 266-12Q130-12 130 111L130 469L46 469L46 527L132 527L138 652L204 652L204 527L331 527L331 469L204 469L204 114Q204 47 279 47Q306 47 338 55Z"  horiz-adv-x="391" vert-adv-y="1000"  />

      
      <glyph glyph-name="uni75" unicode="&#x75;" d="M428 527L502 527L502 0L439 0L433 74Q363-12 259-12Q187-12 140 31.50Q93 75 93 147L93 527L167 527L167 150Q167 101 195 74Q223 47 273 47Q368 47 428 141L428 527Z"  horiz-adv-x="605" vert-adv-y="1000"  />

      
      <glyph glyph-name="uni76" unicode="&#x76;" d="M503 527L318 0L228 0L43 527L121 527L274 62L428 527L503 527Z"  horiz-adv-x="546" vert-adv-y="1000"  />

      
      <glyph glyph-name="uni77" unicode="&#x77;" d="M657 527L731 527L611 0L513 0L392 462L268 0L172 0L51 527L125 527L224 64L348 527L438 527L562 64L657 527Z"  horiz-adv-x="782" vert-adv-y="1000"  />

      
      <glyph glyph-name="uni78" unicode="&#x78;" d="M492 0L408 0L264 220L117 0L37 0L217 264L44 527L126 527L264 306L265 306L404 527L484 527L311 265L492 0Z"  horiz-adv-x="529" vert-adv-y="1000"  />

      
      <glyph glyph-name="uni79" unicode="&#x79;" d="M141-212Q105-212 81-201L92-150Q118-156 142-156Q178-156 200-136.50Q222-117 239-65L260 0L226 0L43 527L121 527L278 55L423 527L497 527L304-70Q277-152 238.50-182Q200-212 141-212Z"  horiz-adv-x="540" vert-adv-y="1000"  />

      
      <glyph glyph-name="uni7a" unicode="&#x7a;" d="M408 527L408 472L126 60L416 60L416 0L44 0L44 56L326 467L58 467L58 527L408 527Z"  horiz-adv-x="457" vert-adv-y="1000"  />

      
      <glyph glyph-name="uni7b" unicode="&#x7b;" d="M330-212Q244-202 200-167.50Q156-133 156-59L156 152Q156 239 55 240L55 301Q156 302 156 389L156 599Q156 673 200 707.50Q244 742 330 752L339 698Q285 688 258 665Q231 642 231 596L231 387Q231 336 199.50 305.50Q168 275 118 270Q168 265 199.50 234.50Q231 204 231 153L231-56Q231-102 258-125Q285-148 339-158L330-212Z"  horiz-adv-x="400" vert-adv-y="1000"  />

      
      <glyph glyph-name="uni7c" unicode="&#x7c;" d="M163-80L163 740L237 740L237-80L163-80Z"  horiz-adv-x="400" vert-adv-y="1000"  />

      
      <glyph glyph-name="uni7d" unicode="&#x7d;" d="M87-212L77-158Q132-149 158.50-125.50Q185-102 185-56L185 153Q185 204 216.50 234.50Q248 265 298 270Q248 275 216.50 305.50Q185 336 185 387L185 596Q185 642 158.50 665.50Q132 689 77 698L87 752Q172 742 216 707.50Q260 673 260 599L260 389Q260 302 362 301L362 240Q260 239 260 152L260-59Q260-133 216-167.50Q172-202 87-212Z"  horiz-adv-x="400" vert-adv-y="1000"  />

      
      <glyph glyph-name="uni7e" unicode="&#x7e;" d="M378 281Q339 281 292.50 312Q246 343 224 343Q182 343 150 291L105 312Q148 394 225 394Q262 394 309 364Q356 334 379 334Q424 334 451 381L495 359Q455 281 378 281Z"  horiz-adv-x="600" vert-adv-y="1000"  />

      
      <glyph glyph-name="unia1" unicode="&#xa1;" d="M141 508Q162 508 177.50 493Q193 478 193 457Q193 435 177.50 420Q162 405 141 405Q119 405 104 420Q89 435 89 457Q89 479 104 493.50Q119 508 141 508M181-200L99-200L111 279L171 279L181-200Z"  horiz-adv-x="282" vert-adv-y="1000"  />

      
      <glyph glyph-name="unia2" unicode="&#xa2;" d="M446 94L479 46Q419-2 343-11L343-110L278-110L278-9Q190 4 142 72Q94 140 94 242L94 286Q94 387 141.50 454.50Q189 522 278 536L278 639L343 639L343 538Q423 531 485 473L447 431Q393 479 322 479Q248 479 208 428Q168 377 168 288L168 241Q168 150 207.50 99Q247 48 320 48Q382 48 446 94Z"  horiz-adv-x="583" vert-adv-y="1000"  />

      
      <glyph glyph-name="unia3" unicode="&#xa3;" d="M232 261Q232 169 160 62L524 62L524 0L88 0L88 62Q159 160 159 257Q159 285 152 320L93 320L93 363L140 363Q137 373 129.50 395.50Q122 418 119 429.50Q116 441 112.50 458Q109 475 109 489L109 521Q109 594 169.50 653Q230 712 329 712Q435 712 532 635L496 588Q449 623 412.50 637Q376 651 332 651Q263 651 224 609.50Q185 568 185 519L185 490Q185 474 188.50 456Q192 438 195 427Q198 416 205.50 394Q213 372 216 363L468 363L468 320L227 320Q232 290 232 261Z"  horiz-adv-x="589" vert-adv-y="1000"  />

      
      <glyph glyph-name="unia4" unicode="&#xa4;" d="M501 341Q501 268 457 215L533 141L493 102L416 177Q366 144 298 144Q233 144 183 179L107 102L67 141L143 217Q100 270 100 341Q100 411 142 462L67 540L107 579L182 501Q234 537 298 537Q366 537 417 502L493 579L533 540L459 464Q501 409 501 341M300 202Q359 202 396 239.50Q433 277 433 341Q433 404 396.50 442.50Q360 481 300 481Q241 481 204 442.50Q167 404 167 341Q167 277 204.50 239.50Q242 202 300 202Z"  horiz-adv-x="600" vert-adv-y="1000"  />

      
      <glyph glyph-name="unia5" unicode="&#xa5;" d="M536 700L334 322L470 322L470 279L318 279L318 192L470 192L470 149L318 149L318 0L247 0L247 149L95 149L95 192L247 192L247 279L95 279L95 322L230 322L28 700L107 700L284 353L460 700L536 700Z"  horiz-adv-x="564" vert-adv-y="1000"  />

      
      <glyph glyph-name="unia6" unicode="&#xa6;" d="M163 420L163 740L237 740L237 420L163 420M163-80L163 240L237 240L237-80L163-80Z"  horiz-adv-x="400" vert-adv-y="1000"  />

      
      <glyph glyph-name="unia7" unicode="&#xa7;" d="M498 343Q498 247 394 209Q476 170 476 97L476 79Q476 21 424.50-15.50Q373-52 293-52Q183-52 107 12L142 56Q212 6 292 6Q343 6 372.50 25.50Q402 45 402 78L402 87Q402 117 380 136Q358 155 301 176L231 200Q166 223 134 253.50Q102 284 102 339L102 357Q102 453 206 491Q124 530 124 603L124 621Q124 679 175.50 715.50Q227 752 307 752Q417 752 493 688L457 645Q388 694 308 694Q257 694 227.50 674.50Q198 655 198 622L198 613Q198 583 220 564Q242 545 299 524L369 500Q434 477 466 446.50Q498 416 498 361L498 343M427 337L427 352Q427 388 405 408Q383 428 325 448L275 465Q227 456 200 427Q173 398 173 363L173 348Q173 312 195 292Q217 272 275 252L325 235Q372 244 399.50 273.50Q427 303 427 337Z"  horiz-adv-x="600" vert-adv-y="1000"  />

      
      <glyph glyph-name="unia8" unicode="&#xa8;" d="M91 630Q72 630 60 642.50Q48 655 48 673Q48 691 60 703.50Q72 716 91 716Q109 716 121.50 703.50Q134 691 134 673Q134 655 121.50 642.50Q109 630 91 630M308 630Q290 630 277.50 642.50Q265 655 265 673Q265 691 277.50 703.50Q290 716 308 716Q327 716 339 703.50Q351 691 351 673Q351 655 339 642.50Q327 630 308 630Z"  horiz-adv-x="400" vert-adv-y="1000"  />

      
      <glyph glyph-name="unia9" unicode="&#xa9;" d="M459-12Q306-12 204 76.50Q102 165 102 301L102 409Q102 533 206.50 622.50Q311 712 461 712Q619 712 718.50 623.50Q818 535 818 409L818 301Q818 162 719.50 75Q621-12 459-12M460 34Q600 34 683 107.50Q766 181 766 300L766 410Q766 517 681.50 591.50Q597 666 460 666Q332 666 243.50 590.50Q155 515 155 410L155 300Q155 182 241.50 108Q328 34 460 34M461 133Q387 133 345.50 175.50Q304 218 304 289L304 400Q304 477 346.50 522Q389 567 464 567Q533 567 583 522L554 483Q514 518 466 518Q418 518 389.50 486.50Q361 455 361 402L361 291Q361 241 387.50 212Q414 183 463 183Q516 183 554 214L579 174Q528 133 461 133Z"  horiz-adv-x="920" vert-adv-y="1000"  />

      
      <glyph glyph-name="uniaa" unicode="&#xaa;" d="M234 712Q313 712 351.50 675.50Q390 639 390 574L390 305L336 305L329 353Q272 294 190 294Q131 294 91 325Q51 356 51 407L51 431Q51 485 97.50 517Q144 549 222 549L321 549L321 578Q321 661 227 661Q163 661 99 629L78 672Q148 712 234 712M205 345Q279 345 321 398L321 505L231 505Q178 505 149 485.50Q120 466 120 429L120 413Q120 381 143 363Q166 345 205 345Z"  horiz-adv-x="441" vert-adv-y="1000"  />

      
      <glyph glyph-name="uniab" unicode="&#xab;" d="M469 52L305 269L305 305L467 519L509 492L373 287L510 79L469 52M262 52L97 269L97 305L260 519L301 492L165 287L303 79L262 52Z"  horiz-adv-x="598" vert-adv-y="1000"  />

      
      <glyph glyph-name="uniac" unicode="&#xac;" d="M118 373L482 373L482 312L482 160L421 160L421 312L118 312L118 373Z"  horiz-adv-x="600" vert-adv-y="1000"  />

      
      <glyph glyph-name="uniad" unicode="&#xad;" d="M361 373L361 312L74 312L74 373L361 373Z"  horiz-adv-x="435" vert-adv-y="1000"  />

      
      <glyph glyph-name="uniae" unicode="&#xae;" d="M461 712Q619 712 718.50 623.50Q818 535 818 409L818 301Q818 162 719.50 75Q621-12 459-12Q306-12 204 76.50Q102 165 102 301L102 409Q102 533 206.50 622.50Q311 712 461 712M766 300L766 410Q766 517 681.50 591.50Q597 666 460 666Q332 666 243.50 590.50Q155 515 155 410L155 300Q155 182 241.50 108Q328 34 460 34Q600 34 683 107.50Q766 181 766 300M607 427Q607 351 529 324L626 140L563 140L474 314L457 314L397 314L397 140L341 140L341 560L397 560L463 560Q528 560 567.50 529.50Q607 499 607 450L607 427M455 360Q499 360 525 377.50Q551 395 551 429L551 448Q551 480 526 497Q501 514 461 514L397 514L397 360L455 360Z"  horiz-adv-x="920" vert-adv-y="1000"  />

      
      <glyph glyph-name="uniaf" unicode="&#xaf;" d="M76 641L76 692L324 692L324 641L76 641Z"  horiz-adv-x="400" vert-adv-y="1000"  />

      
      <glyph glyph-name="unib0" unicode="&#xb0;" d="M219 397Q157 397 113.50 439.50Q70 482 70 555Q70 626 113.50 669Q157 712 219 712Q286 712 328 669.50Q370 627 370 554Q370 481 328 439Q286 397 219 397M219 450Q263 450 285.50 478Q308 506 308 554Q308 659 219 659Q178 659 155 631Q132 603 132 555Q132 507 155 478.50Q178 450 219 450Z"  horiz-adv-x="545" vert-adv-y="1000"  />

      
      <glyph glyph-name="unib1" unicode="&#xb1;" d="M332 373L482 373L482 312L332 312L332 160L268 160L268 312L118 312L118 373L268 373L268 524L332 524L332 373M118 0L118 60L482 60L482 0L118 0Z"  horiz-adv-x="600" vert-adv-y="1000"  />

      
      <glyph glyph-name="unib2" unicode="&#xb2;" d="M84 415L84 454Q84 520 109.50 562Q135 604 189 639L273 696Q321 728 337.50 747.50Q354 767 354 797L354 815Q354 849 324.50 871.50Q295 894 244 894Q169 894 102 845L70 889Q151 950 249 950Q329 950 377 912Q425 874 425 818L425 795Q425 754 399 722.50Q373 691 311 650L236 600Q189 569 171.50 541.50Q154 514 153 472L428 472L428 415L84 415Z"  horiz-adv-x="500" vert-adv-y="1000"  />

      
      <glyph glyph-name="unib3" unicode="&#xb3;" d="M248 404Q128 404 53 485L94 522Q157 459 244 459Q302 459 339 485Q376 511 376 557L376 579Q376 624 337 646.50Q298 669 247 669L196 669L196 720L247 720Q294 720 324.50 739Q355 758 355 796L355 814Q355 855 323.50 876Q292 897 243 897Q165 897 98 838L61 876Q143 951 250 951Q324 951 375 915Q426 879 426 823L426 797Q426 760 395 732Q364 704 324 698Q368 693 407 661.50Q446 630 446 582L446 551Q446 488 389.50 446Q333 404 248 404Z"  horiz-adv-x="500" vert-adv-y="1000"  />

      
      <glyph glyph-name="unib4" unicode="&#xb4;" d="M112 611L91 654L282 753L309 700L112 611Z"  horiz-adv-x="400" vert-adv-y="1000"  />

      
      <glyph glyph-name="unib5" unicode="&#xb5;" d="M438 527L512 527L512 0L449 0L443 74Q375-12 283-12Q223-12 177 27L177-200L103-200L103 527L177 527L177 150Q177 102 205.50 74.50Q234 47 283 47Q378 47 438 141L438 527Z"  horiz-adv-x="615" vert-adv-y="1000"  />

      
      <glyph glyph-name="unib6" unicode="&#xb6;" d="M338 699L563 700L563-200L505-200L505 649L381 648L381-200L322-200L322 305Q211 309 156.50 362.50Q102 416 102 502Q102 595 165.50 647Q229 699 338 699Z"  horiz-adv-x="718" vert-adv-y="1000"  />

      
      <glyph glyph-name="unib7" unicode="&#xb7;" d="M162.50 294Q162.50 294 155.25 286.50Q148 279 126 279Q104 279 89 294Q74 309 74 331Q74 352 89.50 367Q105 382 126 382Q148 382 162.50 367Q177 352 177 331Q177 309 162.50 294Z"  horiz-adv-x="251" vert-adv-y="1000"  />

      
      <glyph glyph-name="unib8" unicode="&#xb8;" d="M187-229Q148-229 113-215L123-176Q158-185 185-185Q239-185 239-148L239-140Q239-117 219.50-109Q200-101 150-100L155 8L204 8L202-64Q294-70 294-140L294-152Q294-191 263-210Q232-229 187-229Z"  horiz-adv-x="400" vert-adv-y="1000"  />

      
      <glyph glyph-name="unib9" unicode="&#xb9;" d="M96 415L96 469L230 469L230 863L110 802L85 848L249 940L301 940L301 469L416 469L416 415L96 415Z"  horiz-adv-x="500" vert-adv-y="1000"  />

      
      <glyph glyph-name="uniba" unicode="&#xba;" d="M358 341.50Q358 341.50 334.50 315.25Q311 289 220 289Q129 289 82.50 341.50Q36 394 36 482L36 518Q36 604 83 655.50Q130 707 220 707Q311 707 358 655.50Q405 604 405 518L405 482Q405 394 358 341.50M220 343Q335 343 335 482L335 519Q335 656 220 656Q106 656 106 519L106 482Q106 343 220 343Z"  horiz-adv-x="441" vert-adv-y="1000"  />

      
      <glyph glyph-name="unibb" unicode="&#xbb;" d="M138 52L97 79L235 287L99 492L140 519L303 305L303 269L138 52M346 52L305 79L442 287L306 492L348 519L510 305L510 269L346 52Z"  horiz-adv-x="598" vert-adv-y="1000"  />

      
      <glyph glyph-name="unibc" unicode="&#xbc;" d="M476-10L417 11L723 751L781 730L476-10M96 215L96 269L230 269L230 663L110 602L85 648L249 740L301 740L301 269L416 269L416 215L96 215M1005 0L1005 113L747 113L747 157L946 525L1015 525L823 169L1006 169L1020 316L1075 317L1075 169L1148 169L1148 113L1075 113L1075 0L1005 0Z"  horiz-adv-x="1198" vert-adv-y="1000"  />

      
      <glyph glyph-name="unibd" unicode="&#xbd;" d="M476-10L417 11L723 751L781 730L476-10M96 215L96 269L230 269L230 663L110 602L85 648L249 740L301 740L301 269L416 269L416 215L96 215M782 0L782 39Q782 105 807.50 147Q833 189 887 224L971 281Q1019 313 1035.50 332.50Q1052 352 1052 382L1052 400Q1052 434 1022.50 456.50Q993 479 942 479Q867 479 800 430L768 474Q849 535 947 535Q1027 535 1075 497Q1123 459 1123 403L1123 380Q1123 339 1097 307.50Q1071 276 1009 235L934 185Q887 154 869.50 126.50Q852 99 851 57L1126 57L1126 0L782 0Z"  horiz-adv-x="1198" vert-adv-y="1000"  />

      
      <glyph glyph-name="unibe" unicode="&#xbe;" d="M248 204Q128 204 53 285L94 322Q157 259 244 259Q302 259 339 285Q376 311 376 357L376 379Q376 424 337 446.50Q298 469 247 469L196 469L196 520L247 520Q294 520 324.50 539Q355 558 355 596L355 614Q355 655 323.50 676Q292 697 243 697Q165 697 98 638L61 676Q143 751 250 751Q324 751 375 715Q426 679 426 623L426 597Q426 560 395 532Q364 504 324 498Q368 493 407 461.50Q446 430 446 382L446 351Q446 288 389.50 246Q333 204 248 204M476-10L417 11L723 751L781 730L476-10M1005 0L1005 113L747 113L747 157L946 525L1015 525L823 169L1006 169L1020 316L1075 317L1075 169L1148 169L1148 113L1075 113L1075 0L1005 0Z"  horiz-adv-x="1198" vert-adv-y="1000"  />

      
      <glyph glyph-name="unibf" unicode="&#xbf;" d="M227.50 493.50Q227.50 493.50 234.75 500.75Q242 508 264 508Q286 508 301 493.50Q316 479 316 457Q316 435 300.50 420Q285 405 264 405Q242 405 227.50 420Q213 435 213 457Q213 479 227.50 493.50M301 279L301 245Q301 204 281.50 171Q262 138 234.50 116.50Q207 95 179.50 76Q152 57 132.50 32.50Q113 8 113-20L113-47Q113-93 147.50-122Q182-151 239-151Q287-151 324.50-136Q362-121 408-86L445-132Q347-212 233-212Q145-212 91-166Q37-120 37-51L37-22Q37 17 57 47.50Q77 78 105 98Q133 118 161 137.50Q189 157 209 184.50Q229 212 229 247L229 279L301 279Z"  horiz-adv-x="471" vert-adv-y="1000"  />

      
      <glyph glyph-name="unic0" unicode="&#xc0;" d="M423 793L404 749L207 834L231 887L423 793M522 0L450 216L177 216L109 0L32 0L261 700L364 700L600 0L522 0M312 645L197 278L430 278L312 645Z"  horiz-adv-x="632" vert-adv-y="1000"  />

      
      <glyph glyph-name="unic1" unicode="&#xc1;" d="M423 834L226 749L207 793L399 887L423 834M522 0L450 216L177 216L109 0L32 0L261 700L364 700L600 0L522 0M312 645L197 278L430 278L312 645Z"  horiz-adv-x="632" vert-adv-y="1000"  />

      
      <glyph glyph-name="unic2" unicode="&#xc2;" d="M314 834L194 746L166 783L292 887L337 887L463 783L435 746L314 834M522 0L450 216L177 216L109 0L32 0L261 700L364 700L600 0L522 0M312 645L197 278L430 278L312 645Z"  horiz-adv-x="632" vert-adv-y="1000"  />

      
      <glyph glyph-name="unic3" unicode="&#xc3;" d="M257 808Q229 808 201 766L158 788Q197 858 257 858Q284 858 320 834Q356 810 372 810Q402 810 428 853L472 831Q435 761 372 761Q344 761 308 784.50Q272 808 257 808M522 0L450 216L177 216L109 0L32 0L261 700L364 700L600 0L522 0M312 645L197 278L430 278L312 645Z"  horiz-adv-x="632" vert-adv-y="1000"  />

      
      <glyph glyph-name="unic4" unicode="&#xc4;" d="M207 783Q188 783 175.50 795.50Q163 808 163 826Q163 844 175.50 856.50Q188 869 207 869Q225 869 237 856.50Q249 844 249 826Q249 808 237 795.50Q225 783 207 783M423 783Q405 783 393 795.50Q381 808 381 826Q381 844 393 856.50Q405 869 423 869Q442 869 454.50 856.50Q467 844 467 826Q467 808 454.50 795.50Q442 783 423 783M522 0L450 216L177 216L109 0L32 0L261 700L364 700L600 0L522 0M312 645L197 278L430 278L312 645Z"  horiz-adv-x="632" vert-adv-y="1000"  />

      
      <glyph glyph-name="unic5" unicode="&#xc5;" d="M390.50 756Q390.50 756 374.75 742.50Q359 729 315 729Q271 729 240 756Q209 783 209 823L209 838Q209 878 240 905.50Q271 933 315 933Q359 933 390.50 905.50Q422 878 422 838L422 823Q422 783 390.50 756M257 837L257 824Q257 800 273.50 785.50Q290 771 315 771Q340 771 357 785.50Q374 800 374 824L374 837Q374 861 357 876.50Q340 892 315 892Q291 892 274 876.50Q257 861 257 837M522 0L450 216L177 216L109 0L32 0L261 700L364 700L600 0L522 0M312 645L197 278L430 278L312 645Z"  horiz-adv-x="632" vert-adv-y="1000"  />

      
      <glyph glyph-name="unic6" unicode="&#xc6;" d="M584 62L904 62L904 0L554 0L522 0L466 216L190 216L109 0L32 0L309 700L412 700L866 700L866 640L428 640L495 390L838 390L838 330L512 330L584 62M357 643L215 278L450 278L357 643Z"  horiz-adv-x="968" vert-adv-y="1000"  />

      
      <glyph glyph-name="unic7" unicode="&#xc7;" d="M537 57Q458-7 355-12L354-64Q446-70 446-140L446-152Q446-191 415-210Q384-229 339-229Q301-229 264-215L275-176Q308-185 337-185Q391-185 391-148L391-140Q391-117 371.50-109Q352-101 302-100L306-10Q199 0 140 69.50Q81 139 81 249L81 434Q81 561 151.50 636.50Q222 712 345 712Q458 712 544 637L504 592Q432 651 347 651Q256 651 206 594Q156 537 156 436L156 251Q156 155 203.50 102Q251 49 341 49Q431 49 504 105L537 57Z"  horiz-adv-x="580" vert-adv-y="1000"  />

      
      <glyph glyph-name="unic8" unicode="&#xc8;" d="M424 793L405 749L208 834L232 887L424 793M502 639L198 639L198 391L480 391L480 329L198 329L198 61L502 61L502 0L125 0L123 0L123 700L198 700L502 700L502 639Z"  horiz-adv-x="582" vert-adv-y="1000"  />

      
      <glyph glyph-name="unic9" unicode="&#xc9;" d="M424 834L227 749L208 793L400 887L424 834M502 639L198 639L198 391L480 391L480 329L198 329L198 61L502 61L502 0L125 0L123 0L123 700L198 700L502 700L502 639Z"  horiz-adv-x="582" vert-adv-y="1000"  />

      
      <glyph glyph-name="unica" unicode="&#xca;" d="M316 834L196 746L168 783L294 887L339 887L465 783L437 746L316 834M502 639L198 639L198 391L480 391L480 329L198 329L198 61L502 61L502 0L125 0L123 0L123 700L198 700L502 700L502 639Z"  horiz-adv-x="582" vert-adv-y="1000"  />

      
      <glyph glyph-name="unicb" unicode="&#xcb;" d="M208 783Q189 783 176.50 795.50Q164 808 164 826Q164 844 176.50 856.50Q189 869 208 869Q226 869 238 856.50Q250 844 250 826Q250 808 238 795.50Q226 783 208 783M424 783Q406 783 394 795.50Q382 808 382 826Q382 844 394 856.50Q406 869 424 869Q443 869 455.50 856.50Q468 844 468 826Q468 808 455.50 795.50Q443 783 424 783M502 639L198 639L198 391L480 391L480 329L198 329L198 61L502 61L502 0L125 0L123 0L123 700L198 700L502 700L502 639Z"  horiz-adv-x="582" vert-adv-y="1000"  />

      
      <glyph glyph-name="unicc" unicode="&#xcc;" d="M312 793L293 749L96 834L120 887L312 793M326 639L242 639L242 61L326 61L326 0L167 0L84 0L84 61L167 61L167 639L84 639L84 700L242 700L326 700L326 639Z"  horiz-adv-x="409" vert-adv-y="1000"  />

      
      <glyph glyph-name="unicd" unicode="&#xcd;" d="M312 834L115 749L96 793L288 887L312 834M326 639L242 639L242 61L326 61L326 0L167 0L84 0L84 61L167 61L167 639L84 639L84 700L242 700L326 700L326 639Z"  horiz-adv-x="409" vert-adv-y="1000"  />

      
      <glyph glyph-name="unice" unicode="&#xce;" d="M204 834L84 746L56 783L182 887L227 887L353 783L325 746L204 834M326 700L326 639L242 639L242 61L326 61L326 0L167 0L84 0L84 61L167 61L167 639L84 639L84 700L326 700Z"  horiz-adv-x="409" vert-adv-y="1000"  />

      
      <glyph glyph-name="unicf" unicode="&#xcf;" d="M127 856.50Q127 856.50 133 850.25Q139 844 139 826Q139 808 127 795.50Q115 783 97 783Q78 783 65.50 795.50Q53 808 53 826Q53 844 65.50 856.50Q78 869 97 869Q115 869 127 856.50M313 869Q332 869 344.50 856.50Q357 844 357 826Q357 808 344.50 795.50Q332 783 313 783Q295 783 283 795.50Q271 808 271 826Q271 844 283 856.50Q295 869 313 869M326 700L326 639L242 639L242 61L326 61L326 0L167 0L84 0L84 61L167 61L167 639L84 639L84 700L326 700Z"  horiz-adv-x="409" vert-adv-y="1000"  />

      
      <glyph glyph-name="unid0" unicode="&#xd0;" d="M322 700Q460 700 532.50 624.50Q605 549 605 420L605 298Q605 159 525 79.50Q445 0 297 0L169 0L123 0L123 324L75 324L75 375L123 375L123 700L198 700L322 700M530 296L530 422Q530 524 476 581.50Q422 639 318 639L198 639L198 375L365 375L365 324L198 324L198 61L297 61Q412 61 471 121Q530 181 530 296Z"  horiz-adv-x="685" vert-adv-y="1000"  />

      
      <glyph glyph-name="unid1" unicode="&#xd1;" d="M322 808Q294 808 266 766L223 788Q262 858 322 858Q349 858 385 834Q421 810 437 810Q467 810 493 853L537 831Q500 761 437 761Q410 761 374 784.50Q338 808 322 808M550 700L618 700L618 0L528 0L191 606L191 0L123 0L123 700L214 700L550 95L550 700Z"  horiz-adv-x="741" vert-adv-y="1000"  />

      
      <glyph glyph-name="unid2" unicode="&#xd2;" d="M441 749L244 834L268 887L460 793L441 749M353 712Q489 712 557 633Q625 554 625 425L625 271Q625 146 556.50 67Q488-12 353-12Q218-12 149.50 67Q81 146 81 271L81 425Q81 555 149.50 633.50Q218 712 353 712M353 651Q254 651 205 590Q156 529 156 426L156 269Q156 171 205 110Q254 49 353 49Q452 49 501 110Q550 171 550 269L550 426Q550 528 501.50 589.50Q453 651 353 651Z"  horiz-adv-x="706" vert-adv-y="1000"  />

      
      <glyph glyph-name="unid3" unicode="&#xd3;" d="M263 749L244 793L436 887L460 834L263 749M353 712Q489 712 557 633Q625 554 625 425L625 271Q625 146 556.50 67Q488-12 353-12Q218-12 149.50 67Q81 146 81 271L81 425Q81 555 149.50 633.50Q218 712 353 712M353 651Q254 651 205 590Q156 529 156 426L156 269Q156 171 205 110Q254 49 353 49Q452 49 501 110Q550 171 550 269L550 426Q550 528 501.50 589.50Q453 651 353 651Z"  horiz-adv-x="706" vert-adv-y="1000"  />

      
      <glyph glyph-name="unid4" unicode="&#xd4;" d="M232 746L204 783L330 887L375 887L501 783L473 746L352 834L232 746M353 712Q489 712 557 633Q625 554 625 425L625 271Q625 146 556.50 67Q488-12 353-12Q218-12 149.50 67Q81 146 81 271L81 425Q81 555 149.50 633.50Q218 712 353 712M353 651Q254 651 205 590Q156 529 156 426L156 269Q156 171 205 110Q254 49 353 49Q452 49 501 110Q550 171 550 269L550 426Q550 528 501.50 589.50Q453 651 353 651Z"  horiz-adv-x="706" vert-adv-y="1000"  />

      
      <glyph glyph-name="unid5" unicode="&#xd5;" d="M410 761Q382 761 346 784.50Q310 808 295 808Q267 808 239 766L196 788Q235 858 295 858Q322 858 358 834Q394 810 410 810Q440 810 466 853L510 831Q473 761 410 761M353 712Q489 712 557 633Q625 554 625 425L625 271Q625 146 556.50 67Q488-12 353-12Q218-12 149.50 67Q81 146 81 271L81 425Q81 555 149.50 633.50Q218 712 353 712M353 651Q254 651 205 590Q156 529 156 426L156 269Q156 171 205 110Q254 49 353 49Q452 49 501 110Q550 171 550 269L550 426Q550 528 501.50 589.50Q453 651 353 651Z"  horiz-adv-x="706" vert-adv-y="1000"  />

      
      <glyph glyph-name="unid6" unicode="&#xd6;" d="M245 783Q226 783 213.50 795.50Q201 808 201 826Q201 844 213.50 856.50Q226 869 245 869Q263 869 275 856.50Q287 844 287 826Q287 808 275 795.50Q263 783 245 783M461 783Q443 783 431 795.50Q419 808 419 826Q419 844 431 856.50Q443 869 461 869Q480 869 492.50 856.50Q505 844 505 826Q505 808 492.50 795.50Q480 783 461 783M353 712Q489 712 557 633Q625 554 625 425L625 271Q625 146 556.50 67Q488-12 353-12Q218-12 149.50 67Q81 146 81 271L81 425Q81 555 149.50 633.50Q218 712 353 712M353 651Q254 651 205 590Q156 529 156 426L156 269Q156 171 205 110Q254 49 353 49Q452 49 501 110Q550 171 550 269L550 426Q550 528 501.50 589.50Q453 651 353 651Z"  horiz-adv-x="706" vert-adv-y="1000"  />

      
      <glyph glyph-name="unid7" unicode="&#xd7;" d="M461 461L343 342L461 224L419 181L300 300L182 181L139 224L258 342L139 461L182 503L300 385L419 503L461 461Z"  horiz-adv-x="600" vert-adv-y="1000"  />

      
      <glyph glyph-name="unid8" unicode="&#xd8;" d="M548 642Q625 566 625 425L625 271Q625 146 556.50 67Q488-12 353-12Q269-12 210 20L166-61L112-33L161 55Q81 131 81 271L81 425Q81 555 149.50 633.50Q218 712 353 712Q438 712 500 678L546 761L600 733L548 642M156 269Q156 172 201 115L472 617Q426 651 353 651Q254 651 205 590Q156 529 156 426L156 269M550 269L550 426Q550 524 508 582L238 80Q283 49 353 49Q452 49 501 110Q550 171 550 269Z"  horiz-adv-x="706" vert-adv-y="1000"  />

      
      <glyph glyph-name="unid9" unicode="&#xd9;" d="M440 749L243 834L267 887L459 793L440 749M605 700L605 226Q605 121 541.50 54.50Q478-12 351-12Q225-12 161.50 54.50Q98 121 98 226L98 700L173 700L173 225Q173 145 216.50 97Q260 49 351 49Q443 49 486.50 97Q530 145 530 225L530 700L605 700Z"  horiz-adv-x="704" vert-adv-y="1000"  />

      
      <glyph glyph-name="unida" unicode="&#xda;" d="M262 749L243 793L435 887L459 834L262 749M605 700L605 226Q605 121 541.50 54.50Q478-12 351-12Q225-12 161.50 54.50Q98 121 98 226L98 700L173 700L173 225Q173 145 216.50 97Q260 49 351 49Q443 49 486.50 97Q530 145 530 225L530 700L605 700Z"  horiz-adv-x="704" vert-adv-y="1000"  />

      
      <glyph glyph-name="unidb" unicode="&#xdb;" d="M231 746L203 783L329 887L374 887L500 783L472 746L351 834L231 746M605 700L605 226Q605 121 541.50 54.50Q478-12 351-12Q225-12 161.50 54.50Q98 121 98 226L98 700L173 700L173 225Q173 145 216.50 97Q260 49 351 49Q443 49 486.50 97Q530 145 530 225L530 700L605 700Z"  horiz-adv-x="704" vert-adv-y="1000"  />

      
      <glyph glyph-name="unidc" unicode="&#xdc;" d="M243 783Q224 783 211.50 795.50Q199 808 199 826Q199 844 211.50 856.50Q224 869 243 869Q261 869 273 856.50Q285 844 285 826Q285 808 273 795.50Q261 783 243 783M459 783Q441 783 429 795.50Q417 808 417 826Q417 844 429 856.50Q441 869 459 869Q478 869 490.50 856.50Q503 844 503 826Q503 808 490.50 795.50Q478 783 459 783M605 700L605 226Q605 121 541.50 54.50Q478-12 351-12Q225-12 161.50 54.50Q98 121 98 226L98 700L173 700L173 225Q173 145 216.50 97Q260 49 351 49Q443 49 486.50 97Q530 145 530 225L530 700L605 700Z"  horiz-adv-x="704" vert-adv-y="1000"  />

      
      <glyph glyph-name="unidd" unicode="&#xdd;" d="M390 834L193 749L174 793L366 887L390 834M548 700L320 292L320 0L245 0L245 292L16 700L96 700L284 355L471 700L548 700Z"  horiz-adv-x="564" vert-adv-y="1000"  />

      
      <glyph glyph-name="unide" unicode="&#xde;" d="M326 574Q436 574 500.50 522.50Q565 471 565 379L565 325Q565 232 497 179.50Q429 127 309 127L198 127L198 0L123 0L123 700L198 700L198 574L326 574M490 328L490 376Q490 443 445.50 478Q401 513 324 513L198 513L198 189L307 189Q490 189 490 328Z"  horiz-adv-x="620" vert-adv-y="1000"  />

      
      <glyph glyph-name="unidf" unicode="&#xdf;" d="M376-12Q298-12 236 24L260 76Q313 47 375 47Q434 47 468.50 74Q503 101 503 150L503 178Q503 221 481.50 244.50Q460 268 403 292Q322 326 295 350Q268 374 268 419L268 443Q268 481 301.50 507Q335 533 439 572Q437 628 401 660.50Q365 693 305 693Q242 693 204.50 657Q167 621 167 551L167 0L93 0L93 545Q93 639 150.50 695.50Q208 752 304 752Q398 752 454 696.50Q510 641 510 539Q402 499 369.50 481Q337 463 337 443L337 422Q337 405 360.50 389Q384 373 450 343Q516 313 546.50 280.50Q577 248 577 187L577 149Q577 75 520 31.50Q463-12 376-12Z"  horiz-adv-x="628" vert-adv-y="1000"  />

      
      <glyph glyph-name="unie0" unicode="&#xe0;" d="M386 654L365 611L169 700L195 753L386 654M276 539Q369 539 416 492Q463 445 463 362L463 0L402 0L397 62Q330-12 224-12Q154-12 104 28Q54 68 54 135L54 168Q54 237 111.50 278.50Q169 320 267 320L389 320L389 364Q389 479 271 479Q194 479 112 437L88 487Q176 539 276 539M236 46Q333 46 389 120L389 267L272 267Q203 267 165.50 240Q128 213 128 162L128 140Q128 97 157.50 71.50Q187 46 236 46Z"  horiz-adv-x="556" vert-adv-y="1000"  />

      
      <glyph glyph-name="unie1" unicode="&#xe1;" d="M386 700L189 611L168 654L358 753L386 700M276 539Q369 539 416 492Q463 445 463 362L463 0L402 0L397 62Q330-12 224-12Q154-12 104 28Q54 68 54 135L54 168Q54 237 111.50 278.50Q169 320 267 320L389 320L389 364Q389 479 271 479Q194 479 112 437L88 487Q176 539 276 539M236 46Q333 46 389 120L389 267L272 267Q203 267 165.50 240Q128 213 128 162L128 140Q128 97 157.50 71.50Q187 46 236 46Z"  horiz-adv-x="556" vert-adv-y="1000"  />

      
      <glyph glyph-name="unie2" unicode="&#xe2;" d="M277 691L157 603L129 640L255 744L300 744L426 640L398 603L277 691M276 539Q369 539 416 492Q463 445 463 362L463 0L402 0L397 62Q330-12 224-12Q154-12 104 28Q54 68 54 135L54 168Q54 237 111.50 278.50Q169 320 267 320L389 320L389 364Q389 479 271 479Q194 479 112 437L88 487Q176 539 276 539M236 46Q333 46 389 120L389 267L272 267Q203 267 165.50 240Q128 213 128 162L128 140Q128 97 157.50 71.50Q187 46 236 46Z"  horiz-adv-x="556" vert-adv-y="1000"  />

      
      <glyph glyph-name="unie3" unicode="&#xe3;" d="M220 682Q192 682 164 640L121 662Q160 732 220 732Q247 732 283 708Q319 684 335 684Q365 684 391 727L435 705Q398 635 335 635Q308 635 272 658.50Q236 682 220 682M276 539Q369 539 416 492Q463 445 463 362L463 0L402 0L397 62Q330-12 224-12Q154-12 104 28Q54 68 54 135L54 168Q54 237 111.50 278.50Q169 320 267 320L389 320L389 364Q389 479 271 479Q194 479 112 437L88 487Q176 539 276 539M236 46Q333 46 389 120L389 267L272 267Q203 267 165.50 240Q128 213 128 162L128 140Q128 97 157.50 71.50Q187 46 236 46Z"  horiz-adv-x="556" vert-adv-y="1000"  />

      
      <glyph glyph-name="unie4" unicode="&#xe4;" d="M169 630Q150 630 137.50 642.50Q125 655 125 673Q125 691 137.50 703.50Q150 716 169 716Q187 716 199 703.50Q211 691 211 673Q211 655 199 642.50Q187 630 169 630M385 630Q367 630 355 642.50Q343 655 343 673Q343 691 355 703.50Q367 716 385 716Q404 716 416.50 703.50Q429 691 429 673Q429 655 416.50 642.50Q404 630 385 630M276 539Q369 539 416 492Q463 445 463 362L463 0L402 0L397 62Q330-12 224-12Q154-12 104 28Q54 68 54 135L54 168Q54 237 111.50 278.50Q169 320 267 320L389 320L389 364Q389 479 271 479Q194 479 112 437L88 487Q176 539 276 539M236 46Q333 46 389 120L389 267L272 267Q203 267 165.50 240Q128 213 128 162L128 140Q128 97 157.50 71.50Q187 46 236 46Z"  horiz-adv-x="556" vert-adv-y="1000"  />

      
      <glyph glyph-name="unie5" unicode="&#xe5;" d="M352.50 630Q352.50 630 336.75 616.50Q321 603 277 603Q233 603 202 630Q171 657 171 697L171 712Q171 752 202 779.50Q233 807 277 807Q321 807 352.50 779.50Q384 752 384 712L384 697Q384 657 352.50 630M219 711L219 698Q219 674 235.50 659.50Q252 645 277 645Q302 645 319 659.50Q336 674 336 698L336 711Q336 735 319 750.50Q302 766 277 766Q253 766 236 750.50Q219 735 219 711M276 539Q369 539 416 492Q463 445 463 362L463 0L402 0L397 62Q330-12 224-12Q154-12 104 28Q54 68 54 135L54 168Q54 237 111.50 278.50Q169 320 267 320L389 320L389 364Q389 479 271 479Q194 479 112 437L88 487Q176 539 276 539M236 46Q333 46 389 120L389 267L272 267Q203 267 165.50 240Q128 213 128 162L128 140Q128 97 157.50 71.50Q187 46 236 46Z"  horiz-adv-x="556" vert-adv-y="1000"  />

      
      <glyph glyph-name="unie6" unicode="&#xe6;" d="M825 255L456 255L456 239Q456 147 503 97Q550 47 632 47Q702 47 776 95L805 48Q726-12 628-12Q489-12 426 95Q350-12 224-12Q154-12 104 28.50Q54 69 54 135L54 168Q54 230 112 269.50Q170 309 267 309L389 309L389 351Q389 419 361 449Q333 479 271 479Q193 479 112 436L88 487Q177 539 276 539Q413 539 433 418Q454 471 502 505Q550 539 613 539Q713 539 770.50 475Q828 411 828 302Q828 274 825 255M613 482Q544 482 502.50 435.50Q461 389 456 309L761 309L761 317Q761 393 722 437.50Q683 482 613 482M236 47Q340 47 402 147Q389 189 389 239L389 255L272 255Q204 255 166 230.50Q128 206 128 162L128 140Q128 97 157 72Q186 47 236 47Z"  horiz-adv-x="885" vert-adv-y="1000"  />

      
      <glyph glyph-name="unie7" unicode="&#xe7;" d="M446 46Q382-6 299-12L298-64Q390-70 390-140L390-152Q390-191 359-210Q328-229 283-229Q245-229 208-215L219-176Q252-185 281-185Q335-185 335-148L335-140Q335-117 315.50-109Q296-101 246-100L250-10Q160 2 110.50 70Q61 138 61 242L61 286Q61 399 119.50 469Q178 539 286 539Q382 539 451 473L413 431Q359 479 288 479Q215 479 175 428Q135 377 135 288L135 241Q135 150 174 99Q213 48 286 48Q349 48 412 94L446 46Z"  horiz-adv-x="492" vert-adv-y="1000"  />

      
      <glyph glyph-name="unie8" unicode="&#xe8;" d="M393 654L372 611L176 700L202 753L393 654M497 241L133 241L133 239Q133 147 178 97Q223 47 304 47Q373 47 448 96L477 48Q400-12 300-12Q190-12 125.50 58.50Q61 129 61 239L61 291Q61 397 122 468Q183 539 285 539Q386 539 443 472.50Q500 406 500 288Q500 259 497 241M394.50 432.50Q394.50 432.50 375.25 456.25Q356 480 285 480Q214 480 174 430.50Q134 381 133 295L433 295L433 302Q433 385 394.50 432.50Z"  horiz-adv-x="557" vert-adv-y="1000"  />

      
      <glyph glyph-name="unie9" unicode="&#xe9;" d="M393 700L196 611L175 654L365 753L393 700M497 241L133 241L133 239Q133 147 178 97Q223 47 304 47Q373 47 448 96L477 48Q400-12 300-12Q190-12 125.50 58.50Q61 129 61 239L61 291Q61 397 122 468Q183 539 285 539Q386 539 443 472.50Q500 406 500 288Q500 259 497 241M394.50 432.50Q394.50 432.50 375.25 456.25Q356 480 285 480Q214 480 174 430.50Q134 381 133 295L433 295L433 302Q433 385 394.50 432.50Z"  horiz-adv-x="557" vert-adv-y="1000"  />

      
      <glyph glyph-name="uniea" unicode="&#xea;" d="M284 691L164 603L136 640L262 744L307 744L433 640L405 603L284 691M497 241L133 241L133 239Q133 147 178 97Q223 47 304 47Q373 47 448 96L477 48Q400-12 300-12Q190-12 125.50 58.50Q61 129 61 239L61 291Q61 397 122 468Q183 539 285 539Q386 539 443 472.50Q500 406 500 288Q500 259 497 241M394.50 432.50Q394.50 432.50 375.25 456.25Q356 480 285 480Q214 480 174 430.50Q134 381 133 295L433 295L433 302Q433 385 394.50 432.50Z"  horiz-adv-x="557" vert-adv-y="1000"  />

      
      <glyph glyph-name="unieb" unicode="&#xeb;" d="M176 630Q157 630 144.50 642.50Q132 655 132 673Q132 691 144.50 703.50Q157 716 176 716Q194 716 206 703.50Q218 691 218 673Q218 655 206 642.50Q194 630 176 630M392 630Q374 630 362 642.50Q350 655 350 673Q350 691 362 703.50Q374 716 392 716Q411 716 423.50 703.50Q436 691 436 673Q436 655 423.50 642.50Q411 630 392 630M497 241L133 241L133 239Q133 147 178 97Q223 47 304 47Q373 47 448 96L477 48Q400-12 300-12Q190-12 125.50 58.50Q61 129 61 239L61 291Q61 397 122 468Q183 539 285 539Q386 539 443 472.50Q500 406 500 288Q500 259 497 241M394.50 432.50Q394.50 432.50 375.25 456.25Q356 480 285 480Q214 480 174 430.50Q134 381 133 295L433 295L433 302Q433 385 394.50 432.50Z"  horiz-adv-x="557" vert-adv-y="1000"  />

      
      <glyph glyph-name="uniec" unicode="&#xec;" d="M69 753L260 654L239 611L43 700L69 753M36 527L193 527L193 0L119 0L119 469L36 469L36 527Z"  horiz-adv-x="296" vert-adv-y="1000"  />

      
      <glyph glyph-name="unied" unicode="&#xed;" d="M260 700L63 611L42 654L232 753L260 700M36 527L193 527L193 0L119 0L119 469L36 469L36 527Z"  horiz-adv-x="296" vert-adv-y="1000"  />

      
      <glyph glyph-name="uniee" unicode="&#xee;" d="M174 744L300 640L272 603L151 691L31 603L3 640L129 744L174 744M36 527L193 527L193 0L119 0L119 469L36 469L36 527Z"  horiz-adv-x="296" vert-adv-y="1000"  />

      
      <glyph glyph-name="unief" unicode="&#xef;" d="M73 703.50Q73 703.50 79 697.25Q85 691 85 673Q85 655 73 642.50Q61 630 43 630Q24 630 11.50 642.50Q-1 655-1 673Q-1 691 11.50 703.50Q24 716 43 716Q61 716 73 703.50M259 716Q278 716 290.50 703.50Q303 691 303 673Q303 655 290.50 642.50Q278 630 259 630Q241 630 229 642.50Q217 655 217 673Q217 691 229 703.50Q241 716 259 716M36 527L193 527L193 0L119 0L119 469L36 469L36 527Z"  horiz-adv-x="296" vert-adv-y="1000"  />

      
      <glyph glyph-name="unif0" unicode="&#xf0;" d="M355 687Q440 632 485 534Q530 436 530 306L530 255Q530 137 465 62.50Q400-12 292-12Q181-12 121 53Q61 118 61 213L61 256Q61 344 113 401.50Q165 459 258 459Q387 459 457 358Q455 551 325 635L274 548L220 575L271 663Q212 687 136 690L136 752Q226 749 302 716L354 806L408 778L355 687M174 92.50Q174 92.50 193.50 69.75Q213 47 291 47Q369 47 413 101.50Q457 156 457 257L457 288Q417 346 374 373Q331 400 269 400Q202 400 168.50 360Q135 320 135 254L135 215Q135 138 174 92.50Z"  horiz-adv-x="597" vert-adv-y="1000"  />

      
      <glyph glyph-name="unif1" unicode="&#xf1;" d="M245 682Q217 682 189 640L146 662Q185 732 245 732Q272 732 308 708Q344 684 360 684Q390 684 416 727L460 705Q423 635 360 635Q332 635 296 658.50Q260 682 245 682M344 539Q420 539 466.50 493Q513 447 513 363L513 0L439 0L439 357Q439 479 328 479Q235 479 177 386L177 0L103 0L103 527L166 527L172 457Q235 539 344 539Z"  horiz-adv-x="606" vert-adv-y="1000"  />

      
      <glyph glyph-name="unif2" unicode="&#xf2;" d="M383 611L187 700L213 753L404 654L383 611M122 470Q122 470 152.50 504.50Q183 539 295 539Q407 539 469 470Q531 401 531 291L531 239Q531 127 469 57.50Q407-12 295-12Q183-12 122 57Q61 126 61 239L61 291Q61 401 122 470M295 479Q217 479 176 429.50Q135 380 135 292L135 240Q135 149 176 98Q217 47 295 47Q372 47 414.50 98Q457 149 457 240L457 292Q457 379 414.50 429Q372 479 295 479Z"  horiz-adv-x="591" vert-adv-y="1000"  />

      
      <glyph glyph-name="unif3" unicode="&#xf3;" d="M207 611L186 654L376 753L404 700L207 611M122 470Q122 470 152.50 504.50Q183 539 295 539Q407 539 469 470Q531 401 531 291L531 239Q531 127 469 57.50Q407-12 295-12Q183-12 122 57Q61 126 61 239L61 291Q61 401 122 470M295 479Q217 479 176 429.50Q135 380 135 292L135 240Q135 149 176 98Q217 47 295 47Q372 47 414.50 98Q457 149 457 240L457 292Q457 379 414.50 429Q372 479 295 479Z"  horiz-adv-x="591" vert-adv-y="1000"  />

      
      <glyph glyph-name="unif4" unicode="&#xf4;" d="M175 603L147 640L273 744L318 744L444 640L416 603L295 691L175 603M122 470Q122 470 152.50 504.50Q183 539 295 539Q407 539 469 470Q531 401 531 291L531 239Q531 127 469 57.50Q407-12 295-12Q183-12 122 57Q61 126 61 239L61 291Q61 401 122 470M295 479Q217 479 176 429.50Q135 380 135 292L135 240Q135 149 176 98Q217 47 295 47Q372 47 414.50 98Q457 149 457 240L457 292Q457 379 414.50 429Q372 479 295 479Z"  horiz-adv-x="591" vert-adv-y="1000"  />

      
      <glyph glyph-name="unif5" unicode="&#xf5;" d="M353 635Q326 635 290 658.50Q254 682 238 682Q210 682 182 640L139 662Q178 732 238 732Q265 732 301 708Q337 684 353 684Q383 684 409 727L453 705Q416 635 353 635M122 470Q122 470 152.50 504.50Q183 539 295 539Q407 539 469 470Q531 401 531 291L531 239Q531 127 469 57.50Q407-12 295-12Q183-12 122 57Q61 126 61 239L61 291Q61 401 122 470M295 479Q217 479 176 429.50Q135 380 135 292L135 240Q135 149 176 98Q217 47 295 47Q372 47 414.50 98Q457 149 457 240L457 292Q457 379 414.50 429Q372 479 295 479Z"  horiz-adv-x="591" vert-adv-y="1000"  />

      
      <glyph glyph-name="unif6" unicode="&#xf6;" d="M187 630Q168 630 155.50 642.50Q143 655 143 673Q143 691 155.50 703.50Q168 716 187 716Q205 716 217 703.50Q229 691 229 673Q229 655 217 642.50Q205 630 187 630M403 630Q385 630 373 642.50Q361 655 361 673Q361 691 373 703.50Q385 716 403 716Q422 716 434.50 703.50Q447 691 447 673Q447 655 434.50 642.50Q422 630 403 630M122 470Q122 470 152.50 504.50Q183 539 295 539Q407 539 469 470Q531 401 531 291L531 239Q531 127 469 57.50Q407-12 295-12Q183-12 122 57Q61 126 61 239L61 291Q61 401 122 470M295 479Q217 479 176 429.50Q135 380 135 292L135 240Q135 149 176 98Q217 47 295 47Q372 47 414.50 98Q457 149 457 240L457 292Q457 379 414.50 429Q372 479 295 479Z"  horiz-adv-x="591" vert-adv-y="1000"  />

      
      <glyph glyph-name="unif7" unicode="&#xf7;" d="M311 593Q333 593 348 578Q363 563 363 541Q363 520 348 505Q333 490 311 490Q290 490 275 505Q260 520 260 541Q260 563 275 578Q290 593 311 593M482 313L118 313L118 374L482 374L482 313M311 93Q290 93 275 108Q260 123 260 145Q260 166 275 181Q290 196 311 196Q333 196 348 181Q363 166 363 145Q363 123 348 108Q333 93 311 93Z"  horiz-adv-x="600" vert-adv-y="1000"  />

      
      <glyph glyph-name="unif8" unicode="&#xf8;" d="M449 488Q531 421 531 291L531 239Q531 127 469 57.50Q407-12 295-12Q234-12 188 9L151-58L98-31L138 41Q61 109 61 239L61 291Q61 401 122 470Q183 539 295 539Q351 539 397 520L437 590L491 564L449 488M135 292L135 240Q135 149 176 99L373 462Q342 479 295 479Q217 479 176 429.50Q135 380 135 292M457 240L457 292Q457 382 412 432L214 66Q250 47 295 47Q372 47 414.50 98.50Q457 150 457 240Z"  horiz-adv-x="591" vert-adv-y="1000"  />

      
      <glyph glyph-name="unif9" unicode="&#xf9;" d="M411 654L390 611L194 700L220 753L411 654M428 527L502 527L502 0L439 0L433 74Q363-12 259-12Q187-12 140 31.50Q93 75 93 147L93 527L167 527L167 150Q167 101 195 74Q223 47 273 47Q368 47 428 141L428 527Z"  horiz-adv-x="605" vert-adv-y="1000"  />

      
      <glyph glyph-name="unifa" unicode="&#xfa;" d="M411 700L214 611L193 654L383 753L411 700M428 527L502 527L502 0L439 0L433 74Q363-12 259-12Q187-12 140 31.50Q93 75 93 147L93 527L167 527L167 150Q167 101 195 74Q223 47 273 47Q368 47 428 141L428 527Z"  horiz-adv-x="605" vert-adv-y="1000"  />

      
      <glyph glyph-name="unifb" unicode="&#xfb;" d="M302 691L182 603L154 640L280 744L325 744L451 640L423 603L302 691M428 527L502 527L502 0L439 0L433 74Q363-12 259-12Q187-12 140 31.50Q93 75 93 147L93 527L167 527L167 150Q167 101 195 74Q223 47 273 47Q368 47 428 141L428 527Z"  horiz-adv-x="605" vert-adv-y="1000"  />

      
      <glyph glyph-name="unifc" unicode="&#xfc;" d="M194 630Q175 630 162.50 642.50Q150 655 150 673Q150 691 162.50 703.50Q175 716 194 716Q212 716 224 703.50Q236 691 236 673Q236 655 224 642.50Q212 630 194 630M410 630Q392 630 380 642.50Q368 655 368 673Q368 691 380 703.50Q392 716 410 716Q429 716 441.50 703.50Q454 691 454 673Q454 655 441.50 642.50Q429 630 410 630M428 527L502 527L502 0L439 0L433 74Q363-12 259-12Q187-12 140 31.50Q93 75 93 147L93 527L167 527L167 150Q167 101 195 74Q223 47 273 47Q368 47 428 141L428 527Z"  horiz-adv-x="605" vert-adv-y="1000"  />

      
      <glyph glyph-name="unifd" unicode="&#xfd;" d="M182 611L161 654L351 753L379 700L182 611M141-212Q105-212 81-201L92-150Q118-156 142-156Q178-156 200-136.50Q222-117 239-65L260 0L226 0L43 527L121 527L278 55L423 527L497 527L304-70Q277-152 238.50-182Q200-212 141-212Z"  horiz-adv-x="540" vert-adv-y="1000"  />

      
      <glyph glyph-name="unife" unicode="&#xfe;" d="M333 539Q425 539 479 470Q533 401 533 288L533 239Q533 132 471.50 60Q410-12 316-12Q236-12 177 44L177-200L103-200L103 740L177 740L177 472Q236 539 333 539M459 238L459 290Q459 381 423.50 430Q388 479 321 479Q230 479 177 401L177 107Q228 48 308 48Q377 48 418 99Q459 150 459 238Z"  horiz-adv-x="597" vert-adv-y="1000"  />

      
      <glyph glyph-name="uniff" unicode="&#xff;" d="M162 630Q143 630 130.50 642.50Q118 655 118 673Q118 691 130.50 703.50Q143 716 162 716Q180 716 192 703.50Q204 691 204 673Q204 655 192 642.50Q180 630 162 630M378 630Q360 630 348 642.50Q336 655 336 673Q336 691 348 703.50Q360 716 378 716Q397 716 409.50 703.50Q422 691 422 673Q422 655 409.50 642.50Q397 630 378 630M141-212Q105-212 81-201L92-150Q118-156 142-156Q178-156 200-136.50Q222-117 239-65L260 0L226 0L43 527L121 527L278 55L423 527L497 527L304-70Q277-152 238.50-182Q200-212 141-212Z"  horiz-adv-x="540" vert-adv-y="1000"  />

      
      <glyph glyph-name="uni0100" unicode="&#x0100;" d="M439 838L439 787L191 787L191 838L439 838M522 0L450 216L177 216L109 0L32 0L261 700L364 700L600 0L522 0M312 645L197 278L430 278L312 645Z"  horiz-adv-x="632" vert-adv-y="1000"  />

      
      <glyph glyph-name="uni0101" unicode="&#x0101;" d="M402 692L402 641L154 641L154 692L402 692M276 539Q369 539 416 492Q463 445 463 362L463 0L402 0L397 62Q330-12 224-12Q154-12 104 28Q54 68 54 135L54 168Q54 237 111.50 278.50Q169 320 267 320L389 320L389 364Q389 479 271 479Q194 479 112 437L88 487Q176 539 276 539M236 46Q333 46 389 120L389 267L272 267Q203 267 165.50 240Q128 213 128 162L128 140Q128 97 157.50 71.50Q187 46 236 46Z"  horiz-adv-x="556" vert-adv-y="1000"  />

      
      <glyph glyph-name="uni0102" unicode="&#x0102;" d="M405.50 793.50Q405.50 793.50 386.75 778.25Q368 763 314 763Q260 763 223 793.50Q186 824 173 876L224 886Q246 813 314 813Q383 813 405 886L456 876Q443 824 405.50 793.50M522 0L450 216L177 216L109 0L32 0L261 700L364 700L600 0L522 0M312 645L197 278L430 278L312 645Z"  horiz-adv-x="632" vert-adv-y="1000"  />

      
      <glyph glyph-name="uni0103" unicode="&#x0103;" d="M368.50 651Q368.50 651 349.75 635.50Q331 620 277 620Q223 620 186 651Q149 682 138 735L187 745Q209 670 277 670Q346 670 368 745L418 735Q406 682 368.50 651M276 539Q369 539 416 492Q463 445 463 362L463 0L402 0L397 62Q330-12 224-12Q154-12 104 28Q54 68 54 135L54 168Q54 237 111.50 278.50Q169 320 267 320L389 320L389 364Q389 479 271 479Q194 479 112 437L88 487Q176 539 276 539M236 46Q333 46 389 120L389 267L272 267Q203 267 165.50 240Q128 213 128 162L128 140Q128 97 157.50 71.50Q187 46 236 46Z"  horiz-adv-x="556" vert-adv-y="1000"  />

      
      <glyph glyph-name="uni0104" unicode="&#x0104;" d="M599 0Q465-40 465-120Q465-170 525-170Q550-170 584-163L578-213Q541-220 517-220Q467-220 437-194.50Q407-169 407-126Q407-84 436.50-49.50Q466-15 520 6L450 216L177 216L109 0L32 0L261 700L364 700L600 0L599 0M312 645L197 278L430 278L312 645Z"  horiz-adv-x="632" vert-adv-y="1000"  />

      
      <glyph glyph-name="uni0105" unicode="&#x0105;" d="M329-120Q329-170 389-170Q414-170 448-163L442-213Q405-220 381-220Q331-220 301-194.50Q271-169 271-126Q271-81 305.50-44.50Q340-8 401 12L397 62Q330-12 224-12Q154-12 104 28Q54 68 54 135L54 168Q54 237 111.50 278.50Q169 320 267 320L389 320L389 364Q389 479 271 479Q194 479 112 437L88 487Q176 539 276 539Q369 539 416 492Q463 445 463 362L463 0Q329-40 329-120M236 46Q333 46 389 120L389 267L272 267Q203 267 165.50 240Q128 213 128 162L128 140Q128 97 157.50 71.50Q187 46 236 46Z"  horiz-adv-x="556" vert-adv-y="1000"  />

      
      <glyph glyph-name="uni0106" unicode="&#x0106;" d="M252 749L233 793L425 887L449 834L252 749M340-12Q217-12 149 59Q81 130 81 249L81 434Q81 561 151.50 636.50Q222 712 345 712Q458 712 544 637L504 592Q432 651 347 651Q256 651 206 594Q156 537 156 436L156 251Q156 155 203.50 102Q251 49 341 49Q431 49 504 105L537 57Q452-12 340-12Z"  horiz-adv-x="580" vert-adv-y="1000"  />

      
      <glyph glyph-name="uni0107" unicode="&#x0107;" d="M195 611L174 654L364 753L392 700L195 611M285-12Q179-12 120 58Q61 128 61 242L61 286Q61 399 119.50 469Q178 539 286 539Q382 539 451 473L413 431Q359 479 288 479Q215 479 175 428Q135 377 135 288L135 241Q135 150 174 99Q213 48 286 48Q349 48 412 94L446 46Q374-12 285-12Z"  horiz-adv-x="492" vert-adv-y="1000"  />

      
      <glyph glyph-name="uni0108" unicode="&#x0108;" d="M221 746L193 783L319 887L364 887L490 783L462 746L341 834L221 746M340-12Q217-12 149 59Q81 130 81 249L81 434Q81 561 151.50 636.50Q222 712 345 712Q458 712 544 637L504 592Q432 651 347 651Q256 651 206 594Q156 537 156 436L156 251Q156 155 203.50 102Q251 49 341 49Q431 49 504 105L537 57Q452-12 340-12Z"  horiz-adv-x="580" vert-adv-y="1000"  />

      
      <glyph glyph-name="uni0109" unicode="&#x0109;" d="M163 603L135 640L261 744L306 744L432 640L404 603L283 691L163 603M285-12Q179-12 120 58Q61 128 61 242L61 286Q61 399 119.50 469Q178 539 286 539Q382 539 451 473L413 431Q359 479 288 479Q215 479 175 428Q135 377 135 288L135 241Q135 150 174 99Q213 48 286 48Q349 48 412 94L446 46Q374-12 285-12Z"  horiz-adv-x="492" vert-adv-y="1000"  />

      
      <glyph glyph-name="uni010A" unicode="&#x010A;" d="M376 780Q376 780 369 773Q362 766 342 766Q322 766 308.50 780Q295 794 295 814Q295 834 308.50 847.50Q322 861 342 861Q362 861 376 847.50Q390 834 390 814Q390 794 376 780M340-12Q217-12 149 59Q81 130 81 249L81 434Q81 561 151.50 636.50Q222 712 345 712Q458 712 544 637L504 592Q432 651 347 651Q256 651 206 594Q156 537 156 436L156 251Q156 155 203.50 102Q251 49 341 49Q431 49 504 105L537 57Q452-12 340-12Z"  horiz-adv-x="580" vert-adv-y="1000"  />

      
      <glyph glyph-name="uni010B" unicode="&#x010B;" d="M318 644Q318 644 311 637Q304 630 284 630Q264 630 250.50 644Q237 658 237 678Q237 698 250.50 711.50Q264 725 284 725Q304 725 318 711.50Q332 698 332 678Q332 658 318 644M285-12Q179-12 120 58Q61 128 61 242L61 286Q61 399 119.50 469Q178 539 286 539Q382 539 451 473L413 431Q359 479 288 479Q215 479 175 428Q135 377 135 288L135 241Q135 150 174 99Q213 48 286 48Q349 48 412 94L446 46Q374-12 285-12Z"  horiz-adv-x="492" vert-adv-y="1000"  />

      
      <glyph glyph-name="uni010C" unicode="&#x010C;" d="M319 747L193 851L221 888L341 800L462 888L490 851L364 747L319 747M340-12Q217-12 149 59Q81 130 81 249L81 434Q81 561 151.50 636.50Q222 712 345 712Q458 712 544 637L504 592Q432 651 347 651Q256 651 206 594Q156 537 156 436L156 251Q156 155 203.50 102Q251 49 341 49Q431 49 504 105L537 57Q452-12 340-12Z"  horiz-adv-x="580" vert-adv-y="1000"  />

      
      <glyph glyph-name="uni010D" unicode="&#x010D;" d="M261 604L135 707L163 744L283 656L404 744L432 707L306 604L261 604M285-12Q179-12 120 58Q61 128 61 242L61 286Q61 399 119.50 469Q178 539 286 539Q382 539 451 473L413 431Q359 479 288 479Q215 479 175 428Q135 377 135 288L135 241Q135 150 174 99Q213 48 286 48Q349 48 412 94L446 46Q374-12 285-12Z"  horiz-adv-x="492" vert-adv-y="1000"  />

      
      <glyph glyph-name="uni010E" unicode="&#x010E;" d="M344 747L299 747L173 851L201 888L321 800L442 888L470 851L344 747M322 700Q460 700 532.50 624.50Q605 549 605 420L605 298Q605 159 525 79.50Q445 0 297 0L169 0L123 0L123 700L198 700L322 700M530 296L530 422Q530 524 476 581.50Q422 639 318 639L198 639L198 61L297 61Q412 61 471 121Q530 181 530 296Z"  horiz-adv-x="685" vert-adv-y="1000"  />

      
      <glyph glyph-name="uni010F" unicode="&#x010F;" d="M607 750L670 741L626 562L579 568L607 750M422 480L422 740L496 740L496 0L436 0L428 67Q368-12 271-12Q177-12 120.50 57Q64 126 64 237L64 288Q64 395 122 467Q180 539 276 539Q364 539 422 480M281 47Q367 47 422 131L422 415Q373 479 286 479Q216 479 177 427Q138 375 138 290L138 235Q138 146 176 96.50Q214 47 281 47Z"  horiz-adv-x="662" vert-adv-y="1000"  />

      
      <glyph glyph-name="uni0110" unicode="&#x0110;" d="M322 700Q460 700 532.50 624.50Q605 549 605 420L605 298Q605 159 525 79.50Q445 0 297 0L169 0L123 0L123 324L75 324L75 375L123 375L123 700L198 700L322 700M530 296L530 422Q530 524 476 581.50Q422 639 318 639L198 639L198 375L365 375L365 324L198 324L198 61L297 61Q412 61 471 121Q530 181 530 296Z"  horiz-adv-x="685" vert-adv-y="1000"  />

      
      <glyph glyph-name="uni0111" unicode="&#x0111;" d="M545 659L545 609L496 609L496 0L436 0L428 67Q368-12 271-12Q177-12 120.50 57Q64 126 64 237L64 288Q64 395 122 467Q180 539 276 539Q364 539 422 480L422 609L285 609L285 659L422 659L422 740L496 740L496 659L545 659M281 47Q367 47 422 131L422 415Q373 479 286 479Q216 479 177 427Q138 375 138 290L138 235Q138 146 176 96.50Q214 47 281 47Z"  horiz-adv-x="614" vert-adv-y="1000"  />

      
      <glyph glyph-name="uni0112" unicode="&#x0112;" d="M440 838L440 787L192 787L192 838L440 838M502 639L198 639L198 391L480 391L480 329L198 329L198 61L502 61L502 0L125 0L123 0L123 700L198 700L502 700L502 639Z"  horiz-adv-x="582" vert-adv-y="1000"  />

      
      <glyph glyph-name="uni0113" unicode="&#x0113;" d="M408 692L408 641L160 641L160 692L408 692M497 241L133 241L133 239Q133 147 178 97Q223 47 304 47Q373 47 448 96L477 48Q400-12 300-12Q190-12 125.50 58.50Q61 129 61 239L61 291Q61 397 122 468Q183 539 285 539Q386 539 443 472.50Q500 406 500 288Q500 259 497 241M394.50 432.50Q394.50 432.50 375.25 456.25Q356 480 285 480Q214 480 174 430.50Q134 381 133 295L433 295L433 302Q433 385 394.50 432.50Z"  horiz-adv-x="557" vert-adv-y="1000"  />

      
      <glyph glyph-name="uni0116" unicode="&#x0116;" d="M351 780Q351 780 344 773Q337 766 317 766Q297 766 283.50 780Q270 794 270 814Q270 834 284 847.50Q298 861 317 861Q337 861 351 847.50Q365 834 365 814Q365 794 351 780M502 639L198 639L198 391L480 391L480 329L198 329L198 61L502 61L502 0L125 0L123 0L123 700L198 700L502 700L502 639Z"  horiz-adv-x="582" vert-adv-y="1000"  />

      
      <glyph glyph-name="uni0117" unicode="&#x0117;" d="M319 644Q319 644 312 637Q305 630 285 630Q265 630 251.50 644Q238 658 238 678Q238 698 252 711.50Q266 725 285 725Q305 725 319 711.50Q333 698 333 678Q333 658 319 644M497 241L133 241L133 239Q133 147 178 97Q223 47 304 47Q373 47 448 96L477 48Q400-12 300-12Q190-12 125.50 58.50Q61 129 61 239L61 291Q61 397 122 468Q183 539 285 539Q386 539 443 472.50Q500 406 500 288Q500 259 497 241M394.50 432.50Q394.50 432.50 375.25 456.25Q356 480 285 480Q214 480 174 430.50Q134 381 133 295L433 295L433 302Q433 385 394.50 432.50Z"  horiz-adv-x="557" vert-adv-y="1000"  />

      
      <glyph glyph-name="uni0118" unicode="&#x0118;" d="M369-120Q369-170 429-170Q454-170 488-163L482-213Q445-220 421-220Q371-220 341-194.50Q311-169 311-126Q311-46 410 0L125 0L123 0L123 700L198 700L502 700L502 639L198 639L198 391L480 391L480 329L198 329L198 61L502 61L502 3L503 0Q369-40 369-120Z"  horiz-adv-x="582" vert-adv-y="1000"  />

      
      <glyph glyph-name="uni0119" unicode="&#x0119;" d="M497 241L133 241L133 239Q133 147 178 97Q223 47 304 47Q373 47 448 96L477 48Q446 23 403 7Q277-48 277-120Q277-170 336-170Q363-170 395-163L389-213Q352-220 328-220Q279-220 249-194.50Q219-169 219-126Q219-58 303-12L300-12Q190-12 125.50 58.50Q61 129 61 239L61 291Q61 397 122 468Q183 539 285 539Q386 539 443 472.50Q500 406 500 288Q500 259 497 241M394.50 432.50Q394.50 432.50 375.25 456.25Q356 480 285 480Q214 480 174 430.50Q134 381 133 295L433 295L433 302Q433 385 394.50 432.50Z"  horiz-adv-x="557" vert-adv-y="1000"  />

      
      <glyph glyph-name="uni011A" unicode="&#x011A;" d="M339 747L294 747L168 851L196 888L316 800L437 888L465 851L339 747M502 639L198 639L198 391L480 391L480 329L198 329L198 61L502 61L502 0L125 0L123 0L123 700L198 700L502 700L502 639Z"  horiz-adv-x="582" vert-adv-y="1000"  />

      
      <glyph glyph-name="uni011B" unicode="&#x011B;" d="M307 604L262 604L136 707L164 744L284 656L405 744L433 707L307 604M497 241L133 241L133 239Q133 147 178 97Q223 47 304 47Q373 47 448 96L477 48Q400-12 300-12Q190-12 125.50 58.50Q61 129 61 239L61 291Q61 397 122 468Q183 539 285 539Q386 539 443 472.50Q500 406 500 288Q500 259 497 241M394.50 432.50Q394.50 432.50 375.25 456.25Q356 480 285 480Q214 480 174 430.50Q134 381 133 295L433 295L433 302Q433 385 394.50 432.50Z"  horiz-adv-x="557" vert-adv-y="1000"  />

      
      <glyph glyph-name="uni011C" unicode="&#x011C;" d="M350 834L230 746L202 783L328 887L373 887L499 783L471 746L350 834M579 373L579 0L518 0L512 74Q436-12 316-12Q211-12 146 55Q81 122 81 237L81 428Q81 556 151.50 634Q222 712 347 712Q492 712 569 608L519 571Q489 611 449 631Q409 651 347 651Q253 651 204.50 592Q156 533 156 430L156 240Q156 151 201.50 100Q247 49 331 49Q448 49 506 147L506 312L321 312L321 373L579 373Z"  horiz-adv-x="667" vert-adv-y="1000"  />

      
      <glyph glyph-name="uni011D" unicode="&#x011D;" d="M288 691L168 603L140 640L266 744L311 744L437 640L409 603L288 691M431 530L493 530L493-13Q493-106 435.50-159Q378-212 281-212Q177-212 99-164L125-116Q197-153 276-153Q347-153 384.50-117Q422-81 422-10L422 76Q358 0 264 0Q177 0 120.50 60.50Q64 121 64 245L64 292Q64 412 124.50 475.50Q185 539 272 539Q365 539 425 470L431 530M273 59Q362 59 419 142L419 405Q370 479 283 479Q218 479 178 435.50Q138 392 138 294L138 246Q138 59 273 59Z"  horiz-adv-x="597" vert-adv-y="1000"  />

      
      <glyph glyph-name="uni011E" unicode="&#x011E;" d="M441.50 793.50Q441.50 793.50 422.75 778.25Q404 763 350 763Q296 763 259 793.50Q222 824 209 876L260 886Q282 813 350 813Q419 813 441 886L492 876Q479 824 441.50 793.50M579 373L579 0L518 0L512 74Q436-12 316-12Q211-12 146 55Q81 122 81 237L81 428Q81 556 151.50 634Q222 712 347 712Q492 712 569 608L519 571Q489 611 449 631Q409 651 347 651Q253 651 204.50 592Q156 533 156 430L156 240Q156 151 201.50 100Q247 49 331 49Q448 49 506 147L506 312L321 312L321 373L579 373Z"  horiz-adv-x="667" vert-adv-y="1000"  />

      
      <glyph glyph-name="uni011F" unicode="&#x011F;" d="M379.50 651Q379.50 651 360.75 635.50Q342 620 288 620Q234 620 197 651Q160 682 149 735L198 745Q220 670 288 670Q357 670 379 745L429 735Q417 682 379.50 651M431 530L493 530L493-13Q493-106 435.50-159Q378-212 281-212Q177-212 99-164L125-116Q197-153 276-153Q347-153 384.50-117Q422-81 422-10L422 76Q358 0 264 0Q177 0 120.50 60.50Q64 121 64 245L64 292Q64 412 124.50 475.50Q185 539 272 539Q365 539 425 470L431 530M273 59Q362 59 419 142L419 405Q370 479 283 479Q218 479 178 435.50Q138 392 138 294L138 246Q138 59 273 59Z"  horiz-adv-x="597" vert-adv-y="1000"  />

      
      <glyph glyph-name="uni0120" unicode="&#x0120;" d="M386 780Q386 780 379 773Q372 766 352 766Q332 766 318.50 780Q305 794 305 814Q305 834 318.50 847.50Q332 861 352 861Q372 861 386 847.50Q400 834 400 814Q400 794 386 780M579 373L579 0L518 0L512 74Q436-12 316-12Q211-12 146 55Q81 122 81 237L81 428Q81 556 151.50 634Q222 712 347 712Q492 712 569 608L519 571Q489 611 449 631Q409 651 347 651Q253 651 204.50 592Q156 533 156 430L156 240Q156 151 201.50 100Q247 49 331 49Q448 49 506 147L506 312L321 312L321 373L579 373Z"  horiz-adv-x="667" vert-adv-y="1000"  />

      
      <glyph glyph-name="uni0121" unicode="&#x0121;" d="M323 644Q323 644 316 637Q309 630 289 630Q269 630 255.50 644Q242 658 242 678Q242 698 256 711.50Q270 725 289 725Q309 725 323 711.50Q337 698 337 678Q337 658 323 644M431 530L493 530L493-13Q493-106 435.50-159Q378-212 281-212Q177-212 99-164L125-116Q197-153 276-153Q347-153 384.50-117Q422-81 422-10L422 76Q358 0 264 0Q177 0 120.50 60.50Q64 121 64 245L64 292Q64 412 124.50 475.50Q185 539 272 539Q365 539 425 470L431 530M273 59Q362 59 419 142L419 405Q370 479 283 479Q218 479 178 435.50Q138 392 138 294L138 246Q138 59 273 59Z"  horiz-adv-x="597" vert-adv-y="1000"  />

      
      <glyph glyph-name="uni0122" unicode="&#x0122;" d="M579 373L579 0L518 0L512 74Q436-12 316-12Q211-12 146 55Q81 122 81 237L81 428Q81 556 151.50 634Q222 712 347 712Q492 712 569 608L519 571Q489 611 449 631Q409 651 347 651Q253 651 204.50 592Q156 533 156 430L156 240Q156 151 201.50 100Q247 49 331 49Q448 49 506 147L506 312L321 312L321 373L579 373M300.50-92Q300.50-92 307.25-85.50Q314-79 334-79Q354-79 367-92Q380-105 380-124Q380-195 311-293L277-277Q310-213 311-162Q287-150 287-124Q287-105 300.50-92Z"  horiz-adv-x="667" vert-adv-y="1000"  />

      
      <glyph glyph-name="uni0123" unicode="&#x0123;" d="M316.50 626Q316.50 626 309.75 619.50Q303 613 283 613Q263 613 250 626Q237 639 237 658Q237 729 306 827L340 811Q307 747 306 696Q330 684 330 658Q330 639 316.50 626M431 530L493 530L493-13Q493-106 435.50-159Q378-212 281-212Q177-212 99-164L125-116Q197-153 276-153Q347-153 384.50-117Q422-81 422-10L422 76Q358 0 264 0Q177 0 120.50 60.50Q64 121 64 245L64 292Q64 412 124.50 475.50Q185 539 272 539Q365 539 425 470L431 530M273 59Q362 59 419 142L419 405Q370 479 283 479Q218 479 178 435.50Q138 392 138 294L138 246Q138 59 273 59Z"  horiz-adv-x="597" vert-adv-y="1000"  />

      
      <glyph glyph-name="uni0124" unicode="&#x0124;" d="M252 746L224 783L350 887L395 887L521 783L493 746L372 834L252 746M621 700L621 0L546 0L546 332L198 332L198 0L123 0L123 700L198 700L198 395L546 395L546 700L621 700Z"  horiz-adv-x="745" vert-adv-y="1000"  />

      
      <glyph glyph-name="uni0125" unicode="&#x0125;" d="M260 786L139 874L19 786L-9 823L117 927L162 927L288 823L260 786M344 539Q420 539 466.50 493Q513 447 513 363L513 0L439 0L439 357Q439 479 328 479Q234 479 177 385L177 0L103 0L103 740L177 740L177 460Q236 539 344 539Z"  horiz-adv-x="606" vert-adv-y="1000"  />

      
      <glyph glyph-name="uni0126" unicode="&#x0126;" d="M657 568L657 517L621 517L621 0L546 0L546 332L198 332L198 0L123 0L123 517L89 517L89 568L123 568L123 700L198 700L198 568L546 568L546 700L621 700L621 568L657 568M546 395L546 517L198 517L198 395L546 395Z"  horiz-adv-x="745" vert-adv-y="1000"  />

      
      <glyph glyph-name="uni0127" unicode="&#x0127;" d="M342 539Q418 539 465 492.50Q512 446 512 363L512 0L438 0L438 357Q438 479 327 479Q234 479 176 385L176 0L102 0L102 606L52 606L52 657L102 657L102 740L176 740L176 657L312 657L312 606L176 606L176 461Q235 539 342 539Z"  horiz-adv-x="605" vert-adv-y="1000"  />

      
      <glyph glyph-name="uni0128" unicode="&#x0128;" d="M318 853L362 831Q325 761 262 761Q234 761 198 784.50Q162 808 147 808Q119 808 91 766L48 788Q87 858 147 858Q174 858 210 834Q246 810 262 810Q292 810 318 853M326 700L326 639L242 639L242 61L326 61L326 0L167 0L84 0L84 61L167 61L167 639L84 639L84 700L326 700Z"  horiz-adv-x="409" vert-adv-y="1000"  />

      
      <glyph glyph-name="uni0129" unicode="&#x0129;" d="M264 727L308 705Q271 635 208 635Q180 635 144.50 658.50Q109 682 93 682Q65 682 37 640L-6 662Q33 732 93 732Q120 732 156 708Q192 684 208 684Q238 684 264 727M36 527L193 527L193 0L119 0L119 469L36 469L36 527Z"  horiz-adv-x="296" vert-adv-y="1000"  />

      
      <glyph glyph-name="uni012A" unicode="&#x012A;" d="M81 838L329 838L329 787L81 787L81 838M326 700L326 639L242 639L242 61L326 61L326 0L167 0L84 0L84 61L167 61L167 639L84 639L84 700L326 700Z"  horiz-adv-x="409" vert-adv-y="1000"  />

      
      <glyph glyph-name="uni012B" unicode="&#x012B;" d="M27 692L275 692L275 641L27 641L27 692M36 527L193 527L193 0L119 0L119 469L36 469L36 527Z"  horiz-adv-x="296" vert-adv-y="1000"  />

      
      <glyph glyph-name="uni012E" unicode="&#x012E;" d="M326 639L242 639L242 61L326 61L326 0L247 0Q113-40 113-120Q113-170 173-170Q198-170 232-163L226-213Q189-220 165-220Q115-220 85-194.50Q55-169 55-126Q55-46 154 0L84 0L84 61L167 61L167 639L84 639L84 700L242 700L326 700L326 639Z"  horiz-adv-x="409" vert-adv-y="1000"  />

      
      <glyph glyph-name="uni012F" unicode="&#x012F;" d="M186 644Q186 644 179 637Q172 630 152 630Q132 630 118.50 644Q105 658 105 678Q105 698 118.50 711.50Q132 725 152 725Q172 725 186 711.50Q200 698 200 678Q200 658 186 644M193 0Q59-40 59-120Q59-170 119-170Q144-170 178-163L172-213Q135-220 111-220Q61-220 31-194.50Q1-169 1-126Q1-83 32-48Q63-13 119 8L119 469L36 469L36 527L193 527L193 1L193 0Z"  horiz-adv-x="296" vert-adv-y="1000"  />

      
      <glyph glyph-name="uni0130" unicode="&#x0130;" d="M240 780Q240 780 233 773Q226 766 206 766Q186 766 172.50 780Q159 794 159 814Q159 834 172.50 847.50Q186 861 206 861Q226 861 240 847.50Q254 834 254 814Q254 794 240 780M326 639L242 639L242 61L326 61L326 0L167 0L84 0L84 61L167 61L167 639L84 639L84 700L242 700L326 700L326 639Z"  horiz-adv-x="409" vert-adv-y="1000"  />

      
      <glyph glyph-name="uni0131" unicode="&#x0131;" d="M193 527L193 0L119 0L119 469L36 469L36 527L193 527Z"  horiz-adv-x="296" vert-adv-y="1000"  />

      
      <glyph glyph-name="uni0132" unicode="&#x0132;" d="M326 700L326 639L242 639L242 61L326 61L326 0L167 0L84 0L84 61L167 61L167 639L84 639L84 700L326 700M813 700L813 199Q813 101 760 44.50Q707-12 612-12Q501-12 430 53L467 98Q533 49 607 49Q667 49 702.50 86.50Q738 124 738 197L738 639L467 639L467 700L813 700Z"  horiz-adv-x="913" vert-adv-y="1000"  />

      
      <glyph glyph-name="uni0133" unicode="&#x0133;" d="M118.50 711.50Q118.50 711.50 125.25 718.25Q132 725 152 725Q172 725 186 711.50Q200 698 200 678Q200 658 186 644Q172 630 152 630Q132 630 118.50 644Q105 658 105 678Q105 698 118.50 711.50M493 644Q493 644 486 637Q479 630 459 630Q439 630 425.50 644Q412 658 412 678Q412 698 426 711.50Q440 725 459 725Q479 725 493 711.50Q507 698 507 678Q507 658 493 644M349 469L349 527L498 527L498-102Q498-155 468.50-183.50Q439-212 387-212Q351-212 327-200L334-149Q356-155 372-155Q400-155 412-142Q424-129 424-98L424 469L349 469M36 527L193 527L193 0L119 0L119 469L36 469L36 527Z"  horiz-adv-x="601" vert-adv-y="1000"  />

      
      <glyph glyph-name="uni0134" unicode="&#x0134;" d="M262 834L142 746L114 783L240 887L285 887L411 783L383 746L262 834M424 700L424 199Q424 101 371 44.50Q318-12 223-12Q112-12 41 53L78 98Q144 49 218 49Q278 49 313.50 86.50Q349 124 349 197L349 639L78 639L78 700L424 700Z"  horiz-adv-x="523" vert-adv-y="1000"  />

      
      <glyph glyph-name="uni0135" unicode="&#x0135;" d="M42 603L14 640L140 744L185 744L311 640L283 603L162 691L42 603M202 527L202-102Q202-155 172.50-183.50Q143-212 91-212Q55-212 31-200L38-149Q60-155 76-155Q104-155 116-142Q128-129 128-98L128 469L53 469L53 527L202 527Z"  horiz-adv-x="305" vert-adv-y="1000"  />

      
      <glyph glyph-name="uni0136" unicode="&#x0136;" d="M335 384L625 0L538 0L289 331L195 213L195 0L123 0L123 700L195 700L195 315L502 700L584 700L335 384M316.50-92Q316.50-92 323.25-85.50Q330-79 350-79Q370-79 383-92Q396-105 396-124Q396-195 327-293L293-277Q326-213 327-162Q303-150 303-124Q303-105 316.50-92Z"  horiz-adv-x="641" vert-adv-y="1000"  />

      
      <glyph glyph-name="uni0137" unicode="&#x0137;" d="M295 319L526 0L441 0L246 271L177 196L177 0L103 0L103 740L177 740L177 285L402 527L489 527L295 319M264.50-92Q264.50-92 271.25-85.50Q278-79 298-79Q318-79 331-92Q344-105 344-124Q344-195 275-293L241-277Q274-213 275-162Q251-150 251-124Q251-105 264.50-92Z"  horiz-adv-x="532" vert-adv-y="1000"  />

      
      <glyph glyph-name="uni0138" unicode="&#x0138;" d="M438 0L244 268L177 196L177 0L103 0L103 527L177 527L177 285L402 527L489 527L295 319L526 0L438 0Z"  horiz-adv-x="532" vert-adv-y="1000"  />

      
      <glyph glyph-name="uni0139" unicode="&#x0139;" d="M244 887L268 834L71 749L52 793L244 887M198 64L501 64L501 0L125 0L123 0L123 700L198 700L198 64Z"  horiz-adv-x="513" vert-adv-y="1000"  />

      
      <glyph glyph-name="uni013A" unicode="&#x013A;" d="M41 789L22 833L214 927L238 874L41 789M167 740L167 97Q167 49 209 49Q225 49 240 53L250 0Q221-12 190-12Q145-12 119 13.50Q93 39 93 86L93 740L167 740Z"  horiz-adv-x="298" vert-adv-y="1000"  />

      
      <glyph glyph-name="uni013B" unicode="&#x013B;" d="M198 64L501 64L501 0L125 0L123 0L123 700L198 700L198 64M271.50-92Q271.50-92 278.25-85.50Q285-79 305-79Q325-79 338-92Q351-105 351-124Q351-195 282-293L248-277Q281-213 282-162Q258-150 258-124Q258-105 271.50-92Z"  horiz-adv-x="513" vert-adv-y="1000"  />

      
      <glyph glyph-name="uni013C" unicode="&#x013C;" d="M167 740L167 97Q167 49 209 49Q225 49 240 53L250 0Q221-12 190-12Q145-12 119 13.50Q93 39 93 86L93 740L167 740M157-293L123-277Q156-213 157-162Q133-150 133-124Q133-105 146.50-92Q160-79 180-79Q200-79 213-92Q226-105 226-124Q226-195 157-293Z"  horiz-adv-x="298" vert-adv-y="1000"  />

      
      <glyph glyph-name="uni013D" unicode="&#x013D;" d="M403 701L359 522L312 528L340 710L403 701M198 64L501 64L501 0L125 0L123 0L123 700L198 700L198 64Z"  horiz-adv-x="514" vert-adv-y="1000"  />

      
      <glyph glyph-name="uni013E" unicode="&#x013E;" d="M297 562L250 568L278 750L341 741L297 562M167 740L167 97Q167 49 209 49Q225 49 240 53L250 0Q221-12 190-12Q145-12 119 13.50Q93 39 93 86L93 740L167 740Z"  horiz-adv-x="333" vert-adv-y="1000"  />

      
      <glyph glyph-name="uni013F" unicode="&#x013F;" d="M198 64L501 64L501 0L125 0L123 0L123 700L198 700L198 64M453 367.50Q453 367.50 446 360.75Q439 354 419 354Q399 354 385.50 368Q372 382 372 402Q372 422 386 435.50Q400 449 419 449Q439 449 453 435Q467 421 467 402Q467 381 453 367.50Z"  horiz-adv-x="516" vert-adv-y="1000"  />

      
      <glyph glyph-name="uni0140" unicode="&#x0140;" d="M167 740L167 97Q167 49 209 49Q225 49 240 53L250 0Q221-12 190-12Q145-12 119 13.50Q93 39 93 86L93 740L167 740M323 367.50Q323 367.50 316 360.75Q309 354 289 354Q269 354 255 368Q241 382 241 402Q241 421 255 435Q269 449 289 449Q309 449 323 435Q337 421 337 402Q337 381 323 367.50Z"  horiz-adv-x="322" vert-adv-y="1000"  />

      
      <glyph glyph-name="uni0141" unicode="&#x0141;" d="M208 64L511 64L511 0L135 0L133 0L133 351L66 331L52 383L133 407L133 700L208 700L208 429L348 470L363 419L208 373L208 64Z"  horiz-adv-x="523" vert-adv-y="1000"  />

      
      <glyph glyph-name="uni0142" unicode="&#x0142;" d="M217 49Q233 49 249 53L258 0Q229-12 198-12Q154-12 127.50 13.50Q101 39 101 86L101 362L37 347L24 400L101 418L101 740L175 740L175 436L255 456L267 403L175 381L175 97Q175 49 217 49Z"  horiz-adv-x="302" vert-adv-y="1000"  />

      
      <glyph glyph-name="uni0143" unicode="&#x0143;" d="M488 834L291 749L272 793L464 887L488 834M550 700L618 700L618 0L528 0L191 606L191 0L123 0L123 700L214 700L550 95L550 700Z"  horiz-adv-x="741" vert-adv-y="1000"  />

      
      <glyph glyph-name="uni0144" unicode="&#x0144;" d="M412 700L215 611L194 654L384 753L412 700M344 539Q420 539 466.50 493Q513 447 513 363L513 0L439 0L439 357Q439 479 328 479Q235 479 177 386L177 0L103 0L103 527L166 527L172 457Q235 539 344 539Z"  horiz-adv-x="606" vert-adv-y="1000"  />

      
      <glyph glyph-name="uni0145" unicode="&#x0145;" d="M550 700L618 700L618 0L528 0L191 606L191 0L123 0L123 700L214 700L550 95L550 700M338.50-92Q338.50-92 345.25-85.50Q352-79 372-79Q392-79 405-92Q418-105 418-124Q418-195 349-293L315-277Q348-213 349-162Q325-150 325-124Q325-105 338.50-92Z"  horiz-adv-x="741" vert-adv-y="1000"  />

      
      <glyph glyph-name="uni0146" unicode="&#x0146;" d="M344 539Q420 539 466.50 493Q513 447 513 363L513 0L439 0L439 357Q439 479 328 479Q235 479 177 386L177 0L103 0L103 527L166 527L172 457Q235 539 344 539M271.50-92Q271.50-92 278.25-85.50Q285-79 305-79Q325-79 338-92Q351-105 351-124Q351-195 282-293L248-277Q281-213 282-162Q258-150 258-124Q258-105 271.50-92Z"  horiz-adv-x="606" vert-adv-y="1000"  />

      
      <glyph glyph-name="uni0147" unicode="&#x0147;" d="M402 747L357 747L231 851L259 888L379 800L500 888L528 851L402 747M550 700L618 700L618 0L528 0L191 606L191 0L123 0L123 700L214 700L550 95L550 700Z"  horiz-adv-x="741" vert-adv-y="1000"  />

      
      <glyph glyph-name="uni0148" unicode="&#x0148;" d="M326 604L281 604L155 707L183 744L303 656L424 744L452 707L326 604M344 539Q420 539 466.50 493Q513 447 513 363L513 0L439 0L439 357Q439 479 328 479Q235 479 177 386L177 0L103 0L103 527L166 527L172 457Q235 539 344 539Z"  horiz-adv-x="606" vert-adv-y="1000"  />

      
      <glyph glyph-name="uni014A" unicode="&#x014A;" d="M550 700L618 700L618 0L618-102Q618-155 588.50-183.50Q559-212 507-212Q469-212 447-200L453-149Q472-156 492-156Q550-156 550-98L550 0L528 0L191 606L191 0L123 0L123 700L214 700L550 95L550 700Z"  horiz-adv-x="741" vert-adv-y="1000"  />

      
      <glyph glyph-name="uni014B" unicode="&#x014B;" d="M344 539Q420 539 466.50 493Q513 447 513 363L513 0L513-102Q513-155 484-183.50Q455-212 403-212Q366-212 342-200L349-149Q371-155 388-155Q416-155 427.50-142Q439-129 439-98L439 241L439 357Q439 479 328 479Q235 479 177 386L177 0L103 0L103 527L166 527L172 457Q235 539 344 539Z"  horiz-adv-x="606" vert-adv-y="1000"  />

      
      <glyph glyph-name="uni014C" unicode="&#x014C;" d="M229 787L229 838L477 838L477 787L229 787M353 712Q489 712 557 633Q625 554 625 425L625 271Q625 146 556.50 67Q488-12 353-12Q218-12 149.50 67Q81 146 81 271L81 425Q81 555 149.50 633.50Q218 712 353 712M353 651Q254 651 205 590Q156 529 156 426L156 269Q156 171 205 110Q254 49 353 49Q452 49 501 110Q550 171 550 269L550 426Q550 528 501.50 589.50Q453 651 353 651Z"  horiz-adv-x="706" vert-adv-y="1000"  />

      
      <glyph glyph-name="uni014D" unicode="&#x014D;" d="M172 641L172 692L420 692L420 641L172 641M122 470Q122 470 152.50 504.50Q183 539 295 539Q407 539 469 470Q531 401 531 291L531 239Q531 127 469 57.50Q407-12 295-12Q183-12 122 57Q61 126 61 239L61 291Q61 401 122 470M295 479Q217 479 176 429.50Q135 380 135 292L135 240Q135 149 176 98Q217 47 295 47Q372 47 414.50 98Q457 149 457 240L457 292Q457 379 414.50 429Q372 479 295 479Z"  horiz-adv-x="591" vert-adv-y="1000"  />

      
      <glyph glyph-name="uni0150" unicode="&#x0150;" d="M435 737L389 757L469 913L522 887L435 737M293 741L246 760L318 912L373 889L293 741M353 712Q489 712 557 633Q625 554 625 425L625 271Q625 146 556.50 67Q488-12 353-12Q218-12 149.50 67Q81 146 81 271L81 425Q81 555 149.50 633.50Q218 712 353 712M353 651Q254 651 205 590Q156 529 156 426L156 269Q156 171 205 110Q254 49 353 49Q452 49 501 110Q550 171 550 269L550 426Q550 528 501.50 589.50Q453 651 353 651Z"  horiz-adv-x="706" vert-adv-y="1000"  />

      
      <glyph glyph-name="uni0151" unicode="&#x0151;" d="M381 611L335 631L415 787L468 761L381 611M239 615L192 634L264 786L319 763L239 615M122 470Q122 470 152.50 504.50Q183 539 295 539Q407 539 469 470Q531 401 531 291L531 239Q531 127 469 57.50Q407-12 295-12Q183-12 122 57Q61 126 61 239L61 291Q61 401 122 470M295 479Q217 479 176 429.50Q135 380 135 292L135 240Q135 149 176 98Q217 47 295 47Q372 47 414.50 98Q457 149 457 240L457 292Q457 379 414.50 429Q372 479 295 479Z"  horiz-adv-x="591" vert-adv-y="1000"  />

      
      <glyph glyph-name="uni0152" unicode="&#x0152;" d="M932 700L932 639L553 639Q628 563 628 425L628 391L910 391L910 329L628 329L628 271Q628 137 553 61L932 61L932 0L447 0Q405-12 354-12Q219-12 150 67Q81 146 81 271L81 425Q81 555 150.50 633.50Q220 712 354 712Q406 712 447 700L932 700M156 269Q156 170 205 109.50Q254 49 354 49Q455 49 504 109.50Q553 170 553 269L553 426Q553 528 504 589.50Q455 651 354 651Q255 651 205.50 590Q156 529 156 426L156 269Z"  horiz-adv-x="1012" vert-adv-y="1000"  />

      
      <glyph glyph-name="uni0153" unicode="&#x0153;" d="M892 241L528 241L528 239Q528 145 572.50 96Q617 47 699 47Q770 47 843 96L872 48Q793-12 695-12Q552-12 494 117Q438-12 295-12Q183-12 122 57Q61 126 61 239L61 291Q61 401 122 470Q183 539 295 539Q439 539 493 413Q550 539 680 539Q780 539 837.50 472.50Q895 406 895 288Q895 277 892 241M680 482Q607 482 568 433.50Q529 385 528 295L828 295L828 302Q828 386 789 434Q750 482 680 482M457 240L457 292Q457 382 415 430.50Q373 479 295 479Q217 479 176 429.50Q135 380 135 292L135 240Q135 149 176 98Q217 47 295 47Q373 47 415 97.50Q457 148 457 240Z"  horiz-adv-x="952" vert-adv-y="1000"  />

      
      <glyph glyph-name="uni0154" unicode="&#x0154;" d="M427 834L230 749L211 793L403 887L427 834M594 0L511 0L351 297Q348 297 341.50 296.50Q335 296 331 296L198 296L198 0L123 0L123 700L198 700L329 700Q438 700 502.50 651.50Q567 603 567 520L567 474Q567 413 529.50 370.50Q492 328 426 309L594 0M330 357Q406 357 448.50 388Q491 419 491 476L491 518Q491 575 447 607Q403 639 328 639L198 639L198 357L330 357Z"  horiz-adv-x="657" vert-adv-y="1000"  />

      
      <glyph glyph-name="uni0155" unicode="&#x0155;" d="M344 700L147 611L126 654L316 753L344 700M317 536Q346 536 375 527L362 457Q349 461 326 461Q216 461 177 333L177 0L103 0L103 527L159 527L171 432Q193 485 232 510.50Q271 536 317 536Z"  horiz-adv-x="398" vert-adv-y="1000"  />

      
      </font>
</defs>
</svg>
