<svg width="24" height="24" viewBox="0 0 24 24" fill="none" xmlns="http://www.w3.org/2000/svg">
<g clip-path="url(#clip0_1_3265)">
<path fill-rule="evenodd" clip-rule="evenodd" d="M15.4042 22.9688H17.25C20.4064 22.9688 22.9688 20.4064 22.9688 17.25V6.75C22.9688 3.59363 20.4064 1.03125 17.25 1.03125H6.75C3.59363 1.03125 1.03125 3.59363 1.03125 6.75V17.25C1.03125 20.4064 3.59363 22.9688 6.75 22.9688H12.2812C12.54 22.9688 12.75 22.7588 12.75 22.5C12.75 22.2412 12.54 22.0312 12.2812 22.0312H6.75C4.11112 22.0312 1.96875 19.8889 1.96875 17.25V6.75C1.96875 4.11112 4.11112 1.96875 6.75 1.96875H17.25C19.8889 1.96875 22.0312 4.11112 22.0312 6.75V17.25C22.0312 19.8889 19.8889 22.0312 17.25 22.0312H15.4042C15.1455 22.0312 14.9355 22.2412 14.9355 22.5C14.9355 22.7588 15.1455 22.9688 15.4042 22.9688Z" fill="white"/>
<path fill-rule="evenodd" clip-rule="evenodd" d="M14.9382 10.0994V11.875C14.9382 12.1339 15.1485 12.3442 15.4075 12.3442H17.764L17.4364 14.4002H15.4075C15.1485 14.4002 14.9382 14.6099 14.9382 14.8688V22.5041C14.9382 22.763 15.1485 22.9734 15.4075 22.9734C15.6657 22.9734 15.876 22.763 15.876 22.5041V15.338H17.8369C18.0673 15.338 18.2631 15.17 18.2999 14.943L18.776 11.9486C18.7976 11.8132 18.7587 11.6751 18.6698 11.571C18.581 11.4662 18.4505 11.4065 18.3131 11.4065H15.876V10.0099L15.4075 10.4791L15.4193 10.4576L15.867 9.98698C15.8434 9.50734 15.9121 9.1228 16.273 9.09087H18.531C18.7899 9.09087 18.9996 8.88055 18.9996 8.62164V5.84514C18.9996 5.62649 18.8482 5.43699 18.6351 5.38841C16.8443 4.97887 14.8084 5.10798 13.4584 5.88679C12.4734 6.45458 11.8286 7.3507 11.8147 8.61678V11.4065H9.6365C9.37759 11.4065 9.16797 11.6161 9.16797 11.875V14.8688C9.16797 15.1277 9.37759 15.338 9.6365 15.338H11.8147V22.5041C11.8147 22.763 12.025 22.9734 12.2839 22.9734C12.5421 22.9734 12.7524 22.763 12.7524 22.5041V14.8688C12.7524 14.6099 12.5428 14.4002 12.2839 14.4002H10.1057V12.3442H12.2839C12.5428 12.3442 12.7524 12.1339 12.7524 11.875V8.62511C12.7656 7.48883 13.5146 6.78846 14.5315 6.42196C15.5602 6.0506 16.8547 6.00895 18.0618 6.2276V8.15311H16.2585C16.2487 8.15311 16.2397 8.1531 16.23 8.1538C15.3693 8.20655 14.8751 8.91178 14.9306 10.0335C14.9313 10.0557 14.9341 10.0779 14.9382 10.0994Z" fill="white"/>
</g>
<defs>
<clipPath id="clip0_1_3265">
<rect width="24" height="24" fill="white"/>
</clipPath>
</defs>
</svg>
