<svg width="24" height="24" viewBox="0 0 24 24" fill="none" xmlns="http://www.w3.org/2000/svg">
    <path
            d="M9.342 18.782L7.411 18.264L8.198 15.325C7.01997 14.8905 5.92512 14.2573 4.961 13.453L2.808 15.607L1.393 14.192L3.547 12.039C2.33108 10.5827 1.51409 8.83575 1.176 6.96899L3.144 6.60999C3.903 10.812 7.579 14 12 14C16.42 14 20.097 10.812 20.856 6.60999L22.824 6.96799C22.4864 8.835 21.6697 10.5824 20.454 12.039L22.607 14.192L21.192 15.607L19.039 13.453C18.0749 14.2573 16.98 14.8905 15.802 15.325L16.589 18.265L14.658 18.782L13.87 15.842C12.6324 16.0541 11.3677 16.0541 10.13 15.842L9.342 18.782Z"
            fill="#ffffff"/>
</svg>