<svg xmlns="http://www.w3.org/2000/svg">
    <symbol id="microphone" viewBox="0 0 32 32">
        <path d="M23.2727 0C18.4602 0 14.5454 3.9148 14.5454 8.72728C14.5454 8.98767 14.562 9.24403 14.5845 9.49876L0.484364 26.9929C0.44175 27.0462 0.409091 27.1044 0.383523 27.1648C0.132068 27.532 0 27.9432 0 28.3637C0 28.9461 0.22725 29.4943 0.639205 29.9063L2.09237 31.3601C2.50432 31.7727 3.05257 32 3.63641 32C4.05689 32 4.46598 31.8686 4.83246 31.6193C4.89355 31.5931 4.95321 31.5582 5.00721 31.5142L22.4999 17.4154C22.755 17.4379 23.0119 17.4545 23.2729 17.4545C28.0853 17.4545 32.0001 13.5397 32.0001 8.72721C32.0001 3.91473 28.0853 0 23.2727 0ZM4.22728 30.2749C4.17471 30.2997 4.125 30.331 4.07809 30.3686C3.74141 30.6399 3.36505 30.5738 3.12212 30.3324L1.66759 28.8779C1.5298 28.7401 1.45452 28.5576 1.45452 28.3637C1.45452 28.2159 1.51418 28.0675 1.63207 27.9219C1.66902 27.8757 1.70025 27.8267 1.72296 27.7749L14.9534 11.3607C15.8093 14.0585 17.9424 16.1914 20.6404 17.0469L4.22728 30.2749ZM23.2727 16C19.2627 16 16 12.7373 16 8.72728C16 6.98435 16.6416 5.40423 17.6678 4.15023L27.849 14.3326C26.5951 15.3585 25.0153 16 23.2727 16ZM28.8776 13.3043L18.6964 3.12191C19.9504 2.09605 21.5303 1.45459 23.2728 1.45459C27.2827 1.45452 30.5455 4.7173 30.5455 8.72728C30.5455 10.4701 29.9038 12.0503 28.8776 13.3043Z"
              fill="currentColor"/>
        <path d="M13.3043 17.6672L11.8498 19.1217C11.5657 19.4058 11.5657 19.8661 11.8498 20.1501C11.9918 20.2921 12.178 20.3632 12.364 20.3632C12.5501 20.3632 12.7362 20.2921 12.8783 20.1501L14.3328 18.6956C14.6169 18.4115 14.6169 17.9512 14.3328 17.6672C14.0487 17.3831 13.5884 17.3831 13.3043 17.6672Z"
              fill="currentColor"/>
    </symbol>

    <svg viewBox="0 0 32 32" id="map">
        <path d="M29.3386 3H26.677V7.38354H24.7598C24.5693 7.09595 24.3489 6.8252 24.0994 6.57568C23.926 6.40234 23.7397 6.24048 23.5454 6.09448L22.9812 6.84546C23.1401 6.96509 23.293 7.09766 23.4351 7.23975C24.2334 8.03833 24.6731 9.09961 24.6731 10.2288C24.6731 11.0974 24.4119 11.9255 23.9282 12.6252C23.6904 11.7192 23.1077 10.9399 22.2932 10.4556C22.4138 10.196 22.4814 9.90723 22.4814 9.60254V8.97632C22.4814 7.854 21.5684 6.94116 20.4463 6.94116C19.324 6.94116 18.4109 7.854 18.4109 8.97632V9.60254C18.4109 9.90723 18.4788 10.196 18.5991 10.4556C17.7847 10.9399 17.2019 11.7192 16.9641 12.6252C16.4805 11.9255 16.2192 11.0974 16.2192 10.2288C16.2192 9.09961 16.6589 8.03833 17.4573 7.23975C18.2556 6.44165 19.3171 6.00171 20.4463 6.00171C21.071 6.00171 21.6982 6.14258 22.2595 6.40918L22.6624 5.56055C21.9761 5.23462 21.2097 5.0625 20.4463 5.0625C19.0662 5.0625 17.7688 5.59985 16.793 6.57568C16.5435 6.8252 16.323 7.09595 16.1326 7.38354H5.323V3H2.66138C1.19385 3 0 4.19385 0 5.66138V17.8101H0.939453V5.66138C0.939453 4.71191 1.71191 3.93945 2.66138 3.93945H4.38354V23.6653H2.66138C2.00513 23.6653 1.40381 23.9041 0.939453 24.2991V18.7495H0V26.3269C0 27.7944 1.19385 28.9883 2.66138 28.9883H5.85522V28.0488H2.66138C1.71191 28.0488 0.939453 27.2764 0.939453 26.3269C0.939453 25.3772 1.71191 24.6047 2.66138 24.6047H5.323V8.323H15.6426C15.4053 8.92163 15.2798 9.56543 15.2798 10.2288C15.2798 11.6086 15.8171 12.9062 16.793 13.8818L20.4463 17.5352L24.0994 13.8818C25.0752 12.9062 25.6125 11.6086 25.6125 10.2288C25.6125 9.56543 25.4871 8.92163 25.2498 8.323H26.677V12.2368H27.6165V3.93945H29.3386C30.2881 3.93945 31.0605 4.71191 31.0605 5.66138V24.2991C30.5962 23.9041 29.9949 23.6653 29.3386 23.6653H27.6165V13.176H26.677V24.6047H29.3386C30.2881 24.6047 31.0605 25.3772 31.0605 26.3269C31.0605 27.2764 30.2881 28.0488 29.3386 28.0488H6.79443V28.9883H29.3386C30.8062 28.9883 32 27.7944 32 26.3269V5.66138C32 4.19385 30.8062 3 29.3386 3ZM19.3503 8.97632C19.3503 8.37207 19.842 7.88037 20.4463 7.88037C21.0505 7.88037 21.542 8.37207 21.542 8.97632V9.60254C21.542 10.2068 21.0505 10.6985 20.4463 10.6985C19.842 10.6985 19.3503 10.2068 19.3503 9.60254V8.97632ZM20.4463 16.2068L17.7849 13.5452C17.7856 12.552 18.3281 11.6609 19.189 11.2012C19.5354 11.4741 19.9719 11.6377 20.4463 11.6377C20.9204 11.6377 21.3569 11.4741 21.7034 11.2012C22.5642 11.6609 23.1067 12.552 23.1077 13.5452L20.4463 16.2068Z"
              fill="currentColor"/>
        <path d="M11.3643 21.7869H21.3213C22.3052 21.7869 23.106 22.5876 23.106 23.5718C23.106 24.5557 22.3052 25.3564 21.3213 25.3564H11.1138V26.2957H21.3213C22.8232 26.2957 24.0452 25.0737 24.0452 23.5718C24.0452 22.0696 22.8232 20.8477 21.3213 20.8477H11.3643C10.5183 20.8477 9.83008 20.1594 9.83008 19.3135C9.83008 18.4673 10.5183 17.7791 11.3643 17.7791H18.1902V16.8398H11.3643C10.0002 16.8398 8.89062 17.9495 8.89062 19.3135C8.89062 20.6772 10.0002 21.7869 11.3643 21.7869Z"
              fill="currentColor"/>
        <path d="M29.1211 8.91797H30.0603V9.85742H29.1211V8.91797Z" fill="currentColor"/>
        <path d="M29.1211 5.47363H30.0603V7.97852H29.1211V5.47363Z" fill="currentColor"/>
        <path d="M7.35938 25.3564H8.29858V26.2957H7.35938V25.3564Z" fill="currentColor"/>
        <path d="M9.23828 25.3564H10.1775V26.2957H9.23828V25.3564Z" fill="currentColor"/>
        <path d="M8.61011 9.26172H6.26172V11.6101H7.20117V10.2012H8.61011V9.26172Z" fill="currentColor"/>
        <path d="M6.26172 12.5498H7.20117V13.4893H6.26172V12.5498Z" fill="currentColor"/>
        <path d="M9.55078 9.26172H10.4902V10.2012H9.55078V9.26172Z" fill="currentColor"/>
    </svg>

    <svg viewBox="0 0 32 32" id="masks">
        <path d="M29.9714 1.25182L29.4555 1.12338C23.7388 -0.300241 17.7602 -0.300241 12.0435 1.12338L11.5281 1.25182C10.3347 1.54874 9.49735 2.62103 9.49866 3.85081V7.5812C6.83532 8.33565 4.26747 9.39434 1.84638 10.7363L1.37864 10.994C0.302685 11.5884 -0.228099 12.8409 0.0928826 14.0275L1.65201 19.8575C3.05758 25.09 6.92558 29.3085 12.0165 31.162L13.6238 31.7513C15.5303 32.437 17.6621 31.8646 18.9685 30.3159L20.0659 29.0051C21.0875 27.7897 21.9259 26.4317 22.555 24.9738C22.8928 24.8428 23.2148 24.6733 23.5146 24.4692L24.916 23.4882C29.354 20.3786 31.9977 15.3007 32.0003 9.8817V3.85081C32.0016 2.62129 31.1645 1.549 29.9714 1.25182ZM19.2456 28.3165L18.1479 29.6285C17.1313 30.8329 15.4733 31.2781 13.9903 30.7444L12.383 30.1553C7.62064 28.4212 4.00221 24.4747 2.68716 19.5799L1.1275 13.75C0.935492 13.0389 1.25333 12.2889 1.89791 11.9326L2.36513 11.675C4.6256 10.4216 7.01792 9.42259 9.49866 8.69613V9.8817C9.50232 14.6807 11.5802 19.2435 15.1973 22.3971C14.255 22.7801 13.2602 23.0192 12.2465 23.1058L8.21761 23.4325C7.9738 23.4519 7.77394 23.6339 7.73208 23.8751C7.69023 24.1163 7.8171 24.3552 8.04025 24.4554L13.3813 26.8662C14.5444 27.3934 15.9178 27.0261 16.6628 25.9886L17.8316 24.3627L17.9844 24.4697C18.7951 25.0358 19.7606 25.339 20.7495 25.3377C20.9101 25.3377 21.0655 25.3173 21.2235 25.3019C20.6854 26.3812 20.0215 27.3931 19.2456 28.3165ZM16.142 23.1604C16.2882 23.2677 16.4308 23.3833 16.5812 23.4882L16.9521 23.7477L15.7906 25.3639C15.3433 25.9857 14.5193 26.2054 13.8216 25.8889L10.3729 24.3353L12.3328 24.1747C13.6523 24.064 14.942 23.7208 16.142 23.1604ZM30.9288 9.8817C30.9267 14.9512 28.4536 19.7011 24.302 22.6103L22.9006 23.5913C21.6078 24.492 19.8909 24.492 18.5984 23.5913L17.1975 22.6103C13.0457 19.7013 10.5723 14.9512 10.5702 9.8817V3.85081C10.5702 3.11336 11.0719 2.47061 11.7874 2.29168L12.3033 2.16271C17.8494 0.781208 23.6496 0.781208 29.1957 2.16271L29.7116 2.29168C30.4268 2.47061 30.9288 3.11336 30.9288 3.85081V9.8817Z"
              fill="currentColor"/>
        <path d="M18.7638 10.0571L19.4944 9.27285C17.8194 7.60176 15.1079 7.60176 13.4329 9.27285L13.4062 9.29953L14.1905 10.0304C14.798 9.42275 15.6236 9.08345 16.4826 9.08842C17.342 9.09365 18.1634 9.44237 18.7638 10.0571Z"
              fill="currentColor"/>
        <path d="M22.0032 9.27285L21.9766 9.29953L22.7608 10.0304C23.3683 9.42275 24.1939 9.08345 25.053 9.08842C25.9123 9.09365 26.7337 9.44237 27.3341 10.0571L28.0647 9.27285C26.3897 7.60176 23.6783 7.60176 22.0032 9.27285Z"
              fill="currentColor"/>
        <path d="M7.64044 17.8218C8.47808 17.5971 9.37091 17.7203 10.1162 18.1634L10.6156 17.2146C8.56571 16.0311 5.94449 16.7333 4.76076 18.7829L4.74219 18.8156L5.20548 19.0835L5.6876 19.3181C6.11244 18.5783 6.81562 18.0394 7.64044 17.8218Z"
              fill="currentColor"/>
        <path d="M26.5472 15.0439L22.5715 15.7672C21.3671 15.987 20.1328 15.987 18.9284 15.7672L14.9519 15.0439C14.7117 15.0002 14.4721 15.1245 14.3698 15.3463C14.2673 15.5682 14.3277 15.8311 14.5168 15.9857L19.0538 19.6964C20.0415 20.5006 21.4584 20.5006 22.4462 19.6964L26.9823 15.9846C27.1714 15.83 27.2321 15.5671 27.1296 15.3453C27.0273 15.1234 26.7877 14.9992 26.5472 15.0429V15.0439ZM21.7678 18.868C21.1753 19.3511 20.3246 19.3511 19.7321 18.868L16.7993 16.4688L18.737 16.8209C20.0677 17.0642 21.4312 17.0642 22.7616 16.8209L24.6996 16.4688L21.7678 18.868Z"
              fill="currentColor"/>
    </svg>

    <svg viewBox="0 0 32 32" id="tickets">
        <path d="M31.8938 15.1015L31.1297 12.4466C31.0687 12.248 30.8082 12.0182 30.4889 12.138C29.506 12.421 28.4764 11.8515 28.1935 10.8687C27.9107 9.88595 28.4801 8.85626 29.4632 8.57333C29.6725 8.52708 29.9232 8.30958 29.8415 7.97133L29.1788 5.66883C28.9802 4.97864 28.5247 4.40714 27.8963 4.05964C27.2679 3.71208 26.5417 3.6302 25.8515 3.82876L1.94617 10.7095C1.25598 10.9081 0.684478 11.3636 0.336978 11.992C-0.0105221 12.6205 -0.0925221 13.3466 0.106165 14.0368C0.479103 15.0638 0.96254 17.0841 0.79229 18.1689C0.79229 18.4271 0.998415 18.638 1.25648 18.644C2.04167 18.6623 2.7266 19.1806 2.97085 19.9091C2.79692 20.0491 2.5956 20.1596 2.37167 20.2298C2.12529 20.3069 1.9856 20.5666 2.05704 20.8147L2.3801 21.9371C2.06273 22.1958 1.67217 22.3412 1.25648 22.3509C0.998353 22.3569 0.79229 22.5678 0.79229 22.826V25.5886C0.79229 27.0711 1.99842 28.2773 3.48092 28.2773H9.49823C9.76073 28.2773 9.97348 28.0645 9.97348 27.802C9.97348 27.5396 9.76073 27.3268 9.49823 27.3268H3.48092C2.52248 27.3268 1.74273 26.547 1.74273 25.5886V23.2521C2.06773 23.1904 2.37667 23.072 2.65785 22.9022L2.82123 23.4696C3.01985 24.1598 3.47529 24.7313 4.10373 25.0788C4.67167 25.3751 5.36773 25.5394 6.14848 25.3096L28.1605 18.9739C27.8754 19.4128 27.7097 19.9362 27.7097 20.4974C27.7097 21.9014 28.7465 23.0678 30.0948 23.2712V25.5886C30.0948 26.5471 29.315 27.3268 28.3567 27.3268H11.7762C11.5137 27.3268 11.301 27.5395 11.301 27.802C11.301 28.0645 11.5137 28.2773 11.7762 28.2773H28.3567C29.8392 28.2773 31.0453 27.0711 31.0453 25.5886V22.826C31.0414 22.6183 30.8552 22.3252 30.5149 22.3521C29.4922 22.3521 28.6602 21.5201 28.6602 20.4975C28.6602 19.4749 29.4922 18.6429 30.5149 18.6429C30.7289 18.6567 31.03 18.5166 31.0453 18.169V17.9C31.2922 17.6913 31.5019 17.4378 31.663 17.1465C32.0105 16.5178 32.0925 15.7917 31.8938 15.1015ZM1.74273 17.7438V16.6092C2.9981 16.5621 3.9601 17.8053 3.58554 19.0051C3.17554 18.3575 2.50885 17.8925 1.74273 17.7438ZM17.0627 18.2679L18.7689 17.7768L19.5426 20.4653L17.8365 20.9563L17.0627 18.2679ZM30.8312 16.6863C30.5977 17.1088 30.2332 17.3623 29.7909 17.5155L22.6825 19.5615L22.63 19.3788C22.5574 19.1265 22.2936 18.981 22.0419 19.0535C21.7897 19.1261 21.644 19.3895 21.7167 19.6416L21.7692 19.8243L20.456 20.2023L19.5508 17.0572C19.516 16.9361 19.4344 16.8338 19.3241 16.7728C19.2137 16.7118 19.0838 16.6971 18.9627 16.732L16.3432 17.4859C16.222 17.5208 16.1197 17.6023 16.0587 17.7126C15.9977 17.823 15.983 17.953 16.018 18.0741L16.9232 21.2191L5.8856 24.3961C5.43929 24.5246 4.96985 24.4716 4.5636 24.247C4.15735 24.0223 3.86298 23.6528 3.73448 23.2066L3.08817 20.9611C4.22929 20.3834 4.84692 19.0458 4.54067 17.8006C4.20354 16.43 2.94173 15.59 1.56435 15.6671L1.01948 13.7739C0.891103 13.3277 0.94404 12.8582 1.16873 12.452C1.39335 12.0457 1.76285 11.7513 2.20904 11.6228L18.0927 7.05101L18.1453 7.2337C18.2052 7.44201 18.3953 7.57758 18.6017 7.57758C18.6453 7.57758 18.6895 7.57151 18.7335 7.55889C18.9857 7.48626 19.1313 7.22295 19.0587 6.97076L19.0061 6.78814L26.1144 4.74214C26.5606 4.6137 27.03 4.6667 27.4364 4.89139C27.8426 5.11601 28.137 5.48551 28.2655 5.9317L28.805 7.80639C27.5657 8.3747 26.8919 9.78239 27.2802 11.1316C27.6686 12.4808 28.9867 13.3151 30.3395 13.1374L30.9805 15.3644C31.1089 15.8106 31.0559 16.2801 30.8312 16.6863Z"
              fill="currentColor"/>
        <path d="M20.0387 10.3762L19.6899 9.16422C19.6172 8.91197 19.3534 8.7664 19.1017 8.83897C18.8495 8.91159 18.7039 9.1749 18.7765 9.42709L19.1253 10.639C19.195 10.8215 19.4127 11.0505 19.7134 10.9643C19.9657 10.8917 20.1113 10.6283 20.0387 10.3762Z"
              fill="currentColor"/>
        <path d="M21.0192 13.7804L20.6703 12.5685C20.5977 12.3162 20.3341 12.1708 20.0821 12.2432C19.83 12.3158 19.6843 12.5792 19.757 12.8314L20.1058 14.0433C20.1756 14.2258 20.3933 14.4548 20.694 14.3686C20.9462 14.296 21.0918 14.0327 21.0192 13.7804Z"
              fill="currentColor"/>
        <path d="M21.6508 15.9738C21.5782 15.7215 21.3144 15.576 21.0627 15.6485C20.8105 15.7211 20.6648 15.9845 20.7374 16.2367L21.0862 17.4486C21.1559 17.631 21.3737 17.8601 21.6744 17.7739C21.9265 17.7013 22.0722 17.4379 21.9996 17.1857L21.6508 15.9738Z"
              fill="currentColor"/>
        <path d="M26.7192 8.46495C26.7802 8.35463 26.7949 8.22463 26.76 8.10351L26.2282 6.25601C26.1556 6.00382 25.892 5.8582 25.64 5.93076L20.8595 7.30669C20.6074 7.37932 20.4617 7.64263 20.5343 7.89482L21.066 9.74232C21.1628 9.92419 21.264 10.1416 21.6542 10.0676L26.4347 8.69157C26.5559 8.65676 26.6582 8.57526 26.7192 8.46495ZM21.848 9.02282L21.5791 8.0887L25.4463 6.97563L25.7152 7.90976L21.848 9.02282Z"
              fill="currentColor"/>
        <path d="M25.97 15.7043L28.524 14.9692C28.7762 14.8966 28.9219 14.6333 28.8493 14.381C28.7766 14.1287 28.5129 13.9832 28.2612 14.0558L25.7072 14.7909C25.455 14.8635 25.3093 15.1268 25.382 15.379C25.4419 15.5873 25.632 15.7229 25.8384 15.7229C25.8819 15.723 25.9261 15.717 25.97 15.7043Z"
              fill="currentColor"/>
        <path d="M28.7339 15.6925L26.1799 16.4275C25.9277 16.5002 25.782 16.7635 25.8546 17.0157C25.9145 17.224 26.1046 17.3596 26.311 17.3596C26.3545 17.3596 26.3989 17.3535 26.4427 17.341L28.9967 16.6059C29.2489 16.5333 29.3946 16.27 29.322 16.0178C29.2493 15.7654 28.9856 15.6199 28.7339 15.6925Z"
              fill="currentColor"/>
        <path d="M9.09411 20.6358L5.49236 21.6725C5.24017 21.7452 5.09448 22.0085 5.16711 22.2607C5.22705 22.469 5.41711 22.6045 5.62355 22.6045C5.66711 22.6045 5.71136 22.5985 5.75523 22.5859L9.35698 21.5492C9.60917 21.4766 9.75486 21.2133 9.68223 20.9611C9.60961 20.7088 9.34586 20.5633 9.09411 20.6358Z"
              fill="currentColor"/>
        <path d="M27.4373 26.3012C27.6998 26.3012 27.9125 26.0884 27.9125 25.8259V23.986C27.9125 23.7236 27.6998 23.5107 27.4373 23.5107H22.1901C21.9276 23.5107 21.7148 23.7235 21.7148 23.986V25.8259C21.7148 26.0884 21.9276 26.3012 22.1901 26.3012H27.4373ZM22.6653 24.4613H26.962V25.3508H22.6653V24.4613Z"
              fill="currentColor"/>
        <path d="M19.8594 25.2855C20.1219 25.2855 20.3347 25.0727 20.3347 24.8102C20.3347 24.5477 20.1219 24.335 19.8594 24.335H14.8073C14.5448 24.335 14.332 24.5477 14.332 24.8102C14.332 25.0727 14.5448 25.2855 14.8073 25.2855H19.8594Z"
              fill="currentColor"/>
        <path d="M14.8176 13.1735C14.6298 13.2275 14.15 13.3854 13.5129 13.5999L10.797 11.0286C10.6748 10.913 10.5006 10.8704 10.3388 10.917L8.89814 11.3317C8.67008 11.4024 8.43483 11.7124 8.64214 12.0636L10.471 14.6379C8.89077 15.1814 7.38558 15.7033 6.92183 15.8642L5.35014 15.4562C5.02483 15.3656 4.60583 15.731 4.82039 16.156L6.02308 18.2137C6.16983 18.3617 6.25271 18.5037 6.58758 18.4234L7.44946 18.1277C7.70964 18.0677 9.42064 17.6735 11.2237 17.2528L11.0432 20.4054C11.0811 20.6345 11.1456 20.9599 11.6491 20.8893L13.0898 20.4746C13.2515 20.428 13.3765 20.2995 13.4185 20.1365L14.352 16.5149C15.0053 16.3579 15.4958 16.2365 15.6835 16.1824C16.757 15.8734 17.1701 14.5274 17.2136 14.375C17.2636 14.2003 17.2095 14.0124 17.0743 13.8909C16.9564 13.7849 15.8903 12.8647 14.8176 13.1735ZM9.8052 12.0596L10.3407 11.9055L12.4947 13.9448C12.1476 14.063 11.7813 14.1882 11.4083 14.316L9.8052 12.0596ZM12.566 19.6364L12.0305 19.7905L12.1886 17.0271C12.5725 16.937 12.9494 16.8484 13.3062 16.764L12.566 19.6364ZM15.4207 15.2691C13.7127 15.7219 7.49427 17.1323 7.16452 17.2206L6.64733 17.398L6.21796 16.6635L6.82233 16.8204C7.27183 16.837 7.40952 16.6656 8.27777 16.4005C9.76608 15.8848 12.307 15.0099 13.5469 14.5914C14.302 14.3361 14.878 14.1452 15.0805 14.0869C15.4336 13.9852 15.8908 14.2114 16.1885 14.4091C16.0426 14.7343 15.7771 15.1665 15.4207 15.2691Z"
              fill="currentColor"/>
    </svg>

    <svg viewBox="0 0 32 32" id="peoples">
        <path d="M9.25 20.25C9.25 19.805 9.11804 19.37 8.87081 19C8.62357 18.63 8.27217 18.3416 7.86104 18.1713C7.44991 18.001 6.9975 17.9564 6.56105 18.0432C6.12459 18.1301 5.72368 18.3443 5.40901 18.659C5.09434 18.9737 4.88005 19.3746 4.79323 19.811C4.70642 20.2475 4.75097 20.6999 4.92127 21.111C5.09157 21.5222 5.37996 21.8736 5.74997 22.1208C6.11998 22.368 6.55499 22.5 7 22.5C7.59654 22.4994 8.16846 22.2621 8.59027 21.8403C9.01209 21.4185 9.24935 20.8465 9.25 20.25ZM5.75 20.25C5.75 20.0028 5.82331 19.7611 5.96066 19.5555C6.09802 19.35 6.29324 19.1898 6.52165 19.0952C6.75005 19.0005 7.00139 18.9758 7.24386 19.024C7.48634 19.0723 7.70907 19.1913 7.88388 19.3661C8.0587 19.5409 8.17775 19.7637 8.22598 20.0061C8.27421 20.2486 8.24946 20.4999 8.15485 20.7284C8.06024 20.9568 7.90003 21.152 7.69446 21.2893C7.4889 21.4267 7.24723 21.5 7 21.5C6.6686 21.4996 6.35088 21.3678 6.11655 21.1335C5.88221 20.8991 5.75039 20.5814 5.75 20.25Z"
              fill="currentColor"/>
        <path d="M15.25 20.25C15.25 19.805 15.118 19.37 14.8708 19C14.6236 18.63 14.2722 18.3416 13.861 18.1713C13.4499 18.001 12.9975 17.9564 12.561 18.0432C12.1246 18.1301 11.7237 18.3443 11.409 18.659C11.0943 18.9737 10.8801 19.3746 10.7932 19.811C10.7064 20.2475 10.751 20.6999 10.9213 21.111C11.0916 21.5222 11.38 21.8736 11.75 22.1208C12.12 22.368 12.555 22.5 13 22.5C13.5965 22.4994 14.1685 22.2621 14.5903 21.8403C15.0121 21.4185 15.2494 20.8465 15.25 20.25ZM11.75 20.25C11.75 20.0028 11.8233 19.7611 11.9607 19.5555C12.098 19.35 12.2932 19.1898 12.5216 19.0952C12.7501 19.0005 13.0014 18.9758 13.2439 19.024C13.4863 19.0723 13.7091 19.1913 13.8839 19.3661C14.0587 19.5409 14.1778 19.7637 14.226 20.0061C14.2742 20.2486 14.2495 20.4999 14.1549 20.7284C14.0602 20.9568 13.9 21.152 13.6945 21.2893C13.4889 21.4267 13.2472 21.5 13 21.5C12.6686 21.4996 12.3509 21.3678 12.1165 21.1335C11.8822 20.8991 11.7504 20.5814 11.75 20.25Z"
              fill="currentColor"/>
        <path d="M21.25 20.25C21.25 19.805 21.118 19.37 20.8708 19C20.6236 18.63 20.2722 18.3416 19.861 18.1713C19.4499 18.001 18.9975 17.9564 18.561 18.0432C18.1246 18.1301 17.7237 18.3443 17.409 18.659C17.0943 18.9737 16.8801 19.3746 16.7932 19.811C16.7064 20.2475 16.751 20.6999 16.9213 21.111C17.0916 21.5222 17.38 21.8736 17.75 22.1208C18.12 22.368 18.555 22.5 19 22.5C19.5965 22.4994 20.1685 22.2621 20.5903 21.8403C21.0121 21.4185 21.2494 20.8465 21.25 20.25ZM17.75 20.25C17.75 20.0028 17.8233 19.7611 17.9607 19.5555C18.098 19.35 18.2932 19.1898 18.5216 19.0952C18.7501 19.0005 19.0014 18.9758 19.2439 19.024C19.4863 19.0723 19.7091 19.1913 19.8839 19.3661C20.0587 19.5409 20.1777 19.7637 20.226 20.0061C20.2742 20.2486 20.2495 20.4999 20.1549 20.7284C20.0602 20.9568 19.9 21.152 19.6945 21.2893C19.4889 21.4267 19.2472 21.5 19 21.5C18.6686 21.4996 18.3509 21.3678 18.1165 21.1335C17.8822 20.8991 17.7504 20.5814 17.75 20.25Z"
              fill="currentColor"/>
        <path d="M27.25 20.25C27.25 19.805 27.118 19.37 26.8708 19C26.6236 18.63 26.2722 18.3416 25.861 18.1713C25.4499 18.001 24.9975 17.9564 24.561 18.0432C24.1246 18.1301 23.7237 18.3443 23.409 18.659C23.0943 18.9737 22.8801 19.3746 22.7932 19.811C22.7064 20.2475 22.751 20.6999 22.9213 21.111C23.0916 21.5222 23.38 21.8736 23.75 22.1208C24.12 22.368 24.555 22.5 25 22.5C25.5965 22.4994 26.1685 22.2621 26.5903 21.8403C27.0121 21.4185 27.2494 20.8465 27.25 20.25ZM23.75 20.25C23.75 20.0028 23.8233 19.7611 23.9607 19.5555C24.098 19.35 24.2932 19.1898 24.5216 19.0952C24.7501 19.0005 25.0014 18.9758 25.2439 19.024C25.4863 19.0723 25.7091 19.1913 25.8839 19.3661C26.0587 19.5409 26.1777 19.7637 26.226 20.0061C26.2742 20.2486 26.2495 20.4999 26.1549 20.7284C26.0602 20.9568 25.9 21.152 25.6945 21.2893C25.4889 21.4267 25.2472 21.5 25 21.5C24.6686 21.4996 24.3509 21.3678 24.1165 21.1335C23.8822 20.8991 23.7504 20.5814 23.75 20.25Z"
              fill="currentColor"/>
        <path d="M29.7625 25.6316C30.0762 25.2392 30.2479 24.7523 30.25 24.25C30.25 23.6533 30.0129 23.081 29.591 22.659C29.169 22.2371 28.5967 22 28 22C27.4033 22 26.831 22.2371 26.409 22.659C25.9871 23.081 25.75 23.6533 25.75 24.25C25.7521 24.7523 25.9238 25.2392 26.2375 25.6316C25.7431 25.7903 25.3105 26.0993 25 26.5155C24.6895 26.0993 24.2569 25.7903 23.7625 25.6316C24.0762 25.2392 24.2479 24.7523 24.25 24.25C24.25 23.6533 24.0129 23.081 23.591 22.659C23.169 22.2371 22.5967 22 22 22C21.4033 22 20.831 22.2371 20.409 22.659C19.9871 23.081 19.75 23.6533 19.75 24.25C19.7521 24.7523 19.9238 25.2392 20.2375 25.6316C19.7431 25.7903 19.3105 26.0993 19 26.5155C18.6895 26.0993 18.2569 25.7903 17.7625 25.6316C18.0762 25.2392 18.2479 24.7523 18.25 24.25C18.25 23.6533 18.0129 23.081 17.591 22.659C17.169 22.2371 16.5967 22 16 22C15.4033 22 14.831 22.2371 14.409 22.659C13.9871 23.081 13.75 23.6533 13.75 24.25C13.7521 24.7523 13.9238 25.2392 14.2375 25.6316C13.7431 25.7903 13.3105 26.0993 13 26.5155C12.6895 26.0993 12.2569 25.7903 11.7625 25.6316C12.0762 25.2392 12.2479 24.7523 12.25 24.25C12.25 23.6533 12.0129 23.081 11.591 22.659C11.169 22.2371 10.5967 22 10 22C9.40326 22 8.83097 22.2371 8.40901 22.659C7.98705 23.081 7.75 23.6533 7.75 24.25C7.75206 24.7523 7.92384 25.2392 8.23746 25.6316C7.74308 25.7903 7.31051 26.0993 7 26.5155C6.68949 26.0993 6.25692 25.7903 5.76255 25.6316C6.07616 25.2392 6.24794 24.7523 6.25 24.25C6.25 23.6533 6.01295 23.081 5.59099 22.659C5.16903 22.2371 4.59674 22 4 22C3.40326 22 2.83097 22.2371 2.40901 22.659C1.98705 23.081 1.75 23.6533 1.75 24.25C1.75206 24.7523 1.92384 25.2392 2.23745 25.6316C1.73457 25.7918 1.29546 26.1074 0.983268 26.533C0.671073 26.9586 0.501874 27.4722 0.5 28V31C0.5 31.1326 0.552678 31.2598 0.646447 31.3536C0.740215 31.4473 0.867392 31.5 1 31.5H31C31.1326 31.5 31.2598 31.4473 31.3536 31.3536C31.4473 31.2598 31.5 31.1326 31.5 31V28C31.4981 27.4722 31.3289 26.9586 31.0167 26.533C30.7045 26.1074 30.2654 25.7918 29.7625 25.6316ZM4 23C4.24723 23 4.4889 23.0733 4.69446 23.2107C4.90002 23.348 5.06024 23.5432 5.15485 23.7716C5.24946 24.0001 5.27421 24.2514 5.22598 24.4939C5.17775 24.7363 5.0587 24.9591 4.88388 25.1339C4.70907 25.3087 4.48634 25.4277 4.24386 25.476C4.00139 25.5242 3.75005 25.4995 3.52165 25.4049C3.29324 25.3102 3.09801 25.15 2.96066 24.9445C2.82331 24.7389 2.75 24.4972 2.75 24.25C2.75039 23.9186 2.88221 23.6009 3.11655 23.3665C3.35088 23.1322 3.6686 23.0004 4 23ZM6.5 30.5H1.5V28C1.50043 27.6023 1.65861 27.221 1.93982 26.9398C2.22103 26.6586 2.60231 26.5004 3 26.5H5C5.39769 26.5004 5.77897 26.6586 6.06018 26.9398C6.34139 27.221 6.49957 27.6023 6.5 28V30.5ZM10 23C10.2472 23 10.4889 23.0733 10.6945 23.2107C10.9 23.348 11.0602 23.5432 11.1548 23.7716C11.2495 24.0001 11.2742 24.2514 11.226 24.4939C11.1778 24.7363 11.0587 24.9591 10.8839 25.1339C10.7091 25.3087 10.4863 25.4277 10.2439 25.476C10.0014 25.5242 9.75005 25.4995 9.52165 25.4049C9.29324 25.3102 9.09801 25.15 8.96066 24.9445C8.82331 24.7389 8.75 24.4972 8.75 24.25C8.75039 23.9186 8.88221 23.6009 9.11655 23.3665C9.35088 23.1322 9.6686 23.0004 10 23ZM12.5 30.5H7.5V28C7.50043 27.6023 7.65861 27.221 7.93982 26.9398C8.22103 26.6586 8.60231 26.5004 9 26.5H11C11.3977 26.5004 11.779 26.6586 12.0602 26.9398C12.3414 27.221 12.4996 27.6023 12.5 28V30.5ZM16 23C16.2472 23 16.4889 23.0733 16.6945 23.2107C16.9 23.348 17.0602 23.5432 17.1549 23.7716C17.2495 24.0001 17.2742 24.2514 17.226 24.4939C17.1777 24.7363 17.0587 24.9591 16.8839 25.1339C16.7091 25.3087 16.4863 25.4277 16.2439 25.476C16.0014 25.5242 15.7501 25.4995 15.5216 25.4049C15.2932 25.3102 15.098 25.15 14.9607 24.9445C14.8233 24.7389 14.75 24.4972 14.75 24.25C14.7504 23.9186 14.8822 23.6009 15.1165 23.3665C15.3509 23.1322 15.6686 23.0004 16 23ZM18.5 30.5H13.5V28C13.5004 27.6023 13.6586 27.221 13.9398 26.9398C14.221 26.6586 14.6023 26.5004 15 26.5H17C17.3977 26.5004 17.779 26.6586 18.0602 26.9398C18.3414 27.221 18.4996 27.6023 18.5 28V30.5ZM22 23C22.2472 23 22.4889 23.0733 22.6945 23.2107C22.9 23.348 23.0602 23.5432 23.1549 23.7716C23.2495 24.0001 23.2742 24.2514 23.226 24.4939C23.1777 24.7363 23.0587 24.9591 22.8839 25.1339C22.7091 25.3087 22.4863 25.4277 22.2439 25.476C22.0014 25.5242 21.7501 25.4995 21.5216 25.4049C21.2932 25.3102 21.098 25.15 20.9607 24.9445C20.8233 24.7389 20.75 24.4972 20.75 24.25C20.7504 23.9186 20.8822 23.6009 21.1165 23.3665C21.3509 23.1322 21.6686 23.0004 22 23ZM24.5 30.5H19.5V28C19.5004 27.6023 19.6586 27.221 19.9398 26.9398C20.221 26.6586 20.6023 26.5004 21 26.5H23C23.3977 26.5004 23.779 26.6586 24.0602 26.9398C24.3414 27.221 24.4996 27.6023 24.5 28V30.5ZM28 23C28.2472 23 28.4889 23.0733 28.6945 23.2107C28.9 23.348 29.0602 23.5432 29.1549 23.7716C29.2495 24.0001 29.2742 24.2514 29.226 24.4939C29.1777 24.7363 29.0587 24.9591 28.8839 25.1339C28.7091 25.3087 28.4863 25.4277 28.2439 25.476C28.0014 25.5242 27.7501 25.4995 27.5216 25.4049C27.2932 25.3102 27.098 25.15 26.9607 24.9445C26.8233 24.7389 26.75 24.4972 26.75 24.25C26.7504 23.9186 26.8822 23.6009 27.1165 23.3665C27.3509 23.1322 27.6686 23.0004 28 23ZM30.5 30.5H25.5V28C25.5004 27.6023 25.6586 27.221 25.9398 26.9398C26.221 26.6586 26.6023 26.5004 27 26.5H29C29.3977 26.5004 29.779 26.6586 30.0602 26.9398C30.3414 27.221 30.4996 27.6023 30.5 28V30.5Z"
              fill="currentColor"/>
        <path d="M19.5 11.5H26.5C27.0302 11.4994 27.5386 11.2885 27.9135 10.9135C28.2885 10.5386 28.4994 10.0302 28.5 9.5V4.5C28.4994 3.96975 28.2885 3.4614 27.9135 3.08646C27.5386 2.71151 27.0302 2.50061 26.5 2.5H19.5C18.9698 2.50061 18.4614 2.71151 18.0865 3.08646C17.7115 3.4614 17.5006 3.96975 17.5 4.5V9.5C17.5006 10.0302 17.7115 10.5386 18.0865 10.9135C18.4614 11.2885 18.9698 11.4994 19.5 11.5ZM18.5 4.5C18.5003 4.23486 18.6057 3.98066 18.7932 3.79319C18.9807 3.60571 19.2349 3.50026 19.5 3.5H26.5C26.7651 3.50026 27.0193 3.60571 27.2068 3.79319C27.3943 3.98066 27.4997 4.23486 27.5 4.5V9.5C27.4997 9.76514 27.3943 10.0193 27.2068 10.2068C27.0193 10.3943 26.7651 10.4997 26.5 10.5H19.5C19.2349 10.4997 18.9807 10.3943 18.7932 10.2068C18.6057 10.0193 18.5003 9.76514 18.5 9.5V4.5Z"
              fill="currentColor"/>
        <path d="M20.5 4.5H19.5V5.5H20.5V4.5Z" fill="currentColor"/>
        <path d="M26.5 4.5H21.5V5.5H26.5V4.5Z" fill="currentColor"/>
        <path d="M20.5 6.5H19.5V7.5H20.5V6.5Z" fill="currentColor"/>
        <path d="M26.5 6.5H21.5V7.5H26.5V6.5Z" fill="currentColor"/>
        <path d="M20.5 8.5H19.5V9.5H20.5V8.5Z" fill="currentColor"/>
        <path d="M26.5 8.5H21.5V9.5H26.5V8.5Z" fill="currentColor"/>
        <path d="M12 13.5H30C30.1326 13.5 30.2598 13.4473 30.3536 13.3536C30.4473 13.2598 30.5 13.1326 30.5 13V1C30.5 0.867392 30.4473 0.740215 30.3536 0.646447C30.2598 0.552678 30.1326 0.5 30 0.5H2C1.86739 0.5 1.74021 0.552678 1.64645 0.646447C1.55268 0.740215 1.5 0.867392 1.5 1V13C1.5 13.1326 1.55268 13.2598 1.64645 13.3536C1.74021 13.4473 1.86739 13.5 2 13.5H4V15.5H0.5V16.5H31.5V15.5H12V13.5ZM11 15.5H5V11H11V15.5ZM9 7.5C9.26513 7.50026 9.51934 7.60571 9.70681 7.79319C9.89429 7.98066 9.99973 8.23486 10 8.5V10H6V8.5C6.00026 8.23486 6.10571 7.98066 6.29319 7.79319C6.48066 7.60571 6.73486 7.50026 7 7.5H9ZM7 5.5C7 5.30222 7.05865 5.10888 7.16853 4.94443C7.27841 4.77998 7.43459 4.65181 7.61732 4.57612C7.80004 4.50043 8.00111 4.48063 8.19509 4.51921C8.38907 4.5578 8.56725 4.65304 8.70711 4.79289C8.84696 4.93275 8.9422 5.11093 8.98079 5.30491C9.01937 5.49889 8.99957 5.69996 8.92388 5.88268C8.84819 6.06541 8.72002 6.22159 8.55557 6.33147C8.39112 6.44135 8.19778 6.5 8 6.5C7.73486 6.49974 7.48066 6.39429 7.29319 6.20681C7.10571 6.01934 7.00026 5.76514 7 5.5ZM11.5 10H11V8.5C10.9987 8.08591 10.8686 7.68248 10.6278 7.34558C10.3871 7.00868 10.0475 6.75498 9.65616 6.6196C9.85978 6.31883 9.97765 5.9683 9.99712 5.60561C10.0166 5.24293 9.93694 4.88179 9.7667 4.56095C9.59646 4.24011 9.34206 3.97168 9.03081 3.78449C8.71956 3.59729 8.36321 3.49838 8 3.49838C7.63679 3.49838 7.28044 3.59729 6.96919 3.78449C6.65794 3.97168 6.40354 4.24011 6.2333 4.56095C6.06306 4.88179 5.9834 5.24293 6.00288 5.60561C6.02235 5.9683 6.14022 6.31883 6.34384 6.6196C5.9525 6.75498 5.61294 7.00868 5.37217 7.34558C5.1314 7.68248 5.00134 8.08591 5 8.5V10H4.5C4.36739 10 4.24021 10.0527 4.14645 10.1464C4.05268 10.2402 4 10.3674 4 10.5V12.5H2.5V1.5H29.5V12.5H12V10.5C12 10.3674 11.9473 10.2402 11.8536 10.1464C11.7598 10.0527 11.6326 10 11.5 10Z"
              fill="currentColor"/>
    </svg>

    <svg viewBox="0 0 32 32" id="bag">
        <path d="M17 17.5001H16.4323C16.63 17.1887 16.6969 16.812 16.6184 16.4516C16.54 16.0912 16.3226 15.7763 16.0135 15.5752C15.7043 15.3741 15.3283 15.303 14.967 15.3775C14.6058 15.4519 14.2885 15.6658 14.084 15.9727L14.0028 16.0943C14.0018 16.0958 14.0008 16.0974 13.9998 16.0989L13.9969 16.0944L13.9156 15.9727C13.7098 15.6689 13.393 15.4579 13.0333 15.3853C12.6735 15.3126 12.2997 15.384 11.992 15.5841C11.6844 15.7842 11.4676 16.0971 11.3883 16.4554C11.3089 16.8137 11.3733 17.1888 11.5677 17.5001H11C10.8674 17.5001 10.7402 17.5528 10.6464 17.6466C10.5527 17.7403 10.5 17.8675 10.5 18.0001V23.0001C10.5 23.1327 10.5527 23.2599 10.6464 23.3537C10.7402 23.4474 10.8674 23.5001 11 23.5001H17C17.1326 23.5001 17.2598 23.4474 17.3536 23.3537C17.4473 23.2599 17.5 23.1327 17.5 23.0001V18.0001C17.5 17.8675 17.4473 17.7403 17.3536 17.6466C17.2598 17.5528 17.1326 17.5001 17 17.5001ZM16.5 20.0001H14.5V18.9344L15.2226 19.4161C15.333 19.4888 15.4676 19.5149 15.5971 19.4887C15.7266 19.4624 15.8405 19.386 15.9138 19.276C15.9871 19.1661 16.0139 19.0316 15.9883 18.9019C15.9628 18.7723 15.8869 18.658 15.7774 18.5841L15.6514 18.5001H16.5V20.0001ZM14.8349 16.6491L14.9162 16.5275C14.9752 16.4389 15.067 16.3774 15.1714 16.3565C15.2758 16.3356 15.3842 16.3571 15.4728 16.4161C15.5614 16.4752 15.6229 16.567 15.6438 16.6714C15.6647 16.7757 15.6432 16.8842 15.5842 16.9727L15.2324 17.5001H14.5163C14.5554 17.1956 14.6644 16.9043 14.8349 16.6491ZM12.4162 16.9727C12.387 16.9289 12.3666 16.8797 12.3564 16.828C12.3462 16.7763 12.3463 16.723 12.3566 16.6714C12.3669 16.6197 12.3874 16.5705 12.4167 16.5267C12.446 16.4829 12.4837 16.4453 12.5276 16.4161C12.5714 16.3869 12.6206 16.3666 12.6723 16.3563C12.724 16.3461 12.7773 16.3462 12.8289 16.3565C12.8806 16.3669 12.9298 16.3873 12.9736 16.4166C13.0174 16.446 13.055 16.4836 13.0842 16.5275L13.1654 16.6491C13.336 16.9043 13.4451 17.1956 13.4842 17.5001H12.7676L12.4162 16.9727ZM12.3486 18.5001L12.2226 18.5841C12.1676 18.6204 12.1203 18.6671 12.0834 18.7217C12.0466 18.7763 12.0208 18.8377 12.0077 18.9023C11.9947 18.9668 11.9945 19.0334 12.0072 19.098C12.0199 19.1627 12.0452 19.2242 12.0818 19.279C12.1183 19.3338 12.1653 19.3808 12.2201 19.4174C12.2749 19.454 12.3364 19.4794 12.4011 19.4922C12.4657 19.5049 12.5322 19.5047 12.5968 19.4917C12.6614 19.4786 12.7228 19.453 12.7774 19.4161L13.5 18.9344V20.0001H11.5V18.5001H12.3486ZM11.5 21.0001H13.5V22.5001H11.5V21.0001ZM14.5 22.5001V21.0001H16.5V22.5001H14.5Z"
              fill="currentColor"/>
        <path d="M26.4987 9.47625C26.4925 9.34789 26.4373 9.22682 26.3443 9.13814C26.2513 9.04947 26.1277 9 25.9992 9H24.9992V7C24.9994 5.99441 24.7468 5.0049 24.2646 4.12245C23.7825 3.24 23.0862 2.49291 22.2399 1.94988C21.3935 1.40685 20.4242 1.08529 19.4211 1.01477C18.418 0.944251 17.4132 1.12703 16.4992 1.54631C15.5852 1.12703 14.5805 0.944251 13.5773 1.01477C12.5742 1.08529 11.6049 1.40685 10.7586 1.94988C9.91222 2.49291 9.21595 3.24 8.73378 4.12245C8.25161 5.0049 7.99902 5.99441 7.99922 7V9H5.99922C5.87072 9 5.74715 9.04947 5.65416 9.13814C5.56117 9.22682 5.50588 9.34789 5.49978 9.47625L4.56853 29.0358C4.55646 29.2892 4.59595 29.5425 4.68462 29.7802C4.77328 30.0179 4.90927 30.2352 5.08435 30.4188C5.25943 30.6025 5.46996 30.7487 5.70319 30.8486C5.93642 30.9485 6.18749 31 6.44122 31H26.9992C27.0669 31 27.1338 30.9863 27.196 30.9596C27.2582 30.933 27.3144 30.894 27.3611 30.8451C27.4078 30.7961 27.444 30.7381 27.4677 30.6748C27.4913 30.6114 27.5019 30.5438 27.4987 30.4762L26.4987 9.47625ZM26.4472 29.418L24.8117 28.1096C24.723 28.0386 24.6128 27.9999 24.4992 27.9999C24.3856 27.9999 24.2754 28.0386 24.1867 28.1096L22.5242 29.4393L22.9875 10H25.5225L26.4472 29.418ZM25.5738 30H23.4247L24.4992 29.1403L25.5738 30ZM18.9992 2C20.3248 2.0015 21.5957 2.52877 22.5331 3.46612C23.4704 4.40348 23.9977 5.67438 23.9992 7V9H19.9992V7C19.9992 6.06853 19.7821 5.14988 19.3651 4.31695C18.9482 3.48401 18.3428 2.7597 17.5972 2.2015C18.0525 2.0679 18.5247 2.00005 18.9992 2ZM16.4992 2.67268C17.2588 3.11141 17.8896 3.74219 18.3284 4.50172C18.7672 5.26125 18.9986 6.12282 18.9992 7V9H13.9992V7C13.9999 6.12282 14.2312 5.26125 14.67 4.50172C15.1088 3.74219 15.7396 3.11141 16.4992 2.67268ZM8.99922 7C8.99879 6.22348 9.17933 5.45755 9.52651 4.76297C9.87369 4.06838 10.378 3.46427 10.9993 2.99854C11.6207 2.53282 12.342 2.2183 13.1061 2.07995C13.8702 1.9416 14.656 1.98321 15.4012 2.2015C14.6556 2.75972 14.0502 3.48403 13.6333 4.31696C13.2164 5.1499 12.9992 6.06853 12.9992 7V9H8.99922V7ZM5.80797 29.7288C5.72587 29.6434 5.66215 29.542 5.62075 29.431C5.57936 29.32 5.56116 29.2017 5.56728 29.0834L6.47597 10H7.99922V11.4075C7.84634 11.5139 7.73143 11.6664 7.67121 11.8427C7.61098 12.019 7.60859 12.2099 7.66437 12.3876C7.72015 12.5653 7.8312 12.7206 7.98136 12.8309C8.13151 12.9411 8.31293 13.0006 8.49922 13.0006C8.6855 13.0006 8.86692 12.9411 9.01707 12.8309C9.16723 12.7206 9.27828 12.5653 9.33406 12.3876C9.38985 12.2099 9.38745 12.019 9.32723 11.8427C9.267 11.6664 9.15209 11.5139 8.99922 11.4075V10H18.9992V11.4075C18.8463 11.5139 18.7314 11.6664 18.6712 11.8427C18.611 12.019 18.6086 12.2099 18.6644 12.3876C18.7202 12.5653 18.8312 12.7206 18.9814 12.8309C19.1315 12.9411 19.3129 13.0006 19.4992 13.0006C19.6855 13.0006 19.8669 12.9411 20.0171 12.8309C20.1672 12.7206 20.2783 12.5653 20.3341 12.3876C20.3898 12.2099 20.3875 12.019 20.3272 11.8427C20.267 11.6664 20.1521 11.5139 19.9992 11.4075V10H21.9872L21.511 30H6.44122C6.32274 30.0005 6.20542 29.9766 6.09651 29.93C5.98759 29.8833 5.88939 29.8149 5.80797 29.7288Z"
              fill="currentColor"/>
        <path d="M11.5 28H8.5C8.36739 28 8.24021 28.0527 8.14645 28.1464C8.05268 28.2402 8 28.3674 8 28.5C8 28.6326 8.05268 28.7598 8.14645 28.8536C8.24021 28.9473 8.36739 29 8.5 29H11.5C11.6326 29 11.7598 28.9473 11.8536 28.8536C11.9473 28.7598 12 28.6326 12 28.5C12 28.3674 11.9473 28.2402 11.8536 28.1464C11.7598 28.0527 11.6326 28 11.5 28Z"
              fill="currentColor"/>
        <path d="M14 28H13.5C13.3674 28 13.2402 28.0527 13.1464 28.1464C13.0527 28.2402 13 28.3674 13 28.5C13 28.6326 13.0527 28.7598 13.1464 28.8536C13.2402 28.9473 13.3674 29 13.5 29H14C14.1326 29 14.2598 28.9473 14.3536 28.8536C14.4473 28.7598 14.5 28.6326 14.5 28.5C14.5 28.3674 14.4473 28.2402 14.3536 28.1464C14.2598 28.0527 14.1326 28 14 28Z"
              fill="currentColor"/>
    </svg>

    <svg viewBox="0 0 32 32" id="hotel">
        <path fill-rule="evenodd" clip-rule="evenodd"
              d="M17.5828 4.12963L19.9665 4.68173L18.3626 6.52947L18.5741 8.9671L16.3212 8.01264L14.0682 8.9671L14.2797 6.52947L12.6758 4.68173L15.0595 4.12963L16.3212 2.0332L17.5828 4.12963ZM18.1959 5.25706L17.371 6.2073L17.4798 7.4609L16.3212 6.97005L15.1625 7.4609L15.2713 6.2073L14.4465 5.25706L15.6723 4.97312L16.3212 3.89498L16.97 4.97312L18.1959 5.25706Z"
              fill="currentColor"/>
        <path d="M13.4409 13.0664C13.7061 13.0664 13.9209 13.2813 13.9209 13.5464V15.0882C13.9209 15.3533 13.7061 15.5682 13.4409 15.5682C13.1758 15.5682 12.9609 15.3533 12.9609 15.0882V13.5464C12.9609 13.2813 13.1758 13.0664 13.4409 13.0664Z"
              fill="currentColor"/>
        <path d="M16.6436 13.5464C16.6436 13.2813 16.4287 13.0664 16.1636 13.0664C15.8985 13.0664 15.6836 13.2813 15.6836 13.5464V15.0882C15.6836 15.3533 15.8985 15.5682 16.1636 15.5682C16.4287 15.5682 16.6436 15.3533 16.6436 15.0882V13.5464Z"
              fill="currentColor"/>
        <path d="M18.8823 13.0664C19.1475 13.0664 19.3623 13.2813 19.3623 13.5464V15.0882C19.3623 15.3533 19.1475 15.5682 18.8823 15.5682C18.6173 15.5682 18.4023 15.3533 18.4023 15.0882V13.5464C18.4023 13.2813 18.6173 13.0664 18.8823 13.0664Z"
              fill="currentColor"/>
        <path d="M13.9209 17.7066C13.9209 17.4415 13.7061 17.2266 13.4409 17.2266C13.1758 17.2266 12.9609 17.4415 12.9609 17.7066V19.2484C12.9609 19.5135 13.1758 19.7284 13.4409 19.7284C13.7061 19.7284 13.9209 19.5135 13.9209 19.2484V17.7066Z"
              fill="currentColor"/>
        <path d="M16.1636 17.2266C16.4287 17.2266 16.6436 17.4415 16.6436 17.7066V19.2484C16.6436 19.5135 16.4287 19.7284 16.1636 19.7284C15.8985 19.7284 15.6836 19.5135 15.6836 19.2484V17.7066C15.6836 17.4415 15.8985 17.2266 16.1636 17.2266Z"
              fill="currentColor"/>
        <path d="M19.3623 17.7066C19.3623 17.4415 19.1475 17.2266 18.8823 17.2266C18.6173 17.2266 18.4023 17.4415 18.4023 17.7066V19.2484C18.4023 19.5135 18.6173 19.7284 18.8823 19.7284C19.1475 19.7284 19.3623 19.5135 19.3623 19.2484V17.7066Z"
              fill="currentColor"/>
        <path d="M23.5234 17.7066C23.5234 17.4415 23.7383 17.2266 24.0034 17.2266C24.2686 17.2266 24.4834 17.4415 24.4834 17.7066V19.2484C24.4834 19.5135 24.2686 19.7284 24.0034 19.7284C23.7383 19.7284 23.5234 19.5135 23.5234 19.2484V17.7066Z"
              fill="currentColor"/>
        <path d="M24.0034 21.6484C23.7383 21.6484 23.5234 21.8633 23.5234 22.1284V23.6703C23.5234 23.9353 23.7383 24.1503 24.0034 24.1503C24.2686 24.1503 24.4834 23.9353 24.4834 23.6703V22.1284C24.4834 21.8633 24.2686 21.6484 24.0034 21.6484Z"
              fill="currentColor"/>
        <path d="M8.32375 17.2266C8.58887 17.2266 8.80375 17.4415 8.80375 17.7066V19.2484C8.80375 19.5135 8.58887 19.7284 8.32375 19.7284C8.05866 19.7284 7.84375 19.5135 7.84375 19.2484V17.7066C7.84375 17.4415 8.05866 17.2266 8.32375 17.2266Z"
              fill="currentColor"/>
        <path d="M8.80375 22.1284C8.80375 21.8633 8.58887 21.6484 8.32375 21.6484C8.05866 21.6484 7.84375 21.8633 7.84375 22.1284V23.6703C7.84375 23.9353 8.05866 24.1503 8.32375 24.1503C8.58887 24.1503 8.80375 23.9353 8.80375 23.6703V22.1284Z"
              fill="currentColor"/>
        <path fill-rule="evenodd" clip-rule="evenodd"
              d="M25.6014 28.267C26.3083 28.267 26.8814 27.6939 26.8814 26.987V16.107C26.8814 15.4 26.3083 14.827 25.6014 14.827H22.0814V11.947C22.0814 11.24 21.5084 10.667 20.8014 10.667H11.5214C10.8145 10.667 10.2414 11.24 10.2414 11.947V14.827H6.72141C6.01449 14.827 5.44141 15.4 5.44141 16.107V26.987C5.44141 27.6939 6.01449 28.267 6.72141 28.267H25.6014ZM20.8014 11.627H11.5214C11.3447 11.627 11.2014 11.7703 11.2014 11.947V27.307H13.7614V23.147C13.7614 22.2633 14.4778 21.547 15.3614 21.547H16.6414C17.5251 21.547 18.2414 22.2633 18.2414 23.147V27.307H21.1214V11.947C21.1214 11.7703 20.9781 11.627 20.8014 11.627ZM17.2814 27.307H14.7214V23.147C14.7214 22.7935 15.008 22.507 15.3614 22.507H16.6414C16.9949 22.507 17.2814 22.7935 17.2814 23.147V27.307ZM22.0814 27.307H25.6014C25.7781 27.307 25.9214 27.1637 25.9214 26.987V16.107C25.9214 15.9303 25.7781 15.787 25.6014 15.787H22.0814V27.307ZM10.2414 15.787V27.307H6.72141C6.54467 27.307 6.40141 27.1637 6.40141 26.987V16.107C6.40141 15.9303 6.54467 15.787 6.72141 15.787H10.2414Z"
              fill="currentColor"/>
        <path fill-rule="evenodd" clip-rule="evenodd"
              d="M23.5454 5.58578L22.5916 4.00098L21.6379 5.58578L19.8359 6.00312L21.0485 7.39992L20.8885 9.24264L22.5916 8.5211L24.2948 9.24264L24.1348 7.39992L25.3474 6.00312L23.5454 5.58578ZM23.5767 6.57842L22.9326 6.42923L22.5916 5.86274L22.2507 6.42923L21.6066 6.57842L22.04 7.07771L21.9829 7.73643L22.5916 7.47851L23.2005 7.73643L23.1433 7.07771L23.5767 6.57842Z"
              fill="currentColor"/>
        <path fill-rule="evenodd" clip-rule="evenodd"
              d="M11.1938 5.58578L12.9958 6.00312L11.7833 7.39992L11.9432 9.24264L10.2401 8.5211L8.53698 9.24264L8.69689 7.39992L7.48438 6.00312L9.28636 5.58578L10.2401 4.00098L11.1938 5.58578ZM11.2251 6.57842L10.7917 7.07771L10.8489 7.73643L10.2401 7.47851L9.63129 7.73643L9.68847 7.07771L9.25503 6.57842L9.89916 6.42923L10.2401 5.86274L10.581 6.42923L11.2251 6.57842Z"
              fill="currentColor"/>
        <path fill-rule="evenodd" clip-rule="evenodd"
              d="M6.07759 8.87799L5.27125 7.53809L4.46488 8.87799L2.94141 9.23082L3.96655 10.4117L3.83131 11.9697L5.27125 11.3597L6.71115 11.9697L6.57595 10.4117L7.60107 9.23082L6.07759 8.87799ZM5.83042 9.80615L5.46479 9.72145L5.27125 9.39988L5.07771 9.72145L4.71205 9.80615L4.9581 10.0896L4.92565 10.4635L5.27125 10.3171L5.61682 10.4635L5.58437 10.0896L5.83042 9.80615Z"
              fill="currentColor"/>
        <path fill-rule="evenodd" clip-rule="evenodd"
              d="M27.8432 8.87799L29.3667 9.23082L28.3416 10.4117L28.4768 11.9697L27.0369 11.3597L25.597 11.9697L25.7322 10.4117L24.707 9.23082L26.2305 8.87799L27.0369 7.53809L27.8432 8.87799ZM27.2304 9.72145L27.5961 9.80615L27.35 10.0896L27.3825 10.4635L27.0369 10.3171L26.6913 10.4635L26.7237 10.0896L26.4777 9.80615L26.8434 9.72145L27.0369 9.39988L27.2304 9.72145Z"
              fill="currentColor"/>
    </svg>

    <svg viewBox="0 0 32 32" id="food">
        <path d="M24.6211 21.7959L19.4846 24.6406C19.4133 24.6803 19.3324 24.7012 19.2504 24.7012H17.8143C17.5506 22.5761 15.7736 21.5409 13.8914 21.6762C11.7421 21.7989 10.5673 21.0536 10.1615 20.7283C8.95322 19.7606 7.18159 20.0345 5.22134 21.4575V20.4277C5.22134 19.8929 4.78644 19.458 4.25165 19.458H1.45407C0.919284 19.458 0.484375 19.8929 0.484375 20.4277V30.545C0.484375 31.0798 0.919284 31.5147 1.45407 31.5147H4.25165C4.78644 31.5147 5.22134 31.0798 5.22134 30.545V29.9846H11.4846C11.5064 29.9846 11.5287 29.9831 11.5506 29.9802L19.7164 28.8553C19.9205 28.8272 20.113 28.7579 20.287 28.6488L26.5435 24.7496C27.311 24.1683 27.474 23.0997 26.9154 22.3157C26.3927 21.5836 25.4066 21.3606 24.6211 21.7959ZM1.45359 30.545V20.4277H4.25116C4.25116 24.3559 4.25165 26.9155 4.25165 30.545H1.45359ZM25.9942 23.9511L19.7736 27.826C19.7164 27.8619 19.6514 27.8852 19.584 27.8944L11.4507 29.0149H5.22038V22.6847C6.15371 21.9075 8.23953 20.4321 9.55395 21.4852C10.047 21.8798 11.4662 22.7846 13.9535 22.6439C15.8478 22.6779 16.6342 23.4997 16.8306 24.7012H9.96753C9.69989 24.7012 9.48268 24.9184 9.48268 25.186C9.48268 25.4536 9.69989 25.6709 9.96753 25.6709H19.2504C19.4967 25.6709 19.7406 25.6078 19.9549 25.489L25.0909 22.6444C25.4458 22.4471 25.8904 22.5489 26.1256 22.8786C26.3777 23.2321 26.304 23.714 25.9942 23.9511Z"
              fill="currentColor"/>
        <path d="M30.0866 14.5962H29.3414C29.0936 8.92834 24.5288 4.36349 18.8609 4.11573V3.15379C18.8609 2.88616 18.6437 2.66895 18.376 2.66895C18.1084 2.66895 17.8912 2.88616 17.8912 3.15379V4.11622C12.2233 4.36398 7.65846 8.92882 7.41071 14.5967H6.66501C6.13022 14.5967 5.69531 15.0316 5.69531 15.5664V17.3686C5.69531 17.9034 6.13022 18.3383 6.66501 18.3383H30.0866C30.6214 18.3383 31.0563 17.9034 31.0563 17.3686V15.5664C31.0563 15.0311 30.6214 14.5962 30.0866 14.5962ZM18.3765 5.07331C23.7322 5.07331 28.1186 9.30264 28.3726 14.5962H8.37992C8.63398 9.30264 13.0204 5.07331 18.3765 5.07331ZM6.66549 17.3681V15.5659H30.0871L30.0876 17.3681H6.66549Z"
              fill="currentColor"/>
        <path d="M25.9653 12.2546C25.1639 9.99323 23.3491 8.09068 21.1115 7.16559C20.8633 7.06377 20.5806 7.18111 20.4783 7.42838C20.376 7.67565 20.4938 7.95929 20.7411 8.06159C22.7285 8.88292 24.3396 10.5717 25.0514 12.578C25.1396 12.8277 25.4145 12.9634 25.6701 12.8727C25.9227 12.784 26.055 12.5067 25.9653 12.2546Z"
              fill="currentColor"/>
        <path d="M26.7675 3.52159C26.3723 3.90074 25.9238 4.32983 25.918 4.8845C25.9151 5.18316 26.0387 5.45953 26.286 5.7068C26.4756 5.89638 26.782 5.89638 26.9716 5.7068C27.1612 5.51722 27.1612 5.2108 26.9716 5.02122C26.9202 4.96983 26.8872 4.92038 26.8877 4.89468C26.8892 4.74777 27.2329 4.41856 27.4385 4.22171C28.2225 3.47165 28.1706 2.76328 27.391 2.05831C27.23 1.91286 26.8955 1.61031 26.8911 1.44353C26.8901 1.40038 26.941 1.34268 26.9716 1.31213C27.1612 1.12256 27.1612 0.816133 26.9716 0.626557C26.782 0.436981 26.4756 0.436981 26.286 0.626557C25.9752 0.937345 25.9161 1.25589 25.9219 1.46825C25.9364 2.05056 26.4203 2.48838 26.7408 2.77783C27.1772 3.17395 27.086 3.21662 26.7675 3.52159Z"
              fill="currentColor"/>
        <path d="M30.9019 2.05831C30.7409 1.91286 30.4064 1.61031 30.402 1.44353C30.401 1.40038 30.4519 1.34268 30.4825 1.31213C30.6721 1.12256 30.6721 0.816133 30.4825 0.626557C30.2929 0.436981 29.9865 0.436981 29.7969 0.626557C29.0788 1.34462 29.5011 2.09953 30.2517 2.77783C30.6885 3.17395 30.5969 3.2171 30.2784 3.52207C29.5579 4.21298 29.0337 4.94413 29.7969 5.70728C29.9865 5.89686 30.2929 5.89686 30.4825 5.70728C30.6721 5.51771 30.6721 5.21128 30.4825 5.02171C30.4311 4.97031 30.3981 4.92086 30.3986 4.89516C30.4001 4.74825 30.7438 4.41904 30.9494 4.22219C31.7329 3.47165 31.6815 2.76328 30.9019 2.05831Z"
              fill="currentColor"/>
    </svg>

    <svg viewBox="0 0 32 32" id="bus">
        <path d="M31.06 20.0378C30.9494 16.4003 30.0963 12.9296 28.5256 9.72277C28.0244 8.69902 27.3387 8.18027 26.4875 8.18027H3.05437C1.8875 8.18027 0.9375 9.12965 0.9375 10.2971V19.3796C0.9375 20.5465 1.88687 21.4965 3.05437 21.4965H4.14687C4.33 22.8078 5.45813 23.8196 6.81875 23.8196C8.17937 23.8196 9.3075 22.8071 9.49063 21.4965H22.5106C22.6938 22.8078 23.8219 23.8196 25.1825 23.8196C26.5431 23.8196 27.6713 22.8071 27.8544 21.4965H29.8306C30.2213 21.4965 30.57 21.3272 30.8113 21.0196C31.0588 20.7022 31.07 20.3603 31.06 20.0378ZM28.0694 10.509C28.9281 12.3584 29.5438 14.2953 29.9125 16.3009H27.0475C26.6444 16.3009 26.1275 15.9378 25.9406 15.5234L23.8919 10.9784C23.8212 10.8221 23.8094 10.6765 23.86 10.5984C23.9106 10.5203 24.0312 10.509 24.0987 10.509H28.0694ZM6.81812 23.069C5.74375 23.069 4.87 22.1946 4.87 21.1209C4.87 20.0471 5.74437 19.1728 6.81812 19.1728C7.89187 19.1728 8.76625 20.0465 8.76625 21.1209C8.76625 22.1953 7.8925 23.069 6.81812 23.069ZM25.1819 23.069C24.1075 23.069 23.2337 22.1946 23.2337 21.1209C23.2337 20.0471 24.1075 19.1728 25.1819 19.1728C26.2563 19.1728 27.13 20.0465 27.13 21.1209C27.13 22.1953 26.2556 23.069 25.1819 23.069ZM30.22 20.5559C30.12 20.6834 29.9925 20.7459 29.83 20.7459H27.8538C27.6706 19.4346 26.5425 18.4228 25.1819 18.4228C23.8213 18.4228 22.6931 19.4353 22.51 20.7459H9.49C9.30688 19.4346 8.17875 18.4228 6.81812 18.4228C5.4575 18.4228 4.32937 19.4353 4.14625 20.7459H3.05437C2.30062 20.7459 1.6875 20.1328 1.6875 19.379V10.2965C1.6875 9.54277 2.30062 8.92965 3.05437 8.92965H26.4881C26.9594 8.92965 27.355 9.20215 27.6919 9.7584H24.0987C23.7244 9.7584 23.4075 9.9159 23.23 10.1909C23.0369 10.4896 23.0294 10.8884 23.2081 11.2859L25.2569 15.8309C25.565 16.5146 26.3512 17.0503 27.0475 17.0503H30.0381C30.1881 18.0384 30.2794 19.0421 30.31 20.0596C30.3181 20.3084 30.3062 20.4459 30.22 20.5559ZM20.6044 10.474H4.81375C4.305 10.474 3.89062 10.8884 3.89062 11.3971V13.8915C3.89062 14.4003 4.30437 14.8146 4.81375 14.8146H20.6044C21.1131 14.8146 21.5275 14.4003 21.5275 13.8915V11.3971C21.5269 10.8878 21.1131 10.474 20.6044 10.474ZM13.0837 11.224H16.555V14.0646H13.0837V11.224ZM12.3337 14.0646H8.8625V11.224H12.3344V14.0646H12.3337ZM4.64062 13.8915V11.3971C4.64062 11.3034 4.72 11.224 4.81375 11.224H8.1125V14.0646H4.81375C4.72 14.0646 4.64062 13.9853 4.64062 13.8915ZM20.7769 13.8915C20.7769 13.9853 20.6975 14.0646 20.6038 14.0646H17.305V11.224H20.6038C20.6975 11.224 20.7769 11.3034 20.7769 11.3971V13.8915ZM25.5919 27.6115C25.5919 27.8184 25.4237 27.9865 25.2169 27.9865H7.68813L8.585 28.8834C8.73125 29.0296 8.73125 29.2671 8.585 29.4134C8.51188 29.4865 8.41562 29.5234 8.32 29.5234C8.22437 29.5234 8.12813 29.4865 8.055 29.4134L6.51813 27.8765C6.37188 27.7303 6.37188 27.4928 6.51813 27.3465L8.055 25.809C8.20125 25.6628 8.43875 25.6628 8.58562 25.809C8.73187 25.9553 8.73187 26.1928 8.58562 26.3396L7.68875 27.2365H25.2175C25.4244 27.2365 25.5919 27.404 25.5919 27.6115ZM6.40812 4.38777C6.40812 4.1809 6.57625 4.01277 6.78312 4.01277H24.3119L23.415 3.1159C23.2688 2.96965 23.2688 2.73215 23.415 2.58527C23.5613 2.43902 23.7987 2.43902 23.945 2.58527L25.4825 4.12277C25.5531 4.1934 25.5925 4.2884 25.5925 4.38777C25.5925 4.48715 25.5531 4.58277 25.4825 4.65277L23.945 6.18965C23.8719 6.26277 23.7756 6.29965 23.68 6.29965C23.5837 6.29965 23.4881 6.26277 23.415 6.18965C23.2688 6.0434 23.2688 5.8059 23.415 5.65902L24.3119 4.76215H6.78312C6.57562 4.76277 6.40812 4.59527 6.40812 4.38777Z"
              fill="currentColor"/>
    </svg>

</svg>
