<svg width="24" height="24" viewBox="0 0 24 24" fill="none" xmlns="http://www.w3.org/2000/svg">
<g clip-path="url(#clip0_1_3273)">
<path d="M17.6606 23.3381H6.33845C4.83327 23.3365 3.39022 22.7378 2.32589 21.6735C1.26155 20.6092 0.66285 19.1661 0.661133 17.661V6.3388C0.66285 4.83362 1.26155 3.39059 2.32589 2.32628C3.39022 1.26197 4.83327 0.663301 6.33845 0.661621H17.6606C19.1658 0.663301 20.6089 1.26197 21.6732 2.32628C22.7375 3.39059 23.3362 4.83362 23.338 6.3388V17.661C23.3362 19.1662 22.7375 20.6092 21.6732 21.6735C20.6088 22.7378 19.1658 23.3365 17.6606 23.3381ZM6.33845 1.603C5.08287 1.60442 3.87911 2.10382 2.99127 2.99164C2.10343 3.87947 1.60401 5.08322 1.60257 6.3388V17.661C1.60402 18.9166 2.10344 20.1203 2.99128 21.0081C3.87912 21.8959 5.08287 22.3953 6.33845 22.3968H17.6606C18.9162 22.3953 20.12 21.8959 21.0078 21.0081C21.8957 20.1203 22.3951 18.9165 22.3965 17.6609V6.3388C22.3951 5.08321 21.8957 3.87946 21.0078 2.99163C20.12 2.1038 18.9162 1.60441 17.6606 1.603H6.33845Z" fill="white"/>
<path d="M12.0002 17.7982C10.8534 17.7982 9.73246 17.4582 8.77898 16.8211C7.8255 16.184 7.08235 15.2785 6.64351 14.219C6.20467 13.1596 6.08984 11.9938 6.31355 10.8691C6.53726 9.74437 7.08946 8.71126 7.90032 7.90039C8.71118 7.08952 9.74429 6.5373 10.869 6.31357C11.9937 6.08984 13.1595 6.20465 14.2189 6.64347C15.2784 7.0823 16.1839 7.82543 16.821 8.7789C17.4581 9.73237 17.7982 10.8534 17.7982 12.0001C17.7965 13.5373 17.1851 15.0111 16.0981 16.098C15.0111 17.185 13.5374 17.7965 12.0002 17.7982ZM12.0002 7.14353C11.0396 7.14351 10.1006 7.42834 9.30192 7.96199C8.50322 8.49565 7.88072 9.25416 7.51311 10.1416C7.14551 11.0291 7.04932 12.0056 7.23672 12.9477C7.42411 13.8898 7.88667 14.7552 8.56589 15.4344C9.24512 16.1136 10.1105 16.5762 11.0526 16.7636C11.9947 16.951 12.9713 16.8548 13.8587 16.4872C14.7462 16.1196 15.5047 15.4971 16.0383 14.6984C16.572 13.8997 16.8568 12.9607 16.8568 12.0001C16.8553 10.7125 16.3432 9.47806 15.4327 8.56758C14.5223 7.6571 13.2878 7.14499 12.0002 7.14353Z" fill="white"/>
<path d="M18.0081 7.12631C17.6743 7.1263 17.348 7.02728 17.0704 6.8418C16.7928 6.65632 16.5765 6.39269 16.4488 6.08426C16.321 5.77583 16.2876 5.43645 16.3528 5.10903C16.4179 4.78161 16.5787 4.48086 16.8147 4.24482C17.0508 4.00877 17.3516 3.84802 17.679 3.78291C18.0064 3.71779 18.3458 3.75123 18.6542 3.879C18.9626 4.00676 19.2262 4.22311 19.4117 4.50069C19.5972 4.77827 19.6961 5.10461 19.6961 5.43845C19.6956 5.88596 19.5176 6.315 19.2012 6.63143C18.8847 6.94786 18.4556 7.12584 18.0081 7.12631ZM18.0081 4.69183C17.8605 4.69183 17.7161 4.73562 17.5934 4.81765C17.4706 4.89968 17.3749 5.01628 17.3184 5.15269C17.2619 5.28911 17.2471 5.43921 17.2759 5.58403C17.3047 5.72885 17.3758 5.86188 17.4802 5.96629C17.5846 6.0707 17.7176 6.14181 17.8625 6.17062C18.0073 6.19943 18.1574 6.18465 18.2938 6.12815C18.4302 6.07166 18.5468 5.97597 18.6289 5.85321C18.7109 5.73044 18.7547 5.5861 18.7547 5.43845C18.7545 5.24051 18.6757 5.05075 18.5358 4.91078C18.3958 4.77081 18.2061 4.69207 18.0081 4.69183Z" fill="white"/>
</g>
<defs>
<clipPath id="clip0_1_3273">
<rect width="24" height="24" fill="white"/>
</clipPath>
</defs>
</svg>
